<svg width="3647" height="2718" viewBox="0 0 3647 2718" fill="none" xmlns="http://www.w3.org/2000/svg">
<path d="M537 2438.62H3647V2437.07H537V2438.62Z" fill="#E7E8E5"/>
<path d="M3129.36 2537.19H3335.38V2538.75H3129.36V2537.19Z" fill="#E7E8E5"/>
<path d="M2543.12 2554.07H2597.19V2555.62H2543.12V2554.07Z" fill="#E7E8E5"/>
<path d="M3003.76 2479.43H3123.14V2480.98H3003.76V2479.43" fill="#E7E8E5"/>
<path d="M863.295 2489.88H1131.96V2491.43H863.295V2489.88Z" fill="#E7E8E5"/>
<path d="M1187.34 2489.88H1226.73V2491.43H1187.34V2489.88Z" fill="#E7E8E5"/>
<path d="M1354.75 2516.14H1937.41V2517.7H1354.75V2516.14" fill="#E7E8E5"/>
<path d="M2338.88 1141.11H3195.88V579.859H2338.88V1141.11Z" fill="#E2E2E0"/>
<path d="M2312.73 1141.11H3183.65V579.859H2312.73V1141.11Z" fill="#EDEDEB"/>
<path d="M2338.88 1251.26H3195.88V1141.1H2338.88V1251.26Z" fill="#E2E2E0"/>
<path d="M2269.16 1251.26H3140.09V1141.1H2269.16V1251.26Z" fill="#EDEDEB"/>
<path d="M2349.33 1104.49H3147.05V616.466H2349.33V1104.49Z" fill="#FAFAF9"/>
<path d="M2967.17 1104.5L2865.28 616.469H2706.29L2808.18 1104.5H2967.17Z" fill="white"/>
<path d="M3130.1 1068.06C3131.54 1068.06 3132.71 1066.88 3132.71 1065.44V640.287C3132.71 638.844 3131.54 637.668 3130.1 637.668C3128.66 637.668 3127.48 638.844 3127.48 640.287V1065.44C3127.48 1066.88 3128.66 1068.06 3130.1 1068.06Z" fill="#EDEDEB"/>
<path d="M2774.02 1104.5L2672.14 616.469H2610.15L2712.04 1104.5H2774.02Z" fill="white"/>
<path d="M2349.33 1104.49H2353.99V616.466H2349.33V1104.49Z" fill="#E2E2E0"/>
<path d="M3161.07 671.669H3147.05V630.695H3164.43L3161.07 671.669Z" fill="#EAEAE7"/>
<path d="M3147.05 671.669H3132.71V640.287C3132.71 638.844 3131.54 637.668 3130.1 637.668C3128.66 637.668 3127.48 638.844 3127.48 640.287V671.669H2876.8L2868.25 630.695H3147.05V671.669ZM2717.81 671.669H2683.66L2675.11 630.695H2709.26L2717.81 671.669Z" fill="#EEEEEC"/>
<path d="M2876.8 671.669H2717.81L2709.26 630.695H2868.25L2876.8 671.669Z" fill="#F0F0EE"/>
<path d="M2621.68 671.669H2353.99V630.695H2613.12L2621.68 671.669" fill="#EEEEEC"/>
<path d="M2312.73 671.669H2304.07L2307.44 630.695H2312.73V671.669Z" fill="#F0F0EE"/>
<path d="M2312.73 671.669H2349.33V630.699H2312.73V671.669Z" fill="#EAEAE7"/>
<path d="M3132.71 671.669H3127.48V640.287C3127.48 638.844 3128.66 637.668 3130.1 637.668C3131.54 637.668 3132.71 638.844 3132.71 640.287V671.669Z" fill="#EAEAE7"/>
<path d="M2683.66 671.669H2621.68L2613.12 630.695H2675.11L2683.66 671.669Z" fill="#F0F0EE"/>
<path d="M2349.33 671.669H2353.99V630.699H2349.33V671.669Z" fill="#E5E5E3"/>
<path d="M3161.07 738.863H3147.05V697.889H3164.43L3161.07 738.863Z" fill="#EAEAE7"/>
<path d="M3147.05 738.863H3132.71V697.889H3147.05V738.863ZM3127.48 738.863H2890.83L2882.28 697.889H3127.48V738.863ZM2731.85 738.863H2697.69L2689.13 697.889H2723.29L2731.85 738.863Z" fill="#EEEEEC"/>
<path d="M2890.83 738.863H2731.84L2723.29 697.889H2882.28L2890.83 738.863Z" fill="#F0F0EE"/>
<path d="M2635.7 738.863H2353.99V697.889H2627.15L2635.7 738.863Z" fill="#EEEEEC"/>
<path d="M2312.73 738.863H2304.07L2307.44 697.889H2312.73V738.863Z" fill="#F0F0EE"/>
<path d="M2312.73 738.863H2349.33V697.893H2312.73V738.863Z" fill="#EAEAE7"/>
<path d="M3127.48 738.863H3132.71V697.893H3127.48V738.863Z" fill="#EAEAE7"/>
<path d="M2697.69 738.863H2635.7L2627.15 697.889H2689.13L2697.69 738.863" fill="#F0F0EE"/>
<path d="M2349.33 738.863H2353.99V697.893H2349.33V738.863Z" fill="#E5E5E3"/>
<path d="M3161.07 806.056H3147.05V765.088H3164.43L3161.07 806.056Z" fill="#EAEAE7"/>
<path d="M3147.05 806.056H3132.71V765.088H3147.05V806.056ZM3127.48 806.056H2904.86L2896.31 765.088H3127.48V806.056ZM2745.87 806.056H2711.72L2703.16 765.088H2737.32L2745.87 806.056Z" fill="#EEEEEC"/>
<path d="M2904.86 806.056H2745.87L2737.32 765.088H2896.31L2904.86 806.056Z" fill="#F0F0EE"/>
<path d="M2649.73 806.056H2353.99V765.088H2641.18L2649.73 806.056Z" fill="#EEEEEC"/>
<path d="M2312.73 806.056H2304.07L2307.44 765.088H2312.73V806.056Z" fill="#F0F0EE"/>
<path d="M2312.73 806.056H2349.33V765.088H2312.73V806.056Z" fill="#EAEAE7"/>
<path d="M3127.48 806.056H3132.71V765.088H3127.48V806.056Z" fill="#EAEAE7"/>
<path d="M2711.72 806.056H2649.73L2641.18 765.088H2703.16L2711.72 806.056Z" fill="#F0F0EE"/>
<path d="M2349.33 806.056H2353.99V765.088H2349.33V806.056Z" fill="#E5E5E3"/>
<path d="M3161.07 873.248H3147.05V832.28H3164.43L3161.07 873.248Z" fill="#EAEAE7"/>
<path d="M3147.05 873.248H3132.71V832.28H3147.05V873.248ZM3127.48 873.248H2918.89L2910.33 832.28H3127.48V873.248ZM2759.9 873.248H2725.74L2717.19 832.28H2751.34L2759.9 873.248Z" fill="#EEEEEC"/>
<path d="M2918.89 873.248H2759.9L2751.34 832.28H2910.33L2918.89 873.248Z" fill="#F0F0EE"/>
<path d="M2663.76 873.248H2353.99V832.28H2655.21L2663.76 873.248" fill="#EEEEEC"/>
<path d="M2312.73 873.248H2304.07L2307.44 832.28H2312.73V873.248Z" fill="#F0F0EE"/>
<path d="M2312.73 873.248H2349.33V832.278H2312.73V873.248Z" fill="#EAEAE7"/>
<path d="M3127.48 873.248H3132.71V832.278H3127.48V873.248Z" fill="#EAEAE7"/>
<path d="M2725.74 873.248H2663.76L2655.21 832.28H2717.19L2725.74 873.248Z" fill="#F0F0EE"/>
<path d="M2349.33 873.248H2353.99V832.278H2349.33V873.248Z" fill="#E5E5E3"/>
<path d="M2312.73 940.435H2304.07L2307.44 899.473H2312.73V940.435Z" fill="#F0F0EE"/>
<path d="M3161.07 940.435H3147.05V899.473H3164.43L3161.07 940.435ZM2349.33 940.435H2312.73V899.473H2349.33V940.435Z" fill="#EAEAE7"/>
<path d="M3147.05 940.435H3132.71V899.473H3147.05V940.435ZM3127.48 940.435H2932.92L2924.36 899.473H3127.48V940.435ZM2773.93 940.435H2739.77L2731.22 899.473H2765.37L2773.93 940.435ZM2677.79 940.435H2443.6C2449.75 936.379 2455.96 932.41 2462.11 928.529L2451.07 904.562C2442.58 907.485 2434.78 910.689 2426.78 914.147C2418.82 917.544 2410.95 921.232 2403.24 925.325C2394.42 930.009 2385.61 934.874 2376.96 940.435H2353.99V899.473H2669.23L2677.79 940.435" fill="#EEEEEC"/>
<path d="M2932.92 940.435H2915.43C2909.74 926.42 2903.47 912.829 2896.61 899.473H2924.36L2932.92 940.435ZM2876.58 940.435H2773.93L2765.37 899.473H2865.03C2869.03 913.071 2872.98 926.775 2876.58 940.435" fill="#F0F0EE"/>
<path d="M3127.48 940.435H3132.71V899.468H3127.48V940.435Z" fill="#EAEAE7"/>
<path d="M2739.77 940.435H2677.79L2669.24 899.473H2731.22L2739.77 940.435Z" fill="#F0F0EE"/>
<path d="M2349.33 940.435H2353.99V899.468H2349.33V940.435Z" fill="#E5E5E3"/>
<path d="M2312.73 1000.27H2304.67L2307.44 966.667H2312.73V1000.27" fill="#F0F0EE"/>
<path d="M3161.07 1007.63H3147.05V966.667H3164.43L3161.07 1007.63ZM2325.74 1000.27H2312.73V966.667H2344.59C2341.89 969.572 2339.26 972.732 2336.74 976.252C2333.48 980.799 2330.36 986.043 2327.99 992.469C2327.08 994.864 2326.31 997.483 2325.74 1000.27Z" fill="#EAEAE7"/>
<path d="M3147.05 1007.63H3132.71V966.667H3147.05V1007.63ZM3127.48 1007.63H2946.94L2938.39 966.667H3127.48V1007.63ZM2787.96 1007.63H2753.8L2745.25 966.667H2779.4L2787.96 1007.63ZM2691.82 1007.63H2685.31C2686.27 1001.69 2687.31 996.002 2688.3 990.783L2691.82 1007.63ZM2657.61 1007.63H2597.21C2588.81 1002.95 2579.27 1000.27 2569.33 1000.27H2564.22H2374.47C2377.25 995.641 2381.45 990.46 2386.22 985.502C2392.58 979.014 2399.65 972.738 2407.18 966.667H2683.27L2686.63 982.759L2657.61 1007.63" fill="#EEEEEC"/>
<path d="M2946.94 1007.63H2935.07C2933.23 992.512 2929.38 979.555 2925.23 966.667H2938.39L2946.94 1007.63V1007.63ZM2889.54 1007.63H2787.95L2779.4 966.667H2882.97C2883.73 970.15 2884.46 973.627 2885.15 977.092C2887.2 987.493 2888.97 998.167 2889.54 1007.63" fill="#F0F0EE"/>
<path d="M3127.48 1007.63H3132.71V966.664H3127.48V1007.63Z" fill="#EAEAE7"/>
<path d="M2753.8 1007.63H2691.82L2688.3 990.783C2689.08 986.672 2689.83 982.858 2690.51 979.425L2686.63 982.759L2683.27 966.667H2745.25L2753.8 1007.63" fill="#F0F0EE"/>
<path d="M3072.82 2064.33H2893.13V2028.9H3072.82V2064.33Z" fill="#E2E2E0"/>
<path d="M2554.2 2437.07H2587.37V1621.79H2554.2V2437.07Z" fill="#E2E2E0"/>
<path d="M2439.3 2064.33H2893.13V2028.9H2439.3V2064.33Z" fill="#F3F2F1"/>
<path d="M3072.82 2258.2H2893.13V2222.77H3072.82V2258.2Z" fill="#E2E2E0"/>
<path d="M2439.3 2258.2H2893.13V2222.77H2439.3V2258.2Z" fill="#F3F2F1"/>
<path d="M3072.82 1676.59H2893.13V1641.16H3072.82V1676.59Z" fill="#E2E2E0"/>
<path d="M2439.3 1676.59H2893.13V1641.16H2439.3V1676.59Z" fill="#F3F2F1"/>
<path d="M3072.82 1870.46H2893.13V1835.03H3072.82V1870.46Z" fill="#E2E2E0"/>
<path d="M2439.3 1870.46H2893.13V1835.03H2439.3V1870.46Z" fill="#F3F2F1"/>
<path d="M3008.03 2437.07H3041.2V1621.79H3008.03V2437.07Z" fill="#E2E2E0"/>
<path d="M2859.96 2437.07H2893.13V1621.79H2859.96V2437.07Z" fill="#F3F2F1"/>
<path d="M2439.3 2437.07H2472.47V1621.79H2439.3V2437.07Z" fill="#F3F2F1"/>
<path d="M943.625 2437.07H1283.1V1778.37H943.625V2437.07Z" fill="#E2E2E0"/>
<path d="M1034.27 2437.07H943.625V2346.14H1129.32L1034.27 2437.07Z" fill="#FAFAF9"/>
<path d="M1869.22 2437.07H2208.69V1778.37H1869.22V2437.07Z" fill="#E2E2E0"/>
<path d="M943.625 2405.77H1948.34V1778.37H943.625V2405.77Z" fill="#FAFAF9"/>
<path d="M1857.69 2437.07H1948.34V2346.14H1762.64L1857.69 2437.07" fill="#FAFAF9"/>
<path d="M1013.95 2169.17H1878.01V2012.16H1013.95V2169.17Z" fill="#EDEDEB"/>
<path d="M1013.95 2359.74H1878.01V2202.73H1013.95V2359.74Z" fill="#EDEDEB"/>
<path d="M1178.18 2028.95H1713.77C1729.5 2028.95 1742.24 2016.21 1742.24 2000.49V1998.57H1149.72V2000.49C1149.72 2016.21 1162.46 2028.95 1178.18 2028.95Z" fill="#FAFAF9"/>
<path d="M1013.95 1978.6H1878.01V1821.59H1013.95V1978.6Z" fill="#EDEDEB"/>
<path d="M1178.18 1838.38H1713.77C1729.5 1838.38 1742.24 1825.64 1742.24 1809.92V1808H1149.72V1809.92C1149.72 1825.64 1162.46 1838.38 1178.18 1838.38Z" fill="#FAFAF9"/>
<path d="M1178.18 2219.52H1713.77C1729.5 2219.52 1742.24 2206.77 1742.24 2191.05V2189.13H1149.72V2191.05C1149.72 2206.77 1162.46 2219.52 1178.18 2219.52Z" fill="#FAFAF9"/>
<path d="M997.703 1141.11H1854.7V579.859H997.703V1141.11Z" fill="#E2E2E0"/>
<path d="M971.556 1141.11H1842.49V579.859H971.556V1141.11Z" fill="#EDEDEB"/>
<path d="M997.703 1251.26H1854.7V1141.1H997.703V1251.26Z" fill="#E2E2E0"/>
<path d="M927.992 1251.26H1798.92V1141.1H927.992V1251.26Z" fill="#EDEDEB"/>
<path d="M1008.16 1104.49H1805.87V616.466H1008.16V1104.49Z" fill="#FAFAF9"/>
<path d="M1626 1104.5L1524.11 616.469H1365.12L1467.01 1104.5H1626" fill="white"/>
<path d="M1788.92 1068.06C1790.37 1068.06 1791.54 1066.88 1791.54 1065.44V640.287C1791.54 638.844 1790.37 637.668 1788.92 637.668C1787.48 637.668 1786.31 638.844 1786.31 640.287V1065.44C1786.31 1066.88 1787.48 1068.06 1788.92 1068.06Z" fill="#EDEDEB"/>
<path d="M1432.85 1104.5L1330.96 616.469H1268.98L1370.87 1104.5H1432.85Z" fill="white"/>
<path d="M1008.16 1104.49H1012.81V616.466H1008.16V1104.49Z" fill="#E2E2E0"/>
<path d="M964.798 671.669H962.898L966.268 630.695H971.555V653.81H966.268L964.798 671.669Z" fill="#F0F0EE"/>
<path d="M1821.36 653.81H1805.87V630.695H1823.27L1821.36 653.81ZM1008.16 653.81H971.556V630.695H1008.16V653.81Z" fill="#EAEAE7"/>
<path d="M1805.87 653.81H1791.54V640.287C1791.54 638.844 1790.37 637.668 1788.92 637.668C1787.48 637.668 1786.31 638.844 1786.31 640.287V653.81H1531.9L1527.08 630.695H1805.87V653.81ZM1372.91 653.81H1338.76L1333.94 630.695H1368.09L1372.91 653.81V653.81ZM1276.78 653.81H1012.81V630.695H1271.95L1276.78 653.81" fill="#EEEEEC"/>
<path d="M1531.9 653.81H1372.91L1368.09 630.695H1527.08L1531.9 653.81Z" fill="#F0F0EE"/>
<path d="M1791.54 653.81H1786.31V640.287C1786.31 638.844 1787.48 637.668 1788.92 637.668C1790.37 637.668 1791.54 638.844 1791.54 640.287V653.81Z" fill="#EAEAE7"/>
<path d="M1338.76 653.81H1276.78L1271.95 630.695H1333.94L1338.76 653.81Z" fill="#F0F0EE"/>
<path d="M1008.16 653.81H1012.81V630.697H1008.16V653.81Z" fill="#E5E5E3"/>
<path d="M964.798 694.778H962.898L964.798 671.669H971.555V676.919H966.268L964.798 694.778Z" fill="#F0F0EE"/>
<path d="M1821.36 676.919H1805.87V671.669H1819.89L1821.36 653.81H1823.27L1821.36 676.919ZM1008.16 676.919H971.556V671.669H1008.16V676.919Z" fill="#EAEAE7"/>
<path d="M1805.87 676.919H1791.54V671.669H1805.87V676.919ZM1786.31 676.919H1536.73L1535.63 671.669H1786.31V676.919ZM1377.74 676.919H1343.59L1342.49 671.669H1376.64L1377.74 676.919ZM1281.6 676.919H1012.81V671.669H1280.51L1281.6 676.919" fill="#EEEEEC"/>
<path d="M1536.73 676.919H1377.74L1376.64 671.669H1535.63L1536.73 676.919Z" fill="#F0F0EE"/>
<path d="M1786.31 676.919H1791.54V671.666H1786.31V676.919Z" fill="#EAEAE7"/>
<path d="M1343.58 676.919H1281.6L1280.51 671.669H1342.49L1343.58 676.919Z" fill="#F0F0EE"/>
<path d="M1008.16 676.919H1012.81V671.666H1008.16V676.919Z" fill="#E5E5E3"/>
<path d="M971.555 671.669H964.797L966.268 653.81H971.555V671.669Z" fill="#EBEBE9"/>
<path d="M1819.89 671.669H1805.87V653.81H1821.36L1819.89 671.669ZM1008.16 671.669H971.556V653.81H1008.16V671.669Z" fill="#E8E9E6"/>
<path d="M1805.87 671.669H1791.54V653.81H1805.87V671.669ZM1786.31 671.669H1535.63L1531.9 653.81H1786.31V671.669ZM1376.64 671.669H1342.49L1338.76 653.81H1372.91L1376.64 671.669V671.669ZM1280.51 671.669H1012.81V653.81H1276.78L1280.51 671.669" fill="#EAEAE7"/>
<path d="M1535.63 671.669H1376.64L1372.91 653.81H1531.9L1535.63 671.669Z" fill="#EBEBE8"/>
<path d="M1786.31 671.669H1791.54V653.812H1786.31V671.669Z" fill="#E8E9E6"/>
<path d="M1342.49 671.669H1280.51L1276.78 653.81H1338.76L1342.49 671.669Z" fill="#EBEBE8"/>
<path d="M1008.16 671.669H1012.81V653.812H1008.16V671.669Z" fill="#E6E6E4"/>
<path d="M964.798 717.893H962.898L964.798 694.777H971.555V700.034H966.268L964.798 717.893Z" fill="#F0F0EE"/>
<path d="M1821.36 700.034H1805.87V694.777H1819.89L1821.36 676.919H1823.27L1821.36 700.034ZM1008.16 700.034H971.556V694.777H1008.16V700.034Z" fill="#EAEAE7"/>
<path d="M1805.87 700.034H1791.54V694.777H1805.87V700.034ZM1786.31 700.034H1541.56L1540.45 694.777H1786.31V700.034ZM1382.57 700.034H1348.41L1347.31 694.777H1381.47L1382.57 700.034ZM1286.43 700.034H1012.81V694.777H1285.33L1286.43 700.034Z" fill="#EEEEEC"/>
<path d="M1541.56 700.034H1382.57L1381.46 694.777H1540.45L1541.56 700.034Z" fill="#F0F0EE"/>
<path d="M1786.31 700.034H1791.54V694.778H1786.31V700.034Z" fill="#EAEAE7"/>
<path d="M1348.41 700.034H1286.43L1285.33 694.777H1347.31L1348.41 700.034Z" fill="#F0F0EE"/>
<path d="M1008.16 700.034H1012.81V694.778H1008.16V700.034Z" fill="#E5E5E3"/>
<path d="M971.555 694.778H964.797L966.268 676.919H971.555V694.778Z" fill="#EBEBE9"/>
<path d="M1819.89 694.778H1805.87V676.919H1821.36L1819.89 694.778ZM1008.16 694.778H971.556V676.919H1008.16V694.778Z" fill="#E8E9E6"/>
<path d="M1805.87 694.778H1791.54V676.919H1805.87V694.778ZM1786.31 694.778H1540.45L1536.73 676.919H1786.31V694.778ZM1381.47 694.778H1347.31L1343.59 676.919H1377.74L1381.47 694.778ZM1285.33 694.778H1012.81V676.919H1281.6L1285.33 694.778Z" fill="#EAEAE7"/>
<path d="M1540.45 694.778H1381.46L1377.74 676.919H1536.73L1540.45 694.778" fill="#EBEBE8"/>
<path d="M1786.31 694.778H1791.54V676.921H1786.31V694.778Z" fill="#E8E9E6"/>
<path d="M1347.31 694.778H1285.33L1281.6 676.919H1343.58L1347.31 694.778Z" fill="#EBEBE8"/>
<path d="M1008.16 694.778H1012.81V676.921H1008.16V694.778Z" fill="#E6E6E4"/>
<path d="M964.798 741.001H962.898L964.798 717.893H971.555V723.143H966.268L964.798 741.001Z" fill="#F0F0EE"/>
<path d="M1821.36 723.144H1805.87V717.894H1819.89L1821.36 700.035H1823.27L1821.36 723.144ZM1008.16 723.144H971.556V717.894H1008.16V723.144Z" fill="#EAEAE7"/>
<path d="M1805.87 723.144H1791.54V717.894H1805.87V723.144ZM1786.31 723.144H1546.38L1545.28 717.894H1786.31V723.144ZM1387.39 723.144H1353.23L1352.14 717.894H1386.29L1387.39 723.144ZM1291.25 723.144H1012.81V717.894H1290.16L1291.25 723.144" fill="#EEEEEC"/>
<path d="M1546.38 723.144H1387.39L1386.29 717.894H1545.28L1546.38 723.144" fill="#F0F0EE"/>
<path d="M1786.31 723.144H1791.54V717.89H1786.31V723.144Z" fill="#EAEAE7"/>
<path d="M1353.23 723.144H1291.25L1290.16 717.894H1352.14L1353.23 723.144Z" fill="#F0F0EE"/>
<path d="M1008.16 723.144H1012.81V717.89H1008.16V723.144Z" fill="#E5E5E3"/>
<path d="M971.555 717.893H964.797L966.268 700.034H971.555V717.893Z" fill="#EBEBE9"/>
<path d="M1819.89 717.893H1805.87V700.034H1821.36L1819.89 717.893ZM1008.16 717.893H971.556V700.034H1008.16V717.893Z" fill="#E8E9E6"/>
<path d="M1805.87 717.893H1791.54V700.034H1805.87V717.893ZM1786.31 717.893H1545.28L1541.56 700.034H1786.31V717.893ZM1386.29 717.893H1352.14L1348.41 700.034H1382.57L1386.29 717.893ZM1290.16 717.893H1012.81V700.034H1286.43L1290.16 717.893" fill="#EAEAE7"/>
<path d="M1545.28 717.893H1386.29L1382.57 700.034H1541.55L1545.28 717.893Z" fill="#EBEBE8"/>
<path d="M1786.31 717.893H1791.54V700.036H1786.31V717.893Z" fill="#E8E9E6"/>
<path d="M1352.14 717.893H1290.15L1286.43 700.034H1348.41L1352.14 717.893Z" fill="#EBEBE8"/>
<path d="M1008.16 717.893H1012.81V700.036H1008.16V717.893Z" fill="#E6E6E4"/>
<path d="M964.798 764.11H962.898L964.798 741.002H971.555V746.252H966.268L964.798 764.11Z" fill="#F0F0EE"/>
<path d="M1821.36 746.252H1805.87V741.002H1819.89L1821.36 723.144H1823.27L1821.36 746.252ZM1008.16 746.252H971.556V741.002H1008.16V746.252Z" fill="#EAEAE7"/>
<path d="M1805.87 746.252H1791.54V741.002H1805.87V746.252ZM1786.31 746.252H1551.2L1550.11 741.002H1786.31V746.252ZM1392.21 746.252H1358.06L1356.96 741.002H1391.12L1392.21 746.252ZM1296.08 746.252H1012.81V741.002H1294.98L1296.08 746.252" fill="#EEEEEC"/>
<path d="M1551.2 746.252H1392.21L1391.12 741.002H1550.11L1551.2 746.252Z" fill="#F0F0EE"/>
<path d="M1786.31 746.252H1791.54V740.999H1786.31V746.252Z" fill="#EAEAE7"/>
<path d="M1358.06 746.252H1296.08L1294.98 741.002H1356.96L1358.06 746.252Z" fill="#F0F0EE"/>
<path d="M1008.16 746.252H1012.81V740.999H1008.16V746.252Z" fill="#E5E5E3"/>
<path d="M971.555 741.001H964.797L966.268 723.143H971.555V741.001Z" fill="#EBEBE9"/>
<path d="M1819.89 741.001H1805.87V723.143H1821.36L1819.89 741.001ZM1008.16 741.001H971.556V723.143H1008.16V741.001Z" fill="#E8E9E6"/>
<path d="M1805.87 741.001H1791.54V723.143H1805.87V741.001ZM1786.31 741.001H1550.11L1546.38 723.143H1786.31V741.001ZM1391.12 741.001H1356.96L1353.23 723.143H1387.39L1391.12 741.001ZM1294.98 741.001H1012.81V723.143H1291.25L1294.98 741.001Z" fill="#EAEAE7"/>
<path d="M1550.11 741.001H1391.12L1387.39 723.143H1546.38L1550.11 741.001" fill="#EBEBE8"/>
<path d="M1786.31 741.001H1791.54V723.144H1786.31V741.001Z" fill="#E8E9E6"/>
<path d="M1356.96 741.001H1294.98L1291.25 723.143H1353.23L1356.96 741.001Z" fill="#EBEBE8"/>
<path d="M1008.16 741.001H1012.81V723.144H1008.16V741.001Z" fill="#E6E6E4"/>
<path d="M971.555 787.225H962.898L964.798 764.11H971.555V787.225Z" fill="#F0F0EE"/>
<path d="M1819.89 787.225H1805.87V764.11H1819.89L1821.36 746.251H1823.27L1819.89 787.225ZM1008.16 787.225H971.556V764.11H1008.16V787.225Z" fill="#EAEAE7"/>
<path d="M1805.87 787.225H1791.54V764.11H1805.87V787.225ZM1786.31 787.225H1559.76L1554.93 764.11H1786.31V787.225ZM1400.77 787.225H1366.61L1361.79 764.11H1395.95L1400.77 787.225ZM1304.63 787.225H1012.81V764.11H1299.8L1304.63 787.225" fill="#EEEEEC"/>
<path d="M1559.76 787.225H1400.77L1395.95 764.11H1554.93L1559.76 787.225" fill="#F0F0EE"/>
<path d="M1786.31 787.225H1791.54V764.11H1786.31V787.225Z" fill="#EAEAE7"/>
<path d="M1366.61 787.225H1304.63L1299.8 764.11H1361.79L1366.61 787.225Z" fill="#F0F0EE"/>
<path d="M1008.16 787.225H1012.81V764.11H1008.16V787.225Z" fill="#E5E5E3"/>
<path d="M971.555 764.11H964.797L966.268 746.252H971.555V764.11Z" fill="#EBEBE9"/>
<path d="M1819.89 764.11H1805.87V746.252H1821.36L1819.89 764.11ZM1008.16 764.11H971.556V746.252H1008.16V764.11Z" fill="#E8E9E6"/>
<path d="M1805.87 764.11H1791.54V746.252H1805.87V764.11ZM1786.31 764.11H1554.93L1551.2 746.252H1786.31V764.11ZM1395.95 764.11H1361.79L1358.06 746.252H1392.21L1395.95 764.11ZM1299.8 764.11H1012.81V746.252H1296.08L1299.8 764.11" fill="#EAEAE7"/>
<path d="M1554.93 764.11H1395.94L1392.21 746.252H1551.2L1554.93 764.11" fill="#EBEBE8"/>
<path d="M1786.31 764.11H1791.54V746.253H1786.31V764.11Z" fill="#E8E9E6"/>
<path d="M1361.79 764.11H1299.8L1296.08 746.252H1358.06L1361.79 764.11Z" fill="#EBEBE8"/>
<path d="M1008.16 764.11H1012.81V746.253H1008.16V764.11Z" fill="#E6E6E4"/>
<path d="M1134.2 1758.25H1163.83V1427.99H1134.2V1758.25" fill="#F3F2F1"/>
<path d="M1138.02 1758.02H1146.39V1427.76H1138.02V1758.02Z" fill="#FAFAF9"/>
<path d="M1149.89 1758.02H1153.17V1427.76H1149.89V1758.02Z" fill="#FAFAF9"/>
<path d="M1039.35 1778.37H1258.69C1258.69 1763.12 1246.32 1750.74 1231.05 1750.74H1066.98C1051.72 1750.74 1039.35 1763.12 1039.35 1778.37" fill="#EDEDEB"/>
<path d="M1095.77 1633.02C1100.46 1633.02 1104.3 1629.18 1104.3 1624.49V1407.96C1104.3 1403.27 1100.46 1399.44 1095.77 1399.44C1091.09 1399.44 1087.25 1403.27 1087.25 1407.96V1624.49C1087.25 1629.18 1091.09 1633.02 1095.77 1633.02" fill="#EDEDEB"/>
<path d="M1016.4 1506.49H1281.63L1251.12 1321.13H1046.91L1016.4 1506.49" fill="#DADBD8"/>
<path d="M3297.99 2647.56C3297.99 2686.46 2758.05 2718 2092 2718C1425.95 2718 886.009 2686.46 886.009 2647.56C886.009 2608.66 1425.95 2577.13 2092 2577.13C2758.05 2577.13 3297.99 2608.66 3297.99 2647.56Z" fill="#F3F2F1"/>
<path d="M1186.67 1432.31L1178.41 1317.6L1184.61 1317.15L1192.87 1431.87L1186.67 1432.31" fill="#406FBF"/>
<path d="M1194.04 1534.7L1190.93 1491.55L1197.13 1491.1L1200.24 1534.26L1194.04 1534.7Z" fill="#406FBF"/>
<path d="M2637.56 2018.82H1305.5C1275.37 2018.82 1248.95 1994.17 1246.78 1964.04L1181.33 1055.05C1179.16 1024.92 1202.04 1000.27 1232.16 1000.27H2564.22C2594.35 1000.27 2620.77 1024.92 2622.94 1055.05L2688.4 1964.04C2690.56 1994.17 2667.69 2018.82 2637.56 2018.82" fill="#406FBF"/>
<path d="M2642.67 2018.82H1310.61C1280.48 2018.82 1254.05 1994.17 1251.88 1964.04L1186.44 1055.05C1184.27 1024.92 1207.14 1000.27 1237.27 1000.27H2569.33C2599.46 1000.27 2625.88 1024.92 2628.05 1055.05L2693.5 1964.04C2695.67 1994.17 2672.8 2018.82 2642.67 2018.82" fill="#406FBF"/>
<path d="M2629.81 2018.82H2586.86C2581.56 1995.3 2577.72 1976.2 2576.02 1963.91C2574.47 1952.66 2573.75 1941.08 2573.75 1929.21C2573.75 1928.84 2573.75 1928.47 2573.75 1928.1H2607.35C2610.8 1928.1 2613.97 1927.22 2616.68 1925.68C2617.34 1931.29 2618.01 1936.84 2618.69 1942.3C2618.7 1942.28 2618.7 1942.26 2618.7 1942.23C2620.56 1956.98 2622.53 1971.18 2624.63 1984.64C2626.27 1995.19 2628 2006.63 2629.81 2018.82V2018.82ZM2434.21 2018.82H1735.55H1310.61C1280.48 2018.82 1254.05 1994.17 1251.88 1964.04L1186.44 1055.05C1186.34 1053.7 1186.29 1052.36 1186.29 1051.03C1186.34 1022.76 1208.49 1000.27 1237.27 1000.27H2325.74C2324.81 1004.83 2324.42 1009.84 2324.93 1014.99C2325.39 1019.35 2326.51 1023.67 2328.07 1027.66H1239.24C1237.73 1027.66 1236.25 1027.72 1234.78 1027.84C1200.72 1030.64 1207.68 1082.44 1242.05 1082.44H2383.27C2406.58 1098.42 2430.52 1111.47 2454.78 1123.88C2459.8 1126.45 2464.83 1128.97 2469.86 1131.44L2468.6 1140.86H1276.17C1265.21 1140.86 1256.95 1149.75 1257.74 1160.71L1311.57 1908.24C1312.36 1919.2 1321.89 1928.1 1332.86 1928.1H2416.52C2417.43 1945.97 2419.55 1962.74 2423.08 1978.03C2426.04 1990.8 2429.8 2004.47 2434.21 2018.82V2018.82ZM2560.1 1098.13C2551.07 1092.55 2538.88 1087.17 2526.16 1082.44H2576.38C2580.03 1082.44 2583.3 1081.86 2586.17 1080.8C2584.19 1083.85 2581.89 1089.9 2580.95 1095.33C2573.88 1096.17 2566.84 1097.13 2560.1 1098.13ZM2592.29 1077.46C2609.31 1064.41 2603.65 1030.11 2575.79 1027.84C2574.31 1027.72 2572.81 1027.66 2571.3 1027.66H2392.73C2387.49 1023.84 2382.63 1019.88 2378.4 1015.93C2377.23 1014.79 2375.91 1013.65 2374.99 1012.54L2372.5 1009.88C2371.96 1009.33 2371.88 1009.26 2371.77 1009.26C2371.73 1009.26 2371.69 1009.27 2371.63 1009.27C2371.61 1009.28 2371.6 1009.29 2371.58 1009.29C2371.13 1009.29 2371.2 1005.71 2374.05 1001C2374.18 1000.75 2374.33 1000.51 2374.48 1000.27H2569.33C2598.31 1000.27 2623.86 1023.07 2627.7 1051.62C2628 1054.68 2628.1 1057.7 2627.94 1060.63C2613.49 1064.69 2602.29 1068.78 2600.32 1071.07C2599.7 1071.78 2599.19 1073.68 2598.86 1076.16C2596.3 1076.59 2594.09 1077.02 2592.29 1077.46" fill="#90B4E3"/>
<path d="M2571.3 1027.66H1239.24C1237.73 1027.66 1236.24 1027.72 1234.78 1027.84C1200.72 1030.64 1207.68 1082.44 1242.05 1082.44H2576.38C2610.75 1082.44 2610.24 1030.64 2575.79 1027.84C2574.3 1027.72 2572.8 1027.66 2571.3 1027.66" fill="#406FBF"/>
<path d="M1273.93 1055.05C1274.43 1061.99 1269.21 1067.61 1262.28 1067.61C1255.34 1067.61 1249.31 1061.99 1248.82 1055.05C1248.32 1048.12 1253.53 1042.49 1260.47 1042.49C1267.41 1042.49 1273.44 1048.12 1273.93 1055.05Z" fill="#FAFAF9"/>
<path d="M1316.65 1055.05C1317.15 1061.99 1311.93 1067.61 1305 1067.61C1298.06 1067.61 1292.03 1061.99 1291.54 1055.05C1291.03 1048.12 1296.25 1042.49 1303.19 1042.49C1310.12 1042.49 1316.15 1048.12 1316.65 1055.05Z" fill="#FAFAF9"/>
<path d="M1359.37 1055.05C1359.87 1061.99 1354.65 1067.61 1347.71 1067.61C1340.78 1067.61 1334.75 1061.99 1334.25 1055.05C1333.75 1048.12 1338.97 1042.49 1345.9 1042.49C1352.84 1042.49 1358.87 1048.12 1359.37 1055.05Z" fill="#FAFAF9"/>
<path d="M2607.35 1928.1H1332.85C1321.89 1928.1 1312.36 1919.21 1311.57 1908.24L1257.74 1160.71C1256.95 1149.75 1265.21 1140.86 1276.17 1140.86H2550.67C2561.63 1140.86 2571.17 1149.75 2571.96 1160.71L2625.78 1908.24C2626.57 1919.21 2618.32 1928.1 2607.35 1928.1" fill="white"/>
<path d="M2070.42 1643.34L2049.67 1355.21L1986.8 1317.37H1813.86L1837.33 1643.34H2070.42" fill="white"/>
<path d="M1840.14 1640.32H2067.18L2046.77 1356.99L1985.97 1320.39H1817.1L1840.14 1640.32ZM2070.42 1646.35H1837.33C1835.75 1646.35 1834.44 1645.13 1834.32 1643.55L1810.86 1317.59C1810.79 1316.76 1811.09 1315.93 1811.65 1315.32C1812.22 1314.7 1813.03 1314.36 1813.86 1314.36H1986.8L1988.36 1314.79L2051.22 1352.63C2052.06 1353.13 2052.6 1354.02 2052.68 1354.99L2073.42 1643.12C2073.48 1643.96 2073.19 1644.78 2072.62 1645.39C2072.05 1646 2071.25 1646.35 2070.42 1646.35" fill="#406FBF"/>
<path d="M2049.67 1355.21L1986.8 1317.37L2009.88 1367.5L2049.67 1355.21Z" fill="#E7E8E5"/>
<path d="M1993.64 1325L2011.52 1363.85L2042.35 1354.32L1993.64 1325ZM2009.88 1370.52C2008.73 1370.52 2007.65 1369.85 2007.15 1368.77L1984.06 1318.64C1983.51 1317.43 1983.81 1316.01 1984.79 1315.13C1985.78 1314.24 1987.22 1314.11 1988.36 1314.79L2051.22 1352.63C2052.24 1353.25 2052.8 1354.4 2052.66 1355.58C2052.51 1356.76 2051.69 1357.74 2050.56 1358.09L2010.77 1370.38L2009.88 1370.52" fill="#406FBF"/>
<path d="M1911.43 1464.24C1911.95 1471.51 1906.48 1477.41 1899.21 1477.41C1891.93 1477.41 1885.61 1471.51 1885.09 1464.24C1884.57 1456.97 1890.04 1451.07 1897.31 1451.07C1904.59 1451.07 1910.9 1456.97 1911.43 1464.24" fill="#406FBF"/>
<path d="M1996.86 1464.24C1997.39 1471.51 1991.91 1477.41 1984.64 1477.41C1977.37 1477.41 1971.05 1471.51 1970.53 1464.24C1970.01 1456.97 1975.47 1451.07 1982.74 1451.07C1990.02 1451.07 1996.34 1456.97 1996.86 1464.24" fill="#406FBF"/>
<path d="M2020.97 1549.64C2019.4 1549.64 2018.08 1548.43 2017.96 1546.85C2016.44 1525.67 1983.23 1508.45 1943.95 1508.45C1917.92 1508.45 1894.54 1516.18 1882.95 1528.64C1877.8 1534.19 1875.41 1540.16 1875.86 1546.41C1875.98 1548.07 1874.73 1549.51 1873.07 1549.63C1871.4 1549.74 1869.97 1548.51 1869.85 1546.85C1869.28 1538.97 1872.29 1531.26 1878.54 1524.54C1891.23 1510.89 1916.3 1502.42 1943.95 1502.42C1987.04 1502.42 2022.2 1521.74 2023.97 1546.41C2024.1 1548.07 2022.85 1549.51 2021.19 1549.63L2020.97 1549.64" fill="#406FBF"/>
<path d="M1862.9 1437.56C1862.16 1437.56 1861.43 1437.29 1860.85 1436.76C1859.63 1435.62 1859.56 1433.71 1860.69 1432.5L1873.9 1418.26C1875.03 1417.04 1876.94 1416.98 1878.16 1418.1C1879.38 1419.23 1879.45 1421.14 1878.32 1422.36L1865.11 1436.59C1864.52 1437.24 1863.71 1437.56 1862.9 1437.56" fill="#406FBF"/>
<path d="M2014.77 1437.56C2014.04 1437.56 2013.3 1437.29 2012.72 1436.75L1997.46 1422.51C1996.24 1421.38 1996.18 1419.47 1997.31 1418.26C1998.45 1417.04 2000.36 1416.97 2001.57 1418.11L2016.83 1432.34C2018.04 1433.47 2018.11 1435.38 2016.97 1436.6C2016.38 1437.24 2015.58 1437.56 2014.77 1437.56Z" fill="#406FBF"/>
<path d="M1795.04 1707.75H1809.09L1829.38 1734.71L1827.44 1707.75H1841.63L1845.14 1756.47H1830.95L1810.77 1729.72L1812.7 1756.47H1798.55L1795.04 1707.75" fill="#406FBF"/>
<path d="M1866.56 1732.21C1866.91 1737.13 1868.08 1740.66 1870.06 1742.81C1872.04 1744.96 1874.61 1746.03 1877.75 1746.03C1880.99 1746.03 1883.42 1744.98 1885.04 1742.87C1886.66 1740.77 1887.28 1737 1886.88 1731.55C1886.55 1726.96 1885.38 1723.61 1883.38 1721.49C1881.38 1719.37 1878.79 1718.32 1875.63 1718.32C1872.59 1718.32 1870.23 1719.39 1868.55 1721.54C1866.86 1723.69 1866.2 1727.25 1866.56 1732.21V1732.21ZM1851.5 1732.14C1850.93 1724.19 1852.69 1717.99 1856.8 1713.56C1860.92 1709.14 1866.93 1706.91 1874.84 1706.91C1882.95 1706.91 1889.35 1709.1 1894.05 1713.45C1898.75 1717.8 1901.38 1723.9 1901.95 1731.75C1902.36 1737.44 1901.74 1742.11 1900.08 1745.75C1898.43 1749.4 1895.87 1752.24 1892.39 1754.26C1888.91 1756.29 1884.47 1757.3 1879.06 1757.3C1873.57 1757.3 1868.96 1756.43 1865.23 1754.67C1861.51 1752.93 1858.39 1750.16 1855.88 1746.36C1853.37 1742.58 1851.91 1737.84 1851.5 1732.14" fill="#406FBF"/>
<path d="M1947.07 1718.78L1949 1745.41H1952.68C1955.82 1745.41 1958.04 1745.06 1959.32 1744.36C1960.6 1743.66 1961.55 1742.44 1962.18 1740.7C1962.81 1738.96 1962.98 1736.14 1962.7 1732.24C1962.33 1727.08 1961.23 1723.55 1959.41 1721.64C1957.59 1719.74 1954.73 1718.78 1950.83 1718.78H1947.07ZM1931.22 1707.75H1953.59C1958 1707.75 1961.6 1708.35 1964.41 1709.55C1967.21 1710.74 1969.57 1712.46 1971.51 1714.7C1973.44 1716.94 1974.91 1719.54 1975.92 1722.5C1976.94 1725.48 1977.56 1728.62 1977.8 1731.95C1978.17 1737.15 1977.87 1741.19 1976.89 1744.06C1975.92 1746.93 1974.44 1749.33 1972.48 1751.27C1970.52 1753.21 1968.35 1754.5 1965.98 1755.14C1962.74 1756.03 1959.78 1756.47 1957.1 1756.47H1934.73L1931.22 1707.75" fill="#406FBF"/>
<path d="M2010.05 1737.89L2003.4 1720.38L1999.35 1737.89H2010.05ZM2013.93 1748.43H1996.83L1995.04 1756.47H1979.67L1994.47 1707.75H2010.89L2032.7 1756.47H2016.94L2013.93 1748.43" fill="#406FBF"/>
<path d="M2025.88 1707.75H2071.64L2072.5 1719.78H2057.15L2059.79 1756.47H2044.73L2042.1 1719.78H2026.74L2025.88 1707.75" fill="#406FBF"/>
<path d="M2102.83 1737.89L2096.19 1720.38L2092.13 1737.89H2102.83ZM2106.71 1748.43H2089.62L2087.83 1756.47H2072.45L2087.25 1707.75H2103.67L2125.49 1756.47H2109.73L2106.71 1748.43" fill="#406FBF"/>
<path d="M2736.94 1135.02C2742.5 1132.24 2749.12 1128.63 2755.25 1125.27C2761.49 1121.83 2767.7 1118.26 2773.81 1114.54C2786 1107.04 2798.27 1099.63 2809.94 1091.39C2833.46 1075.18 2855.5 1057.2 2875.32 1037.56C2877.92 1035.18 2880.13 1032.55 2882.54 1030.04L2886.08 1026.23L2887.86 1024.33L2888.75 1023.38L2888.81 1023.32L2888.62 1023.63C2887.73 1025.29 2888.47 1024.78 2888.81 1023.18C2889.23 1021.64 2889.58 1019.12 2889.69 1016.39C2890.09 1005.1 2887.85 990.864 2885.16 977.092C2879.61 949.193 2871.23 920.498 2862.94 892.382L2887.11 881.789C2902.25 908.823 2914.87 936.429 2925.13 966.368C2930.02 981.533 2934.52 996.761 2935.82 1015.47C2936.07 1020.24 2936.17 1025.24 2935.31 1031.09C2934.4 1036.83 2932.94 1043.71 2927.7 1051.51L2926.67 1052.95L2925.87 1053.99L2924.91 1055.16L2922.99 1057.49L2919.15 1062.15C2916.55 1065.22 2914.1 1068.46 2911.34 1071.34C2889.89 1095.16 2866.03 1116.2 2840.56 1134.49C2827.89 1143.75 2814.93 1152.55 2801.48 1160.55C2794.78 1164.61 2787.99 1168.5 2781.09 1172.28C2774.11 1176.16 2767.47 1179.54 2759.53 1183.26L2736.94 1135.02" fill="#F89E63"/>
<path d="M2691.88 2593.8C2682.81 2595.61 2675.99 2595.3 2673.35 2592.89C2672.23 2591.87 2671.82 2590.43 2672.09 2588.5C2672.23 2587.46 2672.71 2587.12 2673.12 2586.94C2676.31 2585.49 2685.43 2589.9 2691.88 2593.8ZM2681.62 2597.43C2686.43 2597.43 2691.69 2596.43 2695.37 2595.56L2696.3 2594.57L2695.77 2593.33C2693.98 2592.16 2678.16 2581.95 2672.1 2584.69C2671.14 2585.12 2669.94 2586.07 2669.64 2588.15C2669.25 2590.92 2669.94 2593.13 2671.69 2594.71C2673.91 2596.74 2677.61 2597.43 2681.62 2597.43" fill="#406FBF"/>
<path d="M2686.23 2574.48C2687.23 2574.48 2688.14 2574.83 2688.95 2575.56C2692.34 2578.55 2693.5 2586.97 2693.78 2591.96C2688.83 2588 2682.92 2579.56 2683.63 2575.99C2683.75 2575.4 2684.09 2574.7 2685.66 2574.51L2686.23 2574.48ZM2695.09 2595.59L2695.71 2595.43L2696.32 2594.36C2696.32 2593.72 2696.25 2578.73 2690.59 2573.71C2689.08 2572.37 2687.33 2571.82 2685.37 2572.06C2682.28 2572.43 2681.44 2574.38 2681.21 2575.5C2680.04 2581.37 2689.51 2592.61 2694.48 2595.43L2695.09 2595.59" fill="#406FBF"/>
<path d="M2690.51 979.425C2684.45 1010.34 2671.68 1072.96 2693.31 1093.59C2693.31 1093.59 2684.85 1124.96 2627.41 1124.96C2564.24 1124.96 2597.22 1093.6 2597.22 1093.6C2631.7 1085.36 2630.81 1059.79 2624.8 1035.76L2690.51 979.425Z" fill="#F89E63"/>
<path d="M2585.15 1106.06C2575.23 1107.4 2583.67 1081.71 2587.7 1079.05C2597 1072.9 2717.39 1064.19 2716.61 1078.8C2716.11 1085.08 2713.15 1097.36 2707.89 1101.53C2705.8 1103.18 2699.69 1102.2 2687.68 1101.22C2669.38 1099.73 2637.41 1098.23 2585.15 1106.06Z" fill="#17282F"/>
<path d="M2604.76 1097.41C2596.88 1100.08 2597.63 1074.19 2600.32 1071.07C2606.52 1063.87 2703.96 1038.83 2706.86 1053C2707.97 1059.11 2708.51 1071.33 2705.17 1076.07C2701.82 1080.81 2673.19 1072.97 2604.76 1097.41" fill="#17282F"/>
<path d="M2568.51 923.696C2567.75 923.746 2566.98 923.435 2566.45 922.794C2559.49 914.272 2550.44 915.143 2550.35 915.155C2548.98 915.298 2547.78 914.322 2547.63 912.966C2547.48 911.616 2548.46 910.397 2549.82 910.247C2550.3 910.198 2561.63 909.097 2570.28 919.671C2571.14 920.722 2570.98 922.278 2569.93 923.142L2568.51 923.696Z" fill="#17282F"/>
<path d="M2556.46 954.132C2556.46 954.132 2551.14 972.837 2544.18 982.292C2550.21 986.908 2559.36 983.623 2559.36 983.623L2556.46 954.132Z" fill="#F14358"/>
<path d="M2559.49 946.581C2559.91 950.761 2558.03 954.369 2555.29 954.642C2552.56 954.91 2550.01 951.738 2549.6 947.557C2549.19 943.371 2551.07 939.763 2553.8 939.496C2556.53 939.222 2559.08 942.394 2559.49 946.581Z" fill="#17282F"/>
<path d="M2555.03 939.607L2544.7 937.698C2544.7 937.698 2550.63 945.038 2555.03 939.607Z" fill="#17282F"/>
<path d="M2755.67 2594.36H2703.58L2707.66 2473.7H2759.76L2755.67 2594.36Z" fill="#F89E63"/>
<path d="M2699.45 2588.33H2757.98C2760.11 2588.33 2761.84 2589.81 2762.14 2591.89L2768.81 2638.2C2769.5 2643.01 2765.37 2647.55 2760.46 2647.47C2740.05 2647.11 2730.21 2645.92 2704.48 2645.92C2688.64 2645.92 2665.5 2647.56 2643.63 2647.56C2622.25 2647.56 2620.6 2625.94 2629.71 2623.98C2670.53 2615.2 2676.98 2603.09 2690.74 2591.53C2693.22 2589.45 2696.33 2588.33 2699.45 2588.33" fill="#17282F"/>
<path d="M2757.7 2535.93H2757.66L2758.06 2523.89H2758.09L2757.7 2535.93" fill="#C3C5C2"/>
<path d="M2757.66 2535.93H2705.57L2705.98 2523.89H2758.06L2757.66 2535.93Z" fill="#DC834C"/>
<path d="M2548.38 1165.89C2516.15 1153.28 2485.4 1139.54 2454.77 1123.88C2424.2 1108.24 2394.1 1091.57 2365.18 1069.31C2357.98 1063.64 2350.86 1057.45 2343.89 1050.21C2342.16 1048.34 2340.43 1046.62 2338.72 1044.47C2336.93 1042.22 2335.58 1040.9 2333.25 1037.44C2329.05 1031.4 2325.8 1023.27 2324.93 1014.99C2324.12 1006.69 2325.6 998.776 2327.99 992.469C2330.36 986.043 2333.48 980.799 2336.74 976.252C2343.27 967.139 2350.51 960.409 2357.82 954.356C2372.39 942.295 2387.8 933.518 2403.24 925.325C2410.95 921.232 2418.82 917.544 2426.78 914.147C2434.78 910.689 2442.58 907.485 2451.07 904.562L2462.11 928.529C2434.99 945.629 2406.88 964.427 2386.22 985.502C2381.2 990.721 2376.81 996.188 2374.05 1001C2371.09 1005.89 2371.12 1009.56 2371.63 1009.27C2371.89 1009.27 2371.78 1009.16 2372.5 1009.88L2374.98 1012.54C2375.91 1013.65 2377.23 1014.79 2378.4 1015.93C2383.29 1020.49 2389.01 1025.07 2395.19 1029.42C2407.53 1038.21 2421.14 1046.43 2435.21 1054.11C2449.23 1061.9 2463.65 1069.35 2478.34 1076.43C2507.66 1090.46 2538.04 1103.97 2567.86 1116.31L2548.38 1165.89" fill="#F89E63"/>
<path d="M2477.45 911.541L2486.06 892.854L2446.9 879.257C2446.9 879.257 2434.7 915.976 2449.25 932.914C2461.62 930.942 2472.2 922.924 2477.45 911.541Z" fill="#F89E63"/>
<path d="M2486.06 852.459L2454.76 843.434L2446.9 879.257L2486.06 892.855V852.459Z" fill="#F89E63"/>
<path d="M2890.34 894.665L2894.9 850.998L2854.54 860.484C2854.54 860.484 2853.95 901.421 2875.3 907.94L2890.34 894.665" fill="#F89E63"/>
<path d="M2875.46 820.431L2849.17 832.71L2854.54 860.484L2894.9 850.998L2875.46 820.431Z" fill="#F89E63"/>
<path d="M2698.7 918.39C2700.6 970.069 2702.5 991.903 2679.15 1020.82C2644.04 1064.31 2580.15 1055.34 2562.85 1005.28C2547.28 960.21 2546.8 883.269 2595.06 857.884C2642.61 832.871 2696.8 866.717 2698.7 918.39Z" fill="#F89E63"/>
<path d="M2676.19 1020.72C2726.92 998.795 2760.28 952.577 2746.19 880.296C2732.72 811.156 2686.04 804.32 2666.76 818.664C2647.48 833.015 2599.41 811.629 2570.57 835.907C2520.6 877.963 2567.85 923.298 2592.45 950.17C2607.16 980.389 2626.41 1042.23 2676.19 1020.72Z" fill="#17282F"/>
<path d="M2655.13 867.893C2672.24 892.675 2705.07 899.679 2728.46 883.524C2751.84 867.37 2756.92 834.19 2739.81 809.402C2722.7 784.614 2689.86 777.616 2666.47 793.77C2643.09 809.918 2638.01 843.104 2655.13 867.893" fill="#406FBF"/>
<path d="M2668.3 823.51C2660.98 781.846 2700.4 749.718 2753.11 765.244C2805.83 780.77 2777.94 827.504 2767.13 864.826C2756.33 902.149 2784.7 937.692 2796.55 909.271C2808.41 880.85 2788.48 872.079 2788.48 872.079C2788.48 872.079 2844.45 886.585 2792.45 949.692C2740.45 1012.8 2693.38 943.117 2706.11 901.994C2716.4 868.758 2675.22 862.898 2668.3 823.51Z" fill="#17282F"/>
<path d="M2615.61 839.253C2591.55 826.7 2550.79 816.549 2527.6 855.576C2516.63 874.025 2520.88 899.05 2520.88 899.05L2591.72 903.765L2615.61 839.253" fill="#17282F"/>
<path d="M2512.55 886.809L2512.45 886.802C2511.59 886.753 2510.94 886.012 2510.99 885.154C2511.06 884.097 2512.77 859.072 2527.87 843.378C2564.38 805.446 2607.18 836.908 2619.43 847.458C2620.08 848.018 2620.15 849.001 2619.59 849.648C2619.03 850.301 2618.04 850.369 2617.4 849.816C2605.67 839.72 2564.73 809.57 2530.12 845.53C2515.81 860.397 2514.11 885.098 2514.1 885.353C2514.05 886.174 2513.36 886.809 2512.55 886.809Z" fill="#17282F"/>
<path d="M2601.13 948.117C2601.05 958.181 2596.54 968.041 2590.83 974.721C2582.23 984.774 2572.38 979.822 2570.12 968.675C2568.09 958.642 2570.1 941.324 2580.97 935.253C2591.67 929.269 2601.21 936.603 2601.13 948.117Z" fill="#F89E63"/>
<path d="M2589.93 1421.42C2589.93 1421.42 2593.25 1783.1 2624.62 1984.64C2649.97 2147.43 2696.86 2523.89 2696.86 2523.89H2767.91C2767.91 2523.89 2774.85 2160.46 2761.99 1999.45C2729.44 1592.03 2813.43 1515.86 2745.65 1421.42H2589.93Z" fill="#17282F"/>
<path d="M2767.91 2523.89H2696.86C2696.86 2523.89 2695.43 2512.36 2692.92 2492.49L2714.52 2482.89L2692.81 2437.68L2683.52 2418.32C2683.38 2417.23 2683.24 2416.14 2683.1 2415.03L2689.01 2412.07C2689.01 2412.07 2684.47 2395.65 2677.2 2369C2661.35 2245.91 2639.35 2079.22 2624.63 1984.64C2622.53 1971.18 2620.56 1956.97 2618.7 1942.23C2629.38 1882.83 2643.92 1764.32 2637.67 1663.29C2664.69 1582.71 2690.51 1502.33 2692.66 1430.91H2751.99C2767.76 1456.41 2772.93 1481.44 2772.93 1513.05C2772.93 1545.95 2767.32 1586 2762.24 1641.16C2761.22 1652.33 2760.21 1664.11 2759.27 1676.59C2756.37 1715.25 2754.17 1760.49 2754.17 1814.29C2754.17 1867.13 2756.3 1928.23 2761.99 1999.45C2768.17 2076.89 2769.77 2201.15 2769.77 2309.28C2769.77 2356.76 2769.47 2401.14 2769.1 2437.07C2769.1 2437.58 2769.09 2438.1 2769.08 2438.62C2768.56 2490.13 2767.91 2523.89 2767.91 2523.89V2523.89ZM2605.31 1802.73C2604.5 1791.74 2603.73 1780.7 2603 1769.67V1769.66C2603.73 1780.71 2604.5 1791.73 2605.31 1802.73Z" fill="#2B3C43"/>
<path d="M2618.69 1942.3C2618.01 1936.84 2617.33 1931.29 2616.68 1925.68C2616.69 1925.68 2616.69 1925.67 2616.69 1925.67C2617.35 1931.27 2618.02 1936.78 2618.7 1942.23C2618.7 1942.26 2618.7 1942.28 2618.69 1942.3" fill="#627FB7"/>
<path d="M2616.68 1925.68C2612.18 1887.1 2608.43 1845.25 2605.31 1802.73C2608.43 1845.25 2612.19 1887.09 2616.69 1925.67C2616.69 1925.67 2616.69 1925.68 2616.68 1925.68Z" fill="#A7A9A8"/>
<path d="M2618.7 1942.23C2618.02 1936.78 2617.35 1931.27 2616.69 1925.67C2612.19 1887.09 2608.43 1845.25 2605.31 1802.73C2604.5 1791.73 2603.73 1780.71 2603 1769.66C2613.5 1734.68 2625.7 1698.97 2637.67 1663.29C2643.92 1764.32 2629.38 1882.83 2618.7 1942.23" fill="#1B262A"/>
<path d="M2687.14 2525.29H2777.63L2782.38 2493.54L2686.62 2490.3L2687.14 2525.29Z" fill="#406FBF"/>
<path d="M2712.96 1116.12C2721.48 1099.19 2767.23 1088.54 2792.24 1088.58L2810.96 1171.72C2810.96 1171.72 2761.13 1245.68 2740.41 1237.83C2715.93 1228.58 2694.72 1152.38 2712.96 1116.12Z" fill="#406FBF"/>
<path d="M2756.57 1233.4C2762.5 1198.81 2771.04 1157.48 2783.16 1105.43C2783.16 1105.43 2765.05 1101.49 2740.1 1098.08C2757.02 1092.01 2777.88 1088.58 2792.1 1088.58C2792.15 1088.58 2792.2 1088.58 2792.24 1088.58L2810.96 1171.72C2810.96 1171.72 2779.85 1217.9 2756.57 1233.4Z" fill="#2251AA"/>
<path d="M2632.59 2514.52C2634.73 2511.03 2646.63 2507.81 2655.72 2506.14C2647.51 2514.49 2640.29 2519.13 2636.06 2518.7C2634.58 2518.54 2633.45 2517.77 2632.58 2516.33L2632.46 2514.77L2632.59 2514.52ZM2660.22 2504.96L2660.25 2503.74L2658.98 2503.1C2656.37 2503.49 2633.34 2507.14 2630.22 2513.72C2629.63 2514.99 2629.71 2516.33 2630.47 2517.6C2631.73 2519.72 2633.53 2520.92 2635.8 2521.15C2643.35 2521.93 2654.24 2511.46 2660.07 2505.15L2660.22 2504.96" fill="#406FBF"/>
<path d="M2635.86 2497.13L2636.85 2496.01C2638.25 2494.76 2639.87 2494.2 2641.82 2494.33C2647.4 2494.7 2653.75 2500.48 2656.64 2503.42C2649.27 2504.04 2637.32 2501.81 2635.7 2498.6C2635.61 2498.41 2635.37 2497.93 2635.86 2497.13ZM2660.21 2504.96L2660.33 2504.72L2660.1 2503.51C2659.7 2503.06 2650.48 2492.43 2641.98 2491.87C2639.37 2491.7 2637.09 2492.47 2635.2 2494.17C2632.64 2496.46 2632.86 2498.45 2633.5 2499.71C2636.19 2505.05 2652.74 2506.91 2659.41 2505.52L2660.21 2504.96" fill="#406FBF"/>
<path d="M2714.52 2482.89L2666.86 2504.05L2645.63 2459.86L2617.88 2401.98L2614.63 2395.26L2662.22 2374.05L2665.91 2381.63L2692.81 2437.68L2714.52 2482.89" fill="#F89E63"/>
<path d="M2645.63 2459.87L2635.58 2438.9L2682.17 2415.51L2692.81 2437.68L2645.63 2459.87" fill="#DC834C"/>
<path d="M2534.05 1421.42C2534.05 1421.42 2381.83 1799.84 2423.08 1978.03C2460.37 2139.08 2625.26 2444.07 2625.26 2444.07L2689.01 2412.07C2689.01 2412.07 2587.08 2043.89 2576.02 1963.91C2554.51 1808.28 2692.81 1588.61 2692.81 1421.42H2534.05" fill="#17282F"/>
<path d="M2625.26 2444.07C2625.26 2444.07 2609.84 2415.55 2587.37 2371.34C2577.45 2351.83 2566.14 2329.26 2554.19 2304.73C2527.55 2250.06 2497.66 2185.71 2472.47 2123.88C2459.91 2093.05 2448.52 2062.84 2439.3 2034.79C2432.64 2014.56 2427.12 1995.46 2423.08 1978.03C2418.17 1956.8 2416 1932.73 2415.99 1906.8C2415.94 1734.77 2511 1480.76 2530.56 1430.31C2531.21 1430.69 2532.06 1430.91 2533 1430.91H2692.66C2690.51 1502.33 2664.69 1582.71 2637.67 1663.29C2625.7 1698.97 2613.5 1734.68 2603 1769.66V1769.67C2586.31 1825.33 2573.94 1879.16 2573.75 1928.1C2573.75 1928.47 2573.74 1928.84 2573.74 1929.21C2573.74 1941.08 2574.47 1952.67 2576.02 1963.91C2587.08 2043.89 2689.01 2412.07 2689.01 2412.07L2683.1 2415.03L2682.17 2415.51L2635.58 2438.9L2625.26 2444.07" fill="#2B3C43"/>
<path d="M2658.36 2497.44L2705.69 2462.99C2707.41 2461.73 2709.68 2461.91 2711.15 2463.42L2743.79 2496.94C2747.17 2500.42 2746.51 2506.53 2742.49 2509.34C2725.78 2521.07 2717.12 2525.89 2696.31 2541.04C2683.51 2550.36 2658 2570.96 2640.31 2583.83C2623.02 2596.42 2608.96 2579.91 2615.18 2572.96C2643.02 2541.83 2648.88 2522.59 2653.21 2505.15C2653.99 2502 2655.84 2499.26 2658.36 2497.44" fill="#17282F"/>
<path d="M2621.15 2457.56L2703.45 2419.92L2692.89 2386.38L2604.76 2426.59L2621.15 2457.56Z" fill="#406FBF"/>
<path d="M2574.45 1111.88C2567.62 1094.21 2508.16 1074.83 2478.33 1068.06L2465.23 1166.14C2465.23 1166.14 2513.93 1236.15 2535.32 1230.36C2560.58 1223.53 2589.08 1149.74 2574.45 1111.88" fill="#406FBF"/>
<path d="M2506.43 1215.17C2486.04 1196.06 2465.23 1166.14 2465.23 1166.14L2478.33 1068.06C2500.47 1073.08 2538.95 1085.06 2560.1 1098.13C2532.14 1102.24 2509.15 1106.94 2509.15 1106.94C2509.15 1106.94 2502.96 1109.13 2502.96 1149.42C2502.96 1164.97 2503.88 1186.19 2506.43 1215.17" fill="#2251AA"/>
<path d="M2509.15 1106.94C2509.15 1106.94 2484.33 1115.69 2534.05 1421.42C2618.02 1421.42 2704.79 1421.42 2745.65 1421.42C2742.1 1335.3 2742 1282.19 2783.16 1105.43C2783.16 1105.43 2738.82 1095.79 2693.31 1093.59C2657.7 1091.88 2628.52 1090.74 2597.22 1093.6C2555.95 1097.36 2509.15 1106.94 2509.15 1106.94Z" fill="#406FBF"/>
<path d="M2745.1 1407.41H2531.79C2508.79 1263.57 2502.96 1188.53 2502.96 1149.42C2502.96 1109.13 2509.15 1106.94 2509.15 1106.94C2509.15 1106.94 2555.95 1097.36 2597.22 1093.6C2611.02 1092.34 2624.39 1091.86 2638.09 1091.86C2655.48 1091.86 2673.39 1092.64 2693.31 1093.59C2738.82 1095.79 2783.16 1105.43 2783.16 1105.43C2771.04 1157.48 2762.5 1198.81 2756.57 1233.4C2755.51 1239.56 2754.54 1245.5 2753.65 1251.26C2746.39 1297.9 2744.21 1332.04 2744.21 1365.68C2744.21 1379.4 2744.57 1393.04 2745.1 1407.41Z" fill="#2251AA"/>
<path d="M2748.82 1409L2758.36 1427.94C2759.1 1429.41 2757.36 1430.91 2754.91 1430.91H2533C2531.09 1430.91 2529.51 1429.98 2529.4 1428.77L2527.49 1409.83C2527.36 1408.52 2529.01 1407.41 2531.09 1407.41H2745.37C2746.95 1407.41 2748.34 1408.05 2748.82 1409Z" fill="#406FBF"/>
<path d="M2754.92 1430.91H2533C2532.07 1430.91 2531.21 1430.68 2530.56 1430.31C2529.89 1429.93 2529.46 1429.38 2529.4 1428.77L2527.49 1409.83C2527.48 1409.78 2527.48 1409.73 2527.48 1409.68C2527.49 1408.43 2529.09 1407.41 2531.09 1407.41H2745.37C2746.95 1407.41 2748.34 1408.05 2748.82 1409L2758.36 1427.94C2758.48 1428.17 2758.54 1428.4 2758.54 1428.63C2758.54 1429.84 2756.98 1430.91 2754.92 1430.91Z" fill="#6D97D6"/>
<path d="M2720.04 1432.96H2725.78C2726.93 1432.96 2727.8 1432.37 2727.72 1431.65L2725.02 1407.04C2724.95 1406.32 2723.95 1405.73 2722.8 1405.73H2717.07C2715.92 1405.73 2715.05 1406.32 2715.13 1407.04L2717.82 1431.65C2717.9 1432.37 2718.9 1432.96 2720.04 1432.96" fill="#17282F"/>
<path d="M2580.93 1432.96H2586.68C2587.82 1432.96 2588.69 1432.37 2588.61 1431.65L2585.92 1407.04C2585.84 1406.32 2584.84 1405.73 2583.7 1405.73H2577.96C2576.82 1405.73 2575.95 1406.32 2576.03 1407.04L2578.71 1431.65C2578.8 1432.37 2579.8 1432.96 2580.93 1432.96" fill="#17282F"/>
<path d="M153.492 117.129C153.492 131.126 151.018 143.398 146.07 153.945C141.122 164.492 134.026 172.63 124.781 178.359C115.602 184.089 105.055 186.953 93.1406 186.953C81.3568 186.953 70.8424 184.121 61.5977 178.457C52.3529 172.793 45.1914 164.72 40.1133 154.238C35.0352 143.691 32.4635 131.582 32.3984 117.91V110.879C32.3984 96.8815 34.9049 84.5768 39.918 73.9648C44.9961 63.2878 52.125 55.1172 61.3047 49.4531C70.5495 43.724 81.0964 40.8594 92.9453 40.8594C104.794 40.8594 115.309 43.724 124.488 49.4531C133.733 55.1172 140.862 63.2878 145.875 73.9648C150.953 84.5768 153.492 96.849 153.492 110.781V117.129ZM123.805 110.684C123.805 95.7747 121.135 84.4466 115.797 76.6992C110.458 68.9518 102.841 65.0781 92.9453 65.0781C83.1146 65.0781 75.5299 68.9193 70.1914 76.6016C64.8529 84.2188 62.151 95.4167 62.0859 110.195V117.129C62.0859 131.647 64.7552 142.91 70.0938 150.918C75.4323 158.926 83.1146 162.93 93.1406 162.93C102.971 162.93 110.523 159.089 115.797 151.406C121.07 143.659 123.74 132.396 123.805 117.617V110.684ZM168.531 131.191C168.531 120.71 170.549 111.367 174.586 103.164C178.622 94.9609 184.417 88.6133 191.969 84.1211C199.586 79.6289 208.408 77.3828 218.434 77.3828C232.691 77.3828 244.312 81.7448 253.297 90.4688C262.346 99.1927 267.392 111.042 268.434 126.016L268.629 133.242C268.629 149.453 264.104 162.474 255.055 172.305C246.005 182.07 233.863 186.953 218.629 186.953C203.395 186.953 191.22 182.07 182.105 172.305C173.056 162.539 168.531 149.258 168.531 132.461V131.191ZM196.754 133.242C196.754 143.268 198.642 150.951 202.418 156.289C206.194 161.562 211.598 164.199 218.629 164.199C225.465 164.199 230.803 161.595 234.645 156.387C238.486 151.113 240.406 142.715 240.406 131.191C240.406 121.361 238.486 113.743 234.645 108.34C230.803 102.936 225.4 100.234 218.434 100.234C211.533 100.234 206.194 102.936 202.418 108.34C198.642 113.678 196.754 121.979 196.754 133.242ZM381.129 133.145C381.129 149.421 377.418 162.474 369.996 172.305C362.639 182.07 352.678 186.953 340.113 186.953C329.436 186.953 320.81 183.242 314.234 175.82V225.625H286.012V79.3359H312.184L313.16 89.6875C319.996 81.4844 328.915 77.3828 339.918 77.3828C352.939 77.3828 363.062 82.2005 370.289 91.8359C377.516 101.471 381.129 114.753 381.129 131.68V133.145ZM352.906 131.094C352.906 121.263 351.148 113.678 347.633 108.34C344.182 103.001 339.137 100.332 332.496 100.332C323.642 100.332 317.555 103.717 314.234 110.488V153.75C317.685 160.716 323.837 164.199 332.691 164.199C346.168 164.199 352.906 153.164 352.906 131.094ZM455.934 155.801C455.934 152.35 454.208 149.648 450.758 147.695C447.372 145.677 441.904 143.887 434.352 142.324C409.221 137.051 396.656 126.374 396.656 110.293C396.656 100.918 400.53 93.1055 408.277 86.8555C416.09 80.5404 426.279 77.3828 438.844 77.3828C452.255 77.3828 462.965 80.5404 470.973 86.8555C479.046 93.1706 483.082 101.374 483.082 111.465H454.859C454.859 107.428 453.557 104.108 450.953 101.504C448.349 98.8346 444.28 97.5 438.746 97.5C433.993 97.5 430.315 98.5742 427.711 100.723C425.107 102.871 423.805 105.605 423.805 108.926C423.805 112.051 425.27 114.59 428.199 116.543C431.194 118.431 436.207 120.091 443.238 121.523C450.27 122.891 456.194 124.453 461.012 126.211C475.921 131.68 483.375 141.152 483.375 154.629C483.375 164.264 479.241 172.077 470.973 178.066C462.704 183.991 452.027 186.953 438.941 186.953C430.087 186.953 422.21 185.391 415.309 182.266C408.473 179.076 403.102 174.746 399.195 169.277C395.289 163.743 393.336 157.786 393.336 151.406H420.094C420.354 156.419 422.21 160.26 425.66 162.93C429.111 165.599 433.733 166.934 439.527 166.934C444.931 166.934 449 165.924 451.734 163.906C454.534 161.823 455.934 159.121 455.934 155.801ZM530.348 141.348H506.91L503.59 42.8125H533.668L530.348 141.348ZM518.629 156.777C523.382 156.777 527.19 158.177 530.055 160.977C532.984 163.776 534.449 167.357 534.449 171.719C534.449 176.016 532.984 179.564 530.055 182.363C527.19 185.163 523.382 186.562 518.629 186.562C513.941 186.562 510.133 185.163 507.203 182.363C504.339 179.564 502.906 176.016 502.906 171.719C502.906 167.422 504.339 163.874 507.203 161.074C510.133 158.21 513.941 156.777 518.629 156.777ZM656.812 106.875L686.402 42.8125H718.434L671.754 133.438V185H641.969V133.438L595.289 42.8125H627.418L656.812 106.875ZM718.727 131.191C718.727 120.71 720.745 111.367 724.781 103.164C728.818 94.9609 734.612 88.6133 742.164 84.1211C749.781 79.6289 758.603 77.3828 768.629 77.3828C782.887 77.3828 794.508 81.7448 803.492 90.4688C812.542 99.1927 817.587 111.042 818.629 126.016L818.824 133.242C818.824 149.453 814.299 162.474 805.25 172.305C796.201 182.07 784.059 186.953 768.824 186.953C753.59 186.953 741.415 182.07 732.301 172.305C723.251 162.539 718.727 149.258 718.727 132.461V131.191ZM746.949 133.242C746.949 143.268 748.837 150.951 752.613 156.289C756.389 161.562 761.793 164.199 768.824 164.199C775.66 164.199 780.999 161.595 784.84 156.387C788.681 151.113 790.602 142.715 790.602 131.191C790.602 121.361 788.681 113.743 784.84 108.34C780.999 102.936 775.595 100.234 768.629 100.234C761.728 100.234 756.389 102.936 752.613 108.34C748.837 113.678 746.949 121.979 746.949 133.242ZM899.488 174.258C892.522 182.721 882.887 186.953 870.582 186.953C859.254 186.953 850.595 183.698 844.605 177.188C838.681 170.677 835.654 161.139 835.523 148.574V79.3359H863.746V147.598C863.746 158.6 868.759 164.102 878.785 164.102C888.355 164.102 894.931 160.781 898.512 154.141V79.3359H926.832V185H900.27L899.488 174.258ZM1023.9 79.3359L1024.78 91.543C1032.33 82.1029 1042.46 77.3828 1055.15 77.3828C1066.35 77.3828 1074.68 80.6706 1080.15 87.2461C1085.62 93.8216 1088.42 103.652 1088.55 116.738V185H1060.33V117.422C1060.33 111.432 1059.03 107.103 1056.42 104.434C1053.82 101.699 1049.49 100.332 1043.43 100.332C1035.49 100.332 1029.53 103.717 1025.56 110.488V185H997.34V79.3359H1023.9ZM1158.67 186.953C1143.17 186.953 1130.54 182.201 1120.78 172.695C1111.08 163.19 1106.23 150.527 1106.23 134.707V131.973C1106.23 121.361 1108.28 111.888 1112.38 103.555C1116.48 95.1562 1122.27 88.7109 1129.76 84.2188C1137.31 79.6615 1145.91 77.3828 1155.54 77.3828C1170 77.3828 1181.36 81.9401 1189.62 91.0547C1197.96 100.169 1202.12 113.092 1202.12 129.824V141.348H1134.84C1135.75 148.249 1138.49 153.783 1143.04 157.949C1147.67 162.116 1153.49 164.199 1160.52 164.199C1171.4 164.199 1179.89 160.26 1186.01 152.383L1199.88 167.91C1195.65 173.9 1189.92 178.587 1182.69 181.973C1175.46 185.293 1167.46 186.953 1158.67 186.953ZM1155.45 100.234C1149.85 100.234 1145.29 102.122 1141.77 105.898C1138.32 109.674 1136.11 115.078 1135.13 122.109H1174.39V119.863C1174.26 113.613 1172.57 108.796 1169.31 105.41C1166.06 101.96 1161.43 100.234 1155.45 100.234ZM1266.87 186.953C1251.38 186.953 1238.75 182.201 1228.98 172.695C1219.28 163.19 1214.43 150.527 1214.43 134.707V131.973C1214.43 121.361 1216.48 111.888 1220.58 103.555C1224.68 95.1562 1230.48 88.7109 1237.96 84.2188C1245.52 79.6615 1254.11 77.3828 1263.75 77.3828C1278.2 77.3828 1289.56 81.9401 1297.83 91.0547C1306.16 100.169 1310.33 113.092 1310.33 129.824V141.348H1243.04C1243.95 148.249 1246.69 153.783 1251.25 157.949C1255.87 162.116 1261.7 164.199 1268.73 164.199C1279.6 164.199 1288.1 160.26 1294.21 152.383L1308.08 167.91C1303.85 173.9 1298.12 178.587 1290.89 181.973C1283.67 185.293 1275.66 186.953 1266.87 186.953ZM1263.65 100.234C1258.05 100.234 1253.49 102.122 1249.98 105.898C1246.53 109.674 1244.31 115.078 1243.34 122.109H1282.59V119.863C1282.46 113.613 1280.77 108.796 1277.52 105.41C1274.26 101.96 1269.64 100.234 1263.65 100.234ZM1322.05 131.387C1322.05 114.915 1325.73 101.797 1333.08 92.0312C1340.5 82.2656 1350.63 77.3828 1363.45 77.3828C1373.74 77.3828 1382.24 81.224 1388.94 88.9062V35H1417.26V185H1391.77L1390.41 173.77C1383.38 182.559 1374.33 186.953 1363.26 186.953C1350.82 186.953 1340.83 182.07 1333.28 172.305C1325.79 162.474 1322.05 148.835 1322.05 131.387ZM1350.27 133.438C1350.27 143.333 1351.99 150.918 1355.45 156.191C1358.9 161.465 1363.91 164.102 1370.48 164.102C1379.21 164.102 1385.36 160.423 1388.94 153.066V111.367C1385.43 104.01 1379.34 100.332 1370.68 100.332C1357.07 100.332 1350.27 111.367 1350.27 133.438ZM1522.73 53.3594V79.3359H1540.8V100.039H1522.73V152.773C1522.73 156.68 1523.48 159.479 1524.98 161.172C1526.47 162.865 1529.34 163.711 1533.57 163.711C1536.7 163.711 1539.46 163.483 1541.87 163.027V184.414C1536.34 186.107 1530.64 186.953 1524.78 186.953C1504.99 186.953 1494.9 176.96 1494.51 156.973V100.039H1479.08V79.3359H1494.51V53.3594H1522.73ZM1549.2 131.191C1549.2 120.71 1551.21 111.367 1555.25 103.164C1559.29 94.9609 1565.08 88.6133 1572.63 84.1211C1580.25 79.6289 1589.07 77.3828 1599.1 77.3828C1613.36 77.3828 1624.98 81.7448 1633.96 90.4688C1643.01 99.1927 1648.06 111.042 1649.1 126.016L1649.29 133.242C1649.29 149.453 1644.77 162.474 1635.72 172.305C1626.67 182.07 1614.53 186.953 1599.29 186.953C1584.06 186.953 1571.88 182.07 1562.77 172.305C1553.72 162.539 1549.2 149.258 1549.2 132.461V131.191ZM1577.42 133.242C1577.42 143.268 1579.31 150.951 1583.08 156.289C1586.86 161.562 1592.26 164.199 1599.29 164.199C1606.13 164.199 1611.47 161.595 1615.31 156.387C1619.15 151.113 1621.07 142.715 1621.07 131.191C1621.07 121.361 1619.15 113.743 1615.31 108.34C1611.47 102.936 1606.06 100.234 1599.1 100.234C1592.2 100.234 1586.86 102.936 1583.08 108.34C1579.31 113.678 1577.42 121.979 1577.42 133.242ZM1777.71 185C1776.41 182.461 1775.46 179.303 1774.88 175.527C1768.04 183.145 1759.16 186.953 1748.22 186.953C1737.87 186.953 1729.27 183.958 1722.44 177.969C1715.67 171.979 1712.28 164.427 1712.28 155.312C1712.28 144.115 1716.42 135.521 1724.68 129.531C1733.02 123.542 1745.03 120.514 1760.72 120.449H1773.71V114.395C1773.71 109.512 1772.44 105.605 1769.9 102.676C1767.42 99.7461 1763.49 98.2812 1758.08 98.2812C1753.33 98.2812 1749.59 99.4206 1746.85 101.699C1744.18 103.978 1742.85 107.103 1742.85 111.074H1714.62C1714.62 104.954 1716.51 99.2904 1720.29 94.082C1724.07 88.8737 1729.4 84.8047 1736.3 81.875C1743.21 78.8802 1750.95 77.3828 1759.55 77.3828C1772.57 77.3828 1782.89 80.6706 1790.5 87.2461C1798.19 93.7565 1802.03 102.936 1802.03 114.785V160.586C1802.09 170.612 1803.49 178.197 1806.23 183.34V185H1777.71ZM1754.37 165.371C1758.54 165.371 1762.38 164.46 1765.89 162.637C1769.41 160.749 1772.01 158.242 1773.71 155.117V136.953H1763.16C1749.03 136.953 1741.51 141.836 1740.6 151.602L1740.5 153.262C1740.5 156.777 1741.74 159.674 1744.21 161.953C1746.69 164.232 1750.07 165.371 1754.37 165.371ZM1819.31 131.387C1819.31 114.915 1822.99 101.797 1830.35 92.0312C1837.77 82.2656 1847.89 77.3828 1860.72 77.3828C1871.01 77.3828 1879.5 81.224 1886.21 88.9062V35H1914.53V185H1889.04L1887.67 173.77C1880.64 182.559 1871.59 186.953 1860.52 186.953C1848.09 186.953 1838.1 182.07 1830.54 172.305C1823.06 162.474 1819.31 148.835 1819.31 131.387ZM1847.54 133.438C1847.54 143.333 1849.26 150.918 1852.71 156.191C1856.16 161.465 1861.17 164.102 1867.75 164.102C1876.47 164.102 1882.63 160.423 1886.21 153.066V111.367C1882.69 104.01 1876.6 100.332 1867.95 100.332C1854.34 100.332 1847.54 111.367 1847.54 133.438ZM1932.01 131.387C1932.01 114.915 1935.69 101.797 1943.04 92.0312C1950.46 82.2656 1960.59 77.3828 1973.41 77.3828C1983.7 77.3828 1992.2 81.224 1998.9 88.9062V35H2027.22V185H2001.73L2000.37 173.77C1993.34 182.559 1984.29 186.953 1973.22 186.953C1960.78 186.953 1950.79 182.07 1943.24 172.305C1935.75 162.474 1932.01 148.835 1932.01 131.387ZM1960.23 133.438C1960.23 143.333 1961.96 150.918 1965.41 156.191C1968.86 161.465 1973.87 164.102 1980.45 164.102C1989.17 164.102 1995.32 160.423 1998.9 153.066V111.367C1995.39 104.01 1989.3 100.332 1980.64 100.332C1967.03 100.332 1960.23 111.367 1960.23 133.438ZM2160.13 185C2158.83 182.461 2157.89 179.303 2157.3 175.527C2150.46 183.145 2141.58 186.953 2130.64 186.953C2120.29 186.953 2111.7 183.958 2104.86 177.969C2098.09 171.979 2094.7 164.427 2094.7 155.312C2094.7 144.115 2098.84 135.521 2107.11 129.531C2115.44 123.542 2127.45 120.514 2143.14 120.449H2156.13V114.395C2156.13 109.512 2154.86 105.605 2152.32 102.676C2149.85 99.7461 2145.91 98.2812 2140.5 98.2812C2135.75 98.2812 2132.01 99.4206 2129.27 101.699C2126.6 103.978 2125.27 107.103 2125.27 111.074H2097.05C2097.05 104.954 2098.93 99.2904 2102.71 94.082C2106.49 88.8737 2111.83 84.8047 2118.73 81.875C2125.63 78.8802 2133.38 77.3828 2141.97 77.3828C2154.99 77.3828 2165.31 80.6706 2172.93 87.2461C2180.61 93.7565 2184.45 102.936 2184.45 114.785V160.586C2184.51 170.612 2185.91 178.197 2188.65 183.34V185H2160.13ZM2136.79 165.371C2140.96 165.371 2144.8 164.46 2148.32 162.637C2151.83 160.749 2154.44 158.242 2156.13 155.117V136.953H2145.58C2131.45 136.953 2123.93 141.836 2123.02 151.602L2122.93 153.262C2122.93 156.777 2124.16 159.674 2126.64 161.953C2129.11 164.232 2132.5 165.371 2136.79 165.371ZM2299.88 164.199C2305.09 164.199 2309.32 162.767 2312.57 159.902C2315.83 157.038 2317.52 153.229 2317.65 148.477H2344.12C2344.05 155.638 2342.1 162.214 2338.26 168.203C2334.42 174.128 2329.14 178.75 2322.44 182.07C2315.8 185.326 2308.44 186.953 2300.37 186.953C2285.26 186.953 2273.35 182.168 2264.62 172.598C2255.9 162.962 2251.54 149.681 2251.54 132.754V130.898C2251.54 114.622 2255.87 101.634 2264.53 91.9336C2273.19 82.2331 2285.07 77.3828 2300.17 77.3828C2313.39 77.3828 2323.97 81.1589 2331.91 88.7109C2339.92 96.1979 2343.99 106.191 2344.12 118.691H2317.65C2317.52 113.223 2315.83 108.796 2312.57 105.41C2309.32 101.96 2305.02 100.234 2299.68 100.234C2293.11 100.234 2288.13 102.643 2284.74 107.461C2281.42 112.214 2279.76 119.961 2279.76 130.703V133.633C2279.76 144.505 2281.42 152.318 2284.74 157.07C2288.06 161.823 2293.11 164.199 2299.88 164.199ZM2421.46 185C2420.16 182.461 2419.21 179.303 2418.63 175.527C2411.79 183.145 2402.91 186.953 2391.97 186.953C2381.62 186.953 2373.02 183.958 2366.19 177.969C2359.42 171.979 2356.03 164.427 2356.03 155.312C2356.03 144.115 2360.17 135.521 2368.43 129.531C2376.77 123.542 2388.78 120.514 2404.47 120.449H2417.46V114.395C2417.46 109.512 2416.19 105.605 2413.65 102.676C2411.17 99.7461 2407.24 98.2812 2401.83 98.2812C2397.08 98.2812 2393.34 99.4206 2390.6 101.699C2387.93 103.978 2386.6 107.103 2386.6 111.074H2358.38C2358.38 104.954 2360.26 99.2904 2364.04 94.082C2367.82 88.8737 2373.15 84.8047 2380.05 81.875C2386.96 78.8802 2394.7 77.3828 2403.3 77.3828C2416.32 77.3828 2426.64 80.6706 2434.25 87.2461C2441.94 93.7565 2445.78 102.936 2445.78 114.785V160.586C2445.84 170.612 2447.24 178.197 2449.98 183.34V185H2421.46ZM2398.12 165.371C2402.29 165.371 2406.13 164.46 2409.64 162.637C2413.16 160.749 2415.76 158.242 2417.46 155.117V136.953H2406.91C2392.78 136.953 2385.26 141.836 2384.35 151.602L2384.25 153.262C2384.25 156.777 2385.49 159.674 2387.96 161.953C2390.44 164.232 2393.82 165.371 2398.12 165.371ZM2501.25 53.3594V79.3359H2519.31V100.039H2501.25V152.773C2501.25 156.68 2501.99 159.479 2503.49 161.172C2504.99 162.865 2507.85 163.711 2512.09 163.711C2515.21 163.711 2517.98 163.483 2520.39 163.027V184.414C2514.85 186.107 2509.16 186.953 2503.3 186.953C2483.51 186.953 2473.41 176.96 2473.02 156.973V100.039H2457.59V79.3359H2473.02V53.3594H2501.25ZM2583.67 186.953C2568.17 186.953 2555.54 182.201 2545.78 172.695C2536.08 163.19 2531.23 150.527 2531.23 134.707V131.973C2531.23 121.361 2533.28 111.888 2537.38 103.555C2541.48 95.1562 2547.27 88.7109 2554.76 84.2188C2562.31 79.6615 2570.91 77.3828 2580.54 77.3828C2595 77.3828 2606.36 81.9401 2614.62 91.0547C2622.96 100.169 2627.12 113.092 2627.12 129.824V141.348H2559.84C2560.75 148.249 2563.49 153.783 2568.04 157.949C2572.67 162.116 2578.49 164.199 2585.52 164.199C2596.4 164.199 2604.89 160.26 2611.01 152.383L2624.88 167.91C2620.65 173.9 2614.92 178.587 2607.69 181.973C2600.46 185.293 2592.46 186.953 2583.67 186.953ZM2580.45 100.234C2574.85 100.234 2570.29 102.122 2566.77 105.898C2563.32 109.674 2561.11 115.078 2560.13 122.109H2599.39V119.863C2599.26 113.613 2597.57 108.796 2594.31 105.41C2591.06 101.96 2586.43 100.234 2580.45 100.234ZM2639.14 131.387C2639.14 115.176 2642.98 102.122 2650.66 92.2266C2658.41 82.3307 2668.82 77.3828 2681.91 77.3828C2693.5 77.3828 2702.52 81.3542 2708.96 89.2969L2710.13 79.3359H2735.72V181.484C2735.72 190.729 2733.6 198.77 2729.37 205.605C2725.2 212.441 2719.31 217.65 2711.7 221.23C2704.08 224.811 2695.16 226.602 2684.94 226.602C2677.19 226.602 2669.64 225.039 2662.28 221.914C2654.92 218.854 2649.36 214.883 2645.58 210L2658.08 192.812C2665.11 200.69 2673.64 204.629 2683.67 204.629C2691.15 204.629 2696.98 202.611 2701.15 198.574C2705.32 194.603 2707.4 188.939 2707.4 181.582V175.918C2700.89 183.275 2692.33 186.953 2681.71 186.953C2669.02 186.953 2658.73 182.005 2650.86 172.109C2643.04 162.148 2639.14 148.965 2639.14 132.559V131.387ZM2667.36 133.438C2667.36 143.008 2669.28 150.527 2673.12 155.996C2676.96 161.4 2682.24 164.102 2688.94 164.102C2697.54 164.102 2703.69 160.879 2707.4 154.434V110C2703.62 103.555 2697.54 100.332 2689.14 100.332C2682.37 100.332 2677.03 103.099 2673.12 108.633C2669.28 114.167 2667.36 122.435 2667.36 133.438ZM2753.1 131.191C2753.1 120.71 2755.12 111.367 2759.16 103.164C2763.19 94.9609 2768.99 88.6133 2776.54 84.1211C2784.16 79.6289 2792.98 77.3828 2803 77.3828C2817.26 77.3828 2828.88 81.7448 2837.87 90.4688C2846.92 99.1927 2851.96 111.042 2853 126.016L2853.2 133.242C2853.2 149.453 2848.67 162.474 2839.62 172.305C2830.58 182.07 2818.43 186.953 2803.2 186.953C2787.96 186.953 2775.79 182.07 2766.68 172.305C2757.63 162.539 2753.1 149.258 2753.1 132.461V131.191ZM2781.32 133.242C2781.32 143.268 2783.21 150.951 2786.99 156.289C2790.76 161.562 2796.17 164.199 2803.2 164.199C2810.04 164.199 2815.37 161.595 2819.21 156.387C2823.06 151.113 2824.98 142.715 2824.98 131.191C2824.98 121.361 2823.06 113.743 2819.21 108.34C2815.37 102.936 2809.97 100.234 2803 100.234C2796.1 100.234 2790.76 102.936 2786.99 108.34C2783.21 113.678 2781.32 121.979 2781.32 133.242ZM2929.96 105.801C2926.12 105.28 2922.73 105.02 2919.8 105.02C2909.12 105.02 2902.12 108.633 2898.8 115.859V185H2870.58V79.3359H2897.24L2898.02 91.9336C2903.69 82.2331 2911.53 77.3828 2921.56 77.3828C2924.68 77.3828 2927.61 77.806 2930.35 78.6523L2929.96 105.801ZM2984.84 145.059L3004.37 79.3359H3034.64L2992.16 201.406L2989.82 206.973C2983.51 220.775 2973.09 227.676 2958.57 227.676C2954.47 227.676 2950.3 227.057 2946.07 225.82V204.434L2950.37 204.531C2955.71 204.531 2959.68 203.717 2962.28 202.09C2964.95 200.462 2967.03 197.76 2968.53 193.984L2971.85 185.293L2934.84 79.3359H2965.21L2984.84 145.059ZM41.6758 419V334.039H25.9531V313.336H41.6758V308.453C41.806 295.172 45.875 284.951 53.8828 277.789C61.9557 270.562 73.3164 266.949 87.9648 266.949C96.7539 266.949 107.431 268.87 119.996 272.711L115.895 296.051C109.514 294.163 104.566 292.958 101.051 292.438C97.5352 291.852 93.7591 291.559 89.7227 291.559C76.5716 291.559 69.9961 297.385 69.9961 309.039V313.336H90.7969V334.039H69.9961V419H41.6758ZM133.18 419H104.859V313.336H133.18V419ZM215.895 339.801C212.053 339.28 208.668 339.02 205.738 339.02C195.061 339.02 188.062 342.633 184.742 349.859V419H156.52V313.336H183.18L183.961 325.934C189.625 316.233 197.47 311.383 207.496 311.383C210.621 311.383 213.551 311.806 216.285 312.652L215.895 339.801ZM286.793 389.801C286.793 386.35 285.068 383.648 281.617 381.695C278.232 379.677 272.763 377.887 265.211 376.324C240.081 371.051 227.516 360.374 227.516 344.293C227.516 334.918 231.389 327.105 239.137 320.855C246.949 314.54 257.138 311.383 269.703 311.383C283.115 311.383 293.824 314.54 301.832 320.855C309.905 327.171 313.941 335.374 313.941 345.465H285.719C285.719 341.428 284.417 338.108 281.812 335.504C279.208 332.835 275.139 331.5 269.605 331.5C264.853 331.5 261.174 332.574 258.57 334.723C255.966 336.871 254.664 339.605 254.664 342.926C254.664 346.051 256.129 348.59 259.059 350.543C262.053 352.431 267.066 354.091 274.098 355.523C281.129 356.891 287.053 358.453 291.871 360.211C306.78 365.68 314.234 375.152 314.234 388.629C314.234 398.264 310.1 406.077 301.832 412.066C293.564 417.991 282.887 420.953 269.801 420.953C260.947 420.953 253.069 419.391 246.168 416.266C239.332 413.076 233.961 408.746 230.055 403.277C226.148 397.743 224.195 391.786 224.195 385.406H250.953C251.214 390.419 253.069 394.26 256.52 396.93C259.97 399.599 264.592 400.934 270.387 400.934C275.79 400.934 279.859 399.924 282.594 397.906C285.393 395.823 286.793 393.121 286.793 389.801ZM366.285 287.359V313.336H384.352V334.039H366.285V386.773C366.285 390.68 367.034 393.479 368.531 395.172C370.029 396.865 372.893 397.711 377.125 397.711C380.25 397.711 383.017 397.483 385.426 397.027V418.414C379.892 420.107 374.195 420.953 368.336 420.953C348.544 420.953 338.453 410.96 338.062 390.973V334.039H322.633V313.336H338.062V287.359H366.285ZM401.539 405.133C401.539 400.641 403.036 396.995 406.031 394.195C409.091 391.396 412.9 389.996 417.457 389.996C422.079 389.996 425.888 391.396 428.883 394.195C431.943 396.995 433.473 400.641 433.473 405.133C433.473 409.56 431.975 413.173 428.98 415.973C425.986 418.707 422.145 420.074 417.457 420.074C412.835 420.074 409.026 418.707 406.031 415.973C403.036 413.173 401.539 409.56 401.539 405.133ZM621.559 371.637C620.452 386.936 614.788 398.98 604.566 407.77C594.41 416.559 580.999 420.953 564.332 420.953C546.103 420.953 531.747 414.833 521.266 402.594C510.849 390.289 505.641 373.427 505.641 352.008V343.316C505.641 329.645 508.049 317.6 512.867 307.184C517.685 296.767 524.553 288.792 533.473 283.258C542.457 277.659 552.874 274.859 564.723 274.859C581.129 274.859 594.345 279.254 604.371 288.043C614.397 296.832 620.191 309.169 621.754 325.055H592.457C591.741 315.875 589.169 309.234 584.742 305.133C580.38 300.966 573.707 298.883 564.723 298.883C554.957 298.883 547.633 302.398 542.75 309.43C537.932 316.396 535.458 327.236 535.328 341.949V352.691C535.328 368.056 537.639 379.286 542.262 386.383C546.949 393.479 554.306 397.027 564.332 397.027C573.382 397.027 580.12 394.977 584.547 390.875C589.039 386.708 591.611 380.296 592.262 371.637H621.559ZM668.727 419H640.406V269H668.727V419ZM721.852 419H693.531V313.336H721.852V419ZM691.871 285.992C691.871 281.76 693.271 278.277 696.07 275.543C698.935 272.809 702.809 271.441 707.691 271.441C712.509 271.441 716.35 272.809 719.215 275.543C722.079 278.277 723.512 281.76 723.512 285.992C723.512 290.289 722.047 293.805 719.117 296.539C716.253 299.273 712.444 300.641 707.691 300.641C702.939 300.641 699.098 299.273 696.168 296.539C693.303 293.805 691.871 290.289 691.871 285.992ZM789.137 398.199C794.345 398.199 798.577 396.767 801.832 393.902C805.087 391.038 806.78 387.229 806.91 382.477H833.375C833.31 389.638 831.357 396.214 827.516 402.203C823.674 408.128 818.401 412.75 811.695 416.07C805.055 419.326 797.698 420.953 789.625 420.953C774.521 420.953 762.607 416.168 753.883 406.598C745.159 396.962 740.797 383.681 740.797 366.754V364.898C740.797 348.622 745.126 335.634 753.785 325.934C762.444 316.233 774.326 311.383 789.43 311.383C802.646 311.383 813.225 315.159 821.168 322.711C829.176 330.198 833.245 340.191 833.375 352.691H806.91C806.78 347.223 805.087 342.796 801.832 339.41C798.577 335.96 794.28 334.234 788.941 334.234C782.366 334.234 777.385 336.643 774 341.461C770.68 346.214 769.02 353.961 769.02 364.703V367.633C769.02 378.505 770.68 386.318 774 391.07C777.32 395.823 782.366 398.199 789.137 398.199ZM887.867 376.617L877.711 386.773V419H849.488V269H877.711V352.105L883.18 345.074L910.23 313.336H944.117L905.934 357.379L947.438 419H915.016L887.867 376.617ZM1039.92 287.359V313.336H1057.98V334.039H1039.92V386.773C1039.92 390.68 1040.67 393.479 1042.16 395.172C1043.66 396.865 1046.53 397.711 1050.76 397.711C1053.88 397.711 1056.65 397.483 1059.06 397.027V418.414C1053.52 420.107 1047.83 420.953 1041.97 420.953C1022.18 420.953 1012.09 410.96 1011.7 390.973V334.039H996.266V313.336H1011.7V287.359H1039.92ZM1101.25 324.859C1108.73 315.875 1118.14 311.383 1129.47 311.383C1152.39 311.383 1164.01 324.697 1164.33 351.324V419H1136.11V352.105C1136.11 346.051 1134.81 341.591 1132.2 338.727C1129.6 335.797 1125.27 334.332 1119.21 334.332C1110.95 334.332 1104.96 337.522 1101.25 343.902V419H1073.02V269H1101.25V324.859ZM1215.41 419H1187.09V313.336H1215.41V419ZM1185.43 285.992C1185.43 281.76 1186.83 278.277 1189.62 275.543C1192.49 272.809 1196.36 271.441 1201.25 271.441C1206.06 271.441 1209.9 272.809 1212.77 275.543C1215.63 278.277 1217.07 281.76 1217.07 285.992C1217.07 290.289 1215.6 293.805 1212.67 296.539C1209.81 299.273 1206 300.641 1201.25 300.641C1196.49 300.641 1192.65 299.273 1189.72 296.539C1186.86 293.805 1185.43 290.289 1185.43 285.992ZM1295.97 389.801C1295.97 386.35 1294.25 383.648 1290.8 381.695C1287.41 379.677 1281.94 377.887 1274.39 376.324C1249.26 371.051 1236.7 360.374 1236.7 344.293C1236.7 334.918 1240.57 327.105 1248.32 320.855C1256.13 314.54 1266.32 311.383 1278.88 311.383C1292.29 311.383 1303 314.54 1311.01 320.855C1319.08 327.171 1323.12 335.374 1323.12 345.465H1294.9C1294.9 341.428 1293.6 338.108 1290.99 335.504C1288.39 332.835 1284.32 331.5 1278.79 331.5C1274.03 331.5 1270.35 332.574 1267.75 334.723C1265.15 336.871 1263.84 339.605 1263.84 342.926C1263.84 346.051 1265.31 348.59 1268.24 350.543C1271.23 352.431 1276.25 354.091 1283.28 355.523C1290.31 356.891 1296.23 358.453 1301.05 360.211C1315.96 365.68 1323.41 375.152 1323.41 388.629C1323.41 398.264 1319.28 406.077 1311.01 412.066C1302.74 417.991 1292.07 420.953 1278.98 420.953C1270.13 420.953 1262.25 419.391 1255.35 416.266C1248.51 413.076 1243.14 408.746 1239.23 403.277C1235.33 397.743 1233.38 391.786 1233.38 385.406H1260.13C1260.39 390.419 1262.25 394.26 1265.7 396.93C1269.15 399.599 1273.77 400.934 1279.57 400.934C1284.97 400.934 1289.04 399.924 1291.77 397.906C1294.57 395.823 1295.97 393.121 1295.97 389.801ZM1421.27 419H1392.95V313.336H1421.27V419ZM1391.29 285.992C1391.29 281.76 1392.68 278.277 1395.48 275.543C1398.35 272.809 1402.22 271.441 1407.11 271.441C1411.92 271.441 1415.76 272.809 1418.63 275.543C1421.49 278.277 1422.93 281.76 1422.93 285.992C1422.93 290.289 1421.46 293.805 1418.53 296.539C1415.67 299.273 1411.86 300.641 1407.11 300.641C1402.35 300.641 1398.51 299.273 1395.58 296.539C1392.72 293.805 1391.29 290.289 1391.29 285.992ZM1471.07 313.336L1471.95 325.152C1479.44 315.973 1489.56 311.383 1502.32 311.383C1515.93 311.383 1525.27 316.754 1530.35 327.496C1537.77 316.754 1548.35 311.383 1562.09 311.383C1573.54 311.383 1582.07 314.736 1587.67 321.441C1593.27 328.082 1596.07 338.108 1596.07 351.52V419H1567.75V351.617C1567.75 345.628 1566.58 341.266 1564.23 338.531C1561.89 335.732 1557.76 334.332 1551.83 334.332C1543.37 334.332 1537.51 338.368 1534.25 346.441L1534.35 419H1506.13V351.715C1506.13 345.595 1504.92 341.168 1502.52 338.434C1500.11 335.699 1496.01 334.332 1490.21 334.332C1482.2 334.332 1476.41 337.652 1472.83 344.293V419H1444.61V313.336H1471.07ZM1679.08 419C1677.78 416.461 1676.83 413.303 1676.25 409.527C1669.41 417.145 1660.52 420.953 1649.59 420.953C1639.23 420.953 1630.64 417.958 1623.8 411.969C1617.03 405.979 1613.65 398.427 1613.65 389.312C1613.65 378.115 1617.78 369.521 1626.05 363.531C1634.38 357.542 1646.4 354.514 1662.09 354.449H1675.07V348.395C1675.07 343.512 1673.8 339.605 1671.27 336.676C1668.79 333.746 1664.85 332.281 1659.45 332.281C1654.7 332.281 1650.95 333.421 1648.22 335.699C1645.55 337.978 1644.21 341.103 1644.21 345.074H1615.99C1615.99 338.954 1617.88 333.29 1621.66 328.082C1625.43 322.874 1630.77 318.805 1637.67 315.875C1644.57 312.88 1652.32 311.383 1660.91 311.383C1673.93 311.383 1684.25 314.671 1691.87 321.246C1699.55 327.757 1703.39 336.936 1703.39 348.785V394.586C1703.46 404.612 1704.86 412.197 1707.59 417.34V419H1679.08ZM1655.74 399.371C1659.9 399.371 1663.75 398.46 1667.26 396.637C1670.78 394.749 1673.38 392.242 1675.07 389.117V370.953H1664.53C1650.4 370.953 1642.88 375.836 1641.97 385.602L1641.87 387.262C1641.87 390.777 1643.11 393.674 1645.58 395.953C1648.06 398.232 1651.44 399.371 1655.74 399.371ZM1720.97 365.387C1720.97 349.176 1724.81 336.122 1732.5 326.227C1740.24 316.331 1750.66 311.383 1763.75 311.383C1775.33 311.383 1784.35 315.354 1790.8 323.297L1791.97 313.336H1817.55V415.484C1817.55 424.729 1815.44 432.77 1811.21 439.605C1807.04 446.441 1801.15 451.65 1793.53 455.23C1785.91 458.811 1776.99 460.602 1766.77 460.602C1759.03 460.602 1751.47 459.039 1744.12 455.914C1736.76 452.854 1731.19 448.883 1727.42 444L1739.92 426.812C1746.95 434.69 1755.48 438.629 1765.5 438.629C1772.99 438.629 1778.82 436.611 1782.98 432.574C1787.15 428.603 1789.23 422.939 1789.23 415.582V409.918C1782.72 417.275 1774.16 420.953 1763.55 420.953C1750.86 420.953 1740.57 416.005 1732.69 406.109C1724.88 396.148 1720.97 382.965 1720.97 366.559V365.387ZM1749.2 367.438C1749.2 377.008 1751.12 384.527 1754.96 389.996C1758.8 395.4 1764.07 398.102 1770.78 398.102C1779.37 398.102 1785.52 394.879 1789.23 388.434V344C1785.46 337.555 1779.37 334.332 1770.97 334.332C1764.2 334.332 1758.86 337.099 1754.96 342.633C1751.12 348.167 1749.2 356.435 1749.2 367.438ZM1887.96 420.953C1872.47 420.953 1859.84 416.201 1850.07 406.695C1840.37 397.19 1835.52 384.527 1835.52 368.707V365.973C1835.52 355.361 1837.57 345.888 1841.68 337.555C1845.78 329.156 1851.57 322.711 1859.06 318.219C1866.61 313.661 1875.2 311.383 1884.84 311.383C1899.29 311.383 1910.65 315.94 1918.92 325.055C1927.26 334.169 1931.42 347.092 1931.42 363.824V375.348H1864.14C1865.05 382.249 1867.78 387.783 1872.34 391.949C1876.96 396.116 1882.79 398.199 1889.82 398.199C1900.69 398.199 1909.19 394.26 1915.31 386.383L1929.18 401.91C1924.94 407.9 1919.21 412.587 1911.99 415.973C1904.76 419.293 1896.75 420.953 1887.96 420.953ZM1884.74 334.234C1879.14 334.234 1874.59 336.122 1871.07 339.898C1867.62 343.674 1865.41 349.078 1864.43 356.109H1903.69V353.863C1903.56 347.613 1901.86 342.796 1898.61 339.41C1895.35 335.96 1890.73 334.234 1884.74 334.234ZM2031.13 287.359V313.336H2049.2V334.039H2031.13V386.773C2031.13 390.68 2031.88 393.479 2033.38 395.172C2034.87 396.865 2037.74 397.711 2041.97 397.711C2045.09 397.711 2047.86 397.483 2050.27 397.027V418.414C2044.74 420.107 2039.04 420.953 2033.18 420.953C2013.39 420.953 2003.3 410.96 2002.91 390.973V334.039H1987.48V313.336H2002.91V287.359H2031.13ZM2057.59 365.191C2057.59 354.71 2059.61 345.367 2063.65 337.164C2067.68 328.961 2073.48 322.613 2081.03 318.121C2088.65 313.629 2097.47 311.383 2107.5 311.383C2121.75 311.383 2133.38 315.745 2142.36 324.469C2151.41 333.193 2156.45 345.042 2157.5 360.016L2157.69 367.242C2157.69 383.453 2153.17 396.474 2144.12 406.305C2135.07 416.07 2122.93 420.953 2107.69 420.953C2092.46 420.953 2080.28 416.07 2071.17 406.305C2062.12 396.539 2057.59 383.258 2057.59 366.461V365.191ZM2085.82 367.242C2085.82 377.268 2087.7 384.951 2091.48 390.289C2095.26 395.562 2100.66 398.199 2107.69 398.199C2114.53 398.199 2119.87 395.595 2123.71 390.387C2127.55 385.113 2129.47 376.715 2129.47 365.191C2129.47 355.361 2127.55 347.743 2123.71 342.34C2119.87 336.936 2114.46 334.234 2107.5 334.234C2100.6 334.234 2095.26 336.936 2091.48 342.34C2087.7 347.678 2085.82 355.979 2085.82 367.242ZM2286.11 419C2284.81 416.461 2283.86 413.303 2283.28 409.527C2276.44 417.145 2267.55 420.953 2256.62 420.953C2246.27 420.953 2237.67 417.958 2230.84 411.969C2224.07 405.979 2220.68 398.427 2220.68 389.312C2220.68 378.115 2224.81 369.521 2233.08 363.531C2241.42 357.542 2253.43 354.514 2269.12 354.449H2282.11V348.395C2282.11 343.512 2280.84 339.605 2278.3 336.676C2275.82 333.746 2271.88 332.281 2266.48 332.281C2261.73 332.281 2257.98 333.421 2255.25 335.699C2252.58 337.978 2251.25 341.103 2251.25 345.074H2223.02C2223.02 338.954 2224.91 333.29 2228.69 328.082C2232.46 322.874 2237.8 318.805 2244.7 315.875C2251.6 312.88 2259.35 311.383 2267.95 311.383C2280.97 311.383 2291.29 314.671 2298.9 321.246C2306.58 327.757 2310.43 336.936 2310.43 348.785V394.586C2310.49 404.612 2311.89 412.197 2314.62 417.34V419H2286.11ZM2262.77 399.371C2266.94 399.371 2270.78 398.46 2274.29 396.637C2277.81 394.749 2280.41 392.242 2282.11 389.117V370.953H2271.56C2257.43 370.953 2249.91 375.836 2249 385.602L2248.9 387.262C2248.9 390.777 2250.14 393.674 2252.61 395.953C2255.09 398.232 2258.47 399.371 2262.77 399.371ZM2327.71 365.387C2327.71 348.915 2331.39 335.797 2338.75 326.031C2346.17 316.266 2356.29 311.383 2369.12 311.383C2379.4 311.383 2387.9 315.224 2394.61 322.906V269H2422.93V419H2397.44L2396.07 407.77C2389.04 416.559 2379.99 420.953 2368.92 420.953C2356.49 420.953 2346.49 416.07 2338.94 406.305C2331.45 396.474 2327.71 382.835 2327.71 365.387ZM2355.93 367.438C2355.93 377.333 2357.66 384.918 2361.11 390.191C2364.56 395.465 2369.57 398.102 2376.15 398.102C2384.87 398.102 2391.02 394.423 2394.61 387.066V345.367C2391.09 338.01 2385 334.332 2376.34 334.332C2362.74 334.332 2355.93 345.367 2355.93 367.438ZM2440.41 365.387C2440.41 348.915 2444.08 335.797 2451.44 326.031C2458.86 316.266 2468.99 311.383 2481.81 311.383C2492.1 311.383 2500.6 315.224 2507.3 322.906V269H2535.62V419H2510.13L2508.77 407.77C2501.73 416.559 2492.68 420.953 2481.62 420.953C2469.18 420.953 2459.19 416.07 2451.64 406.305C2444.15 396.474 2440.41 382.835 2440.41 365.387ZM2468.63 367.438C2468.63 377.333 2470.35 384.918 2473.8 390.191C2477.26 395.465 2482.27 398.102 2488.84 398.102C2497.57 398.102 2503.72 394.423 2507.3 387.066V345.367C2503.79 338.01 2497.7 334.332 2489.04 334.332C2475.43 334.332 2468.63 345.367 2468.63 367.438ZM2602.91 365.191C2602.91 354.71 2604.92 345.367 2608.96 337.164C2613 328.961 2618.79 322.613 2626.34 318.121C2633.96 313.629 2642.78 311.383 2652.81 311.383C2667.07 311.383 2678.69 315.745 2687.67 324.469C2696.72 333.193 2701.77 345.042 2702.81 360.016L2703 367.242C2703 383.453 2698.48 396.474 2689.43 406.305C2680.38 416.07 2668.24 420.953 2653 420.953C2637.77 420.953 2625.6 416.07 2616.48 406.305C2607.43 396.539 2602.91 383.258 2602.91 366.461V365.191ZM2631.13 367.242C2631.13 377.268 2633.02 384.951 2636.79 390.289C2640.57 395.562 2645.97 398.199 2653 398.199C2659.84 398.199 2665.18 395.595 2669.02 390.387C2672.86 385.113 2674.78 376.715 2674.78 365.191C2674.78 355.361 2672.86 347.743 2669.02 342.34C2665.18 336.936 2659.77 334.234 2652.81 334.234C2645.91 334.234 2640.57 336.936 2636.79 342.34C2633.02 347.678 2631.13 355.979 2631.13 367.242ZM2746.36 313.336L2747.24 325.543C2754.79 316.103 2764.92 311.383 2777.61 311.383C2788.81 311.383 2797.14 314.671 2802.61 321.246C2808.08 327.822 2810.88 337.652 2811.01 350.738V419H2782.79V351.422C2782.79 345.432 2781.49 341.103 2778.88 338.434C2776.28 335.699 2771.95 334.332 2765.89 334.332C2757.95 334.332 2751.99 337.717 2748.02 344.488V419H2719.8V313.336H2746.36ZM2881.13 420.953C2865.63 420.953 2853 416.201 2843.24 406.695C2833.54 397.19 2828.69 384.527 2828.69 368.707V365.973C2828.69 355.361 2830.74 345.888 2834.84 337.555C2838.94 329.156 2844.74 322.711 2852.22 318.219C2859.77 313.661 2868.37 311.383 2878 311.383C2892.46 311.383 2903.82 315.94 2912.09 325.055C2920.42 334.169 2924.59 347.092 2924.59 363.824V375.348H2857.3C2858.21 382.249 2860.95 387.783 2865.5 391.949C2870.13 396.116 2875.95 398.199 2882.98 398.199C2893.86 398.199 2902.35 394.26 2908.47 386.383L2922.34 401.91C2918.11 407.9 2912.38 412.587 2905.15 415.973C2897.93 419.293 2889.92 420.953 2881.13 420.953ZM2877.91 334.234C2872.31 334.234 2867.75 336.122 2864.23 339.898C2860.78 343.674 2858.57 349.078 2857.59 356.109H2896.85V353.863C2896.72 347.613 2895.03 342.796 2891.77 339.41C2888.52 335.96 2883.9 334.234 2877.91 334.234ZM2942.16 405.133C2942.16 400.641 2943.66 396.995 2946.66 394.195C2949.72 391.396 2953.52 389.996 2958.08 389.996C2962.7 389.996 2966.51 391.396 2969.51 394.195C2972.57 396.995 2974.1 400.641 2974.1 405.133C2974.1 409.56 2972.6 413.173 2969.61 415.973C2966.61 418.707 2962.77 420.074 2958.08 420.074C2953.46 420.074 2949.65 418.707 2946.66 415.973C2943.66 413.173 2942.16 409.56 2942.16 405.133Z" fill="#F3F3F3"/>
</svg>
