<svg width="3647" height="2718" viewBox="0 0 3647 2718" fill="none" xmlns="http://www.w3.org/2000/svg">
<path d="M537 2438.62H3647V2437.07H537V2438.62Z" fill="#E7E8E5"/>
<path d="M3129.36 2537.19H3335.38V2538.75H3129.36V2537.19Z" fill="#E7E8E5"/>
<path d="M2543.12 2554.07H2597.19V2555.62H2543.12V2554.07Z" fill="#E7E8E5"/>
<path d="M3003.76 2479.43H3123.14V2480.98H3003.76V2479.43" fill="#E7E8E5"/>
<path d="M863.295 2489.88H1131.96V2491.43H863.295V2489.88Z" fill="#E7E8E5"/>
<path d="M1187.34 2489.88H1226.73V2491.43H1187.34V2489.88Z" fill="#E7E8E5"/>
<path d="M1354.75 2516.14H1937.41V2517.7H1354.75V2516.14" fill="#E7E8E5"/>
<path d="M2338.88 1141.11H3195.88V579.859H2338.88V1141.11Z" fill="#E2E2E0"/>
<path d="M2312.73 1141.11H3183.65V579.859H2312.73V1141.11Z" fill="#EDEDEB"/>
<path d="M2338.88 1251.26H3195.88V1141.1H2338.88V1251.26Z" fill="#E2E2E0"/>
<path d="M2269.16 1251.26H3140.09V1141.1H2269.16V1251.26Z" fill="#EDEDEB"/>
<path d="M2349.33 1104.49H3147.05V616.466H2349.33V1104.49Z" fill="#FAFAF9"/>
<path d="M2967.17 1104.5L2865.28 616.469H2706.29L2808.18 1104.5H2967.17Z" fill="white"/>
<path d="M3130.1 1068.06C3131.54 1068.06 3132.71 1066.88 3132.71 1065.44V640.287C3132.71 638.844 3131.54 637.668 3130.1 637.668C3128.66 637.668 3127.48 638.844 3127.48 640.287V1065.44C3127.48 1066.88 3128.66 1068.06 3130.1 1068.06Z" fill="#EDEDEB"/>
<path d="M2774.02 1104.5L2672.14 616.469H2610.15L2712.04 1104.5H2774.02Z" fill="white"/>
<path d="M2349.33 1104.49H2353.99V616.466H2349.33V1104.49Z" fill="#E2E2E0"/>
<path d="M3161.07 671.669H3147.05V630.695H3164.43L3161.07 671.669Z" fill="#EAEAE7"/>
<path d="M3147.05 671.669H3132.71V640.287C3132.71 638.844 3131.54 637.668 3130.1 637.668C3128.66 637.668 3127.48 638.844 3127.48 640.287V671.669H2876.8L2868.25 630.695H3147.05V671.669ZM2717.81 671.669H2683.66L2675.11 630.695H2709.26L2717.81 671.669Z" fill="#EEEEEC"/>
<path d="M2876.8 671.669H2717.81L2709.26 630.695H2868.25L2876.8 671.669Z" fill="#F0F0EE"/>
<path d="M2621.68 671.669H2353.99V630.695H2613.12L2621.68 671.669" fill="#EEEEEC"/>
<path d="M2312.73 671.669H2304.07L2307.44 630.695H2312.73V671.669Z" fill="#F0F0EE"/>
<path d="M2312.73 671.669H2349.33V630.699H2312.73V671.669Z" fill="#EAEAE7"/>
<path d="M3132.71 671.669H3127.48V640.287C3127.48 638.844 3128.66 637.668 3130.1 637.668C3131.54 637.668 3132.71 638.844 3132.71 640.287V671.669Z" fill="#EAEAE7"/>
<path d="M2683.66 671.669H2621.68L2613.12 630.695H2675.11L2683.66 671.669Z" fill="#F0F0EE"/>
<path d="M2349.33 671.669H2353.99V630.699H2349.33V671.669Z" fill="#E5E5E3"/>
<path d="M3161.07 738.863H3147.05V697.889H3164.43L3161.07 738.863Z" fill="#EAEAE7"/>
<path d="M3147.05 738.863H3132.71V697.889H3147.05V738.863ZM3127.48 738.863H2890.83L2882.28 697.889H3127.48V738.863ZM2731.85 738.863H2697.69L2689.13 697.889H2723.29L2731.85 738.863Z" fill="#EEEEEC"/>
<path d="M2890.83 738.863H2731.84L2723.29 697.889H2882.28L2890.83 738.863Z" fill="#F0F0EE"/>
<path d="M2635.7 738.863H2353.99V697.889H2627.15L2635.7 738.863Z" fill="#EEEEEC"/>
<path d="M2312.73 738.863H2304.07L2307.44 697.889H2312.73V738.863Z" fill="#F0F0EE"/>
<path d="M2312.73 738.863H2349.33V697.893H2312.73V738.863Z" fill="#EAEAE7"/>
<path d="M3127.48 738.863H3132.71V697.893H3127.48V738.863Z" fill="#EAEAE7"/>
<path d="M2697.69 738.863H2635.7L2627.15 697.889H2689.13L2697.69 738.863" fill="#F0F0EE"/>
<path d="M2349.33 738.863H2353.99V697.893H2349.33V738.863Z" fill="#E5E5E3"/>
<path d="M3161.07 806.056H3147.05V765.088H3164.43L3161.07 806.056Z" fill="#EAEAE7"/>
<path d="M3147.05 806.056H3132.71V765.088H3147.05V806.056ZM3127.48 806.056H2904.86L2896.31 765.088H3127.48V806.056ZM2745.87 806.056H2711.72L2703.16 765.088H2737.32L2745.87 806.056Z" fill="#EEEEEC"/>
<path d="M2904.86 806.056H2745.87L2737.32 765.088H2896.31L2904.86 806.056Z" fill="#F0F0EE"/>
<path d="M2649.73 806.056H2353.99V765.088H2641.18L2649.73 806.056Z" fill="#EEEEEC"/>
<path d="M2312.73 806.056H2304.07L2307.44 765.088H2312.73V806.056Z" fill="#F0F0EE"/>
<path d="M2312.73 806.056H2349.33V765.088H2312.73V806.056Z" fill="#EAEAE7"/>
<path d="M3127.48 806.056H3132.71V765.088H3127.48V806.056Z" fill="#EAEAE7"/>
<path d="M2711.72 806.056H2649.73L2641.18 765.088H2703.16L2711.72 806.056Z" fill="#F0F0EE"/>
<path d="M2349.33 806.056H2353.99V765.088H2349.33V806.056Z" fill="#E5E5E3"/>
<path d="M3161.07 873.248H3147.05V832.28H3164.43L3161.07 873.248Z" fill="#EAEAE7"/>
<path d="M3147.05 873.248H3132.71V832.28H3147.05V873.248ZM3127.48 873.248H2918.89L2910.33 832.28H3127.48V873.248ZM2759.9 873.248H2725.74L2717.19 832.28H2751.34L2759.9 873.248Z" fill="#EEEEEC"/>
<path d="M2918.89 873.248H2759.9L2751.34 832.28H2910.33L2918.89 873.248Z" fill="#F0F0EE"/>
<path d="M2663.76 873.248H2353.99V832.28H2655.21L2663.76 873.248" fill="#EEEEEC"/>
<path d="M2312.73 873.248H2304.07L2307.44 832.28H2312.73V873.248Z" fill="#F0F0EE"/>
<path d="M2312.73 873.248H2349.33V832.278H2312.73V873.248Z" fill="#EAEAE7"/>
<path d="M3127.48 873.248H3132.71V832.278H3127.48V873.248Z" fill="#EAEAE7"/>
<path d="M2725.74 873.248H2663.76L2655.21 832.28H2717.19L2725.74 873.248Z" fill="#F0F0EE"/>
<path d="M2349.33 873.248H2353.99V832.278H2349.33V873.248Z" fill="#E5E5E3"/>
<path d="M2312.73 940.435H2304.07L2307.44 899.473H2312.73V940.435Z" fill="#F0F0EE"/>
<path d="M3161.07 940.435H3147.05V899.473H3164.43L3161.07 940.435ZM2349.33 940.435H2312.73V899.473H2349.33V940.435Z" fill="#EAEAE7"/>
<path d="M3147.05 940.435H3132.71V899.473H3147.05V940.435ZM3127.48 940.435H2932.92L2924.36 899.473H3127.48V940.435ZM2773.93 940.435H2739.77L2731.22 899.473H2765.37L2773.93 940.435ZM2677.79 940.435H2443.6C2449.75 936.379 2455.96 932.41 2462.11 928.529L2451.07 904.562C2442.58 907.485 2434.78 910.689 2426.78 914.147C2418.82 917.544 2410.95 921.232 2403.24 925.325C2394.42 930.009 2385.61 934.874 2376.96 940.435H2353.99V899.473H2669.23L2677.79 940.435" fill="#EEEEEC"/>
<path d="M2932.92 940.435H2915.43C2909.74 926.42 2903.47 912.829 2896.61 899.473H2924.36L2932.92 940.435ZM2876.58 940.435H2773.93L2765.37 899.473H2865.03C2869.03 913.071 2872.98 926.775 2876.58 940.435" fill="#F0F0EE"/>
<path d="M3127.48 940.435H3132.71V899.468H3127.48V940.435Z" fill="#EAEAE7"/>
<path d="M2739.77 940.435H2677.79L2669.24 899.473H2731.22L2739.77 940.435Z" fill="#F0F0EE"/>
<path d="M2349.33 940.435H2353.99V899.468H2349.33V940.435Z" fill="#E5E5E3"/>
<path d="M2312.73 1000.27H2304.67L2307.44 966.667H2312.73V1000.27" fill="#F0F0EE"/>
<path d="M3161.07 1007.63H3147.05V966.667H3164.43L3161.07 1007.63ZM2325.74 1000.27H2312.73V966.667H2344.59C2341.89 969.572 2339.26 972.732 2336.74 976.252C2333.48 980.799 2330.36 986.043 2327.99 992.469C2327.08 994.864 2326.31 997.483 2325.74 1000.27Z" fill="#EAEAE7"/>
<path d="M3147.05 1007.63H3132.71V966.667H3147.05V1007.63ZM3127.48 1007.63H2946.94L2938.39 966.667H3127.48V1007.63ZM2787.96 1007.63H2753.8L2745.25 966.667H2779.4L2787.96 1007.63ZM2691.82 1007.63H2685.31C2686.27 1001.69 2687.31 996.002 2688.3 990.783L2691.82 1007.63ZM2657.61 1007.63H2597.21C2588.81 1002.95 2579.27 1000.27 2569.33 1000.27H2564.22H2374.47C2377.25 995.641 2381.45 990.46 2386.22 985.502C2392.58 979.014 2399.65 972.738 2407.18 966.667H2683.27L2686.63 982.759L2657.61 1007.63" fill="#EEEEEC"/>
<path d="M2946.94 1007.63H2935.07C2933.23 992.512 2929.38 979.555 2925.23 966.667H2938.39L2946.94 1007.63V1007.63ZM2889.54 1007.63H2787.95L2779.4 966.667H2882.97C2883.73 970.15 2884.46 973.627 2885.15 977.092C2887.2 987.493 2888.97 998.167 2889.54 1007.63" fill="#F0F0EE"/>
<path d="M3127.48 1007.63H3132.71V966.664H3127.48V1007.63Z" fill="#EAEAE7"/>
<path d="M2753.8 1007.63H2691.82L2688.3 990.783C2689.08 986.672 2689.83 982.858 2690.51 979.425L2686.63 982.759L2683.27 966.667H2745.25L2753.8 1007.63" fill="#F0F0EE"/>
<path d="M3072.82 2064.33H2893.13V2028.9H3072.82V2064.33Z" fill="#E2E2E0"/>
<path d="M2554.2 2437.07H2587.37V1621.79H2554.2V2437.07Z" fill="#E2E2E0"/>
<path d="M2439.3 2064.33H2893.13V2028.9H2439.3V2064.33Z" fill="#F3F2F1"/>
<path d="M3072.82 2258.2H2893.13V2222.77H3072.82V2258.2Z" fill="#E2E2E0"/>
<path d="M2439.3 2258.2H2893.13V2222.77H2439.3V2258.2Z" fill="#F3F2F1"/>
<path d="M3072.82 1676.59H2893.13V1641.16H3072.82V1676.59Z" fill="#E2E2E0"/>
<path d="M2439.3 1676.59H2893.13V1641.16H2439.3V1676.59Z" fill="#F3F2F1"/>
<path d="M3072.82 1870.46H2893.13V1835.03H3072.82V1870.46Z" fill="#E2E2E0"/>
<path d="M2439.3 1870.46H2893.13V1835.03H2439.3V1870.46Z" fill="#F3F2F1"/>
<path d="M3008.03 2437.07H3041.2V1621.79H3008.03V2437.07Z" fill="#E2E2E0"/>
<path d="M2859.96 2437.07H2893.13V1621.79H2859.96V2437.07Z" fill="#F3F2F1"/>
<path d="M2439.3 2437.07H2472.47V1621.79H2439.3V2437.07Z" fill="#F3F2F1"/>
<path d="M943.625 2437.07H1283.1V1778.37H943.625V2437.07Z" fill="#E2E2E0"/>
<path d="M1034.27 2437.07H943.625V2346.14H1129.32L1034.27 2437.07Z" fill="#FAFAF9"/>
<path d="M1869.22 2437.07H2208.69V1778.37H1869.22V2437.07Z" fill="#E2E2E0"/>
<path d="M943.625 2405.77H1948.34V1778.37H943.625V2405.77Z" fill="#FAFAF9"/>
<path d="M1857.69 2437.07H1948.34V2346.14H1762.64L1857.69 2437.07" fill="#FAFAF9"/>
<path d="M1013.95 2169.17H1878.01V2012.16H1013.95V2169.17Z" fill="#EDEDEB"/>
<path d="M1013.95 2359.74H1878.01V2202.73H1013.95V2359.74Z" fill="#EDEDEB"/>
<path d="M1178.18 2028.95H1713.77C1729.5 2028.95 1742.24 2016.21 1742.24 2000.49V1998.57H1149.72V2000.49C1149.72 2016.21 1162.46 2028.95 1178.18 2028.95Z" fill="#FAFAF9"/>
<path d="M1013.95 1978.6H1878.01V1821.59H1013.95V1978.6Z" fill="#EDEDEB"/>
<path d="M1178.18 1838.38H1713.77C1729.5 1838.38 1742.24 1825.64 1742.24 1809.92V1808H1149.72V1809.92C1149.72 1825.64 1162.46 1838.38 1178.18 1838.38Z" fill="#FAFAF9"/>
<path d="M1178.18 2219.52H1713.77C1729.5 2219.52 1742.24 2206.77 1742.24 2191.05V2189.13H1149.72V2191.05C1149.72 2206.77 1162.46 2219.52 1178.18 2219.52Z" fill="#FAFAF9"/>
<path d="M997.703 1141.11H1854.7V579.859H997.703V1141.11Z" fill="#E2E2E0"/>
<path d="M971.556 1141.11H1842.49V579.859H971.556V1141.11Z" fill="#EDEDEB"/>
<path d="M997.703 1251.26H1854.7V1141.1H997.703V1251.26Z" fill="#E2E2E0"/>
<path d="M927.992 1251.26H1798.92V1141.1H927.992V1251.26Z" fill="#EDEDEB"/>
<path d="M1008.16 1104.49H1805.87V616.466H1008.16V1104.49Z" fill="#FAFAF9"/>
<path d="M1626 1104.5L1524.11 616.469H1365.12L1467.01 1104.5H1626" fill="white"/>
<path d="M1788.92 1068.06C1790.37 1068.06 1791.54 1066.88 1791.54 1065.44V640.287C1791.54 638.844 1790.37 637.668 1788.92 637.668C1787.48 637.668 1786.31 638.844 1786.31 640.287V1065.44C1786.31 1066.88 1787.48 1068.06 1788.92 1068.06Z" fill="#EDEDEB"/>
<path d="M1432.85 1104.5L1330.96 616.469H1268.98L1370.87 1104.5H1432.85Z" fill="white"/>
<path d="M1008.16 1104.49H1012.81V616.466H1008.16V1104.49Z" fill="#E2E2E0"/>
<path d="M964.797 671.669H962.897L966.267 630.695H971.554V653.81H966.267L964.797 671.669Z" fill="#F0F0EE"/>
<path d="M1821.36 653.81H1805.87V630.695H1823.27L1821.36 653.81ZM1008.16 653.81H971.556V630.695H1008.16V653.81Z" fill="#EAEAE7"/>
<path d="M1805.87 653.81H1791.54V640.287C1791.54 638.844 1790.37 637.668 1788.92 637.668C1787.48 637.668 1786.31 638.844 1786.31 640.287V653.81H1531.9L1527.08 630.695H1805.87V653.81ZM1372.91 653.81H1338.76L1333.94 630.695H1368.09L1372.91 653.81V653.81ZM1276.78 653.81H1012.81V630.695H1271.95L1276.78 653.81" fill="#EEEEEC"/>
<path d="M1531.9 653.81H1372.91L1368.09 630.695H1527.08L1531.9 653.81Z" fill="#F0F0EE"/>
<path d="M1791.54 653.81H1786.31V640.287C1786.31 638.844 1787.48 637.668 1788.92 637.668C1790.37 637.668 1791.54 638.844 1791.54 640.287V653.81Z" fill="#EAEAE7"/>
<path d="M1338.76 653.81H1276.78L1271.95 630.695H1333.94L1338.76 653.81Z" fill="#F0F0EE"/>
<path d="M1008.16 653.81H1012.81V630.697H1008.16V653.81Z" fill="#E5E5E3"/>
<path d="M964.797 694.778H962.897L964.797 671.669H971.554V676.919H966.267L964.797 694.778Z" fill="#F0F0EE"/>
<path d="M1821.36 676.919H1805.87V671.669H1819.89L1821.36 653.81H1823.27L1821.36 676.919ZM1008.16 676.919H971.556V671.669H1008.16V676.919Z" fill="#EAEAE7"/>
<path d="M1805.87 676.919H1791.54V671.669H1805.87V676.919ZM1786.31 676.919H1536.73L1535.63 671.669H1786.31V676.919ZM1377.74 676.919H1343.58L1342.49 671.669H1376.64L1377.74 676.919ZM1281.6 676.919H1012.81V671.669H1280.51L1281.6 676.919" fill="#EEEEEC"/>
<path d="M1536.73 676.919H1377.74L1376.64 671.669H1535.63L1536.73 676.919Z" fill="#F0F0EE"/>
<path d="M1786.31 676.919H1791.54V671.666H1786.31V676.919Z" fill="#EAEAE7"/>
<path d="M1343.58 676.919H1281.6L1280.51 671.669H1342.49L1343.58 676.919Z" fill="#F0F0EE"/>
<path d="M1008.16 676.919H1012.81V671.666H1008.16V676.919Z" fill="#E5E5E3"/>
<path d="M971.554 671.669H964.797L966.267 653.81H971.554V671.669Z" fill="#EBEBE9"/>
<path d="M1819.89 671.669H1805.87V653.81H1821.36L1819.89 671.669ZM1008.16 671.669H971.556V653.81H1008.16V671.669Z" fill="#E8E9E6"/>
<path d="M1805.87 671.669H1791.54V653.81H1805.87V671.669ZM1786.31 671.669H1535.63L1531.9 653.81H1786.31V671.669ZM1376.64 671.669H1342.49L1338.76 653.81H1372.91L1376.64 671.669V671.669ZM1280.51 671.669H1012.81V653.81H1276.78L1280.51 671.669" fill="#EAEAE7"/>
<path d="M1535.63 671.669H1376.64L1372.91 653.81H1531.9L1535.63 671.669Z" fill="#EBEBE8"/>
<path d="M1786.31 671.669H1791.54V653.812H1786.31V671.669Z" fill="#E8E9E6"/>
<path d="M1342.49 671.669H1280.51L1276.78 653.81H1338.76L1342.49 671.669Z" fill="#EBEBE8"/>
<path d="M1008.16 671.669H1012.81V653.812H1008.16V671.669Z" fill="#E6E6E4"/>
<path d="M964.797 717.893H962.897L964.797 694.777H971.554V700.034H966.267L964.797 717.893Z" fill="#F0F0EE"/>
<path d="M1821.36 700.034H1805.87V694.777H1819.89L1821.36 676.919H1823.27L1821.36 700.034ZM1008.16 700.034H971.556V694.777H1008.16V700.034Z" fill="#EAEAE7"/>
<path d="M1805.87 700.034H1791.54V694.777H1805.87V700.034ZM1786.31 700.034H1541.56L1540.45 694.777H1786.31V700.034ZM1382.57 700.034H1348.41L1347.31 694.777H1381.46L1382.57 700.034ZM1286.43 700.034H1012.81V694.777H1285.33L1286.43 700.034Z" fill="#EEEEEC"/>
<path d="M1541.56 700.034H1382.57L1381.46 694.777H1540.45L1541.56 700.034Z" fill="#F0F0EE"/>
<path d="M1786.31 700.034H1791.54V694.778H1786.31V700.034Z" fill="#EAEAE7"/>
<path d="M1348.41 700.034H1286.43L1285.33 694.777H1347.31L1348.41 700.034Z" fill="#F0F0EE"/>
<path d="M1008.16 700.034H1012.81V694.778H1008.16V700.034Z" fill="#E5E5E3"/>
<path d="M971.554 694.778H964.797L966.267 676.919H971.554V694.778Z" fill="#EBEBE9"/>
<path d="M1819.89 694.778H1805.87V676.919H1821.36L1819.89 694.778ZM1008.16 694.778H971.556V676.919H1008.16V694.778Z" fill="#E8E9E6"/>
<path d="M1805.87 694.778H1791.54V676.919H1805.87V694.778ZM1786.31 694.778H1540.45L1536.73 676.919H1786.31V694.778ZM1381.46 694.778H1347.31L1343.58 676.919H1377.74L1381.46 694.778ZM1285.33 694.778H1012.81V676.919H1281.6L1285.33 694.778Z" fill="#EAEAE7"/>
<path d="M1540.45 694.778H1381.46L1377.74 676.919H1536.73L1540.45 694.778" fill="#EBEBE8"/>
<path d="M1786.31 694.778H1791.54V676.921H1786.31V694.778Z" fill="#E8E9E6"/>
<path d="M1347.31 694.778H1285.33L1281.6 676.919H1343.58L1347.31 694.778Z" fill="#EBEBE8"/>
<path d="M1008.16 694.778H1012.81V676.921H1008.16V694.778Z" fill="#E6E6E4"/>
<path d="M964.797 741.001H962.897L964.797 717.893H971.554V723.143H966.267L964.797 741.001Z" fill="#F0F0EE"/>
<path d="M1821.36 723.144H1805.87V717.894H1819.89L1821.36 700.035H1823.27L1821.36 723.144ZM1008.16 723.144H971.556V717.894H1008.16V723.144Z" fill="#EAEAE7"/>
<path d="M1805.87 723.144H1791.54V717.894H1805.87V723.144ZM1786.31 723.144H1546.38L1545.28 717.894H1786.31V723.144ZM1387.39 723.144H1353.23L1352.14 717.894H1386.29L1387.39 723.144ZM1291.25 723.144H1012.81V717.894H1290.16L1291.25 723.144" fill="#EEEEEC"/>
<path d="M1546.38 723.144H1387.39L1386.29 717.894H1545.28L1546.38 723.144" fill="#F0F0EE"/>
<path d="M1786.31 723.144H1791.54V717.89H1786.31V723.144Z" fill="#EAEAE7"/>
<path d="M1353.23 723.144H1291.25L1290.16 717.894H1352.14L1353.23 723.144Z" fill="#F0F0EE"/>
<path d="M1008.16 723.144H1012.81V717.89H1008.16V723.144Z" fill="#E5E5E3"/>
<path d="M971.554 717.893H964.797L966.267 700.034H971.554V717.893Z" fill="#EBEBE9"/>
<path d="M1819.89 717.893H1805.87V700.034H1821.36L1819.89 717.893ZM1008.16 717.893H971.556V700.034H1008.16V717.893Z" fill="#E8E9E6"/>
<path d="M1805.87 717.893H1791.54V700.034H1805.87V717.893ZM1786.31 717.893H1545.28L1541.56 700.034H1786.31V717.893ZM1386.29 717.893H1352.14L1348.41 700.034H1382.57L1386.29 717.893ZM1290.16 717.893H1012.81V700.034H1286.43L1290.16 717.893" fill="#EAEAE7"/>
<path d="M1545.28 717.893H1386.29L1382.57 700.034H1541.55L1545.28 717.893Z" fill="#EBEBE8"/>
<path d="M1786.31 717.893H1791.54V700.036H1786.31V717.893Z" fill="#E8E9E6"/>
<path d="M1352.14 717.893H1290.16L1286.43 700.034H1348.41L1352.14 717.893Z" fill="#EBEBE8"/>
<path d="M1008.16 717.893H1012.81V700.036H1008.16V717.893Z" fill="#E6E6E4"/>
<path d="M964.797 764.11H962.897L964.797 741.002H971.554V746.252H966.267L964.797 764.11Z" fill="#F0F0EE"/>
<path d="M1821.36 746.252H1805.87V741.002H1819.89L1821.36 723.144H1823.27L1821.36 746.252ZM1008.16 746.252H971.556V741.002H1008.16V746.252Z" fill="#EAEAE7"/>
<path d="M1805.87 746.252H1791.54V741.002H1805.87V746.252ZM1786.31 746.252H1551.2L1550.11 741.002H1786.31V746.252ZM1392.21 746.252H1358.06L1356.96 741.002H1391.12L1392.21 746.252ZM1296.08 746.252H1012.81V741.002H1294.98L1296.08 746.252" fill="#EEEEEC"/>
<path d="M1551.2 746.252H1392.21L1391.12 741.002H1550.11L1551.2 746.252Z" fill="#F0F0EE"/>
<path d="M1786.31 746.252H1791.54V740.999H1786.31V746.252Z" fill="#EAEAE7"/>
<path d="M1358.06 746.252H1296.08L1294.98 741.002H1356.96L1358.06 746.252Z" fill="#F0F0EE"/>
<path d="M1008.16 746.252H1012.81V740.999H1008.16V746.252Z" fill="#E5E5E3"/>
<path d="M971.554 741.001H964.797L966.267 723.143H971.554V741.001Z" fill="#EBEBE9"/>
<path d="M1819.89 741.001H1805.87V723.143H1821.36L1819.89 741.001ZM1008.16 741.001H971.556V723.143H1008.16V741.001Z" fill="#E8E9E6"/>
<path d="M1805.87 741.001H1791.54V723.143H1805.87V741.001ZM1786.31 741.001H1550.11L1546.38 723.143H1786.31V741.001ZM1391.12 741.001H1356.96L1353.23 723.143H1387.39L1391.12 741.001ZM1294.98 741.001H1012.81V723.143H1291.25L1294.98 741.001Z" fill="#EAEAE7"/>
<path d="M1550.11 741.001H1391.12L1387.39 723.143H1546.38L1550.11 741.001" fill="#EBEBE8"/>
<path d="M1786.31 741.001H1791.54V723.144H1786.31V741.001Z" fill="#E8E9E6"/>
<path d="M1356.96 741.001H1294.98L1291.25 723.143H1353.23L1356.96 741.001Z" fill="#EBEBE8"/>
<path d="M1008.16 741.001H1012.81V723.144H1008.16V741.001Z" fill="#E6E6E4"/>
<path d="M971.554 787.225H962.897L964.797 764.11H971.554V787.225Z" fill="#F0F0EE"/>
<path d="M1819.89 787.225H1805.87V764.11H1819.89L1821.36 746.251H1823.27L1819.89 787.225ZM1008.16 787.225H971.556V764.11H1008.16V787.225Z" fill="#EAEAE7"/>
<path d="M1805.87 787.225H1791.54V764.11H1805.87V787.225ZM1786.31 787.225H1559.75L1554.93 764.11H1786.31V787.225ZM1400.77 787.225H1366.61L1361.79 764.11H1395.94L1400.77 787.225ZM1304.63 787.225H1012.81V764.11H1299.8L1304.63 787.225" fill="#EEEEEC"/>
<path d="M1559.76 787.225H1400.77L1395.95 764.11H1554.93L1559.76 787.225" fill="#F0F0EE"/>
<path d="M1786.31 787.225H1791.54V764.11H1786.31V787.225Z" fill="#EAEAE7"/>
<path d="M1366.61 787.225H1304.63L1299.8 764.11H1361.79L1366.61 787.225Z" fill="#F0F0EE"/>
<path d="M1008.16 787.225H1012.81V764.11H1008.16V787.225Z" fill="#E5E5E3"/>
<path d="M971.554 764.11H964.797L966.267 746.252H971.554V764.11Z" fill="#EBEBE9"/>
<path d="M1819.89 764.11H1805.87V746.252H1821.36L1819.89 764.11ZM1008.16 764.11H971.556V746.252H1008.16V764.11Z" fill="#E8E9E6"/>
<path d="M1805.87 764.11H1791.54V746.252H1805.87V764.11ZM1786.31 764.11H1554.93L1551.2 746.252H1786.31V764.11ZM1395.94 764.11H1361.79L1358.06 746.252H1392.21L1395.94 764.11ZM1299.8 764.11H1012.81V746.252H1296.08L1299.8 764.11" fill="#EAEAE7"/>
<path d="M1554.93 764.11H1395.94L1392.21 746.252H1551.2L1554.93 764.11" fill="#EBEBE8"/>
<path d="M1786.31 764.11H1791.54V746.253H1786.31V764.11Z" fill="#E8E9E6"/>
<path d="M1361.79 764.11H1299.8L1296.08 746.252H1358.06L1361.79 764.11Z" fill="#EBEBE8"/>
<path d="M1008.16 764.11H1012.81V746.253H1008.16V764.11Z" fill="#E6E6E4"/>
<path d="M1134.2 1758.25H1163.83V1427.99H1134.2V1758.25" fill="#F3F2F1"/>
<path d="M1138.02 1758.02H1146.39V1427.76H1138.02V1758.02Z" fill="#FAFAF9"/>
<path d="M1149.89 1758.02H1153.17V1427.76H1149.89V1758.02Z" fill="#FAFAF9"/>
<path d="M1039.35 1778.37H1258.69C1258.69 1763.12 1246.32 1750.74 1231.05 1750.74H1066.98C1051.72 1750.74 1039.35 1763.12 1039.35 1778.37" fill="#EDEDEB"/>
<path d="M1095.77 1633.02C1100.46 1633.02 1104.3 1629.18 1104.3 1624.49V1407.96C1104.3 1403.27 1100.46 1399.44 1095.77 1399.44C1091.09 1399.44 1087.25 1403.27 1087.25 1407.96V1624.49C1087.25 1629.18 1091.09 1633.02 1095.77 1633.02" fill="#EDEDEB"/>
<path d="M1016.4 1506.49H1281.63L1251.12 1321.13H1046.91L1016.4 1506.49" fill="#DADBD8"/>
<path d="M3297.99 2647.56C3297.99 2686.46 2758.05 2718 2092 2718C1425.95 2718 886.01 2686.46 886.01 2647.56C886.01 2608.66 1425.95 2577.13 2092 2577.13C2758.05 2577.13 3297.99 2608.66 3297.99 2647.56Z" fill="#F3F2F1"/>
<path d="M1186.67 1432.31L1178.41 1317.6L1184.61 1317.15L1192.87 1431.87L1186.67 1432.31" fill="#406FBF"/>
<path d="M1194.04 1534.7L1190.93 1491.55L1197.13 1491.1L1200.24 1534.26L1194.04 1534.7Z" fill="#406FBF"/>
<path d="M2637.56 2018.82H1305.5C1275.37 2018.82 1248.95 1994.17 1246.78 1964.04L1181.33 1055.05C1179.16 1024.92 1202.04 1000.27 1232.16 1000.27H2564.22C2594.35 1000.27 2620.77 1024.92 2622.94 1055.05L2688.4 1964.04C2690.56 1994.17 2667.69 2018.82 2637.56 2018.82" fill="#406FBF"/>
<path d="M2642.67 2018.82H1310.61C1280.48 2018.82 1254.05 1994.17 1251.88 1964.04L1186.44 1055.05C1184.27 1024.92 1207.14 1000.27 1237.27 1000.27H2569.33C2599.46 1000.27 2625.88 1024.92 2628.05 1055.05L2693.5 1964.04C2695.67 1994.17 2672.8 2018.82 2642.67 2018.82" fill="#406FBF"/>
<path d="M2629.81 2018.82H2586.86C2581.56 1995.3 2577.72 1976.2 2576.02 1963.91C2574.47 1952.66 2573.75 1941.08 2573.75 1929.21C2573.75 1928.84 2573.75 1928.47 2573.75 1928.1H2607.35C2610.8 1928.1 2613.97 1927.22 2616.68 1925.68C2617.34 1931.29 2618.01 1936.84 2618.69 1942.3C2618.7 1942.28 2618.7 1942.26 2618.7 1942.23C2620.56 1956.98 2622.53 1971.18 2624.63 1984.64C2626.27 1995.19 2628 2006.63 2629.81 2018.82V2018.82ZM2434.21 2018.82H1735.55H1310.61C1280.48 2018.82 1254.06 1994.17 1251.88 1964.04L1186.44 1055.05C1186.34 1053.7 1186.29 1052.36 1186.29 1051.03C1186.34 1022.76 1208.49 1000.27 1237.27 1000.27H2325.74C2324.81 1004.83 2324.42 1009.84 2324.93 1014.99C2325.39 1019.35 2326.51 1023.67 2328.07 1027.66H1239.24C1237.73 1027.66 1236.25 1027.72 1234.78 1027.84C1200.72 1030.64 1207.69 1082.44 1242.05 1082.44H2383.27C2406.58 1098.42 2430.52 1111.47 2454.78 1123.88C2459.8 1126.45 2464.83 1128.97 2469.86 1131.44L2468.6 1140.86H1276.17C1265.21 1140.86 1256.95 1149.75 1257.74 1160.71L1311.57 1908.24C1312.36 1919.2 1321.89 1928.1 1332.86 1928.1H2416.52C2417.43 1945.97 2419.55 1962.74 2423.09 1978.03C2426.04 1990.8 2429.8 2004.47 2434.21 2018.82V2018.82ZM2560.1 1098.13C2551.07 1092.55 2538.88 1087.17 2526.16 1082.44H2576.38C2580.03 1082.44 2583.3 1081.86 2586.17 1080.8C2584.19 1083.85 2581.89 1089.9 2580.95 1095.33C2573.88 1096.17 2566.84 1097.13 2560.1 1098.13ZM2592.29 1077.46C2609.31 1064.41 2603.65 1030.11 2575.79 1027.84C2574.31 1027.72 2572.81 1027.66 2571.3 1027.66H2392.73C2387.49 1023.84 2382.63 1019.88 2378.4 1015.93C2377.23 1014.79 2375.91 1013.65 2374.99 1012.54L2372.5 1009.88C2371.96 1009.33 2371.88 1009.26 2371.77 1009.26C2371.73 1009.26 2371.69 1009.27 2371.63 1009.27C2371.61 1009.28 2371.6 1009.29 2371.58 1009.29C2371.13 1009.29 2371.2 1005.71 2374.05 1001C2374.18 1000.75 2374.33 1000.51 2374.48 1000.27H2569.33C2598.31 1000.27 2623.86 1023.07 2627.7 1051.62C2628 1054.68 2628.1 1057.7 2627.94 1060.63C2613.49 1064.69 2602.29 1068.78 2600.32 1071.07C2599.7 1071.78 2599.19 1073.68 2598.86 1076.16C2596.3 1076.59 2594.09 1077.02 2592.29 1077.46" fill="#90B4E3"/>
<path d="M2571.3 1027.66H1239.24C1237.73 1027.66 1236.24 1027.72 1234.78 1027.84C1200.72 1030.64 1207.68 1082.44 1242.05 1082.44H2576.38C2610.75 1082.44 2610.24 1030.64 2575.79 1027.84C2574.3 1027.72 2572.8 1027.66 2571.3 1027.66" fill="#406FBF"/>
<path d="M1273.93 1055.05C1274.43 1061.99 1269.21 1067.61 1262.28 1067.61C1255.34 1067.61 1249.31 1061.99 1248.82 1055.05C1248.32 1048.12 1253.53 1042.49 1260.47 1042.49C1267.41 1042.49 1273.43 1048.12 1273.93 1055.05Z" fill="#FAFAF9"/>
<path d="M1316.65 1055.05C1317.15 1061.99 1311.93 1067.61 1305 1067.61C1298.06 1067.61 1292.03 1061.99 1291.54 1055.05C1291.03 1048.12 1296.25 1042.49 1303.19 1042.49C1310.12 1042.49 1316.15 1048.12 1316.65 1055.05Z" fill="#FAFAF9"/>
<path d="M1359.37 1055.05C1359.87 1061.99 1354.65 1067.61 1347.71 1067.61C1340.78 1067.61 1334.75 1061.99 1334.25 1055.05C1333.75 1048.12 1338.97 1042.49 1345.9 1042.49C1352.84 1042.49 1358.87 1048.12 1359.37 1055.05Z" fill="#FAFAF9"/>
<path d="M2607.35 1928.1H1332.86C1321.89 1928.1 1312.36 1919.21 1311.57 1908.24L1257.74 1160.71C1256.95 1149.75 1265.21 1140.86 1276.17 1140.86H2550.67C2561.63 1140.86 2571.17 1149.75 2571.96 1160.71L2625.78 1908.24C2626.57 1919.21 2618.32 1928.1 2607.35 1928.1" fill="white"/>
<path d="M2070.42 1643.34L2049.67 1355.21L1986.8 1317.37H1813.86L1837.33 1643.34H2070.42" fill="white"/>
<path d="M1840.14 1640.32H2067.18L2046.77 1356.99L1985.97 1320.39H1817.1L1840.14 1640.32ZM2070.42 1646.35H1837.33C1835.75 1646.35 1834.44 1645.13 1834.32 1643.55L1810.86 1317.59C1810.79 1316.76 1811.09 1315.93 1811.65 1315.32C1812.22 1314.7 1813.03 1314.36 1813.86 1314.36H1986.8L1988.36 1314.79L2051.22 1352.63C2052.06 1353.13 2052.6 1354.02 2052.68 1354.99L2073.42 1643.12C2073.48 1643.96 2073.19 1644.78 2072.62 1645.39C2072.05 1646 2071.25 1646.35 2070.42 1646.35" fill="#406FBF"/>
<path d="M2049.67 1355.21L1986.8 1317.37L2009.88 1367.5L2049.67 1355.21Z" fill="#E7E8E5"/>
<path d="M1993.64 1325L2011.52 1363.85L2042.35 1354.32L1993.64 1325ZM2009.88 1370.52C2008.73 1370.52 2007.65 1369.85 2007.15 1368.77L1984.06 1318.64C1983.51 1317.43 1983.81 1316.01 1984.79 1315.13C1985.78 1314.24 1987.22 1314.11 1988.36 1314.79L2051.22 1352.63C2052.24 1353.25 2052.8 1354.4 2052.66 1355.58C2052.51 1356.76 2051.69 1357.74 2050.56 1358.09L2010.77 1370.38L2009.88 1370.52" fill="#406FBF"/>
<path d="M1911.43 1464.24C1911.95 1471.51 1906.48 1477.41 1899.21 1477.41C1891.93 1477.41 1885.61 1471.51 1885.09 1464.24C1884.57 1456.97 1890.04 1451.07 1897.31 1451.07C1904.59 1451.07 1910.9 1456.97 1911.43 1464.24" fill="#406FBF"/>
<path d="M1996.86 1464.24C1997.39 1471.51 1991.91 1477.41 1984.64 1477.41C1977.37 1477.41 1971.05 1471.51 1970.53 1464.24C1970.01 1456.97 1975.47 1451.07 1982.74 1451.07C1990.02 1451.07 1996.34 1456.97 1996.86 1464.24" fill="#406FBF"/>
<path d="M2020.97 1549.64C2019.4 1549.64 2018.08 1548.43 2017.96 1546.85C2016.44 1525.67 1983.23 1508.45 1943.95 1508.45C1917.91 1508.45 1894.54 1516.18 1882.95 1528.64C1877.8 1534.19 1875.41 1540.16 1875.86 1546.41C1875.98 1548.07 1874.73 1549.51 1873.07 1549.63C1871.4 1549.74 1869.96 1548.51 1869.85 1546.85C1869.28 1538.97 1872.28 1531.26 1878.54 1524.54C1891.23 1510.89 1916.3 1502.42 1943.95 1502.42C1987.04 1502.42 2022.2 1521.74 2023.97 1546.41C2024.1 1548.07 2022.85 1549.51 2021.19 1549.63L2020.97 1549.64" fill="#406FBF"/>
<path d="M1862.9 1437.56C1862.16 1437.56 1861.43 1437.29 1860.85 1436.76C1859.63 1435.62 1859.56 1433.71 1860.69 1432.5L1873.9 1418.26C1875.03 1417.04 1876.94 1416.98 1878.16 1418.1C1879.38 1419.23 1879.45 1421.14 1878.32 1422.36L1865.11 1436.59C1864.52 1437.24 1863.71 1437.56 1862.9 1437.56" fill="#406FBF"/>
<path d="M2014.77 1437.56C2014.04 1437.56 2013.3 1437.29 2012.72 1436.75L1997.46 1422.51C1996.24 1421.38 1996.17 1419.47 1997.31 1418.26C1998.45 1417.04 2000.35 1416.97 2001.57 1418.11L2016.83 1432.34C2018.04 1433.47 2018.11 1435.38 2016.97 1436.6C2016.38 1437.24 2015.58 1437.56 2014.77 1437.56Z" fill="#406FBF"/>
<path d="M1795.04 1707.75H1809.09L1829.38 1734.71L1827.44 1707.75H1841.63L1845.14 1756.47H1830.95L1810.77 1729.72L1812.7 1756.47H1798.55L1795.04 1707.75" fill="#406FBF"/>
<path d="M1866.56 1732.21C1866.91 1737.13 1868.08 1740.66 1870.06 1742.81C1872.04 1744.96 1874.61 1746.03 1877.75 1746.03C1880.99 1746.03 1883.42 1744.98 1885.04 1742.87C1886.66 1740.77 1887.27 1737 1886.88 1731.55C1886.55 1726.96 1885.38 1723.61 1883.38 1721.49C1881.38 1719.37 1878.79 1718.32 1875.62 1718.32C1872.59 1718.32 1870.23 1719.39 1868.55 1721.54C1866.86 1723.69 1866.2 1727.25 1866.56 1732.21V1732.21ZM1851.5 1732.14C1850.93 1724.19 1852.69 1717.99 1856.8 1713.56C1860.92 1709.14 1866.93 1706.91 1874.83 1706.91C1882.95 1706.91 1889.35 1709.1 1894.05 1713.45C1898.75 1717.8 1901.38 1723.9 1901.95 1731.75C1902.36 1737.44 1901.74 1742.11 1900.08 1745.75C1898.43 1749.4 1895.86 1752.24 1892.39 1754.26C1888.91 1756.29 1884.47 1757.3 1879.06 1757.3C1873.57 1757.3 1868.96 1756.43 1865.23 1754.67C1861.51 1752.93 1858.39 1750.16 1855.88 1746.36C1853.37 1742.58 1851.91 1737.84 1851.5 1732.14" fill="#406FBF"/>
<path d="M1947.07 1718.78L1949 1745.41H1952.68C1955.82 1745.41 1958.04 1745.06 1959.32 1744.36C1960.6 1743.66 1961.55 1742.44 1962.18 1740.7C1962.81 1738.96 1962.98 1736.14 1962.7 1732.24C1962.33 1727.08 1961.23 1723.55 1959.41 1721.64C1957.59 1719.74 1954.73 1718.78 1950.83 1718.78H1947.07ZM1931.22 1707.75H1953.59C1958 1707.75 1961.6 1708.35 1964.41 1709.55C1967.21 1710.74 1969.57 1712.46 1971.51 1714.7C1973.44 1716.94 1974.91 1719.54 1975.92 1722.5C1976.94 1725.48 1977.56 1728.62 1977.8 1731.95C1978.17 1737.15 1977.87 1741.19 1976.89 1744.06C1975.92 1746.93 1974.44 1749.33 1972.48 1751.27C1970.52 1753.21 1968.35 1754.5 1965.98 1755.14C1962.74 1756.03 1959.78 1756.47 1957.1 1756.47H1934.73L1931.22 1707.75" fill="#406FBF"/>
<path d="M2010.05 1737.89L2003.4 1720.38L1999.35 1737.89H2010.05ZM2013.93 1748.43H1996.83L1995.04 1756.47H1979.67L1994.47 1707.75H2010.89L2032.7 1756.47H2016.94L2013.93 1748.43" fill="#406FBF"/>
<path d="M2025.88 1707.75H2071.64L2072.5 1719.78H2057.15L2059.79 1756.47H2044.73L2042.1 1719.78H2026.74L2025.88 1707.75" fill="#406FBF"/>
<path d="M2102.83 1737.89L2096.19 1720.38L2092.13 1737.89H2102.83ZM2106.71 1748.43H2089.62L2087.83 1756.47H2072.45L2087.25 1707.75H2103.67L2125.49 1756.47H2109.73L2106.71 1748.43" fill="#406FBF"/>
<path d="M2736.94 1135.02C2742.5 1132.24 2749.12 1128.63 2755.25 1125.27C2761.49 1121.83 2767.7 1118.26 2773.81 1114.54C2786 1107.04 2798.27 1099.63 2809.94 1091.39C2833.46 1075.18 2855.5 1057.2 2875.32 1037.56C2877.92 1035.18 2880.13 1032.55 2882.54 1030.04L2886.08 1026.23L2887.86 1024.33L2888.75 1023.38L2888.81 1023.32L2888.62 1023.63C2887.73 1025.29 2888.47 1024.78 2888.81 1023.18C2889.23 1021.64 2889.58 1019.12 2889.69 1016.39C2890.09 1005.1 2887.85 990.864 2885.16 977.092C2879.61 949.193 2871.23 920.498 2862.94 892.382L2887.11 881.789C2902.25 908.823 2914.87 936.429 2925.13 966.368C2930.02 981.533 2934.52 996.761 2935.82 1015.47C2936.07 1020.24 2936.17 1025.24 2935.31 1031.09C2934.4 1036.83 2932.94 1043.71 2927.7 1051.51L2926.67 1052.95L2925.87 1053.99L2924.91 1055.16L2922.99 1057.49L2919.15 1062.15C2916.55 1065.22 2914.1 1068.46 2911.34 1071.34C2889.89 1095.16 2866.03 1116.2 2840.56 1134.49C2827.89 1143.75 2814.93 1152.55 2801.48 1160.55C2794.78 1164.61 2787.99 1168.5 2781.09 1172.28C2774.11 1176.16 2767.47 1179.54 2759.53 1183.26L2736.94 1135.02" fill="#F89E63"/>
<path d="M2691.88 2593.8C2682.81 2595.61 2675.99 2595.3 2673.35 2592.89C2672.23 2591.87 2671.82 2590.43 2672.09 2588.5C2672.23 2587.46 2672.71 2587.12 2673.12 2586.94C2676.31 2585.49 2685.43 2589.9 2691.88 2593.8ZM2681.62 2597.43C2686.43 2597.43 2691.69 2596.43 2695.37 2595.56L2696.3 2594.57L2695.77 2593.33C2693.98 2592.16 2678.16 2581.95 2672.1 2584.69C2671.14 2585.12 2669.94 2586.07 2669.64 2588.15C2669.25 2590.92 2669.94 2593.13 2671.69 2594.71C2673.91 2596.74 2677.61 2597.43 2681.62 2597.43" fill="#406FBF"/>
<path d="M2686.23 2574.48C2687.23 2574.48 2688.14 2574.83 2688.95 2575.56C2692.33 2578.55 2693.5 2586.97 2693.78 2591.96C2688.83 2588 2682.92 2579.56 2683.63 2575.99C2683.75 2575.4 2684.09 2574.7 2685.66 2574.51L2686.23 2574.48ZM2695.09 2595.59L2695.71 2595.43L2696.32 2594.36C2696.32 2593.72 2696.25 2578.73 2690.59 2573.71C2689.08 2572.37 2687.33 2571.82 2685.37 2572.06C2682.28 2572.43 2681.44 2574.38 2681.21 2575.5C2680.04 2581.37 2689.51 2592.61 2694.48 2595.43L2695.09 2595.59" fill="#406FBF"/>
<path d="M2690.51 979.425C2684.45 1010.34 2671.68 1072.96 2693.31 1093.59C2693.31 1093.59 2684.85 1124.96 2627.41 1124.96C2564.24 1124.96 2597.22 1093.6 2597.22 1093.6C2631.7 1085.36 2630.81 1059.79 2624.8 1035.76L2690.51 979.425Z" fill="#F89E63"/>
<path d="M2585.15 1106.06C2575.23 1107.4 2583.67 1081.71 2587.7 1079.05C2597 1072.9 2717.39 1064.19 2716.61 1078.8C2716.11 1085.08 2713.15 1097.36 2707.89 1101.53C2705.8 1103.18 2699.69 1102.2 2687.68 1101.22C2669.38 1099.73 2637.41 1098.23 2585.15 1106.06Z" fill="#17282F"/>
<path d="M2604.76 1097.41C2596.88 1100.08 2597.63 1074.19 2600.32 1071.07C2606.52 1063.87 2703.96 1038.83 2706.86 1053C2707.97 1059.11 2708.51 1071.33 2705.17 1076.07C2701.82 1080.81 2673.19 1072.97 2604.76 1097.41" fill="#17282F"/>
<path d="M2568.51 923.696C2567.76 923.746 2566.98 923.435 2566.46 922.794C2559.49 914.272 2550.44 915.143 2550.35 915.155C2548.98 915.298 2547.78 914.322 2547.63 912.966C2547.48 911.616 2548.46 910.397 2549.82 910.247C2550.3 910.198 2561.63 909.097 2570.28 919.671C2571.15 920.722 2570.98 922.278 2569.93 923.142L2568.51 923.696Z" fill="#17282F"/>
<path d="M2556.46 954.132C2556.46 954.132 2551.14 972.837 2544.18 982.292C2550.21 986.908 2559.36 983.623 2559.36 983.623L2556.46 954.132Z" fill="#F14358"/>
<path d="M2559.49 946.581C2559.91 950.761 2558.03 954.369 2555.29 954.642C2552.56 954.91 2550.01 951.738 2549.6 947.557C2549.19 943.371 2551.07 939.763 2553.8 939.496C2556.53 939.222 2559.08 942.394 2559.49 946.581Z" fill="#17282F"/>
<path d="M2555.03 939.607L2544.7 937.698C2544.7 937.698 2550.63 945.038 2555.03 939.607Z" fill="#17282F"/>
<path d="M2755.67 2594.36H2703.58L2707.66 2473.7H2759.76L2755.67 2594.36Z" fill="#F89E63"/>
<path d="M2699.45 2588.33H2757.98C2760.11 2588.33 2761.84 2589.81 2762.14 2591.89L2768.81 2638.2C2769.5 2643.01 2765.37 2647.55 2760.46 2647.47C2740.05 2647.11 2730.21 2645.92 2704.48 2645.92C2688.64 2645.92 2665.5 2647.56 2643.63 2647.56C2622.25 2647.56 2620.6 2625.94 2629.71 2623.98C2670.53 2615.2 2676.98 2603.09 2690.74 2591.53C2693.22 2589.45 2696.33 2588.33 2699.45 2588.33" fill="#17282F"/>
<path d="M2757.7 2535.93H2757.66L2758.06 2523.89H2758.09L2757.7 2535.93" fill="#C3C5C2"/>
<path d="M2757.66 2535.93H2705.57L2705.98 2523.89H2758.06L2757.66 2535.93Z" fill="#DC834C"/>
<path d="M2548.38 1165.89C2516.15 1153.28 2485.39 1139.54 2454.77 1123.88C2424.2 1108.24 2394.1 1091.57 2365.17 1069.31C2357.98 1063.64 2350.86 1057.45 2343.89 1050.21C2342.16 1048.34 2340.43 1046.62 2338.72 1044.47C2336.93 1042.22 2335.58 1040.9 2333.25 1037.44C2329.05 1031.4 2325.8 1023.27 2324.93 1014.99C2324.12 1006.69 2325.6 998.776 2327.99 992.469C2330.36 986.043 2333.48 980.799 2336.74 976.252C2343.27 967.139 2350.51 960.409 2357.82 954.356C2372.39 942.295 2387.8 933.518 2403.24 925.325C2410.95 921.232 2418.82 917.544 2426.78 914.147C2434.78 910.689 2442.58 907.485 2451.07 904.562L2462.11 928.529C2434.99 945.629 2406.88 964.427 2386.22 985.502C2381.2 990.721 2376.81 996.188 2374.04 1001C2371.09 1005.89 2371.12 1009.56 2371.63 1009.27C2371.89 1009.27 2371.78 1009.16 2372.5 1009.88L2374.98 1012.54C2375.91 1013.65 2377.23 1014.79 2378.4 1015.93C2383.29 1020.49 2389.01 1025.07 2395.19 1029.42C2407.53 1038.21 2421.14 1046.43 2435.21 1054.11C2449.23 1061.9 2463.65 1069.35 2478.34 1076.43C2507.66 1090.46 2538.04 1103.97 2567.86 1116.31L2548.38 1165.89" fill="#F89E63"/>
<path d="M2477.45 911.541L2486.06 892.854L2446.9 879.257C2446.9 879.257 2434.7 915.976 2449.25 932.914C2461.62 930.942 2472.2 922.924 2477.45 911.541Z" fill="#F89E63"/>
<path d="M2486.06 852.459L2454.76 843.434L2446.9 879.257L2486.06 892.855V852.459Z" fill="#F89E63"/>
<path d="M2890.34 894.665L2894.9 850.998L2854.54 860.484C2854.54 860.484 2853.95 901.421 2875.3 907.94L2890.34 894.665" fill="#F89E63"/>
<path d="M2875.46 820.431L2849.17 832.71L2854.54 860.484L2894.9 850.998L2875.46 820.431Z" fill="#F89E63"/>
<path d="M2698.7 918.39C2700.6 970.069 2702.5 991.903 2679.15 1020.82C2644.04 1064.31 2580.15 1055.34 2562.85 1005.28C2547.28 960.21 2546.8 883.269 2595.06 857.884C2642.61 832.871 2696.8 866.717 2698.7 918.39Z" fill="#F89E63"/>
<path d="M2676.19 1020.72C2726.92 998.795 2760.28 952.577 2746.19 880.296C2732.72 811.156 2686.04 804.32 2666.76 818.664C2647.48 833.015 2599.41 811.629 2570.57 835.907C2520.6 877.963 2567.85 923.298 2592.45 950.17C2607.16 980.389 2626.41 1042.23 2676.19 1020.72Z" fill="#17282F"/>
<path d="M2655.13 867.893C2672.24 892.675 2705.07 899.679 2728.46 883.524C2751.84 867.37 2756.92 834.19 2739.81 809.402C2722.7 784.614 2689.86 777.616 2666.47 793.77C2643.09 809.918 2638.01 843.104 2655.13 867.893" fill="#406FBF"/>
<path d="M2668.3 823.51C2660.98 781.846 2700.4 749.718 2753.11 765.244C2805.83 780.77 2777.94 827.504 2767.13 864.826C2756.33 902.149 2784.7 937.692 2796.55 909.271C2808.41 880.85 2788.48 872.079 2788.48 872.079C2788.48 872.079 2844.45 886.585 2792.45 949.692C2740.45 1012.8 2693.38 943.117 2706.11 901.994C2716.4 868.758 2675.22 862.898 2668.3 823.51Z" fill="#17282F"/>
<path d="M2615.61 839.253C2591.55 826.7 2550.79 816.549 2527.6 855.576C2516.63 874.025 2520.88 899.05 2520.88 899.05L2591.72 903.765L2615.61 839.253" fill="#17282F"/>
<path d="M2512.55 886.809L2512.45 886.802C2511.59 886.753 2510.94 886.012 2510.99 885.154C2511.06 884.097 2512.77 859.072 2527.87 843.378C2564.38 805.446 2607.18 836.908 2619.43 847.458C2620.08 848.018 2620.15 849.001 2619.59 849.648C2619.03 850.301 2618.04 850.369 2617.4 849.816C2605.67 839.72 2564.73 809.57 2530.12 845.53C2515.81 860.397 2514.11 885.098 2514.1 885.353C2514.05 886.174 2513.36 886.809 2512.55 886.809Z" fill="#17282F"/>
<path d="M2601.13 948.117C2601.05 958.181 2596.54 968.041 2590.83 974.721C2582.23 984.774 2572.38 979.822 2570.12 968.675C2568.09 958.642 2570.1 941.324 2580.97 935.253C2591.67 929.269 2601.21 936.603 2601.13 948.117Z" fill="#F89E63"/>
<path d="M2589.93 1421.42C2589.93 1421.42 2593.25 1783.1 2624.62 1984.64C2649.97 2147.43 2696.86 2523.89 2696.86 2523.89H2767.91C2767.91 2523.89 2774.85 2160.46 2761.99 1999.45C2729.44 1592.03 2813.43 1515.86 2745.65 1421.42H2589.93Z" fill="#17282F"/>
<path d="M2767.91 2523.89H2696.86C2696.86 2523.89 2695.43 2512.36 2692.92 2492.49L2714.52 2482.89L2692.81 2437.68L2683.52 2418.32C2683.38 2417.23 2683.24 2416.14 2683.1 2415.03L2689.01 2412.07C2689.01 2412.07 2684.47 2395.65 2677.2 2369C2661.35 2245.91 2639.35 2079.22 2624.62 1984.64C2622.53 1971.18 2620.56 1956.97 2618.7 1942.23C2629.38 1882.83 2643.92 1764.32 2637.67 1663.29C2664.69 1582.71 2690.51 1502.33 2692.66 1430.91H2751.99C2767.76 1456.41 2772.93 1481.44 2772.93 1513.05C2772.93 1545.95 2767.32 1586 2762.24 1641.16C2761.22 1652.33 2760.21 1664.11 2759.27 1676.59C2756.37 1715.25 2754.17 1760.49 2754.17 1814.29C2754.17 1867.13 2756.3 1928.23 2761.99 1999.45C2768.17 2076.89 2769.77 2201.15 2769.77 2309.28C2769.77 2356.76 2769.47 2401.14 2769.1 2437.07C2769.1 2437.58 2769.09 2438.1 2769.08 2438.62C2768.56 2490.13 2767.91 2523.89 2767.91 2523.89V2523.89ZM2605.31 1802.73C2604.5 1791.74 2603.73 1780.7 2603 1769.67V1769.66C2603.73 1780.71 2604.5 1791.73 2605.31 1802.73Z" fill="#2B3C43"/>
<path d="M2618.69 1942.3C2618.01 1936.84 2617.33 1931.29 2616.68 1925.68C2616.69 1925.68 2616.69 1925.67 2616.69 1925.67C2617.35 1931.27 2618.02 1936.78 2618.7 1942.23C2618.7 1942.26 2618.7 1942.28 2618.69 1942.3" fill="#627FB7"/>
<path d="M2616.68 1925.68C2612.18 1887.1 2608.43 1845.25 2605.31 1802.73C2608.43 1845.25 2612.19 1887.09 2616.69 1925.67C2616.69 1925.67 2616.69 1925.68 2616.68 1925.68Z" fill="#A7A9A8"/>
<path d="M2618.7 1942.23C2618.02 1936.78 2617.35 1931.27 2616.69 1925.67C2612.19 1887.09 2608.43 1845.25 2605.31 1802.73C2604.5 1791.73 2603.73 1780.71 2603 1769.66C2613.5 1734.68 2625.7 1698.97 2637.67 1663.29C2643.92 1764.32 2629.38 1882.83 2618.7 1942.23" fill="#1B262A"/>
<path d="M2687.14 2525.29H2777.63L2782.38 2493.54L2686.62 2490.3L2687.14 2525.29Z" fill="#406FBF"/>
<path d="M2712.96 1116.12C2721.48 1099.19 2767.23 1088.54 2792.24 1088.58L2810.96 1171.72C2810.96 1171.72 2761.13 1245.68 2740.41 1237.83C2715.93 1228.58 2694.72 1152.38 2712.96 1116.12Z" fill="#406FBF"/>
<path d="M2756.57 1233.4C2762.5 1198.81 2771.04 1157.48 2783.16 1105.43C2783.16 1105.43 2765.05 1101.49 2740.1 1098.08C2757.02 1092.01 2777.88 1088.58 2792.1 1088.58C2792.15 1088.58 2792.2 1088.58 2792.24 1088.58L2810.96 1171.72C2810.96 1171.72 2779.85 1217.9 2756.57 1233.4Z" fill="#2251AA"/>
<path d="M2632.59 2514.52C2634.73 2511.03 2646.62 2507.81 2655.72 2506.14C2647.51 2514.49 2640.29 2519.13 2636.06 2518.7C2634.58 2518.54 2633.44 2517.77 2632.58 2516.33L2632.46 2514.77L2632.59 2514.52ZM2660.22 2504.96L2660.25 2503.74L2658.98 2503.1C2656.37 2503.49 2633.34 2507.14 2630.22 2513.72C2629.63 2514.99 2629.71 2516.33 2630.47 2517.6C2631.73 2519.72 2633.53 2520.92 2635.8 2521.15C2643.35 2521.93 2654.24 2511.46 2660.07 2505.15L2660.22 2504.96" fill="#406FBF"/>
<path d="M2635.86 2497.13L2636.85 2496.01C2638.25 2494.76 2639.87 2494.2 2641.82 2494.33C2647.4 2494.7 2653.75 2500.48 2656.64 2503.42C2649.27 2504.04 2637.32 2501.81 2635.7 2498.6C2635.61 2498.41 2635.37 2497.93 2635.86 2497.13ZM2660.22 2504.96L2660.33 2504.72L2660.1 2503.51C2659.71 2503.06 2650.48 2492.43 2641.98 2491.87C2639.37 2491.7 2637.09 2492.47 2635.2 2494.17C2632.64 2496.46 2632.86 2498.45 2633.5 2499.71C2636.19 2505.05 2652.74 2506.91 2659.41 2505.52L2660.22 2504.96" fill="#406FBF"/>
<path d="M2714.52 2482.89L2666.86 2504.05L2645.63 2459.86L2617.88 2401.98L2614.63 2395.26L2662.22 2374.05L2665.91 2381.63L2692.81 2437.68L2714.52 2482.89" fill="#F89E63"/>
<path d="M2645.63 2459.87L2635.58 2438.9L2682.17 2415.51L2692.81 2437.68L2645.63 2459.87" fill="#DC834C"/>
<path d="M2534.05 1421.42C2534.05 1421.42 2381.83 1799.84 2423.08 1978.03C2460.37 2139.08 2625.26 2444.07 2625.26 2444.07L2689.01 2412.07C2689.01 2412.07 2587.08 2043.89 2576.02 1963.91C2554.51 1808.28 2692.81 1588.61 2692.81 1421.42H2534.05" fill="#17282F"/>
<path d="M2625.26 2444.07C2625.26 2444.07 2609.84 2415.55 2587.37 2371.34C2577.44 2351.83 2566.14 2329.26 2554.19 2304.73C2527.55 2250.06 2497.65 2185.71 2472.47 2123.88C2459.91 2093.05 2448.52 2062.84 2439.3 2034.79C2432.64 2014.56 2427.12 1995.46 2423.08 1978.03C2418.17 1956.8 2416 1932.73 2415.99 1906.8C2415.94 1734.77 2511 1480.76 2530.56 1430.31C2531.21 1430.69 2532.06 1430.91 2533 1430.91H2692.66C2690.51 1502.33 2664.69 1582.71 2637.67 1663.29C2625.7 1698.97 2613.5 1734.68 2603 1769.66V1769.67C2586.31 1825.33 2573.94 1879.16 2573.75 1928.1C2573.75 1928.47 2573.74 1928.84 2573.74 1929.21C2573.74 1941.08 2574.47 1952.67 2576.02 1963.91C2587.08 2043.89 2689.01 2412.07 2689.01 2412.07L2683.1 2415.03L2682.16 2415.51L2635.58 2438.9L2625.26 2444.07" fill="#2B3C43"/>
<path d="M2658.36 2497.44L2705.69 2462.99C2707.41 2461.73 2709.68 2461.91 2711.15 2463.42L2743.79 2496.94C2747.17 2500.42 2746.51 2506.53 2742.49 2509.34C2725.78 2521.07 2717.12 2525.89 2696.31 2541.04C2683.51 2550.36 2658 2570.96 2640.31 2583.83C2623.02 2596.42 2608.96 2579.91 2615.18 2572.96C2643.02 2541.83 2648.88 2522.59 2653.21 2505.15C2653.99 2502 2655.84 2499.26 2658.36 2497.44" fill="#17282F"/>
<path d="M2621.15 2457.56L2703.45 2419.92L2692.89 2386.38L2604.76 2426.59L2621.15 2457.56Z" fill="#406FBF"/>
<path d="M2574.45 1111.88C2567.62 1094.21 2508.16 1074.83 2478.33 1068.06L2465.22 1166.14C2465.22 1166.14 2513.93 1236.15 2535.32 1230.36C2560.58 1223.53 2589.08 1149.74 2574.45 1111.88" fill="#406FBF"/>
<path d="M2506.43 1215.17C2486.04 1196.06 2465.22 1166.14 2465.22 1166.14L2478.33 1068.06C2500.47 1073.08 2538.95 1085.06 2560.1 1098.13C2532.14 1102.24 2509.15 1106.94 2509.15 1106.94C2509.15 1106.94 2502.96 1109.13 2502.96 1149.42C2502.96 1164.97 2503.88 1186.19 2506.43 1215.17" fill="#2251AA"/>
<path d="M2509.15 1106.94C2509.15 1106.94 2484.33 1115.69 2534.05 1421.42C2618.02 1421.42 2704.79 1421.42 2745.65 1421.42C2742.1 1335.3 2742 1282.19 2783.16 1105.43C2783.16 1105.43 2738.82 1095.79 2693.31 1093.59C2657.7 1091.88 2628.52 1090.74 2597.22 1093.6C2555.95 1097.36 2509.15 1106.94 2509.15 1106.94Z" fill="#406FBF"/>
<path d="M2745.1 1407.41H2531.79C2508.79 1263.57 2502.96 1188.53 2502.96 1149.42C2502.96 1109.13 2509.15 1106.94 2509.15 1106.94C2509.15 1106.94 2555.95 1097.36 2597.22 1093.6C2611.02 1092.34 2624.39 1091.86 2638.09 1091.86C2655.48 1091.86 2673.39 1092.64 2693.31 1093.59C2738.82 1095.79 2783.16 1105.43 2783.16 1105.43C2771.04 1157.48 2762.5 1198.81 2756.57 1233.4C2755.51 1239.56 2754.54 1245.5 2753.65 1251.26C2746.39 1297.9 2744.21 1332.04 2744.21 1365.68C2744.21 1379.4 2744.57 1393.04 2745.1 1407.41Z" fill="#2251AA"/>
<path d="M2748.82 1409L2758.36 1427.94C2759.1 1429.41 2757.36 1430.91 2754.91 1430.91H2533C2531.09 1430.91 2529.51 1429.98 2529.4 1428.77L2527.49 1409.83C2527.36 1408.52 2529.01 1407.41 2531.09 1407.41H2745.37C2746.95 1407.41 2748.34 1408.05 2748.82 1409Z" fill="#406FBF"/>
<path d="M2754.91 1430.91H2533C2532.06 1430.91 2531.21 1430.68 2530.56 1430.31C2529.89 1429.93 2529.46 1429.38 2529.4 1428.77L2527.49 1409.83C2527.48 1409.78 2527.48 1409.73 2527.48 1409.68C2527.49 1408.43 2529.09 1407.41 2531.09 1407.41H2745.37C2746.95 1407.41 2748.34 1408.05 2748.82 1409L2758.36 1427.94C2758.48 1428.17 2758.53 1428.4 2758.53 1428.63C2758.54 1429.84 2756.98 1430.91 2754.91 1430.91Z" fill="#6D97D6"/>
<path d="M2720.04 1432.96H2725.78C2726.93 1432.96 2727.8 1432.37 2727.72 1431.65L2725.02 1407.04C2724.95 1406.32 2723.95 1405.73 2722.8 1405.73H2717.07C2715.92 1405.73 2715.05 1406.32 2715.13 1407.04L2717.82 1431.65C2717.9 1432.37 2718.9 1432.96 2720.04 1432.96" fill="#17282F"/>
<path d="M2580.93 1432.96H2586.68C2587.82 1432.96 2588.69 1432.37 2588.61 1431.65L2585.92 1407.04C2585.84 1406.32 2584.84 1405.73 2583.7 1405.73H2577.96C2576.82 1405.73 2575.95 1406.32 2576.03 1407.04L2578.71 1431.65C2578.79 1432.37 2579.8 1432.96 2580.93 1432.96" fill="#17282F"/>
<path d="M153.492 117.129C153.492 131.126 151.018 143.398 146.07 153.945C141.122 164.492 134.026 172.63 124.781 178.359C115.602 184.089 105.055 186.953 93.1406 186.953C81.3568 186.953 70.8424 184.121 61.5977 178.457C52.3529 172.793 45.1914 164.72 40.1133 154.238C35.0352 143.691 32.4635 131.582 32.3984 117.91V110.879C32.3984 96.8815 34.9049 84.5768 39.918 73.9648C44.9961 63.2878 52.125 55.1172 61.3047 49.4531C70.5495 43.724 81.0964 40.8594 92.9453 40.8594C104.794 40.8594 115.309 43.724 124.488 49.4531C133.733 55.1172 140.862 63.2878 145.875 73.9648C150.953 84.5768 153.492 96.849 153.492 110.781V117.129ZM123.805 110.684C123.805 95.7747 121.135 84.4466 115.797 76.6992C110.458 68.9518 102.841 65.0781 92.9453 65.0781C83.1146 65.0781 75.5299 68.9193 70.1914 76.6016C64.8529 84.2188 62.151 95.4167 62.0859 110.195V117.129C62.0859 131.647 64.7552 142.91 70.0938 150.918C75.4323 158.926 83.1146 162.93 93.1406 162.93C102.971 162.93 110.523 159.089 115.797 151.406C121.07 143.659 123.74 132.396 123.805 117.617V110.684ZM168.531 131.191C168.531 120.71 170.549 111.367 174.586 103.164C178.622 94.9609 184.417 88.6133 191.969 84.1211C199.586 79.6289 208.408 77.3828 218.434 77.3828C232.691 77.3828 244.312 81.7448 253.297 90.4688C262.346 99.1927 267.392 111.042 268.434 126.016L268.629 133.242C268.629 149.453 264.104 162.474 255.055 172.305C246.005 182.07 233.863 186.953 218.629 186.953C203.395 186.953 191.22 182.07 182.105 172.305C173.056 162.539 168.531 149.258 168.531 132.461V131.191ZM196.754 133.242C196.754 143.268 198.642 150.951 202.418 156.289C206.194 161.562 211.598 164.199 218.629 164.199C225.465 164.199 230.803 161.595 234.645 156.387C238.486 151.113 240.406 142.715 240.406 131.191C240.406 121.361 238.486 113.743 234.645 108.34C230.803 102.936 225.4 100.234 218.434 100.234C211.533 100.234 206.194 102.936 202.418 108.34C198.642 113.678 196.754 121.979 196.754 133.242ZM381.129 133.145C381.129 149.421 377.418 162.474 369.996 172.305C362.639 182.07 352.678 186.953 340.113 186.953C329.436 186.953 320.81 183.242 314.234 175.82V225.625H286.012V79.3359H312.184L313.16 89.6875C319.996 81.4844 328.915 77.3828 339.918 77.3828C352.939 77.3828 363.062 82.2005 370.289 91.8359C377.516 101.471 381.129 114.753 381.129 131.68V133.145ZM352.906 131.094C352.906 121.263 351.148 113.678 347.633 108.34C344.182 103.001 339.137 100.332 332.496 100.332C323.642 100.332 317.555 103.717 314.234 110.488V153.75C317.685 160.716 323.837 164.199 332.691 164.199C346.168 164.199 352.906 153.164 352.906 131.094ZM455.934 155.801C455.934 152.35 454.208 149.648 450.758 147.695C447.372 145.677 441.904 143.887 434.352 142.324C409.221 137.051 396.656 126.374 396.656 110.293C396.656 100.918 400.53 93.1055 408.277 86.8555C416.09 80.5404 426.279 77.3828 438.844 77.3828C452.255 77.3828 462.965 80.5404 470.973 86.8555C479.046 93.1706 483.082 101.374 483.082 111.465H454.859C454.859 107.428 453.557 104.108 450.953 101.504C448.349 98.8346 444.28 97.5 438.746 97.5C433.993 97.5 430.315 98.5742 427.711 100.723C425.107 102.871 423.805 105.605 423.805 108.926C423.805 112.051 425.27 114.59 428.199 116.543C431.194 118.431 436.207 120.091 443.238 121.523C450.27 122.891 456.194 124.453 461.012 126.211C475.921 131.68 483.375 141.152 483.375 154.629C483.375 164.264 479.241 172.077 470.973 178.066C462.704 183.991 452.027 186.953 438.941 186.953C430.087 186.953 422.21 185.391 415.309 182.266C408.473 179.076 403.102 174.746 399.195 169.277C395.289 163.743 393.336 157.786 393.336 151.406H420.094C420.354 156.419 422.21 160.26 425.66 162.93C429.111 165.599 433.733 166.934 439.527 166.934C444.931 166.934 449 165.924 451.734 163.906C454.534 161.823 455.934 159.121 455.934 155.801ZM530.348 141.348H506.91L503.59 42.8125H533.668L530.348 141.348ZM518.629 156.777C523.382 156.777 527.19 158.177 530.055 160.977C532.984 163.776 534.449 167.357 534.449 171.719C534.449 176.016 532.984 179.564 530.055 182.363C527.19 185.163 523.382 186.562 518.629 186.562C513.941 186.562 510.133 185.163 507.203 182.363C504.339 179.564 502.906 176.016 502.906 171.719C502.906 167.422 504.339 163.874 507.203 161.074C510.133 158.21 513.941 156.777 518.629 156.777ZM656.812 106.875L686.402 42.8125H718.434L671.754 133.438V185H641.969V133.438L595.289 42.8125H627.418L656.812 106.875ZM718.727 131.191C718.727 120.71 720.745 111.367 724.781 103.164C728.818 94.9609 734.612 88.6133 742.164 84.1211C749.781 79.6289 758.603 77.3828 768.629 77.3828C782.887 77.3828 794.508 81.7448 803.492 90.4688C812.542 99.1927 817.587 111.042 818.629 126.016L818.824 133.242C818.824 149.453 814.299 162.474 805.25 172.305C796.201 182.07 784.059 186.953 768.824 186.953C753.59 186.953 741.415 182.07 732.301 172.305C723.251 162.539 718.727 149.258 718.727 132.461V131.191ZM746.949 133.242C746.949 143.268 748.837 150.951 752.613 156.289C756.389 161.562 761.793 164.199 768.824 164.199C775.66 164.199 780.999 161.595 784.84 156.387C788.681 151.113 790.602 142.715 790.602 131.191C790.602 121.361 788.681 113.743 784.84 108.34C780.999 102.936 775.595 100.234 768.629 100.234C761.728 100.234 756.389 102.936 752.613 108.34C748.837 113.678 746.949 121.979 746.949 133.242ZM899.488 174.258C892.522 182.721 882.887 186.953 870.582 186.953C859.254 186.953 850.595 183.698 844.605 177.188C838.681 170.677 835.654 161.139 835.523 148.574V79.3359H863.746V147.598C863.746 158.6 868.759 164.102 878.785 164.102C888.355 164.102 894.931 160.781 898.512 154.141V79.3359H926.832V185H900.27L899.488 174.258ZM1059.16 185C1057.85 182.461 1056.91 179.303 1056.32 175.527C1049.49 183.145 1040.6 186.953 1029.66 186.953C1019.31 186.953 1010.72 183.958 1003.88 177.969C997.112 171.979 993.727 164.427 993.727 155.312C993.727 144.115 997.861 135.521 1006.13 129.531C1014.46 123.542 1026.47 120.514 1042.16 120.449H1055.15V114.395C1055.15 109.512 1053.88 105.605 1051.34 102.676C1048.87 99.7461 1044.93 98.2812 1039.53 98.2812C1034.77 98.2812 1031.03 99.4206 1028.3 101.699C1025.63 103.978 1024.29 107.103 1024.29 111.074H996.07C996.07 104.954 997.958 99.2904 1001.73 94.082C1005.51 88.8737 1010.85 84.8047 1017.75 81.875C1024.65 78.8802 1032.4 77.3828 1040.99 77.3828C1054.01 77.3828 1064.33 80.6706 1071.95 87.2461C1079.63 93.7565 1083.47 102.936 1083.47 114.785V160.586C1083.54 170.612 1084.94 178.197 1087.67 183.34V185H1059.16ZM1035.82 165.371C1039.98 165.371 1043.82 164.46 1047.34 162.637C1050.86 160.749 1053.46 158.242 1055.15 155.117V136.953H1044.61C1030.48 136.953 1022.96 141.836 1022.05 151.602L1021.95 153.262C1021.95 156.777 1023.19 159.674 1025.66 161.953C1028.13 164.232 1031.52 165.371 1035.82 165.371ZM1164.53 105.801C1160.69 105.28 1157.3 105.02 1154.37 105.02C1143.69 105.02 1136.7 108.633 1133.38 115.859V185H1105.15V79.3359H1131.81L1132.59 91.9336C1138.26 82.2331 1146.1 77.3828 1156.13 77.3828C1159.25 77.3828 1162.18 77.806 1164.92 78.6523L1164.53 105.801ZM1224.88 186.953C1209.38 186.953 1196.75 182.201 1186.99 172.695C1177.29 163.19 1172.44 150.527 1172.44 134.707V131.973C1172.44 121.361 1174.49 111.888 1178.59 103.555C1182.69 95.1562 1188.49 88.7109 1195.97 84.2188C1203.52 79.6615 1212.12 77.3828 1221.75 77.3828C1236.21 77.3828 1247.57 81.9401 1255.84 91.0547C1264.17 100.169 1268.34 113.092 1268.34 129.824V141.348H1201.05C1201.96 148.249 1204.7 153.783 1209.25 157.949C1213.88 162.116 1219.7 164.199 1226.73 164.199C1237.61 164.199 1246.1 160.26 1252.22 152.383L1266.09 167.91C1261.86 173.9 1256.13 178.587 1248.9 181.973C1241.68 185.293 1233.67 186.953 1224.88 186.953ZM1221.66 100.234C1216.06 100.234 1211.5 102.122 1207.98 105.898C1204.53 109.674 1202.32 115.078 1201.34 122.109H1240.6V119.863C1240.47 113.613 1238.78 108.796 1235.52 105.41C1232.27 101.96 1227.65 100.234 1221.66 100.234ZM1395.48 185C1394.18 182.461 1393.24 179.303 1392.65 175.527C1385.82 183.145 1376.93 186.953 1365.99 186.953C1355.64 186.953 1347.05 183.958 1340.21 177.969C1333.44 171.979 1330.05 164.427 1330.05 155.312C1330.05 144.115 1334.19 135.521 1342.46 129.531C1350.79 123.542 1362.8 120.514 1378.49 120.449H1391.48V114.395C1391.48 109.512 1390.21 105.605 1387.67 102.676C1385.2 99.7461 1381.26 98.2812 1375.86 98.2812C1371.1 98.2812 1367.36 99.4206 1364.62 101.699C1361.96 103.978 1360.62 107.103 1360.62 111.074H1332.4C1332.4 104.954 1334.29 99.2904 1338.06 94.082C1341.84 88.8737 1347.18 84.8047 1354.08 81.875C1360.98 78.8802 1368.73 77.3828 1377.32 77.3828C1390.34 77.3828 1400.66 80.6706 1408.28 87.2461C1415.96 93.7565 1419.8 102.936 1419.8 114.785V160.586C1419.87 170.612 1421.27 178.197 1424 183.34V185H1395.48ZM1372.14 165.371C1376.31 165.371 1380.15 164.46 1383.67 162.637C1387.18 160.749 1389.79 158.242 1391.48 155.117V136.953H1380.93C1366.81 136.953 1359.29 141.836 1358.38 151.602L1358.28 153.262C1358.28 156.777 1359.51 159.674 1361.99 161.953C1364.46 164.232 1367.85 165.371 1372.14 165.371ZM1471.27 185H1442.95V35H1471.27V185ZM1553.98 105.801C1550.14 105.28 1546.75 105.02 1543.82 105.02C1533.15 105.02 1526.15 108.633 1522.83 115.859V185H1494.61V79.3359H1521.27L1522.05 91.9336C1527.71 82.2331 1535.56 77.3828 1545.58 77.3828C1548.71 77.3828 1551.64 77.806 1554.37 78.6523L1553.98 105.801ZM1614.33 186.953C1598.84 186.953 1586.21 182.201 1576.44 172.695C1566.74 163.19 1561.89 150.527 1561.89 134.707V131.973C1561.89 121.361 1563.94 111.888 1568.04 103.555C1572.14 95.1562 1577.94 88.7109 1585.43 84.2188C1592.98 79.6615 1601.57 77.3828 1611.21 77.3828C1625.66 77.3828 1637.02 81.9401 1645.29 91.0547C1653.62 100.169 1657.79 113.092 1657.79 129.824V141.348H1590.5C1591.42 148.249 1594.15 153.783 1598.71 157.949C1603.33 162.116 1609.16 164.199 1616.19 164.199C1627.06 164.199 1635.56 160.26 1641.68 152.383L1655.54 167.91C1651.31 173.9 1645.58 178.587 1638.36 181.973C1631.13 185.293 1623.12 186.953 1614.33 186.953ZM1611.11 100.234C1605.51 100.234 1600.95 102.122 1597.44 105.898C1593.99 109.674 1591.77 115.078 1590.8 122.109H1630.05V119.863C1629.92 113.613 1628.23 108.796 1624.98 105.41C1621.72 101.96 1617.1 100.234 1611.11 100.234ZM1735.13 185C1733.83 182.461 1732.89 179.303 1732.3 175.527C1725.46 183.145 1716.58 186.953 1705.64 186.953C1695.29 186.953 1686.7 183.958 1679.86 177.969C1673.09 171.979 1669.7 164.427 1669.7 155.312C1669.7 144.115 1673.84 135.521 1682.11 129.531C1690.44 123.542 1702.45 120.514 1718.14 120.449H1731.13V114.395C1731.13 109.512 1729.86 105.605 1727.32 102.676C1724.85 99.7461 1720.91 98.2812 1715.5 98.2812C1710.75 98.2812 1707.01 99.4206 1704.27 101.699C1701.6 103.978 1700.27 107.103 1700.27 111.074H1672.05C1672.05 104.954 1673.93 99.2904 1677.71 94.082C1681.49 88.8737 1686.83 84.8047 1693.73 81.875C1700.63 78.8802 1708.38 77.3828 1716.97 77.3828C1729.99 77.3828 1740.31 80.6706 1747.93 87.2461C1755.61 93.7565 1759.45 102.936 1759.45 114.785V160.586C1759.51 170.612 1760.91 178.197 1763.65 183.34V185H1735.13ZM1711.79 165.371C1715.96 165.371 1719.8 164.46 1723.32 162.637C1726.83 160.749 1729.44 158.242 1731.13 155.117V136.953H1720.58C1706.45 136.953 1698.93 141.836 1698.02 151.602L1697.93 153.262C1697.93 156.777 1699.16 159.674 1701.64 161.953C1704.11 164.232 1707.5 165.371 1711.79 165.371ZM1776.73 131.387C1776.73 114.915 1780.41 101.797 1787.77 92.0312C1795.19 82.2656 1805.32 77.3828 1818.14 77.3828C1828.43 77.3828 1836.92 81.224 1843.63 88.9062V35H1871.95V185H1846.46L1845.09 173.77C1838.06 182.559 1829.01 186.953 1817.95 186.953C1805.51 186.953 1795.52 182.07 1787.96 172.305C1780.48 162.474 1776.73 148.835 1776.73 131.387ZM1804.96 133.438C1804.96 143.333 1806.68 150.918 1810.13 156.191C1813.58 161.465 1818.6 164.102 1825.17 164.102C1833.9 164.102 1840.05 160.423 1843.63 153.066V111.367C1840.11 104.01 1834.03 100.332 1825.37 100.332C1811.76 100.332 1804.96 111.367 1804.96 133.438ZM1933.28 145.059L1952.81 79.3359H1983.08L1940.6 201.406L1938.26 206.973C1931.94 220.775 1921.53 227.676 1907.01 227.676C1902.91 227.676 1898.74 227.057 1894.51 225.82V204.434L1898.8 204.531C1904.14 204.531 1908.11 203.717 1910.72 202.09C1913.39 200.462 1915.47 197.76 1916.97 193.984L1920.29 185.293L1883.28 79.3359H1913.65L1933.28 145.059ZM2073.8 185H2045.48V35H2073.8V185ZM2092.75 131.191C2092.75 120.71 2094.77 111.367 2098.8 103.164C2102.84 94.9609 2108.64 88.6133 2116.19 84.1211C2123.8 79.6289 2132.63 77.3828 2142.65 77.3828C2156.91 77.3828 2168.53 81.7448 2177.52 90.4688C2186.57 99.1927 2191.61 111.042 2192.65 126.016L2192.85 133.242C2192.85 149.453 2188.32 162.474 2179.27 172.305C2170.22 182.07 2158.08 186.953 2142.85 186.953C2127.61 186.953 2115.44 182.07 2106.32 172.305C2097.27 162.539 2092.75 149.258 2092.75 132.461V131.191ZM2120.97 133.242C2120.97 143.268 2122.86 150.951 2126.64 156.289C2130.41 161.562 2135.82 164.199 2142.85 164.199C2149.68 164.199 2155.02 161.595 2158.86 156.387C2162.7 151.113 2164.62 142.715 2164.62 131.191C2164.62 121.361 2162.7 113.743 2158.86 108.34C2155.02 102.936 2149.62 100.234 2142.65 100.234C2135.75 100.234 2130.41 102.936 2126.64 108.34C2122.86 113.678 2120.97 121.979 2120.97 133.242ZM2206.13 131.387C2206.13 115.176 2209.97 102.122 2217.65 92.2266C2225.4 82.3307 2235.82 77.3828 2248.9 77.3828C2260.49 77.3828 2269.51 81.3542 2275.95 89.2969L2277.12 79.3359H2302.71V181.484C2302.71 190.729 2300.6 198.77 2296.36 205.605C2292.2 212.441 2286.3 217.65 2278.69 221.23C2271.07 224.811 2262.15 226.602 2251.93 226.602C2244.18 226.602 2236.63 225.039 2229.27 221.914C2221.92 218.854 2216.35 214.883 2212.57 210L2225.07 192.812C2232.11 200.69 2240.63 204.629 2250.66 204.629C2258.15 204.629 2263.97 202.611 2268.14 198.574C2272.31 194.603 2274.39 188.939 2274.39 181.582V175.918C2267.88 183.275 2259.32 186.953 2248.71 186.953C2236.01 186.953 2225.73 182.005 2217.85 172.109C2210.04 162.148 2206.13 148.965 2206.13 132.559V131.387ZM2234.35 133.438C2234.35 143.008 2236.27 150.527 2240.11 155.996C2243.95 161.4 2249.23 164.102 2255.93 164.102C2264.53 164.102 2270.68 160.879 2274.39 154.434V110C2270.61 103.555 2264.53 100.332 2256.13 100.332C2249.36 100.332 2244.02 103.099 2240.11 108.633C2236.27 114.167 2234.35 122.435 2234.35 133.438ZM2320.39 131.387C2320.39 115.176 2324.23 102.122 2331.91 92.2266C2339.66 82.3307 2350.07 77.3828 2363.16 77.3828C2374.75 77.3828 2383.77 81.3542 2390.21 89.2969L2391.38 79.3359H2416.97V181.484C2416.97 190.729 2414.85 198.77 2410.62 205.605C2406.45 212.441 2400.56 217.65 2392.95 221.23C2385.33 224.811 2376.41 226.602 2366.19 226.602C2358.44 226.602 2350.89 225.039 2343.53 221.914C2336.17 218.854 2330.61 214.883 2326.83 210L2339.33 192.812C2346.36 200.69 2354.89 204.629 2364.92 204.629C2372.4 204.629 2378.23 202.611 2382.4 198.574C2386.57 194.603 2388.65 188.939 2388.65 181.582V175.918C2382.14 183.275 2373.58 186.953 2362.96 186.953C2350.27 186.953 2339.98 182.005 2332.11 172.109C2324.29 162.148 2320.39 148.965 2320.39 132.559V131.387ZM2348.61 133.438C2348.61 143.008 2350.53 150.527 2354.37 155.996C2358.21 161.4 2363.49 164.102 2370.19 164.102C2378.79 164.102 2384.94 160.879 2388.65 154.434V110C2384.87 103.555 2378.79 100.332 2370.39 100.332C2363.62 100.332 2358.28 103.099 2354.37 108.633C2350.53 114.167 2348.61 122.435 2348.61 133.438ZM2487.38 186.953C2471.88 186.953 2459.25 182.201 2449.49 172.695C2439.79 163.19 2434.94 150.527 2434.94 134.707V131.973C2434.94 121.361 2436.99 111.888 2441.09 103.555C2445.19 95.1562 2450.99 88.7109 2458.47 84.2188C2466.02 79.6615 2474.62 77.3828 2484.25 77.3828C2498.71 77.3828 2510.07 81.9401 2518.34 91.0547C2526.67 100.169 2530.84 113.092 2530.84 129.824V141.348H2463.55C2464.46 148.249 2467.2 153.783 2471.75 157.949C2476.38 162.116 2482.2 164.199 2489.23 164.199C2500.11 164.199 2508.6 160.26 2514.72 152.383L2528.59 167.91C2524.36 173.9 2518.63 178.587 2511.4 181.973C2504.18 185.293 2496.17 186.953 2487.38 186.953ZM2484.16 100.234C2478.56 100.234 2474 102.122 2470.48 105.898C2467.03 109.674 2464.82 115.078 2463.84 122.109H2503.1V119.863C2502.97 113.613 2501.28 108.796 2498.02 105.41C2494.77 101.96 2490.15 100.234 2484.16 100.234ZM2542.55 131.387C2542.55 114.915 2546.23 101.797 2553.59 92.0312C2561.01 82.2656 2571.14 77.3828 2583.96 77.3828C2594.25 77.3828 2602.74 81.224 2609.45 88.9062V35H2637.77V185H2612.28L2610.91 173.77C2603.88 182.559 2594.83 186.953 2583.77 186.953C2571.33 186.953 2561.34 182.07 2553.79 172.305C2546.3 162.474 2542.55 148.835 2542.55 131.387ZM2570.78 133.438C2570.78 143.333 2572.5 150.918 2575.95 156.191C2579.4 161.465 2584.42 164.102 2590.99 164.102C2599.72 164.102 2605.87 160.423 2609.45 153.066V111.367C2605.93 104.01 2599.85 100.332 2591.19 100.332C2577.58 100.332 2570.78 111.367 2570.78 133.438ZM2739.23 185H2710.91V79.3359H2739.23V185ZM2709.25 51.9922C2709.25 47.7604 2710.65 44.2773 2713.45 41.543C2716.32 38.8086 2720.19 37.4414 2725.07 37.4414C2729.89 37.4414 2733.73 38.8086 2736.6 41.543C2739.46 44.2773 2740.89 47.7604 2740.89 51.9922C2740.89 56.2891 2739.43 59.8047 2736.5 62.5391C2733.64 65.2734 2729.83 66.6406 2725.07 66.6406C2720.32 66.6406 2716.48 65.2734 2713.55 62.5391C2710.69 59.8047 2709.25 56.2891 2709.25 51.9922ZM2788.55 79.3359L2789.43 91.543C2796.98 82.1029 2807.11 77.3828 2819.8 77.3828C2831 77.3828 2839.33 80.6706 2844.8 87.2461C2850.27 93.8216 2853.07 103.652 2853.2 116.738V185H2824.98V117.422C2824.98 111.432 2823.67 107.103 2821.07 104.434C2818.47 101.699 2814.14 100.332 2808.08 100.332C2800.14 100.332 2794.18 103.717 2790.21 110.488V185H2761.99V79.3359H2788.55ZM2876.15 171.133C2876.15 166.641 2877.65 162.995 2880.64 160.195C2883.7 157.396 2887.51 155.996 2892.07 155.996C2896.69 155.996 2900.5 157.396 2903.49 160.195C2906.55 162.995 2908.08 166.641 2908.08 171.133C2908.08 175.56 2906.58 179.173 2903.59 181.973C2900.6 184.707 2896.75 186.074 2892.07 186.074C2887.44 186.074 2883.64 184.707 2880.64 181.973C2877.65 179.173 2876.15 175.56 2876.15 171.133ZM148.316 371.637C147.21 386.936 141.546 398.98 131.324 407.77C121.168 416.559 107.757 420.953 91.0898 420.953C72.8607 420.953 58.5052 414.833 48.0234 402.594C37.6068 390.289 32.3984 373.427 32.3984 352.008V343.316C32.3984 329.645 34.8073 317.6 39.625 307.184C44.4427 296.767 51.3112 288.792 60.2305 283.258C69.2148 277.659 79.6315 274.859 91.4805 274.859C107.887 274.859 121.103 279.254 131.129 288.043C141.155 296.832 146.949 309.169 148.512 325.055H119.215C118.499 315.875 115.927 309.234 111.5 305.133C107.138 300.966 100.465 298.883 91.4805 298.883C81.7148 298.883 74.3906 302.398 69.5078 309.43C64.6901 316.396 62.2161 327.236 62.0859 341.949V352.691C62.0859 368.056 64.3971 379.286 69.0195 386.383C73.707 393.479 81.0638 397.027 91.0898 397.027C100.139 397.027 106.878 394.977 111.305 390.875C115.797 386.708 118.368 380.296 119.02 371.637H148.316ZM195.484 419H167.164V269H195.484V419ZM248.609 419H220.289V313.336H248.609V419ZM218.629 285.992C218.629 281.76 220.029 278.277 222.828 275.543C225.693 272.809 229.566 271.441 234.449 271.441C239.267 271.441 243.108 272.809 245.973 275.543C248.837 278.277 250.27 281.76 250.27 285.992C250.27 290.289 248.805 293.805 245.875 296.539C243.01 299.273 239.202 300.641 234.449 300.641C229.697 300.641 225.855 299.273 222.926 296.539C220.061 293.805 218.629 290.289 218.629 285.992ZM315.895 398.199C321.103 398.199 325.335 396.767 328.59 393.902C331.845 391.038 333.538 387.229 333.668 382.477H360.133C360.068 389.638 358.115 396.214 354.273 402.203C350.432 408.128 345.159 412.75 338.453 416.07C331.812 419.326 324.456 420.953 316.383 420.953C301.279 420.953 289.365 416.168 280.641 406.598C271.917 396.962 267.555 383.681 267.555 366.754V364.898C267.555 348.622 271.884 335.634 280.543 325.934C289.202 316.233 301.083 311.383 316.188 311.383C329.404 311.383 339.983 315.159 347.926 322.711C355.934 330.198 360.003 340.191 360.133 352.691H333.668C333.538 347.223 331.845 342.796 328.59 339.41C325.335 335.96 321.038 334.234 315.699 334.234C309.124 334.234 304.143 336.643 300.758 341.461C297.438 346.214 295.777 353.961 295.777 364.703V367.633C295.777 378.505 297.438 386.318 300.758 391.07C304.078 395.823 309.124 398.199 315.895 398.199ZM414.625 376.617L404.469 386.773V419H376.246V269H404.469V352.105L409.938 345.074L436.988 313.336H470.875L432.691 357.379L474.195 419H441.773L414.625 376.617ZM566.676 287.359V313.336H584.742V334.039H566.676V386.773C566.676 390.68 567.424 393.479 568.922 395.172C570.419 396.865 573.284 397.711 577.516 397.711C580.641 397.711 583.408 397.483 585.816 397.027V418.414C580.283 420.107 574.586 420.953 568.727 420.953C548.935 420.953 538.844 410.96 538.453 390.973V334.039H523.023V313.336H538.453V287.359H566.676ZM628.004 324.859C635.491 315.875 644.898 311.383 656.227 311.383C679.143 311.383 690.764 324.697 691.09 351.324V419H662.867V352.105C662.867 346.051 661.565 341.591 658.961 338.727C656.357 335.797 652.027 334.332 645.973 334.332C637.704 334.332 631.715 337.522 628.004 343.902V419H599.781V269H628.004V324.859ZM742.164 419H713.844V313.336H742.164V419ZM712.184 285.992C712.184 281.76 713.583 278.277 716.383 275.543C719.247 272.809 723.121 271.441 728.004 271.441C732.822 271.441 736.663 272.809 739.527 275.543C742.392 278.277 743.824 281.76 743.824 285.992C743.824 290.289 742.359 293.805 739.43 296.539C736.565 299.273 732.757 300.641 728.004 300.641C723.251 300.641 719.41 299.273 716.48 296.539C713.616 293.805 712.184 290.289 712.184 285.992ZM822.73 389.801C822.73 386.35 821.005 383.648 817.555 381.695C814.169 379.677 808.701 377.887 801.148 376.324C776.018 371.051 763.453 360.374 763.453 344.293C763.453 334.918 767.327 327.105 775.074 320.855C782.887 314.54 793.076 311.383 805.641 311.383C819.052 311.383 829.762 314.54 837.77 320.855C845.842 327.171 849.879 335.374 849.879 345.465H821.656C821.656 341.428 820.354 338.108 817.75 335.504C815.146 332.835 811.077 331.5 805.543 331.5C800.79 331.5 797.112 332.574 794.508 334.723C791.904 336.871 790.602 339.605 790.602 342.926C790.602 346.051 792.066 348.59 794.996 350.543C797.991 352.431 803.004 354.091 810.035 355.523C817.066 356.891 822.991 358.453 827.809 360.211C842.717 365.68 850.172 375.152 850.172 388.629C850.172 398.264 846.038 406.077 837.77 412.066C829.501 417.991 818.824 420.953 805.738 420.953C796.884 420.953 789.007 419.391 782.105 416.266C775.27 413.076 769.898 408.746 765.992 403.277C762.086 397.743 760.133 391.786 760.133 385.406H786.891C787.151 390.419 789.007 394.26 792.457 396.93C795.908 399.599 800.53 400.934 806.324 400.934C811.728 400.934 815.797 399.924 818.531 397.906C821.331 395.823 822.73 393.121 822.73 389.801ZM948.023 419H919.703V313.336H948.023V419ZM918.043 285.992C918.043 281.76 919.443 278.277 922.242 275.543C925.107 272.809 928.98 271.441 933.863 271.441C938.681 271.441 942.522 272.809 945.387 275.543C948.251 278.277 949.684 281.76 949.684 285.992C949.684 290.289 948.219 293.805 945.289 296.539C942.424 299.273 938.616 300.641 933.863 300.641C929.111 300.641 925.27 299.273 922.34 296.539C919.475 293.805 918.043 290.289 918.043 285.992ZM997.828 313.336L998.707 325.152C1006.19 315.973 1016.32 311.383 1029.08 311.383C1042.68 311.383 1052.03 316.754 1057.11 327.496C1064.53 316.754 1075.11 311.383 1088.84 311.383C1100.3 311.383 1108.83 314.736 1114.43 321.441C1120.03 328.082 1122.83 338.108 1122.83 351.52V419H1094.51V351.617C1094.51 345.628 1093.34 341.266 1090.99 338.531C1088.65 335.732 1084.51 334.332 1078.59 334.332C1070.13 334.332 1064.27 338.368 1061.01 346.441L1061.11 419H1032.89V351.715C1032.89 345.595 1031.68 341.168 1029.27 338.434C1026.86 335.699 1022.76 334.332 1016.97 334.332C1008.96 334.332 1003.17 337.652 999.586 344.293V419H971.363V313.336H997.828ZM1205.84 419C1204.53 416.461 1203.59 413.303 1203 409.527C1196.17 417.145 1187.28 420.953 1176.34 420.953C1165.99 420.953 1157.4 417.958 1150.56 411.969C1143.79 405.979 1140.41 398.427 1140.41 389.312C1140.41 378.115 1144.54 369.521 1152.81 363.531C1161.14 357.542 1173.15 354.514 1188.84 354.449H1201.83V348.395C1201.83 343.512 1200.56 339.605 1198.02 336.676C1195.55 333.746 1191.61 332.281 1186.21 332.281C1181.45 332.281 1177.71 333.421 1174.98 335.699C1172.31 337.978 1170.97 341.103 1170.97 345.074H1142.75C1142.75 338.954 1144.64 333.29 1148.41 328.082C1152.19 322.874 1157.53 318.805 1164.43 315.875C1171.33 312.88 1179.08 311.383 1187.67 311.383C1200.69 311.383 1211.01 314.671 1218.63 321.246C1226.31 327.757 1230.15 336.936 1230.15 348.785V394.586C1230.22 404.612 1231.62 412.197 1234.35 417.34V419H1205.84ZM1182.5 399.371C1186.66 399.371 1190.5 398.46 1194.02 396.637C1197.54 394.749 1200.14 392.242 1201.83 389.117V370.953H1191.29C1177.16 370.953 1169.64 375.836 1168.73 385.602L1168.63 387.262C1168.63 390.777 1169.87 393.674 1172.34 395.953C1174.81 398.232 1178.2 399.371 1182.5 399.371ZM1247.73 365.387C1247.73 349.176 1251.57 336.122 1259.25 326.227C1267 316.331 1277.42 311.383 1290.5 311.383C1302.09 311.383 1311.11 315.354 1317.55 323.297L1318.73 313.336H1344.31V415.484C1344.31 424.729 1342.2 432.77 1337.96 439.605C1333.8 446.441 1327.91 451.65 1320.29 455.23C1312.67 458.811 1303.75 460.602 1293.53 460.602C1285.78 460.602 1278.23 459.039 1270.88 455.914C1263.52 452.854 1257.95 448.883 1254.18 444L1266.68 426.812C1273.71 434.69 1282.24 438.629 1292.26 438.629C1299.75 438.629 1305.58 436.611 1309.74 432.574C1313.91 428.603 1315.99 422.939 1315.99 415.582V409.918C1309.48 417.275 1300.92 420.953 1290.31 420.953C1277.61 420.953 1267.33 416.005 1259.45 406.109C1251.64 396.148 1247.73 382.965 1247.73 366.559V365.387ZM1275.95 367.438C1275.95 377.008 1277.87 384.527 1281.71 389.996C1285.56 395.4 1290.83 398.102 1297.54 398.102C1306.13 398.102 1312.28 394.879 1315.99 388.434V344C1312.22 337.555 1306.13 334.332 1297.73 334.332C1290.96 334.332 1285.62 337.099 1281.71 342.633C1277.87 348.167 1275.95 356.435 1275.95 367.438ZM1414.72 420.953C1399.23 420.953 1386.6 416.201 1376.83 406.695C1367.13 397.19 1362.28 384.527 1362.28 368.707V365.973C1362.28 355.361 1364.33 345.888 1368.43 337.555C1372.54 329.156 1378.33 322.711 1385.82 318.219C1393.37 313.661 1401.96 311.383 1411.6 311.383C1426.05 311.383 1437.41 315.94 1445.68 325.055C1454.01 334.169 1458.18 347.092 1458.18 363.824V375.348H1390.89C1391.81 382.249 1394.54 387.783 1399.1 391.949C1403.72 396.116 1409.55 398.199 1416.58 398.199C1427.45 398.199 1435.95 394.26 1442.07 386.383L1455.93 401.91C1451.7 407.9 1445.97 412.587 1438.75 415.973C1431.52 419.293 1423.51 420.953 1414.72 420.953ZM1411.5 334.234C1405.9 334.234 1401.34 336.122 1397.83 339.898C1394.38 343.674 1392.16 349.078 1391.19 356.109H1430.45V353.863C1430.32 347.613 1428.62 342.796 1425.37 339.41C1422.11 335.96 1417.49 334.234 1411.5 334.234ZM1557.89 287.359V313.336H1575.95V334.039H1557.89V386.773C1557.89 390.68 1558.64 393.479 1560.13 395.172C1561.63 396.865 1564.49 397.711 1568.73 397.711C1571.85 397.711 1574.62 397.483 1577.03 397.027V418.414C1571.49 420.107 1565.8 420.953 1559.94 420.953C1540.15 420.953 1530.05 410.96 1529.66 390.973V334.039H1514.23V313.336H1529.66V287.359H1557.89ZM1584.35 365.191C1584.35 354.71 1586.37 345.367 1590.41 337.164C1594.44 328.961 1600.24 322.613 1607.79 318.121C1615.41 313.629 1624.23 311.383 1634.25 311.383C1648.51 311.383 1660.13 315.745 1669.12 324.469C1678.17 333.193 1683.21 345.042 1684.25 360.016L1684.45 367.242C1684.45 383.453 1679.92 396.474 1670.88 406.305C1661.83 416.07 1649.68 420.953 1634.45 420.953C1619.21 420.953 1607.04 416.07 1597.93 406.305C1588.88 396.539 1584.35 383.258 1584.35 366.461V365.191ZM1612.57 367.242C1612.57 377.268 1614.46 384.951 1618.24 390.289C1622.01 395.562 1627.42 398.199 1634.45 398.199C1641.29 398.199 1646.62 395.595 1650.46 390.387C1654.31 385.113 1656.23 376.715 1656.23 365.191C1656.23 355.361 1654.31 347.743 1650.46 342.34C1646.62 336.936 1641.22 334.234 1634.25 334.234C1627.35 334.234 1622.01 336.936 1618.24 342.34C1614.46 347.678 1612.57 355.979 1612.57 367.242ZM1747.54 365.387C1747.54 349.176 1751.38 336.122 1759.06 326.227C1766.81 316.331 1777.22 311.383 1790.31 311.383C1801.9 311.383 1810.91 315.354 1817.36 323.297L1818.53 313.336H1844.12V415.484C1844.12 424.729 1842 432.77 1837.77 439.605C1833.6 446.441 1827.71 451.65 1820.09 455.23C1812.48 458.811 1803.56 460.602 1793.34 460.602C1785.59 460.602 1778.04 459.039 1770.68 455.914C1763.32 452.854 1757.76 448.883 1753.98 444L1766.48 426.812C1773.51 434.69 1782.04 438.629 1792.07 438.629C1799.55 438.629 1805.38 436.611 1809.55 432.574C1813.71 428.603 1815.8 422.939 1815.8 415.582V409.918C1809.29 417.275 1800.73 420.953 1790.11 420.953C1777.42 420.953 1767.13 416.005 1759.25 406.109C1751.44 396.148 1747.54 382.965 1747.54 366.559V365.387ZM1775.76 367.438C1775.76 377.008 1777.68 384.527 1781.52 389.996C1785.36 395.4 1790.63 398.102 1797.34 398.102C1805.93 398.102 1812.09 394.879 1815.8 388.434V344C1812.02 337.555 1805.93 334.332 1797.54 334.332C1790.76 334.332 1785.43 337.099 1781.52 342.633C1777.68 348.167 1775.76 356.435 1775.76 367.438ZM1861.5 365.191C1861.5 354.71 1863.52 345.367 1867.55 337.164C1871.59 328.961 1877.39 322.613 1884.94 318.121C1892.55 313.629 1901.38 311.383 1911.4 311.383C1925.66 311.383 1937.28 315.745 1946.27 324.469C1955.32 333.193 1960.36 345.042 1961.4 360.016L1961.6 367.242C1961.6 383.453 1957.07 396.474 1948.02 406.305C1938.97 416.07 1926.83 420.953 1911.6 420.953C1896.36 420.953 1884.19 416.07 1875.07 406.305C1866.02 396.539 1861.5 383.258 1861.5 366.461V365.191ZM1889.72 367.242C1889.72 377.268 1891.61 384.951 1895.39 390.289C1899.16 395.562 1904.57 398.199 1911.6 398.199C1918.43 398.199 1923.77 395.595 1927.61 390.387C1931.45 385.113 1933.38 376.715 1933.38 365.191C1933.38 355.361 1931.45 347.743 1927.61 342.34C1923.77 336.936 1918.37 334.234 1911.4 334.234C1904.5 334.234 1899.16 336.936 1895.39 342.34C1891.61 347.678 1889.72 355.979 1889.72 367.242ZM2146.36 419H2117.07V358.062H2059.94V419H2030.64V276.812H2059.94V334.43H2117.07V276.812H2146.36V419ZM2165.8 365.191C2165.8 354.71 2167.82 345.367 2171.85 337.164C2175.89 328.961 2181.68 322.613 2189.23 318.121C2196.85 313.629 2205.67 311.383 2215.7 311.383C2229.96 311.383 2241.58 315.745 2250.56 324.469C2259.61 333.193 2264.66 345.042 2265.7 360.016L2265.89 367.242C2265.89 383.453 2261.37 396.474 2252.32 406.305C2243.27 416.07 2231.13 420.953 2215.89 420.953C2200.66 420.953 2188.49 416.07 2179.37 406.305C2170.32 396.539 2165.8 383.258 2165.8 366.461V365.191ZM2194.02 367.242C2194.02 377.268 2195.91 384.951 2199.68 390.289C2203.46 395.562 2208.86 398.199 2215.89 398.199C2222.73 398.199 2228.07 395.595 2231.91 390.387C2235.75 385.113 2237.67 376.715 2237.67 365.191C2237.67 355.361 2235.75 347.743 2231.91 342.34C2228.07 336.936 2222.67 334.234 2215.7 334.234C2208.8 334.234 2203.46 336.936 2199.68 342.34C2195.91 347.678 2194.02 355.979 2194.02 367.242ZM2309.74 313.336L2310.62 325.152C2318.11 315.973 2328.23 311.383 2340.99 311.383C2354.6 311.383 2363.94 316.754 2369.02 327.496C2376.44 316.754 2387.02 311.383 2400.76 311.383C2412.22 311.383 2420.74 314.736 2426.34 321.441C2431.94 328.082 2434.74 338.108 2434.74 351.52V419H2406.42V351.617C2406.42 345.628 2405.25 341.266 2402.91 338.531C2400.56 335.732 2396.43 334.332 2390.5 334.332C2382.04 334.332 2376.18 338.368 2372.93 346.441L2373.02 419H2344.8V351.715C2344.8 345.595 2343.6 341.168 2341.19 338.434C2338.78 335.699 2334.68 334.332 2328.88 334.332C2320.88 334.332 2315.08 337.652 2311.5 344.293V419H2283.28V313.336H2309.74ZM2505.15 420.953C2489.66 420.953 2477.03 416.201 2467.26 406.695C2457.56 397.19 2452.71 384.527 2452.71 368.707V365.973C2452.71 355.361 2454.76 345.888 2458.86 337.555C2462.96 329.156 2468.76 322.711 2476.25 318.219C2483.8 313.661 2492.39 311.383 2502.03 311.383C2516.48 311.383 2527.84 315.94 2536.11 325.055C2544.44 334.169 2548.61 347.092 2548.61 363.824V375.348H2481.32C2482.24 382.249 2484.97 387.783 2489.53 391.949C2494.15 396.116 2499.98 398.199 2507.01 398.199C2517.88 398.199 2526.38 394.26 2532.5 386.383L2546.36 401.91C2542.13 407.9 2536.4 412.587 2529.18 415.973C2521.95 419.293 2513.94 420.953 2505.15 420.953ZM2501.93 334.234C2496.33 334.234 2491.77 336.122 2488.26 339.898C2484.81 343.674 2482.59 349.078 2481.62 356.109H2520.88V353.863C2520.74 347.613 2519.05 342.796 2515.8 339.41C2512.54 335.96 2507.92 334.234 2501.93 334.234ZM2566.19 405.133C2566.19 400.641 2567.68 396.995 2570.68 394.195C2573.74 391.396 2577.55 389.996 2582.11 389.996C2586.73 389.996 2590.54 391.396 2593.53 394.195C2596.59 396.995 2598.12 400.641 2598.12 405.133C2598.12 409.56 2596.62 413.173 2593.63 415.973C2590.63 418.707 2586.79 420.074 2582.11 420.074C2577.48 420.074 2573.67 418.707 2570.68 415.973C2567.68 413.173 2566.19 409.56 2566.19 405.133Z" fill="#F3F3F3"/>
</svg>
