<svg width="3647" height="2718" viewBox="0 0 3647 2718" fill="none" xmlns="http://www.w3.org/2000/svg">
<path d="M537 2438.62H3647V2437.07H537V2438.62Z" fill="#E7E8E5"/>
<path d="M3129.36 2537.19H3335.38V2538.75H3129.36V2537.19Z" fill="#E7E8E5"/>
<path d="M2543.12 2554.07H2597.19V2555.62H2543.12V2554.07Z" fill="#E7E8E5"/>
<path d="M3003.76 2479.43H3123.14V2480.98H3003.76V2479.43" fill="#E7E8E5"/>
<path d="M863.295 2489.88H1131.96V2491.43H863.295V2489.88Z" fill="#E7E8E5"/>
<path d="M1187.34 2489.88H1226.73V2491.43H1187.34V2489.88Z" fill="#E7E8E5"/>
<path d="M1354.75 2516.14H1937.41V2517.7H1354.75V2516.14" fill="#E7E8E5"/>
<path d="M2155.52 401.771C2136.8 401.771 2121.58 416.999 2121.58 435.716V2124.14C2121.58 2142.86 2136.8 2158.09 2155.52 2158.09H3356.59C3375.31 2158.09 3390.54 2142.86 3390.54 2124.14V435.716C3390.54 416.999 3375.31 401.771 3356.59 401.771H2155.52ZM3356.59 2159.64H2155.52C2135.94 2159.64 2120.02 2143.72 2120.02 2124.14V435.716C2120.02 416.146 2135.94 400.216 2155.52 400.216H3356.59C3376.17 400.216 3392.1 416.146 3392.1 435.716V2124.14C3392.1 2143.72 3376.17 2159.64 3356.59 2159.64Z" fill="#E7E8E5"/>
<path d="M2338.88 1141.11H3195.88V579.859H2338.88V1141.11Z" fill="#E2E2E0"/>
<path d="M2312.73 1141.11H3183.65V579.859H2312.73V1141.11Z" fill="#EDEDEB"/>
<path d="M2338.88 1251.26H3195.88V1141.1H2338.88V1251.26Z" fill="#E2E2E0"/>
<path d="M2269.16 1251.26H3140.09V1141.1H2269.16V1251.26Z" fill="#EDEDEB"/>
<path d="M2349.33 1104.49H3147.05V616.466H2349.33V1104.49Z" fill="#FAFAF9"/>
<path d="M2967.17 1104.5L2865.28 616.469H2706.29L2808.18 1104.5H2967.17Z" fill="white"/>
<path d="M3130.1 1068.06C3131.54 1068.06 3132.71 1066.88 3132.71 1065.44V640.287C3132.71 638.844 3131.54 637.668 3130.1 637.668C3128.66 637.668 3127.48 638.844 3127.48 640.287V1065.44C3127.48 1066.88 3128.66 1068.06 3130.1 1068.06Z" fill="#EDEDEB"/>
<path d="M2774.02 1104.5L2672.14 616.469H2610.15L2712.04 1104.5H2774.02Z" fill="white"/>
<path d="M2349.33 1104.49H2353.99V616.466H2349.33V1104.49Z" fill="#E2E2E0"/>
<path d="M3161.07 671.669H3147.05V630.695H3164.43L3161.07 671.669Z" fill="#EAEAE7"/>
<path d="M3147.05 671.669H3132.71V640.287C3132.71 638.844 3131.54 637.668 3130.1 637.668C3128.66 637.668 3127.48 638.844 3127.48 640.287V671.669H2876.8L2868.25 630.695H3147.05V671.669ZM2717.81 671.669H2683.66L2675.11 630.695H2709.26L2717.81 671.669Z" fill="#EEEEEC"/>
<path d="M2876.8 671.669H2717.81L2709.26 630.695H2868.25L2876.8 671.669Z" fill="#F0F0EE"/>
<path d="M2621.68 671.669H2353.99V630.695H2613.12L2621.68 671.669" fill="#EEEEEC"/>
<path d="M2312.73 671.669H2304.07L2307.44 630.695H2312.73V671.669Z" fill="#F0F0EE"/>
<path d="M2312.73 671.669H2349.33V630.699H2312.73V671.669Z" fill="#EAEAE7"/>
<path d="M3132.71 671.669H3127.48V640.287C3127.48 638.844 3128.66 637.668 3130.1 637.668C3131.54 637.668 3132.71 638.844 3132.71 640.287V671.669Z" fill="#EAEAE7"/>
<path d="M2683.66 671.669H2621.68L2613.12 630.695H2675.11L2683.66 671.669Z" fill="#F0F0EE"/>
<path d="M2349.33 671.669H2353.99V630.699H2349.33V671.669Z" fill="#E5E5E3"/>
<path d="M3161.07 738.863H3147.05V697.889H3164.43L3161.07 738.863Z" fill="#EAEAE7"/>
<path d="M3147.05 738.863H3132.71V697.889H3147.05V738.863ZM3127.48 738.863H2890.83L2882.28 697.889H3127.48V738.863ZM2731.85 738.863H2697.69L2689.13 697.889H2723.29L2731.85 738.863Z" fill="#EEEEEC"/>
<path d="M2890.83 738.863H2731.84L2723.29 697.889H2882.28L2890.83 738.863Z" fill="#F0F0EE"/>
<path d="M2635.7 738.863H2353.99V697.889H2627.15L2635.7 738.863Z" fill="#EEEEEC"/>
<path d="M2312.73 738.863H2304.07L2307.44 697.889H2312.73V738.863Z" fill="#F0F0EE"/>
<path d="M2312.73 738.863H2349.33V697.893H2312.73V738.863Z" fill="#EAEAE7"/>
<path d="M3127.48 738.863H3132.71V697.893H3127.48V738.863Z" fill="#EAEAE7"/>
<path d="M2697.69 738.863H2635.7L2627.15 697.889H2689.13L2697.69 738.863" fill="#F0F0EE"/>
<path d="M2349.33 738.863H2353.99V697.893H2349.33V738.863Z" fill="#E5E5E3"/>
<path d="M3161.07 806.056H3147.05V765.088H3164.43L3161.07 806.056Z" fill="#EAEAE7"/>
<path d="M3147.05 806.056H3132.71V765.088H3147.05V806.056ZM3127.48 806.056H2904.86L2896.31 765.088H3127.48V806.056ZM2745.87 806.056H2711.72L2703.16 765.088H2737.32L2745.87 806.056Z" fill="#EEEEEC"/>
<path d="M2904.86 806.056H2745.87L2737.32 765.088H2896.31L2904.86 806.056Z" fill="#F0F0EE"/>
<path d="M2649.73 806.056H2353.99V765.088H2641.18L2649.73 806.056Z" fill="#EEEEEC"/>
<path d="M2312.73 806.056H2304.07L2307.44 765.088H2312.73V806.056Z" fill="#F0F0EE"/>
<path d="M2312.73 806.056H2349.33V765.088H2312.73V806.056Z" fill="#EAEAE7"/>
<path d="M3127.48 806.056H3132.71V765.088H3127.48V806.056Z" fill="#EAEAE7"/>
<path d="M2711.72 806.056H2649.73L2641.18 765.088H2703.16L2711.72 806.056Z" fill="#F0F0EE"/>
<path d="M2349.33 806.056H2353.99V765.088H2349.33V806.056Z" fill="#E5E5E3"/>
<path d="M3161.07 873.248H3147.05V832.28H3164.43L3161.07 873.248Z" fill="#EAEAE7"/>
<path d="M3147.05 873.248H3132.71V832.28H3147.05V873.248ZM3127.48 873.248H2918.89L2910.33 832.28H3127.48V873.248ZM2759.9 873.248H2725.74L2717.19 832.28H2751.34L2759.9 873.248Z" fill="#EEEEEC"/>
<path d="M2918.89 873.248H2759.9L2751.34 832.28H2910.33L2918.89 873.248Z" fill="#F0F0EE"/>
<path d="M2663.76 873.248H2353.99V832.28H2655.21L2663.76 873.248" fill="#EEEEEC"/>
<path d="M2312.73 873.248H2304.07L2307.44 832.28H2312.73V873.248Z" fill="#F0F0EE"/>
<path d="M2312.73 873.248H2349.33V832.278H2312.73V873.248Z" fill="#EAEAE7"/>
<path d="M3127.48 873.248H3132.71V832.278H3127.48V873.248Z" fill="#EAEAE7"/>
<path d="M2725.74 873.248H2663.76L2655.21 832.28H2717.19L2725.74 873.248Z" fill="#F0F0EE"/>
<path d="M2349.33 873.248H2353.99V832.278H2349.33V873.248Z" fill="#E5E5E3"/>
<path d="M2312.73 940.435H2304.07L2307.44 899.473H2312.73V940.435Z" fill="#F0F0EE"/>
<path d="M3161.07 940.435H3147.05V899.473H3164.43L3161.07 940.435ZM2349.33 940.435H2312.73V899.473H2349.33V940.435Z" fill="#EAEAE7"/>
<path d="M3147.05 940.435H3132.71V899.473H3147.05V940.435ZM3127.48 940.435H2932.92L2924.36 899.473H3127.48V940.435ZM2773.93 940.435H2739.77L2731.22 899.473H2765.37L2773.93 940.435ZM2677.79 940.435H2443.6C2449.75 936.379 2455.96 932.41 2462.11 928.529L2451.07 904.562C2442.58 907.485 2434.78 910.689 2426.78 914.147C2418.82 917.544 2410.95 921.232 2403.24 925.325C2394.42 930.009 2385.61 934.874 2376.96 940.435H2353.99V899.473H2669.23L2677.79 940.435" fill="#EEEEEC"/>
<path d="M2932.92 940.435H2915.43C2909.74 926.42 2903.47 912.829 2896.61 899.473H2924.36L2932.92 940.435ZM2876.58 940.435H2773.93L2765.37 899.473H2865.03C2869.03 913.071 2872.98 926.775 2876.58 940.435" fill="#F0F0EE"/>
<path d="M3127.48 940.435H3132.71V899.468H3127.48V940.435Z" fill="#EAEAE7"/>
<path d="M2739.77 940.435H2677.79L2669.24 899.473H2731.22L2739.77 940.435Z" fill="#F0F0EE"/>
<path d="M2349.33 940.435H2353.99V899.468H2349.33V940.435Z" fill="#E5E5E3"/>
<path d="M2312.73 1000.27H2304.67L2307.44 966.667H2312.73V1000.27" fill="#F0F0EE"/>
<path d="M3161.07 1007.63H3147.05V966.667H3164.43L3161.07 1007.63ZM2325.74 1000.27H2312.73V966.667H2344.59C2341.89 969.572 2339.26 972.732 2336.74 976.252C2333.48 980.799 2330.36 986.043 2327.99 992.469C2327.08 994.864 2326.31 997.483 2325.74 1000.27Z" fill="#EAEAE7"/>
<path d="M3147.05 1007.63H3132.71V966.667H3147.05V1007.63ZM3127.48 1007.63H2946.94L2938.39 966.667H3127.48V1007.63ZM2787.96 1007.63H2753.8L2745.25 966.667H2779.4L2787.96 1007.63ZM2691.82 1007.63H2685.31C2686.27 1001.69 2687.31 996.002 2688.3 990.783L2691.82 1007.63ZM2657.61 1007.63H2597.21C2588.81 1002.95 2579.27 1000.27 2569.33 1000.27H2564.22H2374.47C2377.25 995.641 2381.45 990.46 2386.22 985.502C2392.58 979.014 2399.65 972.738 2407.18 966.667H2683.27L2686.63 982.759L2657.61 1007.63" fill="#EEEEEC"/>
<path d="M2946.94 1007.63H2935.07C2933.23 992.512 2929.38 979.555 2925.23 966.667H2938.39L2946.94 1007.63V1007.63ZM2889.54 1007.63H2787.95L2779.4 966.667H2882.97C2883.73 970.15 2884.46 973.627 2885.15 977.092C2887.2 987.493 2888.97 998.167 2889.54 1007.63" fill="#F0F0EE"/>
<path d="M3127.48 1007.63H3132.71V966.664H3127.48V1007.63Z" fill="#EAEAE7"/>
<path d="M2753.8 1007.63H2691.82L2688.3 990.783C2689.08 986.672 2689.83 982.858 2690.51 979.425L2686.63 982.759L2683.27 966.667H2745.25L2753.8 1007.63" fill="#F0F0EE"/>
<path d="M3072.82 2064.33H2893.13V2028.9H3072.82V2064.33Z" fill="#E2E2E0"/>
<path d="M2554.2 2437.07H2587.37V1621.79H2554.2V2437.07Z" fill="#E2E2E0"/>
<path d="M2439.3 2064.33H2893.13V2028.9H2439.3V2064.33Z" fill="#F3F2F1"/>
<path d="M3072.82 2258.2H2893.13V2222.77H3072.82V2258.2Z" fill="#E2E2E0"/>
<path d="M2439.3 2258.2H2893.13V2222.77H2439.3V2258.2Z" fill="#F3F2F1"/>
<path d="M3072.82 1676.59H2893.13V1641.16H3072.82V1676.59Z" fill="#E2E2E0"/>
<path d="M2439.3 1676.59H2893.13V1641.16H2439.3V1676.59Z" fill="#F3F2F1"/>
<path d="M3072.82 1870.46H2893.13V1835.03H3072.82V1870.46Z" fill="#E2E2E0"/>
<path d="M2439.3 1870.46H2893.13V1835.03H2439.3V1870.46Z" fill="#F3F2F1"/>
<path d="M3008.03 2437.07H3041.2V1621.79H3008.03V2437.07Z" fill="#E2E2E0"/>
<path d="M2859.96 2437.07H2893.13V1621.79H2859.96V2437.07Z" fill="#F3F2F1"/>
<path d="M2439.3 2437.07H2472.47V1621.79H2439.3V2437.07Z" fill="#F3F2F1"/>
<path d="M943.625 2437.07H1283.1V1778.37H943.625V2437.07Z" fill="#E2E2E0"/>
<path d="M1034.27 2437.07H943.625V2346.14H1129.32L1034.27 2437.07Z" fill="#FAFAF9"/>
<path d="M1869.22 2437.07H2208.69V1778.37H1869.22V2437.07Z" fill="#E2E2E0"/>
<path d="M943.625 2405.77H1948.34V1778.37H943.625V2405.77Z" fill="#FAFAF9"/>
<path d="M1857.69 2437.07H1948.34V2346.14H1762.64L1857.69 2437.07" fill="#FAFAF9"/>
<path d="M1013.95 2169.17H1878.01V2012.16H1013.95V2169.17Z" fill="#EDEDEB"/>
<path d="M1013.95 2359.74H1878.01V2202.73H1013.95V2359.74Z" fill="#EDEDEB"/>
<path d="M1178.18 2028.95H1713.77C1729.5 2028.95 1742.24 2016.21 1742.24 2000.49V1998.57H1149.72V2000.49C1149.72 2016.21 1162.46 2028.95 1178.18 2028.95Z" fill="#FAFAF9"/>
<path d="M1013.95 1978.6H1878.01V1821.59H1013.95V1978.6Z" fill="#EDEDEB"/>
<path d="M1178.18 1838.38H1713.77C1729.5 1838.38 1742.24 1825.64 1742.24 1809.92V1808H1149.72V1809.92C1149.72 1825.64 1162.46 1838.38 1178.18 1838.38Z" fill="#FAFAF9"/>
<path d="M1178.18 2219.52H1713.77C1729.5 2219.52 1742.24 2206.77 1742.24 2191.05V2189.13H1149.72V2191.05C1149.72 2206.77 1162.46 2219.52 1178.18 2219.52Z" fill="#FAFAF9"/>
<path d="M997.703 1141.11H1854.7V579.859H997.703V1141.11Z" fill="#E2E2E0"/>
<path d="M971.555 1141.11H1842.49V579.859H971.555V1141.11Z" fill="#EDEDEB"/>
<path d="M997.703 1251.26H1854.7V1141.1H997.703V1251.26Z" fill="#E2E2E0"/>
<path d="M927.992 1251.26H1798.92V1141.1H927.992V1251.26Z" fill="#EDEDEB"/>
<path d="M1008.16 1104.49H1805.87V616.466H1008.16V1104.49Z" fill="#FAFAF9"/>
<path d="M1626 1104.5L1524.11 616.469H1365.12L1467.01 1104.5H1626" fill="white"/>
<path d="M1788.92 1068.06C1790.37 1068.06 1791.54 1066.88 1791.54 1065.44V640.287C1791.54 638.844 1790.37 637.668 1788.92 637.668C1787.48 637.668 1786.31 638.844 1786.31 640.287V1065.44C1786.31 1066.88 1787.48 1068.06 1788.92 1068.06Z" fill="#EDEDEB"/>
<path d="M1432.85 1104.5L1330.96 616.469H1268.98L1370.87 1104.5H1432.85Z" fill="white"/>
<path d="M1008.16 1104.49H1012.81V616.466H1008.16V1104.49Z" fill="#E2E2E0"/>
<path d="M964.797 671.669H962.898L966.268 630.695H971.555V653.81H966.268L964.797 671.669Z" fill="#F0F0EE"/>
<path d="M1821.36 653.81H1805.87V630.695H1823.27L1821.36 653.81ZM1008.16 653.81H971.555V630.695H1008.16V653.81Z" fill="#EAEAE7"/>
<path d="M1805.87 653.81H1791.54V640.287C1791.54 638.844 1790.37 637.668 1788.92 637.668C1787.48 637.668 1786.31 638.844 1786.31 640.287V653.81H1531.9L1527.08 630.695H1805.87V653.81ZM1372.91 653.81H1338.76L1333.94 630.695H1368.09L1372.91 653.81V653.81ZM1276.78 653.81H1012.81V630.695H1271.95L1276.78 653.81" fill="#EEEEEC"/>
<path d="M1531.9 653.81H1372.91L1368.09 630.695H1527.08L1531.9 653.81Z" fill="#F0F0EE"/>
<path d="M1791.54 653.81H1786.31V640.287C1786.31 638.844 1787.48 637.668 1788.92 637.668C1790.37 637.668 1791.54 638.844 1791.54 640.287V653.81Z" fill="#EAEAE7"/>
<path d="M1338.76 653.81H1276.78L1271.95 630.695H1333.94L1338.76 653.81Z" fill="#F0F0EE"/>
<path d="M1008.16 653.81H1012.81V630.697H1008.16V653.81Z" fill="#E5E5E3"/>
<path d="M964.797 694.778H962.898L964.797 671.669H971.555V676.919H966.268L964.797 694.778Z" fill="#F0F0EE"/>
<path d="M1821.36 676.919H1805.87V671.669H1819.89L1821.36 653.81H1823.27L1821.36 676.919ZM1008.16 676.919H971.555V671.669H1008.16V676.919Z" fill="#EAEAE7"/>
<path d="M1805.87 676.919H1791.54V671.669H1805.87V676.919ZM1786.31 676.919H1536.73L1535.63 671.669H1786.31V676.919ZM1377.74 676.919H1343.59L1342.49 671.669H1376.64L1377.74 676.919ZM1281.6 676.919H1012.81V671.669H1280.51L1281.6 676.919" fill="#EEEEEC"/>
<path d="M1536.73 676.919H1377.74L1376.64 671.669H1535.63L1536.73 676.919Z" fill="#F0F0EE"/>
<path d="M1786.31 676.919H1791.54V671.666H1786.31V676.919Z" fill="#EAEAE7"/>
<path d="M1343.58 676.919H1281.6L1280.51 671.669H1342.49L1343.58 676.919Z" fill="#F0F0EE"/>
<path d="M1008.16 676.919H1012.81V671.666H1008.16V676.919Z" fill="#E5E5E3"/>
<path d="M971.555 671.669H964.797L966.268 653.81H971.555V671.669Z" fill="#EBEBE9"/>
<path d="M1819.89 671.669H1805.87V653.81H1821.36L1819.89 671.669ZM1008.16 671.669H971.555V653.81H1008.16V671.669Z" fill="#E8E9E6"/>
<path d="M1805.87 671.669H1791.54V653.81H1805.87V671.669ZM1786.31 671.669H1535.63L1531.9 653.81H1786.31V671.669ZM1376.64 671.669H1342.49L1338.76 653.81H1372.91L1376.64 671.669V671.669ZM1280.51 671.669H1012.81V653.81H1276.78L1280.51 671.669" fill="#EAEAE7"/>
<path d="M1535.63 671.669H1376.64L1372.91 653.81H1531.9L1535.63 671.669Z" fill="#EBEBE8"/>
<path d="M1786.31 671.669H1791.54V653.812H1786.31V671.669Z" fill="#E8E9E6"/>
<path d="M1342.49 671.669H1280.51L1276.78 653.81H1338.76L1342.49 671.669Z" fill="#EBEBE8"/>
<path d="M1008.16 671.669H1012.81V653.812H1008.16V671.669Z" fill="#E6E6E4"/>
<path d="M964.797 717.893H962.898L964.797 694.777H971.555V700.034H966.268L964.797 717.893Z" fill="#F0F0EE"/>
<path d="M1821.36 700.034H1805.87V694.777H1819.89L1821.36 676.919H1823.27L1821.36 700.034ZM1008.16 700.034H971.555V694.777H1008.16V700.034Z" fill="#EAEAE7"/>
<path d="M1805.87 700.034H1791.54V694.777H1805.87V700.034ZM1786.31 700.034H1541.56L1540.45 694.777H1786.31V700.034ZM1382.57 700.034H1348.41L1347.31 694.777H1381.47L1382.57 700.034ZM1286.43 700.034H1012.81V694.777H1285.33L1286.43 700.034Z" fill="#EEEEEC"/>
<path d="M1541.56 700.034H1382.57L1381.46 694.777H1540.45L1541.56 700.034Z" fill="#F0F0EE"/>
<path d="M1786.31 700.034H1791.54V694.778H1786.31V700.034Z" fill="#EAEAE7"/>
<path d="M1348.41 700.034H1286.43L1285.33 694.777H1347.31L1348.41 700.034Z" fill="#F0F0EE"/>
<path d="M1008.16 700.034H1012.81V694.778H1008.16V700.034Z" fill="#E5E5E3"/>
<path d="M971.555 694.778H964.797L966.268 676.919H971.555V694.778Z" fill="#EBEBE9"/>
<path d="M1819.89 694.778H1805.87V676.919H1821.36L1819.89 694.778ZM1008.16 694.778H971.555V676.919H1008.16V694.778Z" fill="#E8E9E6"/>
<path d="M1805.87 694.778H1791.54V676.919H1805.87V694.778ZM1786.31 694.778H1540.45L1536.73 676.919H1786.31V694.778ZM1381.47 694.778H1347.31L1343.59 676.919H1377.74L1381.47 694.778ZM1285.33 694.778H1012.81V676.919H1281.6L1285.33 694.778Z" fill="#EAEAE7"/>
<path d="M1540.45 694.778H1381.46L1377.74 676.919H1536.73L1540.45 694.778" fill="#EBEBE8"/>
<path d="M1786.31 694.778H1791.54V676.921H1786.31V694.778Z" fill="#E8E9E6"/>
<path d="M1347.31 694.778H1285.33L1281.6 676.919H1343.58L1347.31 694.778Z" fill="#EBEBE8"/>
<path d="M1008.16 694.778H1012.81V676.921H1008.16V694.778Z" fill="#E6E6E4"/>
<path d="M964.797 741.001H962.898L964.797 717.893H971.555V723.143H966.268L964.797 741.001Z" fill="#F0F0EE"/>
<path d="M1821.36 723.144H1805.87V717.894H1819.89L1821.36 700.035H1823.27L1821.36 723.144ZM1008.16 723.144H971.555V717.894H1008.16V723.144Z" fill="#EAEAE7"/>
<path d="M1805.87 723.144H1791.54V717.894H1805.87V723.144ZM1786.31 723.144H1546.38L1545.28 717.894H1786.31V723.144ZM1387.39 723.144H1353.23L1352.14 717.894H1386.29L1387.39 723.144ZM1291.25 723.144H1012.81V717.894H1290.16L1291.25 723.144" fill="#EEEEEC"/>
<path d="M1546.38 723.144H1387.39L1386.29 717.894H1545.28L1546.38 723.144" fill="#F0F0EE"/>
<path d="M1786.31 723.144H1791.54V717.89H1786.31V723.144Z" fill="#EAEAE7"/>
<path d="M1353.23 723.144H1291.25L1290.16 717.894H1352.14L1353.23 723.144Z" fill="#F0F0EE"/>
<path d="M1008.16 723.144H1012.81V717.89H1008.16V723.144Z" fill="#E5E5E3"/>
<path d="M971.555 717.893H964.797L966.268 700.034H971.555V717.893Z" fill="#EBEBE9"/>
<path d="M1819.89 717.893H1805.87V700.034H1821.36L1819.89 717.893ZM1008.16 717.893H971.555V700.034H1008.16V717.893Z" fill="#E8E9E6"/>
<path d="M1805.87 717.893H1791.54V700.034H1805.87V717.893ZM1786.31 717.893H1545.28L1541.56 700.034H1786.31V717.893ZM1386.29 717.893H1352.14L1348.41 700.034H1382.57L1386.29 717.893ZM1290.16 717.893H1012.81V700.034H1286.43L1290.16 717.893" fill="#EAEAE7"/>
<path d="M1545.28 717.893H1386.29L1382.57 700.034H1541.55L1545.28 717.893Z" fill="#EBEBE8"/>
<path d="M1786.31 717.893H1791.54V700.036H1786.31V717.893Z" fill="#E8E9E6"/>
<path d="M1352.14 717.893H1290.16L1286.43 700.034H1348.41L1352.14 717.893Z" fill="#EBEBE8"/>
<path d="M1008.16 717.893H1012.81V700.036H1008.16V717.893Z" fill="#E6E6E4"/>
<path d="M964.797 764.11H962.898L964.797 741.002H971.555V746.252H966.268L964.797 764.11Z" fill="#F0F0EE"/>
<path d="M1821.36 746.252H1805.87V741.002H1819.89L1821.36 723.144H1823.27L1821.36 746.252ZM1008.16 746.252H971.555V741.002H1008.16V746.252Z" fill="#EAEAE7"/>
<path d="M1805.87 746.252H1791.54V741.002H1805.87V746.252ZM1786.31 746.252H1551.2L1550.11 741.002H1786.31V746.252ZM1392.21 746.252H1358.06L1356.96 741.002H1391.12L1392.21 746.252ZM1296.08 746.252H1012.81V741.002H1294.98L1296.08 746.252" fill="#EEEEEC"/>
<path d="M1551.2 746.252H1392.21L1391.12 741.002H1550.11L1551.2 746.252Z" fill="#F0F0EE"/>
<path d="M1786.31 746.252H1791.54V740.999H1786.31V746.252Z" fill="#EAEAE7"/>
<path d="M1358.06 746.252H1296.08L1294.98 741.002H1356.96L1358.06 746.252Z" fill="#F0F0EE"/>
<path d="M1008.16 746.252H1012.81V740.999H1008.16V746.252Z" fill="#E5E5E3"/>
<path d="M971.555 741.001H964.797L966.268 723.143H971.555V741.001Z" fill="#EBEBE9"/>
<path d="M1819.89 741.001H1805.87V723.143H1821.36L1819.89 741.001ZM1008.16 741.001H971.555V723.143H1008.16V741.001Z" fill="#E8E9E6"/>
<path d="M1805.87 741.001H1791.54V723.143H1805.87V741.001ZM1786.31 741.001H1550.11L1546.38 723.143H1786.31V741.001ZM1391.12 741.001H1356.96L1353.23 723.143H1387.39L1391.12 741.001ZM1294.98 741.001H1012.81V723.143H1291.25L1294.98 741.001Z" fill="#EAEAE7"/>
<path d="M1550.11 741.001H1391.12L1387.39 723.143H1546.38L1550.11 741.001" fill="#EBEBE8"/>
<path d="M1786.31 741.001H1791.54V723.144H1786.31V741.001Z" fill="#E8E9E6"/>
<path d="M1356.96 741.001H1294.98L1291.25 723.143H1353.23L1356.96 741.001Z" fill="#EBEBE8"/>
<path d="M1008.16 741.001H1012.81V723.144H1008.16V741.001Z" fill="#E6E6E4"/>
<path d="M971.555 787.225H962.898L964.797 764.11H971.555V787.225Z" fill="#F0F0EE"/>
<path d="M1819.89 787.225H1805.87V764.11H1819.89L1821.36 746.251H1823.27L1819.89 787.225ZM1008.16 787.225H971.555V764.11H1008.16V787.225Z" fill="#EAEAE7"/>
<path d="M1805.87 787.225H1791.54V764.11H1805.87V787.225ZM1786.31 787.225H1559.76L1554.93 764.11H1786.31V787.225ZM1400.77 787.225H1366.61L1361.79 764.11H1395.95L1400.77 787.225ZM1304.63 787.225H1012.81V764.11H1299.8L1304.63 787.225" fill="#EEEEEC"/>
<path d="M1559.76 787.225H1400.77L1395.95 764.11H1554.93L1559.76 787.225" fill="#F0F0EE"/>
<path d="M1786.31 787.225H1791.54V764.11H1786.31V787.225Z" fill="#EAEAE7"/>
<path d="M1366.61 787.225H1304.63L1299.8 764.11H1361.79L1366.61 787.225Z" fill="#F0F0EE"/>
<path d="M1008.16 787.225H1012.81V764.11H1008.16V787.225Z" fill="#E5E5E3"/>
<path d="M971.555 764.11H964.797L966.268 746.252H971.555V764.11Z" fill="#EBEBE9"/>
<path d="M1819.89 764.11H1805.87V746.252H1821.36L1819.89 764.11ZM1008.16 764.11H971.555V746.252H1008.16V764.11Z" fill="#E8E9E6"/>
<path d="M1805.87 764.11H1791.54V746.252H1805.87V764.11ZM1786.31 764.11H1554.93L1551.2 746.252H1786.31V764.11ZM1395.95 764.11H1361.79L1358.06 746.252H1392.21L1395.95 764.11ZM1299.8 764.11H1012.81V746.252H1296.08L1299.8 764.11" fill="#EAEAE7"/>
<path d="M1554.93 764.11H1395.94L1392.21 746.252H1551.2L1554.93 764.11" fill="#EBEBE8"/>
<path d="M1786.31 764.11H1791.54V746.253H1786.31V764.11Z" fill="#E8E9E6"/>
<path d="M1361.79 764.11H1299.8L1296.08 746.252H1358.06L1361.79 764.11Z" fill="#EBEBE8"/>
<path d="M1008.16 764.11H1012.81V746.253H1008.16V764.11Z" fill="#E6E6E4"/>
<path d="M1134.2 1758.25H1163.83V1427.99H1134.2V1758.25" fill="#F3F2F1"/>
<path d="M1138.02 1758.02H1146.39V1427.76H1138.02V1758.02Z" fill="#FAFAF9"/>
<path d="M1149.89 1758.02H1153.17V1427.76H1149.89V1758.02Z" fill="#FAFAF9"/>
<path d="M1039.35 1778.37H1258.69C1258.69 1763.12 1246.32 1750.74 1231.05 1750.74H1066.98C1051.72 1750.74 1039.35 1763.12 1039.35 1778.37" fill="#EDEDEB"/>
<path d="M1095.77 1633.02C1100.46 1633.02 1104.3 1629.18 1104.3 1624.49V1407.96C1104.3 1403.27 1100.46 1399.44 1095.77 1399.44C1091.09 1399.44 1087.25 1403.27 1087.25 1407.96V1624.49C1087.25 1629.18 1091.09 1633.02 1095.77 1633.02" fill="#EDEDEB"/>
<path d="M1016.4 1506.49H1281.63L1251.12 1321.13H1046.91L1016.4 1506.49" fill="#DADBD8"/>
<path d="M3297.99 2647.56C3297.99 2686.46 2758.05 2718 2092 2718C1425.95 2718 886.01 2686.46 886.01 2647.56C886.01 2608.66 1425.95 2577.13 2092 2577.13C2758.05 2577.13 3297.99 2608.66 3297.99 2647.56Z" fill="#F3F2F1"/>
<path d="M1186.67 1432.31L1178.41 1317.6L1184.61 1317.15L1192.87 1431.87L1186.67 1432.31" fill="#406FBF"/>
<path d="M1194.04 1534.7L1190.93 1491.55L1197.13 1491.1L1200.24 1534.26L1194.04 1534.7Z" fill="#406FBF"/>
<path d="M2637.56 2018.82H1305.5C1275.37 2018.82 1248.95 1994.17 1246.78 1964.04L1181.33 1055.05C1179.16 1024.92 1202.04 1000.27 1232.16 1000.27H2564.22C2594.35 1000.27 2620.77 1024.92 2622.94 1055.05L2688.4 1964.04C2690.56 1994.17 2667.69 2018.82 2637.56 2018.82" fill="#406FBF"/>
<path d="M2642.67 2018.82H1310.61C1280.48 2018.82 1254.05 1994.17 1251.88 1964.04L1186.44 1055.05C1184.27 1024.92 1207.14 1000.27 1237.27 1000.27H2569.33C2599.46 1000.27 2625.88 1024.92 2628.05 1055.05L2693.5 1964.04C2695.67 1994.17 2672.8 2018.82 2642.67 2018.82" fill="#406FBF"/>
<path d="M2629.81 2018.82H2586.86C2581.56 1995.3 2577.72 1976.2 2576.02 1963.91C2574.47 1952.66 2573.75 1941.08 2573.75 1929.21C2573.75 1928.84 2573.75 1928.47 2573.75 1928.1H2607.35C2610.8 1928.1 2613.97 1927.22 2616.68 1925.68C2617.34 1931.29 2618.01 1936.84 2618.69 1942.3C2618.7 1942.28 2618.7 1942.26 2618.7 1942.23C2620.56 1956.98 2622.53 1971.18 2624.63 1984.64C2626.27 1995.19 2628 2006.63 2629.81 2018.82V2018.82ZM2434.21 2018.82H1735.55H1310.61C1280.48 2018.82 1254.05 1994.17 1251.88 1964.04L1186.44 1055.05C1186.34 1053.7 1186.29 1052.36 1186.29 1051.03C1186.34 1022.76 1208.49 1000.27 1237.27 1000.27H2325.74C2324.81 1004.83 2324.42 1009.84 2324.93 1014.99C2325.39 1019.35 2326.51 1023.67 2328.07 1027.66H1239.24C1237.73 1027.66 1236.25 1027.72 1234.78 1027.84C1200.72 1030.64 1207.68 1082.44 1242.05 1082.44H2383.27C2406.58 1098.42 2430.52 1111.47 2454.78 1123.88C2459.8 1126.45 2464.83 1128.97 2469.86 1131.44L2468.6 1140.86H1276.17C1265.21 1140.86 1256.95 1149.75 1257.74 1160.71L1311.57 1908.24C1312.36 1919.2 1321.89 1928.1 1332.86 1928.1H2416.52C2417.43 1945.97 2419.55 1962.74 2423.08 1978.03C2426.04 1990.8 2429.8 2004.47 2434.21 2018.82V2018.82ZM2560.1 1098.13C2551.07 1092.55 2538.88 1087.17 2526.16 1082.44H2576.38C2580.03 1082.44 2583.3 1081.86 2586.17 1080.8C2584.19 1083.85 2581.89 1089.9 2580.95 1095.33C2573.88 1096.17 2566.84 1097.13 2560.1 1098.13ZM2592.29 1077.46C2609.31 1064.41 2603.65 1030.11 2575.79 1027.84C2574.31 1027.72 2572.81 1027.66 2571.3 1027.66H2392.73C2387.49 1023.84 2382.63 1019.88 2378.4 1015.93C2377.23 1014.79 2375.91 1013.65 2374.99 1012.54L2372.5 1009.88C2371.96 1009.33 2371.88 1009.26 2371.77 1009.26C2371.73 1009.26 2371.69 1009.27 2371.63 1009.27C2371.61 1009.28 2371.6 1009.29 2371.58 1009.29C2371.13 1009.29 2371.2 1005.71 2374.05 1001C2374.18 1000.75 2374.33 1000.51 2374.48 1000.27H2569.33C2598.31 1000.27 2623.86 1023.07 2627.7 1051.62C2628 1054.68 2628.1 1057.7 2627.94 1060.63C2613.49 1064.69 2602.29 1068.78 2600.32 1071.07C2599.7 1071.78 2599.19 1073.68 2598.86 1076.16C2596.3 1076.59 2594.09 1077.02 2592.29 1077.46" fill="#90B4E3"/>
<path d="M2571.3 1027.66H1239.24C1237.73 1027.66 1236.25 1027.72 1234.78 1027.84C1200.72 1030.64 1207.68 1082.44 1242.05 1082.44H2576.38C2610.75 1082.44 2610.24 1030.64 2575.79 1027.84C2574.3 1027.72 2572.8 1027.66 2571.3 1027.66" fill="#406FBF"/>
<path d="M1273.93 1055.05C1274.43 1061.99 1269.21 1067.61 1262.28 1067.61C1255.34 1067.61 1249.31 1061.99 1248.82 1055.05C1248.32 1048.12 1253.53 1042.49 1260.47 1042.49C1267.41 1042.49 1273.44 1048.12 1273.93 1055.05Z" fill="#FAFAF9"/>
<path d="M1316.65 1055.05C1317.15 1061.99 1311.93 1067.61 1305 1067.61C1298.06 1067.61 1292.03 1061.99 1291.54 1055.05C1291.03 1048.12 1296.25 1042.49 1303.19 1042.49C1310.12 1042.49 1316.15 1048.12 1316.65 1055.05Z" fill="#FAFAF9"/>
<path d="M1359.37 1055.05C1359.87 1061.99 1354.65 1067.61 1347.71 1067.61C1340.78 1067.61 1334.75 1061.99 1334.25 1055.05C1333.75 1048.12 1338.97 1042.49 1345.9 1042.49C1352.84 1042.49 1358.87 1048.12 1359.37 1055.05Z" fill="#FAFAF9"/>
<path d="M2607.35 1928.1H1332.86C1321.89 1928.1 1312.36 1919.21 1311.57 1908.24L1257.74 1160.71C1256.95 1149.75 1265.21 1140.86 1276.17 1140.86H2550.67C2561.63 1140.86 2571.17 1149.75 2571.96 1160.71L2625.78 1908.24C2626.57 1919.21 2618.32 1928.1 2607.35 1928.1" fill="white"/>
<path d="M2070.42 1643.34L2049.67 1355.21L1986.8 1317.37H1813.86L1837.33 1643.34H2070.42" fill="white"/>
<path d="M1840.14 1640.32H2067.18L2046.77 1356.99L1985.97 1320.39H1817.1L1840.14 1640.32ZM2070.42 1646.35H1837.33C1835.75 1646.35 1834.44 1645.13 1834.32 1643.55L1810.86 1317.59C1810.79 1316.76 1811.09 1315.93 1811.65 1315.32C1812.22 1314.7 1813.03 1314.36 1813.86 1314.36H1986.8L1988.36 1314.79L2051.22 1352.63C2052.06 1353.13 2052.6 1354.02 2052.68 1354.99L2073.42 1643.12C2073.48 1643.96 2073.19 1644.78 2072.62 1645.39C2072.05 1646 2071.25 1646.35 2070.42 1646.35" fill="#406FBF"/>
<path d="M2049.67 1355.21L1986.8 1317.37L2009.88 1367.5L2049.67 1355.21Z" fill="#E7E8E5"/>
<path d="M1993.64 1325L2011.52 1363.85L2042.34 1354.32L1993.64 1325ZM2009.88 1370.52C2008.73 1370.52 2007.65 1369.85 2007.15 1368.77L1984.06 1318.64C1983.51 1317.43 1983.81 1316.01 1984.79 1315.13C1985.78 1314.24 1987.22 1314.11 1988.36 1314.79L2051.22 1352.63C2052.24 1353.25 2052.8 1354.4 2052.66 1355.58C2052.51 1356.76 2051.69 1357.74 2050.56 1358.09L2010.77 1370.38L2009.88 1370.52" fill="#406FBF"/>
<path d="M1911.43 1464.24C1911.95 1471.51 1906.48 1477.41 1899.21 1477.41C1891.93 1477.41 1885.61 1471.51 1885.09 1464.24C1884.57 1456.97 1890.04 1451.07 1897.31 1451.07C1904.59 1451.07 1910.9 1456.97 1911.43 1464.24" fill="#406FBF"/>
<path d="M1996.86 1464.24C1997.39 1471.51 1991.91 1477.41 1984.64 1477.41C1977.37 1477.41 1971.05 1471.51 1970.53 1464.24C1970.01 1456.97 1975.47 1451.07 1982.75 1451.07C1990.02 1451.07 1996.34 1456.97 1996.86 1464.24" fill="#406FBF"/>
<path d="M2020.97 1549.64C2019.4 1549.64 2018.08 1548.43 2017.96 1546.85C2016.44 1525.67 1983.23 1508.45 1943.95 1508.45C1917.92 1508.45 1894.54 1516.18 1882.95 1528.64C1877.8 1534.19 1875.41 1540.16 1875.86 1546.41C1875.98 1548.07 1874.73 1549.51 1873.07 1549.63C1871.4 1549.74 1869.97 1548.51 1869.85 1546.85C1869.28 1538.97 1872.29 1531.26 1878.54 1524.54C1891.23 1510.89 1916.3 1502.42 1943.95 1502.42C1987.04 1502.42 2022.2 1521.74 2023.97 1546.41C2024.1 1548.07 2022.85 1549.51 2021.19 1549.63L2020.97 1549.64" fill="#406FBF"/>
<path d="M1862.9 1437.56C1862.16 1437.56 1861.43 1437.29 1860.85 1436.76C1859.63 1435.62 1859.56 1433.71 1860.69 1432.5L1873.9 1418.26C1875.03 1417.04 1876.94 1416.98 1878.16 1418.1C1879.38 1419.23 1879.45 1421.14 1878.32 1422.36L1865.11 1436.59C1864.52 1437.24 1863.71 1437.56 1862.9 1437.56" fill="#406FBF"/>
<path d="M2014.77 1437.56C2014.04 1437.56 2013.3 1437.29 2012.72 1436.75L1997.46 1422.51C1996.24 1421.38 1996.18 1419.47 1997.31 1418.26C1998.45 1417.04 2000.36 1416.97 2001.57 1418.11L2016.83 1432.34C2018.04 1433.47 2018.11 1435.38 2016.97 1436.6C2016.38 1437.24 2015.58 1437.56 2014.77 1437.56Z" fill="#406FBF"/>
<path d="M1795.04 1707.75H1809.09L1829.38 1734.71L1827.44 1707.75H1841.63L1845.14 1756.47H1830.95L1810.77 1729.72L1812.7 1756.47H1798.55L1795.04 1707.75" fill="#406FBF"/>
<path d="M1866.56 1732.21C1866.91 1737.13 1868.08 1740.66 1870.06 1742.81C1872.04 1744.96 1874.61 1746.03 1877.75 1746.03C1880.99 1746.03 1883.42 1744.98 1885.04 1742.87C1886.66 1740.77 1887.28 1737 1886.88 1731.55C1886.55 1726.96 1885.38 1723.61 1883.38 1721.49C1881.38 1719.37 1878.79 1718.32 1875.63 1718.32C1872.59 1718.32 1870.23 1719.39 1868.55 1721.54C1866.86 1723.69 1866.2 1727.25 1866.56 1732.21V1732.21ZM1851.5 1732.14C1850.93 1724.19 1852.69 1717.99 1856.8 1713.56C1860.92 1709.14 1866.93 1706.91 1874.84 1706.91C1882.95 1706.91 1889.35 1709.1 1894.05 1713.45C1898.75 1717.8 1901.38 1723.9 1901.95 1731.75C1902.36 1737.44 1901.74 1742.11 1900.08 1745.75C1898.43 1749.4 1895.87 1752.24 1892.39 1754.26C1888.91 1756.29 1884.47 1757.3 1879.06 1757.3C1873.57 1757.3 1868.96 1756.43 1865.23 1754.67C1861.51 1752.93 1858.39 1750.16 1855.88 1746.36C1853.37 1742.58 1851.91 1737.84 1851.5 1732.14" fill="#406FBF"/>
<path d="M1947.07 1718.78L1948.99 1745.41H1952.68C1955.82 1745.41 1958.04 1745.06 1959.32 1744.36C1960.6 1743.66 1961.55 1742.44 1962.18 1740.7C1962.81 1738.96 1962.98 1736.14 1962.7 1732.24C1962.33 1727.08 1961.23 1723.55 1959.41 1721.64C1957.59 1719.74 1954.73 1718.78 1950.83 1718.78H1947.07ZM1931.22 1707.75H1953.59C1958 1707.75 1961.6 1708.35 1964.41 1709.55C1967.21 1710.74 1969.57 1712.46 1971.51 1714.7C1973.44 1716.94 1974.91 1719.54 1975.92 1722.5C1976.94 1725.48 1977.56 1728.62 1977.8 1731.95C1978.17 1737.15 1977.87 1741.19 1976.89 1744.06C1975.92 1746.93 1974.44 1749.33 1972.48 1751.27C1970.52 1753.21 1968.35 1754.5 1965.98 1755.14C1962.74 1756.03 1959.78 1756.47 1957.1 1756.47H1934.73L1931.22 1707.75" fill="#406FBF"/>
<path d="M2010.05 1737.89L2003.4 1720.38L1999.35 1737.89H2010.05ZM2013.93 1748.43H1996.83L1995.04 1756.47H1979.67L1994.47 1707.75H2010.89L2032.7 1756.47H2016.94L2013.93 1748.43" fill="#406FBF"/>
<path d="M2025.88 1707.75H2071.64L2072.5 1719.78H2057.15L2059.79 1756.47H2044.73L2042.1 1719.78H2026.74L2025.88 1707.75" fill="#406FBF"/>
<path d="M2102.83 1737.89L2096.19 1720.38L2092.13 1737.89H2102.83ZM2106.71 1748.43H2089.62L2087.83 1756.47H2072.45L2087.25 1707.75H2103.67L2125.49 1756.47H2109.73L2106.71 1748.43" fill="#406FBF"/>
<path d="M2736.94 1135.02C2742.5 1132.24 2749.12 1128.63 2755.25 1125.27C2761.49 1121.83 2767.7 1118.26 2773.81 1114.54C2786 1107.04 2798.27 1099.63 2809.94 1091.39C2833.46 1075.18 2855.5 1057.2 2875.32 1037.56C2877.92 1035.18 2880.13 1032.55 2882.54 1030.04L2886.08 1026.23L2887.86 1024.33L2888.75 1023.38L2888.81 1023.32L2888.62 1023.63C2887.73 1025.29 2888.47 1024.78 2888.81 1023.18C2889.23 1021.64 2889.58 1019.12 2889.69 1016.39C2890.09 1005.1 2887.85 990.864 2885.16 977.092C2879.61 949.193 2871.23 920.498 2862.94 892.382L2887.11 881.789C2902.25 908.823 2914.87 936.429 2925.13 966.368C2930.02 981.533 2934.52 996.761 2935.82 1015.47C2936.07 1020.24 2936.17 1025.24 2935.31 1031.09C2934.4 1036.83 2932.94 1043.71 2927.7 1051.51L2926.67 1052.95L2925.87 1053.99L2924.91 1055.16L2922.99 1057.49L2919.15 1062.15C2916.55 1065.22 2914.1 1068.46 2911.34 1071.34C2889.89 1095.16 2866.03 1116.2 2840.56 1134.49C2827.89 1143.75 2814.93 1152.55 2801.48 1160.55C2794.78 1164.61 2787.99 1168.5 2781.09 1172.28C2774.11 1176.16 2767.47 1179.54 2759.53 1183.26L2736.94 1135.02" fill="#F89E63"/>
<path d="M2691.88 2593.8C2682.81 2595.61 2675.99 2595.3 2673.35 2592.89C2672.23 2591.87 2671.82 2590.43 2672.09 2588.5C2672.23 2587.46 2672.71 2587.12 2673.12 2586.94C2676.31 2585.49 2685.43 2589.9 2691.88 2593.8ZM2681.62 2597.43C2686.43 2597.43 2691.69 2596.43 2695.37 2595.56L2696.3 2594.57L2695.77 2593.33C2693.98 2592.16 2678.16 2581.95 2672.1 2584.69C2671.14 2585.12 2669.94 2586.07 2669.64 2588.15C2669.25 2590.92 2669.94 2593.13 2671.69 2594.71C2673.91 2596.74 2677.61 2597.43 2681.62 2597.43" fill="#406FBF"/>
<path d="M2686.23 2574.48C2687.23 2574.48 2688.14 2574.83 2688.95 2575.56C2692.34 2578.55 2693.5 2586.97 2693.78 2591.96C2688.83 2588 2682.92 2579.56 2683.63 2575.99C2683.75 2575.4 2684.09 2574.7 2685.66 2574.51L2686.23 2574.48ZM2695.09 2595.59L2695.71 2595.43L2696.32 2594.36C2696.32 2593.72 2696.25 2578.73 2690.59 2573.71C2689.08 2572.37 2687.33 2571.82 2685.37 2572.06C2682.28 2572.43 2681.44 2574.38 2681.21 2575.5C2680.04 2581.37 2689.51 2592.61 2694.48 2595.43L2695.09 2595.59" fill="#406FBF"/>
<path d="M2690.51 979.425C2684.45 1010.34 2671.68 1072.96 2693.31 1093.59C2693.31 1093.59 2684.85 1124.96 2627.41 1124.96C2564.24 1124.96 2597.22 1093.6 2597.22 1093.6C2631.7 1085.36 2630.81 1059.79 2624.8 1035.76L2690.51 979.425Z" fill="#F89E63"/>
<path d="M2585.15 1106.06C2575.23 1107.4 2583.67 1081.71 2587.7 1079.05C2597 1072.9 2717.39 1064.19 2716.61 1078.8C2716.11 1085.08 2713.15 1097.36 2707.89 1101.53C2705.8 1103.18 2699.69 1102.2 2687.68 1101.22C2669.38 1099.73 2637.41 1098.23 2585.15 1106.06Z" fill="#17282F"/>
<path d="M2604.76 1097.41C2596.88 1100.08 2597.63 1074.19 2600.32 1071.07C2606.52 1063.87 2703.96 1038.83 2706.86 1053C2707.97 1059.11 2708.51 1071.33 2705.17 1076.07C2701.82 1080.81 2673.19 1072.97 2604.76 1097.41" fill="#17282F"/>
<path d="M2568.51 923.696C2567.75 923.746 2566.98 923.435 2566.45 922.794C2559.49 914.272 2550.44 915.143 2550.35 915.155C2548.98 915.298 2547.78 914.322 2547.63 912.966C2547.48 911.616 2548.46 910.397 2549.82 910.247C2550.3 910.198 2561.63 909.097 2570.28 919.671C2571.14 920.722 2570.98 922.278 2569.93 923.142L2568.51 923.696Z" fill="#17282F"/>
<path d="M2556.46 954.132C2556.46 954.132 2551.14 972.837 2544.18 982.292C2550.21 986.908 2559.36 983.623 2559.36 983.623L2556.46 954.132Z" fill="#F14358"/>
<path d="M2559.49 946.581C2559.91 950.761 2558.03 954.369 2555.29 954.642C2552.56 954.91 2550.01 951.738 2549.6 947.557C2549.19 943.371 2551.07 939.763 2553.8 939.496C2556.53 939.222 2559.08 942.394 2559.49 946.581Z" fill="#17282F"/>
<path d="M2555.03 939.607L2544.7 937.698C2544.7 937.698 2550.63 945.038 2555.03 939.607Z" fill="#17282F"/>
<path d="M2755.67 2594.36H2703.58L2707.66 2473.7H2759.76L2755.67 2594.36Z" fill="#F89E63"/>
<path d="M2699.45 2588.33H2757.98C2760.11 2588.33 2761.84 2589.81 2762.14 2591.89L2768.81 2638.2C2769.5 2643.01 2765.37 2647.55 2760.46 2647.47C2740.05 2647.11 2730.21 2645.92 2704.48 2645.92C2688.64 2645.92 2665.5 2647.56 2643.63 2647.56C2622.25 2647.56 2620.6 2625.94 2629.71 2623.98C2670.53 2615.2 2676.98 2603.09 2690.74 2591.53C2693.22 2589.45 2696.33 2588.33 2699.45 2588.33" fill="#17282F"/>
<path d="M2757.7 2535.93H2757.66L2758.06 2523.89H2758.09L2757.7 2535.93" fill="#C3C5C2"/>
<path d="M2757.66 2535.93H2705.57L2705.98 2523.89H2758.06L2757.66 2535.93Z" fill="#DC834C"/>
<path d="M2548.38 1165.89C2516.15 1153.28 2485.4 1139.54 2454.77 1123.88C2424.2 1108.24 2394.1 1091.57 2365.18 1069.31C2357.98 1063.64 2350.86 1057.45 2343.89 1050.21C2342.16 1048.34 2340.43 1046.62 2338.72 1044.47C2336.93 1042.22 2335.58 1040.9 2333.25 1037.44C2329.05 1031.4 2325.8 1023.27 2324.93 1014.99C2324.12 1006.69 2325.6 998.776 2327.99 992.469C2330.36 986.043 2333.48 980.799 2336.74 976.252C2343.27 967.139 2350.51 960.409 2357.82 954.356C2372.39 942.295 2387.8 933.518 2403.24 925.325C2410.95 921.232 2418.82 917.544 2426.78 914.147C2434.78 910.689 2442.58 907.485 2451.07 904.562L2462.11 928.529C2434.99 945.629 2406.88 964.427 2386.22 985.502C2381.2 990.721 2376.81 996.188 2374.04 1001C2371.09 1005.89 2371.12 1009.56 2371.63 1009.27C2371.89 1009.27 2371.78 1009.16 2372.5 1009.88L2374.98 1012.54C2375.91 1013.65 2377.23 1014.79 2378.4 1015.93C2383.29 1020.49 2389.01 1025.07 2395.19 1029.42C2407.53 1038.21 2421.14 1046.43 2435.21 1054.11C2449.23 1061.9 2463.65 1069.35 2478.34 1076.43C2507.66 1090.46 2538.04 1103.97 2567.86 1116.31L2548.38 1165.89" fill="#F89E63"/>
<path d="M2477.45 911.541L2486.06 892.854L2446.9 879.257C2446.9 879.257 2434.7 915.976 2449.25 932.914C2461.62 930.942 2472.2 922.924 2477.45 911.541Z" fill="#F89E63"/>
<path d="M2486.06 852.459L2454.76 843.434L2446.9 879.257L2486.06 892.855V852.459Z" fill="#F89E63"/>
<path d="M2890.34 894.665L2894.9 850.998L2854.54 860.484C2854.54 860.484 2853.95 901.421 2875.3 907.94L2890.34 894.665" fill="#F89E63"/>
<path d="M2875.46 820.431L2849.17 832.71L2854.54 860.484L2894.9 850.998L2875.46 820.431Z" fill="#F89E63"/>
<path d="M2698.7 918.39C2700.6 970.069 2702.5 991.903 2679.16 1020.82C2644.04 1064.31 2580.15 1055.34 2562.85 1005.28C2547.28 960.21 2546.8 883.269 2595.06 857.884C2642.61 832.871 2696.8 866.717 2698.7 918.39Z" fill="#F89E63"/>
<path d="M2676.19 1020.72C2726.92 998.795 2760.28 952.577 2746.19 880.296C2732.72 811.156 2686.04 804.32 2666.76 818.664C2647.48 833.015 2599.41 811.629 2570.57 835.907C2520.6 877.963 2567.85 923.298 2592.45 950.17C2607.16 980.389 2626.42 1042.23 2676.19 1020.72Z" fill="#17282F"/>
<path d="M2655.13 867.893C2672.24 892.675 2705.07 899.679 2728.46 883.524C2751.84 867.37 2756.92 834.19 2739.81 809.402C2722.7 784.614 2689.86 777.616 2666.47 793.77C2643.09 809.918 2638.01 843.104 2655.13 867.893" fill="#406FBF"/>
<path d="M2668.3 823.51C2660.98 781.846 2700.4 749.718 2753.11 765.244C2805.83 780.77 2777.94 827.504 2767.13 864.826C2756.33 902.149 2784.7 937.692 2796.55 909.271C2808.41 880.85 2788.48 872.079 2788.48 872.079C2788.48 872.079 2844.45 886.585 2792.45 949.692C2740.45 1012.8 2693.38 943.117 2706.11 901.994C2716.4 868.758 2675.22 862.898 2668.3 823.51Z" fill="#17282F"/>
<path d="M2615.61 839.253C2591.55 826.7 2550.79 816.549 2527.6 855.576C2516.63 874.025 2520.88 899.05 2520.88 899.05L2591.72 903.765L2615.61 839.253" fill="#17282F"/>
<path d="M2512.55 886.809L2512.45 886.802C2511.59 886.753 2510.94 886.012 2510.99 885.154C2511.06 884.097 2512.77 859.072 2527.87 843.378C2564.38 805.446 2607.18 836.908 2619.43 847.458C2620.08 848.018 2620.15 849.001 2619.59 849.648C2619.03 850.301 2618.04 850.369 2617.4 849.816C2605.67 839.72 2564.73 809.57 2530.12 845.53C2515.81 860.397 2514.11 885.098 2514.1 885.353C2514.05 886.174 2513.36 886.809 2512.55 886.809Z" fill="#17282F"/>
<path d="M2601.13 948.117C2601.05 958.181 2596.54 968.041 2590.83 974.721C2582.23 984.774 2572.38 979.822 2570.12 968.675C2568.09 958.642 2570.1 941.324 2580.97 935.253C2591.67 929.269 2601.21 936.603 2601.13 948.117Z" fill="#F89E63"/>
<path d="M2589.93 1421.42C2589.93 1421.42 2593.25 1783.1 2624.63 1984.64C2649.97 2147.43 2696.86 2523.89 2696.86 2523.89H2767.91C2767.91 2523.89 2774.85 2160.46 2761.99 1999.45C2729.44 1592.03 2813.43 1515.86 2745.65 1421.42H2589.93Z" fill="#17282F"/>
<path d="M2767.91 2523.89H2696.86C2696.86 2523.89 2695.43 2512.36 2692.92 2492.49L2714.52 2482.89L2692.81 2437.68L2683.52 2418.32C2683.38 2417.23 2683.24 2416.14 2683.1 2415.03L2689.01 2412.07C2689.01 2412.07 2684.47 2395.65 2677.2 2369C2661.35 2245.91 2639.35 2079.22 2624.63 1984.64C2622.53 1971.18 2620.56 1956.97 2618.7 1942.23C2629.38 1882.83 2643.92 1764.32 2637.67 1663.29C2664.69 1582.71 2690.51 1502.33 2692.66 1430.91H2751.99C2767.76 1456.41 2772.93 1481.44 2772.93 1513.05C2772.93 1545.95 2767.32 1586 2762.24 1641.16C2761.22 1652.33 2760.21 1664.11 2759.27 1676.59C2756.37 1715.25 2754.17 1760.49 2754.17 1814.29C2754.17 1867.13 2756.3 1928.23 2761.99 1999.45C2768.17 2076.89 2769.77 2201.15 2769.77 2309.28C2769.77 2356.76 2769.47 2401.14 2769.1 2437.07C2769.1 2437.58 2769.09 2438.1 2769.08 2438.62C2768.56 2490.13 2767.91 2523.89 2767.91 2523.89V2523.89ZM2605.31 1802.73C2604.5 1791.74 2603.73 1780.7 2603 1769.67V1769.66C2603.73 1780.71 2604.5 1791.73 2605.31 1802.73Z" fill="#2B3C43"/>
<path d="M2618.69 1942.3C2618.01 1936.84 2617.33 1931.29 2616.68 1925.68C2616.69 1925.68 2616.69 1925.67 2616.69 1925.67C2617.35 1931.27 2618.02 1936.78 2618.7 1942.23C2618.7 1942.26 2618.7 1942.28 2618.69 1942.3" fill="#627FB7"/>
<path d="M2616.68 1925.68C2612.18 1887.1 2608.43 1845.25 2605.31 1802.73C2608.43 1845.25 2612.19 1887.09 2616.69 1925.67C2616.69 1925.67 2616.69 1925.68 2616.68 1925.68Z" fill="#A7A9A8"/>
<path d="M2618.7 1942.23C2618.02 1936.78 2617.35 1931.27 2616.69 1925.67C2612.19 1887.09 2608.43 1845.25 2605.31 1802.73C2604.5 1791.73 2603.73 1780.71 2603 1769.66C2613.5 1734.68 2625.7 1698.97 2637.67 1663.29C2643.92 1764.32 2629.38 1882.83 2618.7 1942.23" fill="#1B262A"/>
<path d="M2687.14 2525.29H2777.63L2782.38 2493.54L2686.62 2490.3L2687.14 2525.29Z" fill="#406FBF"/>
<path d="M2712.96 1116.12C2721.48 1099.19 2767.23 1088.54 2792.24 1088.58L2810.96 1171.72C2810.96 1171.72 2761.13 1245.68 2740.41 1237.83C2715.93 1228.58 2694.72 1152.38 2712.96 1116.12Z" fill="#406FBF"/>
<path d="M2756.57 1233.4C2762.5 1198.81 2771.04 1157.48 2783.16 1105.43C2783.16 1105.43 2765.05 1101.49 2740.1 1098.08C2757.02 1092.01 2777.88 1088.58 2792.1 1088.58C2792.15 1088.58 2792.2 1088.58 2792.24 1088.58L2810.96 1171.72C2810.96 1171.72 2779.85 1217.9 2756.57 1233.4Z" fill="#2251AA"/>
<path d="M2632.59 2514.52C2634.73 2511.03 2646.63 2507.81 2655.72 2506.14C2647.51 2514.49 2640.29 2519.13 2636.06 2518.7C2634.58 2518.54 2633.45 2517.77 2632.58 2516.33L2632.46 2514.77L2632.59 2514.52ZM2660.22 2504.96L2660.25 2503.74L2658.98 2503.1C2656.37 2503.49 2633.34 2507.14 2630.22 2513.72C2629.63 2514.99 2629.71 2516.33 2630.47 2517.6C2631.73 2519.72 2633.53 2520.92 2635.8 2521.15C2643.35 2521.93 2654.24 2511.46 2660.07 2505.15L2660.22 2504.96" fill="#406FBF"/>
<path d="M2635.86 2497.13L2636.85 2496.01C2638.25 2494.76 2639.87 2494.2 2641.82 2494.33C2647.4 2494.7 2653.75 2500.48 2656.64 2503.42C2649.27 2504.04 2637.32 2501.81 2635.7 2498.6C2635.61 2498.41 2635.37 2497.93 2635.86 2497.13ZM2660.21 2504.96L2660.33 2504.72L2660.1 2503.51C2659.7 2503.06 2650.48 2492.43 2641.98 2491.87C2639.37 2491.7 2637.09 2492.47 2635.2 2494.17C2632.64 2496.46 2632.86 2498.45 2633.5 2499.71C2636.19 2505.05 2652.74 2506.91 2659.41 2505.52L2660.21 2504.96" fill="#406FBF"/>
<path d="M2714.52 2482.89L2666.86 2504.05L2645.63 2459.86L2617.88 2401.98L2614.63 2395.26L2662.22 2374.05L2665.91 2381.63L2692.81 2437.68L2714.52 2482.89" fill="#F89E63"/>
<path d="M2645.63 2459.87L2635.58 2438.9L2682.17 2415.51L2692.81 2437.68L2645.63 2459.87" fill="#DC834C"/>
<path d="M2534.05 1421.42C2534.05 1421.42 2381.83 1799.84 2423.08 1978.03C2460.37 2139.08 2625.26 2444.07 2625.26 2444.07L2689.01 2412.07C2689.01 2412.07 2587.08 2043.89 2576.02 1963.91C2554.51 1808.28 2692.81 1588.61 2692.81 1421.42H2534.05" fill="#17282F"/>
<path d="M2625.26 2444.07C2625.26 2444.07 2609.84 2415.55 2587.37 2371.34C2577.45 2351.83 2566.14 2329.26 2554.19 2304.73C2527.55 2250.06 2497.66 2185.71 2472.47 2123.88C2459.91 2093.05 2448.52 2062.84 2439.3 2034.79C2432.64 2014.56 2427.12 1995.46 2423.08 1978.03C2418.17 1956.8 2416 1932.73 2415.99 1906.8C2415.94 1734.77 2511 1480.76 2530.56 1430.31C2531.21 1430.69 2532.06 1430.91 2533 1430.91H2692.66C2690.51 1502.33 2664.69 1582.71 2637.67 1663.29C2625.7 1698.97 2613.5 1734.68 2603 1769.66V1769.67C2586.31 1825.33 2573.94 1879.16 2573.75 1928.1C2573.75 1928.47 2573.74 1928.84 2573.74 1929.21C2573.74 1941.08 2574.47 1952.67 2576.02 1963.91C2587.08 2043.89 2689.01 2412.07 2689.01 2412.07L2683.1 2415.03L2682.17 2415.51L2635.58 2438.9L2625.26 2444.07" fill="#2B3C43"/>
<path d="M2658.36 2497.44L2705.69 2462.99C2707.41 2461.73 2709.68 2461.91 2711.15 2463.42L2743.79 2496.94C2747.17 2500.42 2746.51 2506.53 2742.49 2509.34C2725.78 2521.07 2717.12 2525.89 2696.31 2541.04C2683.51 2550.36 2658 2570.96 2640.31 2583.83C2623.02 2596.42 2608.96 2579.91 2615.18 2572.96C2643.02 2541.83 2648.88 2522.59 2653.21 2505.15C2653.99 2502 2655.84 2499.26 2658.36 2497.44" fill="#17282F"/>
<path d="M2621.15 2457.56L2703.45 2419.92L2692.89 2386.38L2604.76 2426.59L2621.15 2457.56Z" fill="#406FBF"/>
<path d="M2574.45 1111.88C2567.62 1094.21 2508.16 1074.83 2478.33 1068.06L2465.23 1166.14C2465.23 1166.14 2513.93 1236.15 2535.32 1230.36C2560.58 1223.53 2589.08 1149.74 2574.45 1111.88" fill="#406FBF"/>
<path d="M2506.43 1215.17C2486.04 1196.06 2465.23 1166.14 2465.23 1166.14L2478.33 1068.06C2500.47 1073.08 2538.95 1085.06 2560.1 1098.13C2532.14 1102.24 2509.15 1106.94 2509.15 1106.94C2509.15 1106.94 2502.96 1109.13 2502.96 1149.42C2502.96 1164.97 2503.88 1186.19 2506.43 1215.17" fill="#2251AA"/>
<path d="M2509.15 1106.94C2509.15 1106.94 2484.33 1115.69 2534.05 1421.42C2618.02 1421.42 2704.79 1421.42 2745.65 1421.42C2742.1 1335.3 2742 1282.19 2783.16 1105.43C2783.16 1105.43 2738.82 1095.79 2693.31 1093.59C2657.7 1091.88 2628.52 1090.74 2597.22 1093.6C2555.95 1097.36 2509.15 1106.94 2509.15 1106.94Z" fill="#406FBF"/>
<path d="M2745.1 1407.41H2531.79C2508.79 1263.57 2502.96 1188.53 2502.96 1149.42C2502.96 1109.13 2509.15 1106.94 2509.15 1106.94C2509.15 1106.94 2555.95 1097.36 2597.22 1093.6C2611.02 1092.34 2624.39 1091.86 2638.09 1091.86C2655.48 1091.86 2673.39 1092.64 2693.31 1093.59C2738.82 1095.79 2783.16 1105.43 2783.16 1105.43C2771.04 1157.48 2762.5 1198.81 2756.57 1233.4C2755.51 1239.56 2754.54 1245.5 2753.65 1251.26C2746.39 1297.9 2744.21 1332.04 2744.21 1365.68C2744.21 1379.4 2744.57 1393.04 2745.1 1407.41Z" fill="#2251AA"/>
<path d="M2748.82 1409L2758.36 1427.94C2759.1 1429.41 2757.36 1430.91 2754.91 1430.91H2533C2531.09 1430.91 2529.51 1429.98 2529.4 1428.77L2527.49 1409.83C2527.36 1408.52 2529.01 1407.41 2531.09 1407.41H2745.37C2746.95 1407.41 2748.34 1408.05 2748.82 1409Z" fill="#406FBF"/>
<path d="M2754.92 1430.91H2533C2532.07 1430.91 2531.21 1430.68 2530.56 1430.31C2529.89 1429.93 2529.46 1429.38 2529.4 1428.77L2527.49 1409.83C2527.48 1409.78 2527.48 1409.73 2527.48 1409.68C2527.49 1408.43 2529.09 1407.41 2531.09 1407.41H2745.37C2746.95 1407.41 2748.34 1408.05 2748.82 1409L2758.36 1427.94C2758.48 1428.17 2758.54 1428.4 2758.54 1428.63C2758.54 1429.84 2756.98 1430.91 2754.92 1430.91Z" fill="#6D97D6"/>
<path d="M2720.04 1432.96H2725.78C2726.93 1432.96 2727.8 1432.37 2727.72 1431.65L2725.02 1407.04C2724.95 1406.32 2723.95 1405.73 2722.8 1405.73H2717.07C2715.92 1405.73 2715.05 1406.32 2715.13 1407.04L2717.82 1431.65C2717.9 1432.37 2718.9 1432.96 2720.04 1432.96" fill="#17282F"/>
<path d="M2580.93 1432.96H2586.68C2587.82 1432.96 2588.69 1432.37 2588.61 1431.65L2585.92 1407.04C2585.84 1406.32 2584.84 1405.73 2583.7 1405.73H2577.96C2576.82 1405.73 2575.95 1406.32 2576.03 1407.04L2578.71 1431.65C2578.8 1432.37 2579.8 1432.96 2580.93 1432.96" fill="#17282F"/>
<path d="M153.492 117.129C153.492 131.126 151.018 143.398 146.07 153.945C141.122 164.492 134.026 172.63 124.781 178.359C115.602 184.089 105.055 186.953 93.1406 186.953C81.3568 186.953 70.8424 184.121 61.5977 178.457C52.3529 172.793 45.1914 164.72 40.1133 154.238C35.0352 143.691 32.4635 131.582 32.3984 117.91V110.879C32.3984 96.8815 34.9049 84.5768 39.918 73.9648C44.9961 63.2878 52.125 55.1172 61.3047 49.4531C70.5495 43.724 81.0964 40.8594 92.9453 40.8594C104.794 40.8594 115.309 43.724 124.488 49.4531C133.733 55.1172 140.862 63.2878 145.875 73.9648C150.953 84.5768 153.492 96.849 153.492 110.781V117.129ZM123.805 110.684C123.805 95.7747 121.135 84.4466 115.797 76.6992C110.458 68.9518 102.841 65.0781 92.9453 65.0781C83.1146 65.0781 75.5299 68.9193 70.1914 76.6016C64.8529 84.2188 62.151 95.4167 62.0859 110.195V117.129C62.0859 131.647 64.7552 142.91 70.0938 150.918C75.4323 158.926 83.1146 162.93 93.1406 162.93C102.971 162.93 110.523 159.089 115.797 151.406C121.07 143.659 123.74 132.396 123.805 117.617V110.684ZM168.531 131.191C168.531 120.71 170.549 111.367 174.586 103.164C178.622 94.9609 184.417 88.6133 191.969 84.1211C199.586 79.6289 208.408 77.3828 218.434 77.3828C232.691 77.3828 244.312 81.7448 253.297 90.4688C262.346 99.1927 267.392 111.042 268.434 126.016L268.629 133.242C268.629 149.453 264.104 162.474 255.055 172.305C246.005 182.07 233.863 186.953 218.629 186.953C203.395 186.953 191.22 182.07 182.105 172.305C173.056 162.539 168.531 149.258 168.531 132.461V131.191ZM196.754 133.242C196.754 143.268 198.642 150.951 202.418 156.289C206.194 161.562 211.598 164.199 218.629 164.199C225.465 164.199 230.803 161.595 234.645 156.387C238.486 151.113 240.406 142.715 240.406 131.191C240.406 121.361 238.486 113.743 234.645 108.34C230.803 102.936 225.4 100.234 218.434 100.234C211.533 100.234 206.194 102.936 202.418 108.34C198.642 113.678 196.754 121.979 196.754 133.242ZM381.129 133.145C381.129 149.421 377.418 162.474 369.996 172.305C362.639 182.07 352.678 186.953 340.113 186.953C329.436 186.953 320.81 183.242 314.234 175.82V225.625H286.012V79.3359H312.184L313.16 89.6875C319.996 81.4844 328.915 77.3828 339.918 77.3828C352.939 77.3828 363.062 82.2005 370.289 91.8359C377.516 101.471 381.129 114.753 381.129 131.68V133.145ZM352.906 131.094C352.906 121.263 351.148 113.678 347.633 108.34C344.182 103.001 339.137 100.332 332.496 100.332C323.642 100.332 317.555 103.717 314.234 110.488V153.75C317.685 160.716 323.837 164.199 332.691 164.199C346.168 164.199 352.906 153.164 352.906 131.094ZM455.934 155.801C455.934 152.35 454.208 149.648 450.758 147.695C447.372 145.677 441.904 143.887 434.352 142.324C409.221 137.051 396.656 126.374 396.656 110.293C396.656 100.918 400.53 93.1055 408.277 86.8555C416.09 80.5404 426.279 77.3828 438.844 77.3828C452.255 77.3828 462.965 80.5404 470.973 86.8555C479.046 93.1706 483.082 101.374 483.082 111.465H454.859C454.859 107.428 453.557 104.108 450.953 101.504C448.349 98.8346 444.28 97.5 438.746 97.5C433.993 97.5 430.315 98.5742 427.711 100.723C425.107 102.871 423.805 105.605 423.805 108.926C423.805 112.051 425.27 114.59 428.199 116.543C431.194 118.431 436.207 120.091 443.238 121.523C450.27 122.891 456.194 124.453 461.012 126.211C475.921 131.68 483.375 141.152 483.375 154.629C483.375 164.264 479.241 172.077 470.973 178.066C462.704 183.991 452.027 186.953 438.941 186.953C430.087 186.953 422.21 185.391 415.309 182.266C408.473 179.076 403.102 174.746 399.195 169.277C395.289 163.743 393.336 157.786 393.336 151.406H420.094C420.354 156.419 422.21 160.26 425.66 162.93C429.111 165.599 433.733 166.934 439.527 166.934C444.931 166.934 449 165.924 451.734 163.906C454.534 161.823 455.934 159.121 455.934 155.801ZM530.348 141.348H506.91L503.59 42.8125H533.668L530.348 141.348ZM518.629 156.777C523.382 156.777 527.19 158.177 530.055 160.977C532.984 163.776 534.449 167.357 534.449 171.719C534.449 176.016 532.984 179.564 530.055 182.363C527.19 185.163 523.382 186.562 518.629 186.562C513.941 186.562 510.133 185.163 507.203 182.363C504.339 179.564 502.906 176.016 502.906 171.719C502.906 167.422 504.339 163.874 507.203 161.074C510.133 158.21 513.941 156.777 518.629 156.777ZM718.531 143.984L737.672 42.8125H766.871L735.328 185H705.836L682.691 89.8828L659.547 185H630.055L598.512 42.8125H627.711L646.949 143.789L670.387 42.8125H695.191L718.531 143.984ZM826.441 186.953C810.947 186.953 798.316 182.201 788.551 172.695C778.85 163.19 774 150.527 774 134.707V131.973C774 121.361 776.051 111.888 780.152 103.555C784.254 95.1562 790.048 88.7109 797.535 84.2188C805.087 79.6615 813.681 77.3828 823.316 77.3828C837.77 77.3828 849.13 81.9401 857.398 91.0547C865.732 100.169 869.898 113.092 869.898 129.824V141.348H802.613C803.525 148.249 806.259 153.783 810.816 157.949C815.439 162.116 821.266 164.199 828.297 164.199C839.169 164.199 847.665 160.26 853.785 152.383L867.652 167.91C863.421 173.9 857.691 178.587 850.465 181.973C843.238 185.293 835.23 186.953 826.441 186.953ZM823.219 100.234C817.62 100.234 813.062 102.122 809.547 105.898C806.096 109.674 803.883 115.078 802.906 122.109H842.164V119.863C842.034 113.613 840.341 108.796 837.086 105.41C833.831 101.96 829.208 100.234 823.219 100.234ZM979.762 164.199C984.97 164.199 989.202 162.767 992.457 159.902C995.712 157.038 997.405 153.229 997.535 148.477H1024C1023.93 155.638 1021.98 162.214 1018.14 168.203C1014.3 174.128 1009.03 178.75 1002.32 182.07C995.68 185.326 988.323 186.953 980.25 186.953C965.146 186.953 953.232 182.168 944.508 172.598C935.784 162.962 931.422 149.681 931.422 132.754V130.898C931.422 114.622 935.751 101.634 944.41 91.9336C953.069 82.2331 964.951 77.3828 980.055 77.3828C993.271 77.3828 1003.85 81.1589 1011.79 88.7109C1019.8 96.1979 1023.87 106.191 1024 118.691H997.535C997.405 113.223 995.712 108.796 992.457 105.41C989.202 101.96 984.905 100.234 979.566 100.234C972.991 100.234 968.01 102.643 964.625 107.461C961.305 112.214 959.645 119.961 959.645 130.703V133.633C959.645 144.505 961.305 152.318 964.625 157.07C967.945 161.823 972.991 164.199 979.762 164.199ZM1035.72 131.191C1035.72 120.71 1037.74 111.367 1041.77 103.164C1045.81 94.9609 1051.6 88.6133 1059.16 84.1211C1066.77 79.6289 1075.6 77.3828 1085.62 77.3828C1099.88 77.3828 1111.5 81.7448 1120.48 90.4688C1129.53 99.1927 1134.58 111.042 1135.62 126.016L1135.82 133.242C1135.82 149.453 1131.29 162.474 1122.24 172.305C1113.19 182.07 1101.05 186.953 1085.82 186.953C1070.58 186.953 1058.41 182.07 1049.29 172.305C1040.24 162.539 1035.72 149.258 1035.72 132.461V131.191ZM1063.94 133.242C1063.94 143.268 1065.83 150.951 1069.61 156.289C1073.38 161.562 1078.79 164.199 1085.82 164.199C1092.65 164.199 1097.99 161.595 1101.83 156.387C1105.67 151.113 1107.59 142.715 1107.59 131.191C1107.59 121.361 1105.67 113.743 1101.83 108.34C1097.99 102.936 1092.59 100.234 1085.62 100.234C1078.72 100.234 1073.38 102.936 1069.61 108.34C1065.83 113.678 1063.94 121.979 1063.94 133.242ZM1216.48 174.258C1209.51 182.721 1199.88 186.953 1187.57 186.953C1176.25 186.953 1167.59 183.698 1161.6 177.188C1155.67 170.677 1152.65 161.139 1152.52 148.574V79.3359H1180.74V147.598C1180.74 158.6 1185.75 164.102 1195.78 164.102C1205.35 164.102 1211.92 160.781 1215.5 154.141V79.3359H1243.82V185H1217.26L1216.48 174.258ZM1294.9 185H1266.58V35H1294.9V185ZM1313.84 131.387C1313.84 114.915 1317.52 101.797 1324.88 92.0312C1332.3 82.2656 1342.42 77.3828 1355.25 77.3828C1365.54 77.3828 1374.03 81.224 1380.74 88.9062V35H1409.06V185H1383.57L1382.2 173.77C1375.17 182.559 1366.12 186.953 1355.05 186.953C1342.62 186.953 1332.63 182.07 1325.07 172.305C1317.59 162.474 1313.84 148.835 1313.84 131.387ZM1342.07 133.438C1342.07 143.333 1343.79 150.918 1347.24 156.191C1350.69 161.465 1355.71 164.102 1362.28 164.102C1371.01 164.102 1377.16 160.423 1380.74 153.066V111.367C1377.22 104.01 1371.14 100.332 1362.48 100.332C1348.87 100.332 1342.07 111.367 1342.07 133.438ZM1456.91 79.3359L1457.79 91.543C1465.34 82.1029 1475.46 77.3828 1488.16 77.3828C1499.36 77.3828 1507.69 80.6706 1513.16 87.2461C1518.63 93.8216 1521.43 103.652 1521.56 116.738V185H1493.34V117.422C1493.34 111.432 1492.03 107.103 1489.43 104.434C1486.83 101.699 1482.5 100.332 1476.44 100.332C1468.5 100.332 1462.54 103.717 1458.57 110.488V185H1430.35V79.3359H1456.91ZM1539.43 86.4648L1526.15 78.75C1531.75 69.9609 1534.64 60.8789 1534.84 51.5039V35H1557.3V50.1367C1557.3 55.9961 1555.67 62.3438 1552.42 69.1797C1549.16 76.0156 1544.83 81.7773 1539.43 86.4648ZM1611.01 53.3594V79.3359H1629.08V100.039H1611.01V152.773C1611.01 156.68 1611.76 159.479 1613.26 161.172C1614.76 162.865 1617.62 163.711 1621.85 163.711C1624.98 163.711 1627.74 163.483 1630.15 163.027V184.414C1624.62 186.107 1618.92 186.953 1613.06 186.953C1593.27 186.953 1583.18 176.96 1582.79 156.973V100.039H1567.36V79.3359H1582.79V53.3594H1611.01ZM1701.44 185V100.039H1685.72V79.3359H1701.44V74.4531C1701.57 61.1719 1705.64 50.9505 1713.65 43.7891C1721.72 36.5625 1733.08 32.9492 1747.73 32.9492C1756.52 32.9492 1767.2 34.8698 1779.76 38.7109L1775.66 62.0508C1769.28 60.1628 1764.33 58.9583 1760.82 58.4375C1757.3 57.8516 1753.52 57.5586 1749.49 57.5586C1736.34 57.5586 1729.76 63.3854 1729.76 75.0391V79.3359H1750.56V100.039H1729.76V185H1701.44ZM1792.95 185H1764.62V79.3359H1792.95V185ZM1842.26 79.3359L1843.14 91.543C1850.69 82.1029 1860.82 77.3828 1873.51 77.3828C1884.71 77.3828 1893.04 80.6706 1898.51 87.2461C1903.98 93.8216 1906.78 103.652 1906.91 116.738V185H1878.69V117.422C1878.69 111.432 1877.39 107.103 1874.78 104.434C1872.18 101.699 1867.85 100.332 1861.79 100.332C1853.85 100.332 1847.89 103.717 1843.92 110.488V185H1815.7V79.3359H1842.26ZM1924 131.387C1924 114.915 1927.68 101.797 1935.04 92.0312C1942.46 82.2656 1952.58 77.3828 1965.41 77.3828C1975.69 77.3828 1984.19 81.224 1990.89 88.9062V35H2019.21V185H1993.73L1992.36 173.77C1985.33 182.559 1976.28 186.953 1965.21 186.953C1952.78 186.953 1942.78 182.07 1935.23 172.305C1927.74 162.474 1924 148.835 1924 131.387ZM1952.22 133.438C1952.22 143.333 1953.95 150.918 1957.4 156.191C1960.85 161.465 1965.86 164.102 1972.44 164.102C1981.16 164.102 1987.31 160.423 1990.89 153.066V111.367C1987.38 104.01 1981.29 100.332 1972.63 100.332C1959.03 100.332 1952.22 111.367 1952.22 133.438ZM2182.79 146.621L2196.66 79.3359H2223.9L2196.95 185H2173.32L2153.3 118.496L2133.28 185H2109.74L2082.79 79.3359H2110.04L2123.8 146.523L2143.14 79.3359H2163.55L2182.79 146.621ZM2265.5 90.8594C2272.99 81.875 2282.4 77.3828 2293.73 77.3828C2316.64 77.3828 2328.26 90.6966 2328.59 117.324V185H2300.37V118.105C2300.37 112.051 2299.07 107.591 2296.46 104.727C2293.86 101.797 2289.53 100.332 2283.47 100.332C2275.2 100.332 2269.21 103.522 2265.5 109.902V185H2237.28V35H2265.5V90.8594ZM2411.11 185C2409.81 182.461 2408.86 179.303 2408.28 175.527C2401.44 183.145 2392.55 186.953 2381.62 186.953C2371.27 186.953 2362.67 183.958 2355.84 177.969C2349.07 171.979 2345.68 164.427 2345.68 155.312C2345.68 144.115 2349.81 135.521 2358.08 129.531C2366.42 123.542 2378.43 120.514 2394.12 120.449H2407.11V114.395C2407.11 109.512 2405.84 105.605 2403.3 102.676C2400.82 99.7461 2396.88 98.2812 2391.48 98.2812C2386.73 98.2812 2382.98 99.4206 2380.25 101.699C2377.58 103.978 2376.25 107.103 2376.25 111.074H2348.02C2348.02 104.954 2349.91 99.2904 2353.69 94.082C2357.46 88.8737 2362.8 84.8047 2369.7 81.875C2376.6 78.8802 2384.35 77.3828 2392.95 77.3828C2405.97 77.3828 2416.29 80.6706 2423.9 87.2461C2431.58 93.7565 2435.43 102.936 2435.43 114.785V160.586C2435.49 170.612 2436.89 178.197 2439.62 183.34V185H2411.11ZM2387.77 165.371C2391.94 165.371 2395.78 164.46 2399.29 162.637C2402.81 160.749 2405.41 158.242 2407.11 155.117V136.953H2396.56C2382.43 136.953 2374.91 141.836 2374 151.602L2373.9 153.262C2373.9 156.777 2375.14 159.674 2377.61 161.953C2380.09 164.232 2383.47 165.371 2387.77 165.371ZM2490.89 53.3594V79.3359H2508.96V100.039H2490.89V152.773C2490.89 156.68 2491.64 159.479 2493.14 161.172C2494.64 162.865 2497.5 163.711 2501.73 163.711C2504.86 163.711 2507.63 163.483 2510.04 163.027V184.414C2504.5 186.107 2498.8 186.953 2492.95 186.953C2473.15 186.953 2463.06 176.96 2462.67 156.973V100.039H2447.24V79.3359H2462.67V53.3594H2490.89ZM74.293 379.059L93.8242 313.336H124.098L81.6172 435.406L79.2734 440.973C72.9583 454.775 62.5417 461.676 48.0234 461.676C43.9219 461.676 39.7552 461.057 35.5234 459.82V438.434L39.8203 438.531C45.1589 438.531 49.1302 437.717 51.7344 436.09C54.4036 434.462 56.487 431.76 57.9844 427.984L61.3047 419.293L24.293 313.336H54.6641L74.293 379.059ZM129.273 365.191C129.273 354.71 131.292 345.367 135.328 337.164C139.365 328.961 145.159 322.613 152.711 318.121C160.328 313.629 169.15 311.383 179.176 311.383C193.434 311.383 205.055 315.745 214.039 324.469C223.089 333.193 228.134 345.042 229.176 360.016L229.371 367.242C229.371 383.453 224.846 396.474 215.797 406.305C206.747 416.07 194.605 420.953 179.371 420.953C164.137 420.953 151.962 416.07 142.848 406.305C133.798 396.539 129.273 383.258 129.273 366.461V365.191ZM157.496 367.242C157.496 377.268 159.384 384.951 163.16 390.289C166.936 395.562 172.34 398.199 179.371 398.199C186.207 398.199 191.546 395.595 195.387 390.387C199.228 385.113 201.148 376.715 201.148 365.191C201.148 355.361 199.228 347.743 195.387 342.34C191.546 336.936 186.142 334.234 179.176 334.234C172.275 334.234 166.936 336.936 163.16 342.34C159.384 347.678 157.496 355.979 157.496 367.242ZM310.035 408.258C303.069 416.721 293.434 420.953 281.129 420.953C269.801 420.953 261.142 417.698 255.152 411.188C249.228 404.677 246.201 395.139 246.07 382.574V313.336H274.293V381.598C274.293 392.6 279.306 398.102 289.332 398.102C298.902 398.102 305.478 394.781 309.059 388.141V313.336H337.379V419H310.816L310.035 408.258ZM500.367 380.621L514.234 313.336H541.48L514.527 419H490.895L470.875 352.496L450.855 419H427.32L400.367 313.336H427.613L441.383 380.523L460.719 313.336H481.129L500.367 380.621ZM604.176 420.953C588.681 420.953 576.051 416.201 566.285 406.695C556.585 397.19 551.734 384.527 551.734 368.707V365.973C551.734 355.361 553.785 345.888 557.887 337.555C561.988 329.156 567.783 322.711 575.27 318.219C582.822 313.661 591.415 311.383 601.051 311.383C615.504 311.383 626.865 315.94 635.133 325.055C643.466 334.169 647.633 347.092 647.633 363.824V375.348H580.348C581.259 382.249 583.993 387.783 588.551 391.949C593.173 396.116 599 398.199 606.031 398.199C616.904 398.199 625.4 394.26 631.52 386.383L645.387 401.91C641.155 407.9 635.426 412.587 628.199 415.973C620.973 419.293 612.965 420.953 604.176 420.953ZM600.953 334.234C595.354 334.234 590.797 336.122 587.281 339.898C583.831 343.674 581.617 349.078 580.641 356.109H619.898V353.863C619.768 347.613 618.076 342.796 614.82 339.41C611.565 335.96 606.943 334.234 600.953 334.234ZM723.121 339.801C719.28 339.28 715.895 339.02 712.965 339.02C702.288 339.02 695.289 342.633 691.969 349.859V419H663.746V313.336H690.406L691.188 325.934C696.852 316.233 704.697 311.383 714.723 311.383C717.848 311.383 720.777 311.806 723.512 312.652L723.121 339.801ZM783.473 420.953C767.978 420.953 755.348 416.201 745.582 406.695C735.882 397.19 731.031 384.527 731.031 368.707V365.973C731.031 355.361 733.082 345.888 737.184 337.555C741.285 329.156 747.079 322.711 754.566 318.219C762.118 313.661 770.712 311.383 780.348 311.383C794.801 311.383 806.161 315.94 814.43 325.055C822.763 334.169 826.93 347.092 826.93 363.824V375.348H759.645C760.556 382.249 763.29 387.783 767.848 391.949C772.47 396.116 778.297 398.199 785.328 398.199C796.201 398.199 804.697 394.26 810.816 386.383L824.684 401.91C820.452 407.9 814.723 412.587 807.496 415.973C800.27 419.293 792.262 420.953 783.473 420.953ZM780.25 334.234C774.651 334.234 770.094 336.122 766.578 339.898C763.128 343.674 760.914 349.078 759.938 356.109H799.195V353.863C799.065 347.613 797.372 342.796 794.117 339.41C790.862 335.96 786.24 334.234 780.25 334.234ZM922.633 419H894.312V269H922.633V419ZM941.578 365.191C941.578 354.71 943.596 345.367 947.633 337.164C951.669 328.961 957.464 322.613 965.016 318.121C972.633 313.629 981.454 311.383 991.48 311.383C1005.74 311.383 1017.36 315.745 1026.34 324.469C1035.39 333.193 1040.44 345.042 1041.48 360.016L1041.68 367.242C1041.68 383.453 1037.15 396.474 1028.1 406.305C1019.05 416.07 1006.91 420.953 991.676 420.953C976.441 420.953 964.267 416.07 955.152 406.305C946.103 396.539 941.578 383.258 941.578 366.461V365.191ZM969.801 367.242C969.801 377.268 971.689 384.951 975.465 390.289C979.241 395.562 984.645 398.199 991.676 398.199C998.512 398.199 1003.85 395.595 1007.69 390.387C1011.53 385.113 1013.45 376.715 1013.45 365.191C1013.45 355.361 1011.53 347.743 1007.69 342.34C1003.85 336.936 998.447 334.234 991.48 334.234C984.579 334.234 979.241 336.936 975.465 342.34C971.689 347.678 969.801 355.979 969.801 367.242ZM1054.66 365.191C1054.66 354.71 1056.68 345.367 1060.72 337.164C1064.76 328.961 1070.55 322.613 1078.1 318.121C1085.72 313.629 1094.54 311.383 1104.57 311.383C1118.82 311.383 1130.45 315.745 1139.43 324.469C1148.48 333.193 1153.52 345.042 1154.57 360.016L1154.76 367.242C1154.76 383.453 1150.24 396.474 1141.19 406.305C1132.14 416.07 1120 420.953 1104.76 420.953C1089.53 420.953 1077.35 416.07 1068.24 406.305C1059.19 396.539 1054.66 383.258 1054.66 366.461V365.191ZM1082.89 367.242C1082.89 377.268 1084.77 384.951 1088.55 390.289C1092.33 395.562 1097.73 398.199 1104.76 398.199C1111.6 398.199 1116.94 395.595 1120.78 390.387C1124.62 385.113 1126.54 376.715 1126.54 365.191C1126.54 355.361 1124.62 347.743 1120.78 342.34C1116.94 336.936 1111.53 334.234 1104.57 334.234C1097.67 334.234 1092.33 336.936 1088.55 342.34C1084.77 347.678 1082.89 355.979 1082.89 367.242ZM1210.52 376.617L1200.37 386.773V419H1172.14V269H1200.37V352.105L1205.84 345.074L1232.89 313.336H1266.77L1228.59 357.379L1270.09 419H1237.67L1210.52 376.617ZM1308.77 419H1280.45V313.336H1308.77V419ZM1278.79 285.992C1278.79 281.76 1280.18 278.277 1282.98 275.543C1285.85 272.809 1289.72 271.441 1294.61 271.441C1299.42 271.441 1303.26 272.809 1306.13 275.543C1308.99 278.277 1310.43 281.76 1310.43 285.992C1310.43 290.289 1308.96 293.805 1306.03 296.539C1303.17 299.273 1299.36 300.641 1294.61 300.641C1289.85 300.641 1286.01 299.273 1283.08 296.539C1280.22 293.805 1278.79 290.289 1278.79 285.992ZM1358.08 313.336L1358.96 325.543C1366.51 316.103 1376.64 311.383 1389.33 311.383C1400.53 311.383 1408.86 314.671 1414.33 321.246C1419.8 327.822 1422.6 337.652 1422.73 350.738V419H1394.51V351.422C1394.51 345.432 1393.21 341.103 1390.6 338.434C1388 335.699 1383.67 334.332 1377.61 334.332C1369.67 334.332 1363.71 337.717 1359.74 344.488V419H1331.52V313.336H1358.08ZM1440.11 365.387C1440.11 349.176 1443.95 336.122 1451.64 326.227C1459.38 316.331 1469.8 311.383 1482.89 311.383C1494.48 311.383 1503.49 315.354 1509.94 323.297L1511.11 313.336H1536.7V415.484C1536.7 424.729 1534.58 432.77 1530.35 439.605C1526.18 446.441 1520.29 451.65 1512.67 455.23C1505.05 458.811 1496.14 460.602 1485.91 460.602C1478.17 460.602 1470.61 459.039 1463.26 455.914C1455.9 452.854 1450.33 448.883 1446.56 444L1459.06 426.812C1466.09 434.69 1474.62 438.629 1484.64 438.629C1492.13 438.629 1497.96 436.611 1502.12 432.574C1506.29 428.603 1508.38 422.939 1508.38 415.582V409.918C1501.86 417.275 1493.3 420.953 1482.69 420.953C1470 420.953 1459.71 416.005 1451.83 406.109C1444.02 396.148 1440.11 382.965 1440.11 366.559V365.387ZM1468.34 367.438C1468.34 377.008 1470.26 384.527 1474.1 389.996C1477.94 395.4 1483.21 398.102 1489.92 398.102C1498.51 398.102 1504.66 394.879 1508.38 388.434V344C1504.6 337.555 1498.51 334.332 1490.11 334.332C1483.34 334.332 1478 337.099 1474.1 342.633C1470.26 348.167 1468.34 356.435 1468.34 367.438ZM1615.99 419V334.039H1600.27V313.336H1615.99V304.352C1615.99 292.503 1619.38 283.323 1626.15 276.812C1632.98 270.237 1642.52 266.949 1654.76 266.949C1658.67 266.949 1663.45 267.6 1669.12 268.902L1668.82 290.777C1666.48 290.191 1663.62 289.898 1660.23 289.898C1649.62 289.898 1644.31 294.879 1644.31 304.84V313.336H1665.31V334.039H1644.31V419H1615.99ZM1675.56 365.191C1675.56 354.71 1677.58 345.367 1681.62 337.164C1685.65 328.961 1691.45 322.613 1699 318.121C1706.62 313.629 1715.44 311.383 1725.46 311.383C1739.72 311.383 1751.34 315.745 1760.33 324.469C1769.38 333.193 1774.42 345.042 1775.46 360.016L1775.66 367.242C1775.66 383.453 1771.14 396.474 1762.09 406.305C1753.04 416.07 1740.89 420.953 1725.66 420.953C1710.43 420.953 1698.25 416.07 1689.14 406.305C1680.09 396.539 1675.56 383.258 1675.56 366.461V365.191ZM1703.79 367.242C1703.79 377.268 1705.67 384.951 1709.45 390.289C1713.23 395.562 1718.63 398.199 1725.66 398.199C1732.5 398.199 1737.83 395.595 1741.68 390.387C1745.52 385.113 1747.44 376.715 1747.44 365.191C1747.44 355.361 1745.52 347.743 1741.68 342.34C1737.83 336.936 1732.43 334.234 1725.46 334.234C1718.56 334.234 1713.23 336.936 1709.45 342.34C1705.67 347.678 1703.79 355.979 1703.79 367.242ZM1852.42 339.801C1848.58 339.28 1845.19 339.02 1842.26 339.02C1831.58 339.02 1824.59 342.633 1821.27 349.859V419H1793.04V313.336H1819.7L1820.48 325.934C1826.15 316.233 1833.99 311.383 1844.02 311.383C1847.14 311.383 1850.07 311.806 1852.81 312.652L1852.42 339.801ZM1850.56 405.133C1850.56 400.641 1852.06 396.995 1855.05 394.195C1858.11 391.396 1861.92 389.996 1866.48 389.996C1871.1 389.996 1874.91 391.396 1877.91 394.195C1880.97 396.995 1882.5 400.641 1882.5 405.133C1882.5 409.56 1881 413.173 1878 415.973C1875.01 418.707 1871.17 420.074 1866.48 420.074C1861.86 420.074 1858.05 418.707 1855.05 415.973C1852.06 413.173 1850.56 409.56 1850.56 405.133Z" fill="#F3F3F3"/>
</svg>
