<svg width="3647" height="2718" viewBox="0 0 3647 2718" fill="none" xmlns="http://www.w3.org/2000/svg">
<g clip-path="url(#clip0)">
<path d="M537 2438.62H3647V2437.07H537V2438.62Z" fill="#E7E8E5"/>
<path d="M3129.36 2537.19H3335.38V2538.75H3129.36V2537.19Z" fill="#E7E8E5"/>
<path d="M2543.12 2554.07H2597.19V2555.62H2543.12V2554.07Z" fill="#E7E8E5"/>
<path d="M3003.76 2479.43H3123.14V2480.98H3003.76V2479.43" fill="#E7E8E5"/>
<path d="M863.295 2489.88H1131.96V2491.43H863.295V2489.88Z" fill="#E7E8E5"/>
<path d="M1187.34 2489.88H1226.73V2491.43H1187.34V2489.88Z" fill="#E7E8E5"/>
<path d="M1354.75 2516.14H1937.41V2517.7H1354.75V2516.14" fill="#E7E8E5"/>
<path d="M2338.88 1141.11H3195.88V579.859H2338.88V1141.11Z" fill="#E2E2E0"/>
<path d="M2312.73 1141.11H3183.65V579.859H2312.73V1141.11Z" fill="#EDEDEB"/>
<path d="M2338.88 1251.26H3195.88V1141.1H2338.88V1251.26Z" fill="#E2E2E0"/>
<path d="M2269.16 1251.26H3140.09V1141.1H2269.16V1251.26Z" fill="#EDEDEB"/>
<path d="M2349.33 1104.49H3147.05V616.466H2349.33V1104.49Z" fill="#FAFAF9"/>
<path d="M2967.17 1104.5L2865.28 616.469H2706.29L2808.18 1104.5H2967.17Z" fill="white"/>
<path d="M3130.1 1068.06C3131.54 1068.06 3132.71 1066.88 3132.71 1065.44V640.287C3132.71 638.844 3131.54 637.668 3130.1 637.668C3128.66 637.668 3127.48 638.844 3127.48 640.287V1065.44C3127.48 1066.88 3128.66 1068.06 3130.1 1068.06Z" fill="#EDEDEB"/>
<path d="M2774.02 1104.5L2672.14 616.469H2610.15L2712.04 1104.5H2774.02Z" fill="white"/>
<path d="M2349.33 1104.49H2353.99V616.466H2349.33V1104.49Z" fill="#E2E2E0"/>
<path d="M3161.07 671.669H3147.05V630.695H3164.43L3161.07 671.669Z" fill="#EAEAE7"/>
<path d="M3147.05 671.669H3132.71V640.287C3132.71 638.844 3131.54 637.668 3130.1 637.668C3128.66 637.668 3127.48 638.844 3127.48 640.287V671.669H2876.8L2868.25 630.695H3147.05V671.669ZM2717.81 671.669H2683.66L2675.11 630.695H2709.26L2717.81 671.669Z" fill="#EEEEEC"/>
<path d="M2876.8 671.669H2717.81L2709.26 630.695H2868.25L2876.8 671.669Z" fill="#F0F0EE"/>
<path d="M2621.68 671.669H2353.99V630.695H2613.12L2621.68 671.669" fill="#EEEEEC"/>
<path d="M2312.73 671.669H2304.07L2307.44 630.695H2312.73V671.669Z" fill="#F0F0EE"/>
<path d="M2312.73 671.669H2349.33V630.699H2312.73V671.669Z" fill="#EAEAE7"/>
<path d="M3132.71 671.669H3127.48V640.287C3127.48 638.844 3128.66 637.668 3130.1 637.668C3131.54 637.668 3132.71 638.844 3132.71 640.287V671.669Z" fill="#EAEAE7"/>
<path d="M2683.66 671.669H2621.68L2613.12 630.695H2675.11L2683.66 671.669Z" fill="#F0F0EE"/>
<path d="M2349.33 671.669H2353.99V630.699H2349.33V671.669Z" fill="#E5E5E3"/>
<path d="M3161.07 738.863H3147.05V697.889H3164.43L3161.07 738.863Z" fill="#EAEAE7"/>
<path d="M3147.05 738.863H3132.71V697.889H3147.05V738.863ZM3127.48 738.863H2890.83L2882.28 697.889H3127.48V738.863ZM2731.85 738.863H2697.69L2689.13 697.889H2723.29L2731.85 738.863Z" fill="#EEEEEC"/>
<path d="M2890.83 738.863H2731.84L2723.29 697.889H2882.28L2890.83 738.863Z" fill="#F0F0EE"/>
<path d="M2635.7 738.863H2353.99V697.889H2627.15L2635.7 738.863Z" fill="#EEEEEC"/>
<path d="M2312.73 738.863H2304.07L2307.44 697.889H2312.73V738.863Z" fill="#F0F0EE"/>
<path d="M2312.73 738.863H2349.33V697.893H2312.73V738.863Z" fill="#EAEAE7"/>
<path d="M3127.48 738.863H3132.71V697.893H3127.48V738.863Z" fill="#EAEAE7"/>
<path d="M2697.69 738.863H2635.7L2627.15 697.889H2689.13L2697.69 738.863" fill="#F0F0EE"/>
<path d="M2349.33 738.863H2353.99V697.893H2349.33V738.863Z" fill="#E5E5E3"/>
<path d="M3161.07 806.056H3147.05V765.088H3164.43L3161.07 806.056Z" fill="#EAEAE7"/>
<path d="M3147.05 806.056H3132.71V765.088H3147.05V806.056ZM3127.48 806.056H2904.86L2896.31 765.088H3127.48V806.056ZM2745.87 806.056H2711.72L2703.16 765.088H2737.32L2745.87 806.056Z" fill="#EEEEEC"/>
<path d="M2904.86 806.056H2745.87L2737.32 765.088H2896.31L2904.86 806.056Z" fill="#F0F0EE"/>
<path d="M2649.73 806.056H2353.99V765.088H2641.18L2649.73 806.056Z" fill="#EEEEEC"/>
<path d="M2312.73 806.056H2304.07L2307.44 765.088H2312.73V806.056Z" fill="#F0F0EE"/>
<path d="M2312.73 806.056H2349.33V765.088H2312.73V806.056Z" fill="#EAEAE7"/>
<path d="M3127.48 806.056H3132.71V765.088H3127.48V806.056Z" fill="#EAEAE7"/>
<path d="M2711.72 806.056H2649.73L2641.18 765.088H2703.16L2711.72 806.056Z" fill="#F0F0EE"/>
<path d="M2349.33 806.056H2353.99V765.088H2349.33V806.056Z" fill="#E5E5E3"/>
<path d="M3161.07 873.248H3147.05V832.28H3164.43L3161.07 873.248Z" fill="#EAEAE7"/>
<path d="M3147.05 873.248H3132.71V832.28H3147.05V873.248ZM3127.48 873.248H2918.89L2910.33 832.28H3127.48V873.248ZM2759.9 873.248H2725.74L2717.19 832.28H2751.34L2759.9 873.248Z" fill="#EEEEEC"/>
<path d="M2918.89 873.248H2759.9L2751.34 832.28H2910.33L2918.89 873.248Z" fill="#F0F0EE"/>
<path d="M2663.76 873.248H2353.99V832.28H2655.21L2663.76 873.248" fill="#EEEEEC"/>
<path d="M2312.73 873.248H2304.07L2307.44 832.28H2312.73V873.248Z" fill="#F0F0EE"/>
<path d="M2312.73 873.248H2349.33V832.278H2312.73V873.248Z" fill="#EAEAE7"/>
<path d="M3127.48 873.248H3132.71V832.278H3127.48V873.248Z" fill="#EAEAE7"/>
<path d="M2725.74 873.248H2663.76L2655.21 832.28H2717.19L2725.74 873.248Z" fill="#F0F0EE"/>
<path d="M2349.33 873.248H2353.99V832.278H2349.33V873.248Z" fill="#E5E5E3"/>
<path d="M2312.73 940.435H2304.07L2307.44 899.473H2312.73V940.435Z" fill="#F0F0EE"/>
<path d="M3161.07 940.435H3147.05V899.473H3164.43L3161.07 940.435ZM2349.33 940.435H2312.73V899.473H2349.33V940.435Z" fill="#EAEAE7"/>
<path d="M3147.05 940.435H3132.71V899.473H3147.05V940.435ZM3127.48 940.435H2932.92L2924.36 899.473H3127.48V940.435ZM2773.93 940.435H2739.77L2731.22 899.473H2765.37L2773.93 940.435ZM2677.79 940.435H2443.6C2449.75 936.379 2455.96 932.41 2462.11 928.529L2451.07 904.562C2442.58 907.485 2434.78 910.689 2426.78 914.147C2418.82 917.544 2410.95 921.232 2403.24 925.325C2394.42 930.009 2385.61 934.874 2376.96 940.435H2353.99V899.473H2669.23L2677.79 940.435" fill="#EEEEEC"/>
<path d="M2932.92 940.435H2915.43C2909.74 926.42 2903.47 912.829 2896.61 899.473H2924.36L2932.92 940.435ZM2876.58 940.435H2773.93L2765.37 899.473H2865.03C2869.03 913.071 2872.98 926.775 2876.58 940.435" fill="#F0F0EE"/>
<path d="M3127.48 940.435H3132.71V899.468H3127.48V940.435Z" fill="#EAEAE7"/>
<path d="M2739.77 940.435H2677.79L2669.24 899.473H2731.22L2739.77 940.435Z" fill="#F0F0EE"/>
<path d="M2349.33 940.435H2353.99V899.468H2349.33V940.435Z" fill="#E5E5E3"/>
<path d="M2312.73 1000.27H2304.67L2307.44 966.667H2312.73V1000.27" fill="#F0F0EE"/>
<path d="M3161.07 1007.63H3147.05V966.667H3164.43L3161.07 1007.63ZM2325.74 1000.27H2312.73V966.667H2344.59C2341.89 969.572 2339.26 972.732 2336.74 976.252C2333.48 980.799 2330.36 986.043 2327.99 992.469C2327.08 994.864 2326.31 997.483 2325.74 1000.27Z" fill="#EAEAE7"/>
<path d="M3147.05 1007.63H3132.71V966.667H3147.05V1007.63ZM3127.48 1007.63H2946.94L2938.39 966.667H3127.48V1007.63ZM2787.96 1007.63H2753.8L2745.25 966.667H2779.4L2787.96 1007.63ZM2691.82 1007.63H2685.31C2686.27 1001.69 2687.31 996.002 2688.3 990.783L2691.82 1007.63ZM2657.61 1007.63H2597.21C2588.81 1002.95 2579.27 1000.27 2569.33 1000.27H2564.22H2374.47C2377.25 995.641 2381.45 990.46 2386.22 985.502C2392.58 979.014 2399.65 972.738 2407.18 966.667H2683.27L2686.63 982.759L2657.61 1007.63" fill="#EEEEEC"/>
<path d="M2946.94 1007.63H2935.07C2933.23 992.512 2929.38 979.555 2925.23 966.667H2938.39L2946.94 1007.63V1007.63ZM2889.54 1007.63H2787.95L2779.4 966.667H2882.97C2883.73 970.15 2884.46 973.627 2885.15 977.092C2887.2 987.493 2888.97 998.167 2889.54 1007.63" fill="#F0F0EE"/>
<path d="M3127.48 1007.63H3132.71V966.664H3127.48V1007.63Z" fill="#EAEAE7"/>
<path d="M2753.8 1007.63H2691.82L2688.3 990.783C2689.08 986.672 2689.83 982.858 2690.51 979.425L2686.63 982.759L2683.27 966.667H2745.25L2753.8 1007.63" fill="#F0F0EE"/>
<path d="M3072.82 2064.33H2893.13V2028.9H3072.82V2064.33Z" fill="#E2E2E0"/>
<path d="M2554.2 2437.07H2587.37V1621.79H2554.2V2437.07Z" fill="#E2E2E0"/>
<path d="M2439.3 2064.33H2893.13V2028.9H2439.3V2064.33Z" fill="#F3F2F1"/>
<path d="M3072.82 2258.2H2893.13V2222.77H3072.82V2258.2Z" fill="#E2E2E0"/>
<path d="M2439.3 2258.2H2893.13V2222.77H2439.3V2258.2Z" fill="#F3F2F1"/>
<path d="M3072.82 1676.59H2893.13V1641.16H3072.82V1676.59Z" fill="#E2E2E0"/>
<path d="M2439.3 1676.59H2893.13V1641.16H2439.3V1676.59Z" fill="#F3F2F1"/>
<path d="M3072.82 1870.46H2893.13V1835.03H3072.82V1870.46Z" fill="#E2E2E0"/>
<path d="M2439.3 1870.46H2893.13V1835.03H2439.3V1870.46Z" fill="#F3F2F1"/>
<path d="M3008.03 2437.07H3041.2V1621.79H3008.03V2437.07Z" fill="#E2E2E0"/>
<path d="M2859.96 2437.07H2893.13V1621.79H2859.96V2437.07Z" fill="#F3F2F1"/>
<path d="M2439.3 2437.07H2472.47V1621.79H2439.3V2437.07Z" fill="#F3F2F1"/>
<path d="M943.625 2437.07H1283.1V1778.37H943.625V2437.07Z" fill="#E2E2E0"/>
<path d="M1034.27 2437.07H943.625V2346.14H1129.32L1034.27 2437.07Z" fill="#FAFAF9"/>
<path d="M1869.22 2437.07H2208.69V1778.37H1869.22V2437.07Z" fill="#E2E2E0"/>
<path d="M943.625 2405.77H1948.34V1778.37H943.625V2405.77Z" fill="#FAFAF9"/>
<path d="M1857.69 2437.07H1948.34V2346.14H1762.64L1857.69 2437.07" fill="#FAFAF9"/>
<path d="M1013.95 2169.17H1878.01V2012.16H1013.95V2169.17Z" fill="#EDEDEB"/>
<path d="M1013.95 2359.74H1878.01V2202.73H1013.95V2359.74Z" fill="#EDEDEB"/>
<path d="M1178.18 2028.95H1713.77C1729.5 2028.95 1742.24 2016.21 1742.24 2000.49V1998.57H1149.72V2000.49C1149.72 2016.21 1162.46 2028.95 1178.18 2028.95Z" fill="#FAFAF9"/>
<path d="M1013.95 1978.6H1878.01V1821.59H1013.95V1978.6Z" fill="#EDEDEB"/>
<path d="M1178.18 1838.38H1713.77C1729.5 1838.38 1742.24 1825.64 1742.24 1809.92V1808H1149.72V1809.92C1149.72 1825.64 1162.46 1838.38 1178.18 1838.38Z" fill="#FAFAF9"/>
<path d="M1178.18 2219.52H1713.77C1729.5 2219.52 1742.24 2206.77 1742.24 2191.05V2189.13H1149.72V2191.05C1149.72 2206.77 1162.46 2219.52 1178.18 2219.52Z" fill="#FAFAF9"/>
<path d="M997.703 1141.11H1854.7V579.859H997.703V1141.11Z" fill="#E2E2E0"/>
<path d="M971.555 1141.11H1842.49V579.859H971.555V1141.11Z" fill="#EDEDEB"/>
<path d="M997.703 1251.26H1854.7V1141.1H997.703V1251.26Z" fill="#E2E2E0"/>
<path d="M927.992 1251.26H1798.92V1141.1H927.992V1251.26Z" fill="#EDEDEB"/>
<path d="M1008.16 1104.49H1805.87V616.466H1008.16V1104.49Z" fill="#FAFAF9"/>
<path d="M1626 1104.5L1524.11 616.469H1365.12L1467.01 1104.5H1626" fill="white"/>
<path d="M1788.92 1068.06C1790.37 1068.06 1791.54 1066.88 1791.54 1065.44V640.287C1791.54 638.844 1790.37 637.668 1788.92 637.668C1787.48 637.668 1786.31 638.844 1786.31 640.287V1065.44C1786.31 1066.88 1787.48 1068.06 1788.92 1068.06Z" fill="#EDEDEB"/>
<path d="M1432.85 1104.5L1330.96 616.469H1268.98L1370.87 1104.5H1432.85Z" fill="white"/>
<path d="M1008.16 1104.49H1012.81V616.466H1008.16V1104.49Z" fill="#E2E2E0"/>
<path d="M964.797 671.669H962.898L966.268 630.695H971.555V653.81H966.268L964.797 671.669Z" fill="#F0F0EE"/>
<path d="M1821.36 653.81H1805.87V630.695H1823.27L1821.36 653.81ZM1008.16 653.81H971.555V630.695H1008.16V653.81Z" fill="#EAEAE7"/>
<path d="M1805.87 653.81H1791.54V640.287C1791.54 638.844 1790.37 637.668 1788.92 637.668C1787.48 637.668 1786.31 638.844 1786.31 640.287V653.81H1531.9L1527.08 630.695H1805.87V653.81ZM1372.91 653.81H1338.76L1333.94 630.695H1368.09L1372.91 653.81V653.81ZM1276.78 653.81H1012.81V630.695H1271.95L1276.78 653.81" fill="#EEEEEC"/>
<path d="M1531.9 653.81H1372.91L1368.09 630.695H1527.08L1531.9 653.81Z" fill="#F0F0EE"/>
<path d="M1791.54 653.81H1786.31V640.287C1786.31 638.844 1787.48 637.668 1788.92 637.668C1790.37 637.668 1791.54 638.844 1791.54 640.287V653.81Z" fill="#EAEAE7"/>
<path d="M1338.76 653.81H1276.78L1271.95 630.695H1333.94L1338.76 653.81Z" fill="#F0F0EE"/>
<path d="M1008.16 653.81H1012.81V630.697H1008.16V653.81Z" fill="#E5E5E3"/>
<path d="M964.797 694.778H962.898L964.797 671.669H971.555V676.919H966.268L964.797 694.778Z" fill="#F0F0EE"/>
<path d="M1821.36 676.919H1805.87V671.669H1819.89L1821.36 653.81H1823.27L1821.36 676.919ZM1008.16 676.919H971.555V671.669H1008.16V676.919Z" fill="#EAEAE7"/>
<path d="M1805.87 676.919H1791.54V671.669H1805.87V676.919ZM1786.31 676.919H1536.73L1535.63 671.669H1786.31V676.919ZM1377.74 676.919H1343.59L1342.49 671.669H1376.64L1377.74 676.919ZM1281.6 676.919H1012.81V671.669H1280.51L1281.6 676.919" fill="#EEEEEC"/>
<path d="M1536.73 676.919H1377.74L1376.64 671.669H1535.63L1536.73 676.919Z" fill="#F0F0EE"/>
<path d="M1786.31 676.919H1791.54V671.666H1786.31V676.919Z" fill="#EAEAE7"/>
<path d="M1343.58 676.919H1281.6L1280.51 671.669H1342.49L1343.58 676.919Z" fill="#F0F0EE"/>
<path d="M1008.16 676.919H1012.81V671.666H1008.16V676.919Z" fill="#E5E5E3"/>
<path d="M971.555 671.669H964.797L966.268 653.81H971.555V671.669Z" fill="#EBEBE9"/>
<path d="M1819.89 671.669H1805.87V653.81H1821.36L1819.89 671.669ZM1008.16 671.669H971.555V653.81H1008.16V671.669Z" fill="#E8E9E6"/>
<path d="M1805.87 671.669H1791.54V653.81H1805.87V671.669ZM1786.31 671.669H1535.63L1531.9 653.81H1786.31V671.669ZM1376.64 671.669H1342.49L1338.76 653.81H1372.91L1376.64 671.669V671.669ZM1280.51 671.669H1012.81V653.81H1276.78L1280.51 671.669" fill="#EAEAE7"/>
<path d="M1535.63 671.669H1376.64L1372.91 653.81H1531.9L1535.63 671.669Z" fill="#EBEBE8"/>
<path d="M1786.31 671.669H1791.54V653.812H1786.31V671.669Z" fill="#E8E9E6"/>
<path d="M1342.49 671.669H1280.51L1276.78 653.81H1338.76L1342.49 671.669Z" fill="#EBEBE8"/>
<path d="M1008.16 671.669H1012.81V653.812H1008.16V671.669Z" fill="#E6E6E4"/>
<path d="M964.797 717.893H962.898L964.797 694.777H971.555V700.034H966.268L964.797 717.893Z" fill="#F0F0EE"/>
<path d="M1821.36 700.034H1805.87V694.777H1819.89L1821.36 676.919H1823.27L1821.36 700.034ZM1008.16 700.034H971.555V694.777H1008.16V700.034Z" fill="#EAEAE7"/>
<path d="M1805.87 700.034H1791.54V694.777H1805.87V700.034ZM1786.31 700.034H1541.56L1540.45 694.777H1786.31V700.034ZM1382.57 700.034H1348.41L1347.31 694.777H1381.47L1382.57 700.034ZM1286.43 700.034H1012.81V694.777H1285.33L1286.43 700.034Z" fill="#EEEEEC"/>
<path d="M1541.56 700.034H1382.57L1381.46 694.777H1540.45L1541.56 700.034Z" fill="#F0F0EE"/>
<path d="M1786.31 700.034H1791.54V694.778H1786.31V700.034Z" fill="#EAEAE7"/>
<path d="M1348.41 700.034H1286.43L1285.33 694.777H1347.31L1348.41 700.034Z" fill="#F0F0EE"/>
<path d="M1008.16 700.034H1012.81V694.778H1008.16V700.034Z" fill="#E5E5E3"/>
<path d="M971.555 694.778H964.797L966.268 676.919H971.555V694.778Z" fill="#EBEBE9"/>
<path d="M1819.89 694.778H1805.87V676.919H1821.36L1819.89 694.778ZM1008.16 694.778H971.555V676.919H1008.16V694.778Z" fill="#E8E9E6"/>
<path d="M1805.87 694.778H1791.54V676.919H1805.87V694.778ZM1786.31 694.778H1540.45L1536.73 676.919H1786.31V694.778ZM1381.47 694.778H1347.31L1343.59 676.919H1377.74L1381.47 694.778ZM1285.33 694.778H1012.81V676.919H1281.6L1285.33 694.778Z" fill="#EAEAE7"/>
<path d="M1540.45 694.778H1381.46L1377.74 676.919H1536.73L1540.45 694.778" fill="#EBEBE8"/>
<path d="M1786.31 694.778H1791.54V676.921H1786.31V694.778Z" fill="#E8E9E6"/>
<path d="M1347.31 694.778H1285.33L1281.6 676.919H1343.58L1347.31 694.778Z" fill="#EBEBE8"/>
<path d="M1008.16 694.778H1012.81V676.921H1008.16V694.778Z" fill="#E6E6E4"/>
<path d="M964.797 741.001H962.898L964.797 717.893H971.555V723.143H966.268L964.797 741.001Z" fill="#F0F0EE"/>
<path d="M1821.36 723.144H1805.87V717.894H1819.89L1821.36 700.035H1823.27L1821.36 723.144ZM1008.16 723.144H971.555V717.894H1008.16V723.144Z" fill="#EAEAE7"/>
<path d="M1805.87 723.144H1791.54V717.894H1805.87V723.144ZM1786.31 723.144H1546.38L1545.28 717.894H1786.31V723.144ZM1387.39 723.144H1353.23L1352.14 717.894H1386.29L1387.39 723.144ZM1291.25 723.144H1012.81V717.894H1290.16L1291.25 723.144" fill="#EEEEEC"/>
<path d="M1546.38 723.144H1387.39L1386.29 717.894H1545.28L1546.38 723.144" fill="#F0F0EE"/>
<path d="M1786.31 723.144H1791.54V717.89H1786.31V723.144Z" fill="#EAEAE7"/>
<path d="M1353.23 723.144H1291.25L1290.16 717.894H1352.14L1353.23 723.144Z" fill="#F0F0EE"/>
<path d="M1008.16 723.144H1012.81V717.89H1008.16V723.144Z" fill="#E5E5E3"/>
<path d="M971.555 717.893H964.797L966.268 700.034H971.555V717.893Z" fill="#EBEBE9"/>
<path d="M1819.89 717.893H1805.87V700.034H1821.36L1819.89 717.893ZM1008.16 717.893H971.555V700.034H1008.16V717.893Z" fill="#E8E9E6"/>
<path d="M1805.87 717.893H1791.54V700.034H1805.87V717.893ZM1786.31 717.893H1545.28L1541.56 700.034H1786.31V717.893ZM1386.29 717.893H1352.14L1348.41 700.034H1382.57L1386.29 717.893ZM1290.16 717.893H1012.81V700.034H1286.43L1290.16 717.893" fill="#EAEAE7"/>
<path d="M1545.28 717.893H1386.29L1382.57 700.034H1541.55L1545.28 717.893Z" fill="#EBEBE8"/>
<path d="M1786.31 717.893H1791.54V700.036H1786.31V717.893Z" fill="#E8E9E6"/>
<path d="M1352.14 717.893H1290.15L1286.43 700.034H1348.41L1352.14 717.893Z" fill="#EBEBE8"/>
<path d="M1008.16 717.893H1012.81V700.036H1008.16V717.893Z" fill="#E6E6E4"/>
<path d="M964.797 764.11H962.898L964.797 741.002H971.555V746.252H966.268L964.797 764.11Z" fill="#F0F0EE"/>
<path d="M1821.36 746.252H1805.87V741.002H1819.89L1821.36 723.144H1823.27L1821.36 746.252ZM1008.16 746.252H971.555V741.002H1008.16V746.252Z" fill="#EAEAE7"/>
<path d="M1805.87 746.252H1791.54V741.002H1805.87V746.252ZM1786.31 746.252H1551.2L1550.11 741.002H1786.31V746.252ZM1392.21 746.252H1358.06L1356.96 741.002H1391.12L1392.21 746.252ZM1296.08 746.252H1012.81V741.002H1294.98L1296.08 746.252" fill="#EEEEEC"/>
<path d="M1551.2 746.252H1392.21L1391.12 741.002H1550.11L1551.2 746.252Z" fill="#F0F0EE"/>
<path d="M1786.31 746.252H1791.54V740.999H1786.31V746.252Z" fill="#EAEAE7"/>
<path d="M1358.06 746.252H1296.08L1294.98 741.002H1356.96L1358.06 746.252Z" fill="#F0F0EE"/>
<path d="M1008.16 746.252H1012.81V740.999H1008.16V746.252Z" fill="#E5E5E3"/>
<path d="M971.555 741.001H964.797L966.268 723.143H971.555V741.001Z" fill="#EBEBE9"/>
<path d="M1819.89 741.001H1805.87V723.143H1821.36L1819.89 741.001ZM1008.16 741.001H971.555V723.143H1008.16V741.001Z" fill="#E8E9E6"/>
<path d="M1805.87 741.001H1791.54V723.143H1805.87V741.001ZM1786.31 741.001H1550.11L1546.38 723.143H1786.31V741.001ZM1391.12 741.001H1356.96L1353.23 723.143H1387.39L1391.12 741.001ZM1294.98 741.001H1012.81V723.143H1291.25L1294.98 741.001Z" fill="#EAEAE7"/>
<path d="M1550.11 741.001H1391.12L1387.39 723.143H1546.38L1550.11 741.001" fill="#EBEBE8"/>
<path d="M1786.31 741.001H1791.54V723.144H1786.31V741.001Z" fill="#E8E9E6"/>
<path d="M1356.96 741.001H1294.98L1291.25 723.143H1353.23L1356.96 741.001Z" fill="#EBEBE8"/>
<path d="M1008.16 741.001H1012.81V723.144H1008.16V741.001Z" fill="#E6E6E4"/>
<path d="M971.555 787.225H962.898L964.797 764.11H971.555V787.225Z" fill="#F0F0EE"/>
<path d="M1819.89 787.225H1805.87V764.11H1819.89L1821.36 746.251H1823.27L1819.89 787.225ZM1008.16 787.225H971.555V764.11H1008.16V787.225Z" fill="#EAEAE7"/>
<path d="M1805.87 787.225H1791.54V764.11H1805.87V787.225ZM1786.31 787.225H1559.76L1554.93 764.11H1786.31V787.225ZM1400.77 787.225H1366.61L1361.79 764.11H1395.95L1400.77 787.225ZM1304.63 787.225H1012.81V764.11H1299.8L1304.63 787.225" fill="#EEEEEC"/>
<path d="M1559.76 787.225H1400.77L1395.95 764.11H1554.93L1559.76 787.225" fill="#F0F0EE"/>
<path d="M1786.31 787.225H1791.54V764.11H1786.31V787.225Z" fill="#EAEAE7"/>
<path d="M1366.61 787.225H1304.63L1299.8 764.11H1361.79L1366.61 787.225Z" fill="#F0F0EE"/>
<path d="M1008.16 787.225H1012.81V764.11H1008.16V787.225Z" fill="#E5E5E3"/>
<path d="M971.555 764.11H964.797L966.268 746.252H971.555V764.11Z" fill="#EBEBE9"/>
<path d="M1819.89 764.11H1805.87V746.252H1821.36L1819.89 764.11ZM1008.16 764.11H971.555V746.252H1008.16V764.11Z" fill="#E8E9E6"/>
<path d="M1805.87 764.11H1791.54V746.252H1805.87V764.11ZM1786.31 764.11H1554.93L1551.2 746.252H1786.31V764.11ZM1395.95 764.11H1361.79L1358.06 746.252H1392.21L1395.95 764.11ZM1299.8 764.11H1012.81V746.252H1296.08L1299.8 764.11" fill="#EAEAE7"/>
<path d="M1554.93 764.11H1395.94L1392.21 746.252H1551.2L1554.93 764.11" fill="#EBEBE8"/>
<path d="M1786.31 764.11H1791.54V746.253H1786.31V764.11Z" fill="#E8E9E6"/>
<path d="M1361.79 764.11H1299.8L1296.08 746.252H1358.06L1361.79 764.11Z" fill="#EBEBE8"/>
<path d="M1008.16 764.11H1012.81V746.253H1008.16V764.11Z" fill="#E6E6E4"/>
<path d="M1134.2 1758.25H1163.83V1427.99H1134.2V1758.25" fill="#F3F2F1"/>
<path d="M1138.02 1758.02H1146.39V1427.76H1138.02V1758.02Z" fill="#FAFAF9"/>
<path d="M1149.89 1758.02H1153.17V1427.76H1149.89V1758.02Z" fill="#FAFAF9"/>
<path d="M1039.35 1778.37H1258.69C1258.69 1763.12 1246.32 1750.74 1231.05 1750.74H1066.98C1051.72 1750.74 1039.35 1763.12 1039.35 1778.37" fill="#EDEDEB"/>
<path d="M1095.77 1633.02C1100.46 1633.02 1104.3 1629.18 1104.3 1624.49V1407.96C1104.3 1403.27 1100.46 1399.44 1095.77 1399.44C1091.09 1399.44 1087.25 1403.27 1087.25 1407.96V1624.49C1087.25 1629.18 1091.09 1633.02 1095.77 1633.02" fill="#EDEDEB"/>
<path d="M1016.4 1506.49H1281.63L1251.12 1321.13H1046.91L1016.4 1506.49" fill="#DADBD8"/>
<path d="M3297.99 2647.56C3297.99 2686.46 2758.05 2718 2092 2718C1425.95 2718 886.01 2686.46 886.01 2647.56C886.01 2608.66 1425.95 2577.13 2092 2577.13C2758.05 2577.13 3297.99 2608.66 3297.99 2647.56Z" fill="#F3F2F1"/>
<path d="M1186.67 1432.31L1178.41 1317.6L1184.61 1317.15L1192.87 1431.87L1186.67 1432.31" fill="#406FBF"/>
<path d="M1194.04 1534.7L1190.93 1491.55L1197.13 1491.1L1200.24 1534.26L1194.04 1534.7Z" fill="#406FBF"/>
<path d="M2637.56 2018.82H1305.5C1275.37 2018.82 1248.95 1994.17 1246.78 1964.04L1181.33 1055.05C1179.16 1024.92 1202.04 1000.27 1232.16 1000.27H2564.22C2594.35 1000.27 2620.77 1024.92 2622.94 1055.05L2688.4 1964.04C2690.56 1994.17 2667.69 2018.82 2637.56 2018.82" fill="#406FBF"/>
<path d="M2642.67 2018.82H1310.61C1280.48 2018.82 1254.05 1994.17 1251.88 1964.04L1186.44 1055.05C1184.27 1024.92 1207.14 1000.27 1237.27 1000.27H2569.33C2599.46 1000.27 2625.88 1024.92 2628.05 1055.05L2693.5 1964.04C2695.67 1994.17 2672.8 2018.82 2642.67 2018.82" fill="#406FBF"/>
<path d="M2629.81 2018.82H2586.86C2581.56 1995.3 2577.72 1976.2 2576.02 1963.91C2574.47 1952.66 2573.75 1941.08 2573.75 1929.21C2573.75 1928.84 2573.75 1928.47 2573.75 1928.1H2607.35C2610.8 1928.1 2613.97 1927.22 2616.68 1925.68C2617.34 1931.29 2618.01 1936.84 2618.69 1942.3C2618.7 1942.28 2618.7 1942.26 2618.7 1942.23C2620.56 1956.98 2622.53 1971.18 2624.63 1984.64C2626.27 1995.19 2628 2006.63 2629.81 2018.82V2018.82ZM2434.21 2018.82H1735.55H1310.61C1280.48 2018.82 1254.05 1994.17 1251.88 1964.04L1186.44 1055.05C1186.34 1053.7 1186.29 1052.36 1186.29 1051.03C1186.34 1022.76 1208.49 1000.27 1237.27 1000.27H2325.74C2324.81 1004.83 2324.42 1009.84 2324.93 1014.99C2325.39 1019.35 2326.51 1023.67 2328.07 1027.66H1239.24C1237.73 1027.66 1236.25 1027.72 1234.78 1027.84C1200.72 1030.64 1207.68 1082.44 1242.05 1082.44H2383.27C2406.58 1098.42 2430.52 1111.47 2454.78 1123.88C2459.8 1126.45 2464.83 1128.97 2469.86 1131.44L2468.6 1140.86H1276.17C1265.21 1140.86 1256.95 1149.75 1257.74 1160.71L1311.57 1908.24C1312.36 1919.2 1321.89 1928.1 1332.86 1928.1H2416.52C2417.43 1945.97 2419.55 1962.74 2423.08 1978.03C2426.04 1990.8 2429.8 2004.47 2434.21 2018.82V2018.82ZM2560.1 1098.13C2551.07 1092.55 2538.88 1087.17 2526.16 1082.44H2576.38C2580.03 1082.44 2583.3 1081.86 2586.17 1080.8C2584.19 1083.85 2581.89 1089.9 2580.95 1095.33C2573.88 1096.17 2566.84 1097.13 2560.1 1098.13ZM2592.29 1077.46C2609.31 1064.41 2603.65 1030.11 2575.79 1027.84C2574.31 1027.72 2572.81 1027.66 2571.3 1027.66H2392.73C2387.49 1023.84 2382.63 1019.88 2378.4 1015.93C2377.23 1014.79 2375.91 1013.65 2374.99 1012.54L2372.5 1009.88C2371.96 1009.33 2371.88 1009.26 2371.77 1009.26C2371.73 1009.26 2371.69 1009.27 2371.63 1009.27C2371.61 1009.28 2371.6 1009.29 2371.58 1009.29C2371.13 1009.29 2371.2 1005.71 2374.05 1001C2374.18 1000.75 2374.33 1000.51 2374.48 1000.27H2569.33C2598.31 1000.27 2623.86 1023.07 2627.7 1051.62C2628 1054.68 2628.1 1057.7 2627.94 1060.63C2613.49 1064.69 2602.29 1068.78 2600.32 1071.07C2599.7 1071.78 2599.19 1073.68 2598.86 1076.16C2596.3 1076.59 2594.09 1077.02 2592.29 1077.46" fill="#90B4E3"/>
<path d="M2571.3 1027.66H1239.24C1237.73 1027.66 1236.25 1027.72 1234.78 1027.84C1200.72 1030.64 1207.68 1082.44 1242.05 1082.44H2576.38C2610.75 1082.44 2610.24 1030.64 2575.79 1027.84C2574.3 1027.72 2572.8 1027.66 2571.3 1027.66" fill="#406FBF"/>
<path d="M1273.93 1055.05C1274.43 1061.99 1269.21 1067.61 1262.28 1067.61C1255.34 1067.61 1249.31 1061.99 1248.82 1055.05C1248.32 1048.12 1253.53 1042.49 1260.47 1042.49C1267.41 1042.49 1273.44 1048.12 1273.93 1055.05Z" fill="#FAFAF9"/>
<path d="M1316.65 1055.05C1317.15 1061.99 1311.93 1067.61 1305 1067.61C1298.06 1067.61 1292.03 1061.99 1291.54 1055.05C1291.03 1048.12 1296.25 1042.49 1303.19 1042.49C1310.12 1042.49 1316.15 1048.12 1316.65 1055.05Z" fill="#FAFAF9"/>
<path d="M1359.37 1055.05C1359.87 1061.99 1354.65 1067.61 1347.71 1067.61C1340.78 1067.61 1334.75 1061.99 1334.25 1055.05C1333.75 1048.12 1338.97 1042.49 1345.9 1042.49C1352.84 1042.49 1358.87 1048.12 1359.37 1055.05Z" fill="#FAFAF9"/>
<path d="M2607.35 1928.1H1332.85C1321.89 1928.1 1312.36 1919.21 1311.57 1908.24L1257.74 1160.71C1256.95 1149.75 1265.21 1140.86 1276.17 1140.86H2550.67C2561.63 1140.86 2571.17 1149.75 2571.96 1160.71L2625.78 1908.24C2626.57 1919.21 2618.32 1928.1 2607.35 1928.1" fill="white"/>
<path d="M2070.42 1643.34L2049.67 1355.21L1986.8 1317.37H1813.86L1837.33 1643.34H2070.42" fill="white"/>
<path d="M1840.14 1640.32H2067.18L2046.77 1356.99L1985.97 1320.39H1817.1L1840.14 1640.32ZM2070.42 1646.35H1837.33C1835.75 1646.35 1834.44 1645.13 1834.32 1643.55L1810.86 1317.59C1810.79 1316.76 1811.09 1315.93 1811.65 1315.32C1812.22 1314.7 1813.03 1314.36 1813.86 1314.36H1986.8L1988.36 1314.79L2051.22 1352.63C2052.06 1353.13 2052.6 1354.02 2052.68 1354.99L2073.42 1643.12C2073.48 1643.96 2073.19 1644.78 2072.62 1645.39C2072.05 1646 2071.25 1646.35 2070.42 1646.35" fill="#406FBF"/>
<path d="M2049.67 1355.21L1986.8 1317.37L2009.88 1367.5L2049.67 1355.21Z" fill="#E7E8E5"/>
<path d="M1993.64 1325L2011.52 1363.85L2042.35 1354.32L1993.64 1325ZM2009.88 1370.52C2008.73 1370.52 2007.65 1369.85 2007.15 1368.77L1984.06 1318.64C1983.51 1317.43 1983.81 1316.01 1984.79 1315.13C1985.78 1314.24 1987.22 1314.11 1988.36 1314.79L2051.22 1352.63C2052.24 1353.25 2052.8 1354.4 2052.66 1355.58C2052.51 1356.76 2051.69 1357.74 2050.56 1358.09L2010.77 1370.38L2009.88 1370.52" fill="#406FBF"/>
<path d="M1911.43 1464.24C1911.95 1471.51 1906.48 1477.41 1899.21 1477.41C1891.93 1477.41 1885.61 1471.51 1885.09 1464.24C1884.57 1456.97 1890.04 1451.07 1897.31 1451.07C1904.59 1451.07 1910.9 1456.97 1911.43 1464.24" fill="#406FBF"/>
<path d="M1996.86 1464.24C1997.39 1471.51 1991.91 1477.41 1984.64 1477.41C1977.37 1477.41 1971.05 1471.51 1970.53 1464.24C1970.01 1456.97 1975.47 1451.07 1982.74 1451.07C1990.02 1451.07 1996.34 1456.97 1996.86 1464.24" fill="#406FBF"/>
<path d="M2020.97 1549.64C2019.4 1549.64 2018.08 1548.43 2017.96 1546.85C2016.44 1525.67 1983.23 1508.45 1943.95 1508.45C1917.92 1508.45 1894.54 1516.18 1882.95 1528.64C1877.8 1534.19 1875.41 1540.16 1875.86 1546.41C1875.98 1548.07 1874.73 1549.51 1873.07 1549.63C1871.4 1549.74 1869.97 1548.51 1869.85 1546.85C1869.28 1538.97 1872.29 1531.26 1878.54 1524.54C1891.23 1510.89 1916.3 1502.42 1943.95 1502.42C1987.04 1502.42 2022.2 1521.74 2023.97 1546.41C2024.1 1548.07 2022.85 1549.51 2021.19 1549.63L2020.97 1549.64" fill="#406FBF"/>
<path d="M1862.9 1437.56C1862.16 1437.56 1861.43 1437.29 1860.85 1436.76C1859.63 1435.62 1859.56 1433.71 1860.69 1432.5L1873.9 1418.26C1875.03 1417.04 1876.94 1416.98 1878.16 1418.1C1879.38 1419.23 1879.45 1421.14 1878.32 1422.36L1865.11 1436.59C1864.52 1437.24 1863.71 1437.56 1862.9 1437.56" fill="#406FBF"/>
<path d="M2014.77 1437.56C2014.04 1437.56 2013.3 1437.29 2012.72 1436.75L1997.46 1422.51C1996.24 1421.38 1996.18 1419.47 1997.31 1418.26C1998.45 1417.04 2000.36 1416.97 2001.57 1418.11L2016.83 1432.34C2018.04 1433.47 2018.11 1435.38 2016.97 1436.6C2016.38 1437.24 2015.58 1437.56 2014.77 1437.56Z" fill="#406FBF"/>
<path d="M1795.04 1707.75H1809.09L1829.38 1734.71L1827.44 1707.75H1841.63L1845.14 1756.47H1830.95L1810.77 1729.72L1812.7 1756.47H1798.55L1795.04 1707.75" fill="#406FBF"/>
<path d="M1866.56 1732.21C1866.91 1737.13 1868.08 1740.66 1870.06 1742.81C1872.04 1744.96 1874.61 1746.03 1877.75 1746.03C1880.99 1746.03 1883.42 1744.98 1885.04 1742.87C1886.66 1740.77 1887.28 1737 1886.88 1731.55C1886.55 1726.96 1885.38 1723.61 1883.38 1721.49C1881.38 1719.37 1878.79 1718.32 1875.63 1718.32C1872.59 1718.32 1870.23 1719.39 1868.55 1721.54C1866.86 1723.69 1866.2 1727.25 1866.56 1732.21V1732.21ZM1851.5 1732.14C1850.93 1724.19 1852.69 1717.99 1856.8 1713.56C1860.92 1709.14 1866.93 1706.91 1874.84 1706.91C1882.95 1706.91 1889.35 1709.1 1894.05 1713.45C1898.75 1717.8 1901.38 1723.9 1901.95 1731.75C1902.36 1737.44 1901.74 1742.11 1900.08 1745.75C1898.43 1749.4 1895.87 1752.24 1892.39 1754.26C1888.91 1756.29 1884.47 1757.3 1879.06 1757.3C1873.57 1757.3 1868.96 1756.43 1865.23 1754.67C1861.51 1752.93 1858.39 1750.16 1855.88 1746.36C1853.37 1742.58 1851.91 1737.84 1851.5 1732.14" fill="#406FBF"/>
<path d="M1947.07 1718.78L1949 1745.41H1952.68C1955.82 1745.41 1958.04 1745.06 1959.32 1744.36C1960.6 1743.66 1961.55 1742.44 1962.18 1740.7C1962.81 1738.96 1962.98 1736.14 1962.7 1732.24C1962.33 1727.08 1961.23 1723.55 1959.41 1721.64C1957.59 1719.74 1954.73 1718.78 1950.83 1718.78H1947.07ZM1931.22 1707.75H1953.59C1958 1707.75 1961.6 1708.35 1964.41 1709.55C1967.21 1710.74 1969.57 1712.46 1971.51 1714.7C1973.44 1716.94 1974.91 1719.54 1975.92 1722.5C1976.94 1725.48 1977.56 1728.62 1977.8 1731.95C1978.17 1737.15 1977.87 1741.19 1976.89 1744.06C1975.92 1746.93 1974.44 1749.33 1972.48 1751.27C1970.52 1753.21 1968.35 1754.5 1965.98 1755.14C1962.74 1756.03 1959.78 1756.47 1957.1 1756.47H1934.73L1931.22 1707.75" fill="#406FBF"/>
<path d="M2010.05 1737.89L2003.4 1720.38L1999.35 1737.89H2010.05ZM2013.93 1748.43H1996.83L1995.04 1756.47H1979.67L1994.47 1707.75H2010.89L2032.7 1756.47H2016.94L2013.93 1748.43" fill="#406FBF"/>
<path d="M2025.88 1707.75H2071.64L2072.5 1719.78H2057.15L2059.79 1756.47H2044.73L2042.1 1719.78H2026.74L2025.88 1707.75" fill="#406FBF"/>
<path d="M2102.83 1737.89L2096.19 1720.38L2092.13 1737.89H2102.83ZM2106.71 1748.43H2089.62L2087.83 1756.47H2072.45L2087.25 1707.75H2103.67L2125.49 1756.47H2109.73L2106.71 1748.43" fill="#406FBF"/>
<path d="M2736.94 1135.02C2742.5 1132.24 2749.12 1128.63 2755.25 1125.27C2761.49 1121.83 2767.7 1118.26 2773.81 1114.54C2786 1107.04 2798.27 1099.63 2809.94 1091.39C2833.46 1075.18 2855.5 1057.2 2875.32 1037.56C2877.92 1035.18 2880.13 1032.55 2882.54 1030.04L2886.08 1026.23L2887.86 1024.33L2888.75 1023.38L2888.81 1023.32L2888.62 1023.63C2887.73 1025.29 2888.47 1024.78 2888.81 1023.18C2889.23 1021.64 2889.58 1019.12 2889.69 1016.39C2890.09 1005.1 2887.85 990.864 2885.16 977.092C2879.61 949.193 2871.23 920.498 2862.94 892.382L2887.11 881.789C2902.25 908.823 2914.87 936.429 2925.13 966.368C2930.02 981.533 2934.52 996.761 2935.82 1015.47C2936.07 1020.24 2936.17 1025.24 2935.31 1031.09C2934.4 1036.83 2932.94 1043.71 2927.7 1051.51L2926.67 1052.95L2925.87 1053.99L2924.91 1055.16L2922.99 1057.49L2919.15 1062.15C2916.55 1065.22 2914.1 1068.46 2911.34 1071.34C2889.89 1095.16 2866.03 1116.2 2840.56 1134.49C2827.89 1143.75 2814.93 1152.55 2801.48 1160.55C2794.78 1164.61 2787.99 1168.5 2781.09 1172.28C2774.11 1176.16 2767.47 1179.54 2759.53 1183.26L2736.94 1135.02" fill="#F89E63"/>
<path d="M2691.88 2593.8C2682.81 2595.61 2675.99 2595.3 2673.35 2592.89C2672.23 2591.87 2671.82 2590.43 2672.09 2588.5C2672.23 2587.46 2672.71 2587.12 2673.12 2586.94C2676.31 2585.49 2685.43 2589.9 2691.88 2593.8ZM2681.62 2597.43C2686.43 2597.43 2691.69 2596.43 2695.37 2595.56L2696.3 2594.57L2695.77 2593.33C2693.98 2592.16 2678.16 2581.95 2672.1 2584.69C2671.14 2585.12 2669.94 2586.07 2669.64 2588.15C2669.25 2590.92 2669.94 2593.13 2671.69 2594.71C2673.91 2596.74 2677.61 2597.43 2681.62 2597.43" fill="#406FBF"/>
<path d="M2686.23 2574.48C2687.23 2574.48 2688.14 2574.83 2688.95 2575.56C2692.34 2578.55 2693.5 2586.97 2693.78 2591.96C2688.83 2588 2682.92 2579.56 2683.63 2575.99C2683.75 2575.4 2684.09 2574.7 2685.66 2574.51L2686.23 2574.48ZM2695.09 2595.59L2695.71 2595.43L2696.32 2594.36C2696.32 2593.72 2696.25 2578.73 2690.59 2573.71C2689.08 2572.37 2687.33 2571.82 2685.37 2572.06C2682.28 2572.43 2681.44 2574.38 2681.21 2575.5C2680.04 2581.37 2689.51 2592.61 2694.48 2595.43L2695.09 2595.59" fill="#406FBF"/>
<path d="M2690.51 979.425C2684.45 1010.34 2671.68 1072.96 2693.31 1093.59C2693.31 1093.59 2684.85 1124.96 2627.41 1124.96C2564.24 1124.96 2597.22 1093.6 2597.22 1093.6C2631.7 1085.36 2630.81 1059.79 2624.8 1035.76L2690.51 979.425Z" fill="#F89E63"/>
<path d="M2585.15 1106.06C2575.23 1107.4 2583.67 1081.71 2587.7 1079.05C2597 1072.9 2717.39 1064.19 2716.61 1078.8C2716.11 1085.08 2713.15 1097.36 2707.89 1101.53C2705.8 1103.18 2699.69 1102.2 2687.68 1101.22C2669.38 1099.73 2637.41 1098.23 2585.15 1106.06Z" fill="#17282F"/>
<path d="M2604.76 1097.41C2596.88 1100.08 2597.63 1074.19 2600.32 1071.07C2606.52 1063.87 2703.96 1038.83 2706.86 1053C2707.97 1059.11 2708.51 1071.33 2705.17 1076.07C2701.82 1080.81 2673.19 1072.97 2604.76 1097.41" fill="#17282F"/>
<path d="M2568.51 923.696C2567.75 923.746 2566.98 923.435 2566.45 922.794C2559.49 914.272 2550.44 915.143 2550.35 915.155C2548.98 915.298 2547.78 914.322 2547.63 912.966C2547.48 911.616 2548.46 910.397 2549.82 910.247C2550.3 910.198 2561.63 909.097 2570.28 919.671C2571.14 920.722 2570.98 922.278 2569.93 923.142L2568.51 923.696Z" fill="#17282F"/>
<path d="M2556.46 954.132C2556.46 954.132 2551.14 972.837 2544.18 982.292C2550.21 986.908 2559.36 983.623 2559.36 983.623L2556.46 954.132Z" fill="#F14358"/>
<path d="M2559.49 946.581C2559.91 950.761 2558.03 954.369 2555.29 954.642C2552.56 954.91 2550.01 951.738 2549.6 947.557C2549.19 943.371 2551.07 939.763 2553.8 939.496C2556.53 939.222 2559.08 942.394 2559.49 946.581Z" fill="#17282F"/>
<path d="M2555.03 939.607L2544.7 937.698C2544.7 937.698 2550.63 945.038 2555.03 939.607Z" fill="#17282F"/>
<path d="M2755.67 2594.36H2703.58L2707.66 2473.7H2759.76L2755.67 2594.36Z" fill="#F89E63"/>
<path d="M2699.45 2588.33H2757.98C2760.11 2588.33 2761.84 2589.81 2762.14 2591.89L2768.81 2638.2C2769.5 2643.01 2765.37 2647.55 2760.46 2647.47C2740.05 2647.11 2730.21 2645.92 2704.48 2645.92C2688.64 2645.92 2665.5 2647.56 2643.63 2647.56C2622.25 2647.56 2620.6 2625.94 2629.71 2623.98C2670.53 2615.2 2676.98 2603.09 2690.74 2591.53C2693.22 2589.45 2696.33 2588.33 2699.45 2588.33" fill="#17282F"/>
<path d="M2757.7 2535.93H2757.66L2758.06 2523.89H2758.09L2757.7 2535.93" fill="#C3C5C2"/>
<path d="M2757.66 2535.93H2705.57L2705.98 2523.89H2758.06L2757.66 2535.93Z" fill="#DC834C"/>
<path d="M2548.38 1165.89C2516.15 1153.28 2485.4 1139.54 2454.77 1123.88C2424.2 1108.24 2394.1 1091.57 2365.18 1069.31C2357.98 1063.64 2350.86 1057.45 2343.89 1050.21C2342.16 1048.34 2340.43 1046.62 2338.72 1044.47C2336.93 1042.22 2335.58 1040.9 2333.25 1037.44C2329.05 1031.4 2325.8 1023.27 2324.93 1014.99C2324.12 1006.69 2325.6 998.776 2327.99 992.469C2330.36 986.043 2333.48 980.799 2336.74 976.252C2343.27 967.139 2350.51 960.409 2357.82 954.356C2372.39 942.295 2387.8 933.518 2403.24 925.325C2410.95 921.232 2418.82 917.544 2426.78 914.147C2434.78 910.689 2442.58 907.485 2451.07 904.562L2462.11 928.529C2434.99 945.629 2406.88 964.427 2386.22 985.502C2381.2 990.721 2376.81 996.188 2374.05 1001C2371.09 1005.89 2371.12 1009.56 2371.63 1009.27C2371.89 1009.27 2371.78 1009.16 2372.5 1009.88L2374.98 1012.54C2375.91 1013.65 2377.23 1014.79 2378.4 1015.93C2383.29 1020.49 2389.01 1025.07 2395.19 1029.42C2407.53 1038.21 2421.14 1046.43 2435.21 1054.11C2449.23 1061.9 2463.65 1069.35 2478.34 1076.43C2507.66 1090.46 2538.04 1103.97 2567.86 1116.31L2548.38 1165.89" fill="#F89E63"/>
<path d="M2477.45 911.541L2486.06 892.854L2446.9 879.257C2446.9 879.257 2434.7 915.976 2449.25 932.914C2461.62 930.942 2472.2 922.924 2477.45 911.541Z" fill="#F89E63"/>
<path d="M2486.06 852.459L2454.76 843.434L2446.9 879.257L2486.06 892.855V852.459Z" fill="#F89E63"/>
<path d="M2890.34 894.665L2894.9 850.998L2854.54 860.484C2854.54 860.484 2853.95 901.421 2875.3 907.94L2890.34 894.665" fill="#F89E63"/>
<path d="M2875.46 820.431L2849.17 832.71L2854.54 860.484L2894.9 850.998L2875.46 820.431Z" fill="#F89E63"/>
<path d="M2698.7 918.39C2700.6 970.069 2702.5 991.903 2679.15 1020.82C2644.04 1064.31 2580.15 1055.34 2562.85 1005.28C2547.28 960.21 2546.8 883.269 2595.06 857.884C2642.61 832.871 2696.8 866.717 2698.7 918.39Z" fill="#F89E63"/>
<path d="M2676.19 1020.72C2726.92 998.795 2760.28 952.577 2746.19 880.296C2732.72 811.156 2686.04 804.32 2666.76 818.664C2647.48 833.015 2599.41 811.629 2570.57 835.907C2520.6 877.963 2567.85 923.298 2592.45 950.17C2607.16 980.389 2626.41 1042.23 2676.19 1020.72Z" fill="#17282F"/>
<path d="M2655.13 867.893C2672.24 892.675 2705.07 899.679 2728.46 883.524C2751.84 867.37 2756.92 834.19 2739.81 809.402C2722.7 784.614 2689.86 777.616 2666.47 793.77C2643.09 809.918 2638.01 843.104 2655.13 867.893" fill="#406FBF"/>
<path d="M2668.3 823.51C2660.98 781.846 2700.4 749.718 2753.11 765.244C2805.83 780.77 2777.94 827.504 2767.13 864.826C2756.33 902.149 2784.7 937.692 2796.55 909.271C2808.41 880.85 2788.48 872.079 2788.48 872.079C2788.48 872.079 2844.45 886.585 2792.45 949.692C2740.45 1012.8 2693.38 943.117 2706.11 901.994C2716.4 868.758 2675.22 862.898 2668.3 823.51Z" fill="#17282F"/>
<path d="M2615.61 839.253C2591.55 826.7 2550.79 816.549 2527.6 855.576C2516.63 874.025 2520.88 899.05 2520.88 899.05L2591.72 903.765L2615.61 839.253" fill="#17282F"/>
<path d="M2512.55 886.809L2512.45 886.802C2511.59 886.753 2510.94 886.012 2510.99 885.154C2511.06 884.097 2512.77 859.072 2527.87 843.378C2564.38 805.446 2607.18 836.908 2619.43 847.458C2620.08 848.018 2620.15 849.001 2619.59 849.648C2619.03 850.301 2618.04 850.369 2617.4 849.816C2605.67 839.72 2564.73 809.57 2530.12 845.53C2515.81 860.397 2514.11 885.098 2514.1 885.353C2514.05 886.174 2513.36 886.809 2512.55 886.809Z" fill="#17282F"/>
<path d="M2601.13 948.117C2601.05 958.181 2596.54 968.041 2590.83 974.721C2582.23 984.774 2572.38 979.822 2570.12 968.675C2568.09 958.642 2570.1 941.324 2580.97 935.253C2591.67 929.269 2601.21 936.603 2601.13 948.117Z" fill="#F89E63"/>
<path d="M2589.93 1421.42C2589.93 1421.42 2593.25 1783.1 2624.62 1984.64C2649.97 2147.43 2696.86 2523.89 2696.86 2523.89H2767.91C2767.91 2523.89 2774.85 2160.46 2761.99 1999.45C2729.44 1592.03 2813.43 1515.86 2745.65 1421.42H2589.93Z" fill="#17282F"/>
<path d="M2767.91 2523.89H2696.86C2696.86 2523.89 2695.43 2512.36 2692.92 2492.49L2714.52 2482.89L2692.81 2437.68L2683.52 2418.32C2683.38 2417.23 2683.24 2416.14 2683.1 2415.03L2689.01 2412.07C2689.01 2412.07 2684.47 2395.65 2677.2 2369C2661.35 2245.91 2639.35 2079.22 2624.63 1984.64C2622.53 1971.18 2620.56 1956.97 2618.7 1942.23C2629.38 1882.83 2643.92 1764.32 2637.67 1663.29C2664.69 1582.71 2690.51 1502.33 2692.66 1430.91H2751.99C2767.76 1456.41 2772.93 1481.44 2772.93 1513.05C2772.93 1545.95 2767.32 1586 2762.24 1641.16C2761.22 1652.33 2760.21 1664.11 2759.27 1676.59C2756.37 1715.25 2754.17 1760.49 2754.17 1814.29C2754.17 1867.13 2756.3 1928.23 2761.99 1999.45C2768.17 2076.89 2769.77 2201.15 2769.77 2309.28C2769.77 2356.76 2769.47 2401.14 2769.1 2437.07C2769.1 2437.58 2769.09 2438.1 2769.08 2438.62C2768.56 2490.13 2767.91 2523.89 2767.91 2523.89V2523.89ZM2605.31 1802.73C2604.5 1791.74 2603.73 1780.7 2603 1769.67V1769.66C2603.73 1780.71 2604.5 1791.73 2605.31 1802.73Z" fill="#2B3C43"/>
<path d="M2618.69 1942.3C2618.01 1936.84 2617.33 1931.29 2616.68 1925.68C2616.69 1925.68 2616.69 1925.67 2616.69 1925.67C2617.35 1931.27 2618.02 1936.78 2618.7 1942.23C2618.7 1942.26 2618.7 1942.28 2618.69 1942.3" fill="#627FB7"/>
<path d="M2616.68 1925.68C2612.18 1887.1 2608.43 1845.25 2605.31 1802.73C2608.43 1845.25 2612.19 1887.09 2616.69 1925.67C2616.69 1925.67 2616.69 1925.68 2616.68 1925.68Z" fill="#A7A9A8"/>
<path d="M2618.7 1942.23C2618.02 1936.78 2617.35 1931.27 2616.69 1925.67C2612.19 1887.09 2608.43 1845.25 2605.31 1802.73C2604.5 1791.73 2603.73 1780.71 2603 1769.66C2613.5 1734.68 2625.7 1698.97 2637.67 1663.29C2643.92 1764.32 2629.38 1882.83 2618.7 1942.23" fill="#1B262A"/>
<path d="M2687.14 2525.29H2777.63L2782.38 2493.54L2686.62 2490.3L2687.14 2525.29Z" fill="#406FBF"/>
<path d="M2712.96 1116.12C2721.48 1099.19 2767.23 1088.54 2792.24 1088.58L2810.96 1171.72C2810.96 1171.72 2761.13 1245.68 2740.41 1237.83C2715.93 1228.58 2694.72 1152.38 2712.96 1116.12Z" fill="#406FBF"/>
<path d="M2756.57 1233.4C2762.5 1198.81 2771.04 1157.48 2783.16 1105.43C2783.16 1105.43 2765.05 1101.49 2740.1 1098.08C2757.02 1092.01 2777.88 1088.58 2792.1 1088.58C2792.15 1088.58 2792.2 1088.58 2792.24 1088.58L2810.96 1171.72C2810.96 1171.72 2779.85 1217.9 2756.57 1233.4Z" fill="#2251AA"/>
<path d="M2632.59 2514.52C2634.73 2511.03 2646.63 2507.81 2655.72 2506.14C2647.51 2514.49 2640.29 2519.13 2636.06 2518.7C2634.58 2518.54 2633.45 2517.77 2632.58 2516.33L2632.46 2514.77L2632.59 2514.52ZM2660.22 2504.96L2660.25 2503.74L2658.98 2503.1C2656.37 2503.49 2633.34 2507.14 2630.22 2513.72C2629.63 2514.99 2629.71 2516.33 2630.47 2517.6C2631.73 2519.72 2633.53 2520.92 2635.8 2521.15C2643.35 2521.93 2654.24 2511.46 2660.07 2505.15L2660.22 2504.96" fill="#406FBF"/>
<path d="M2635.86 2497.13L2636.85 2496.01C2638.25 2494.76 2639.87 2494.2 2641.82 2494.33C2647.4 2494.7 2653.75 2500.48 2656.64 2503.42C2649.27 2504.04 2637.32 2501.81 2635.7 2498.6C2635.61 2498.41 2635.37 2497.93 2635.86 2497.13ZM2660.21 2504.96L2660.33 2504.72L2660.1 2503.51C2659.7 2503.06 2650.48 2492.43 2641.98 2491.87C2639.37 2491.7 2637.09 2492.47 2635.2 2494.17C2632.64 2496.46 2632.86 2498.45 2633.5 2499.71C2636.19 2505.05 2652.74 2506.91 2659.41 2505.52L2660.21 2504.96" fill="#406FBF"/>
<path d="M2714.52 2482.89L2666.86 2504.05L2645.63 2459.86L2617.88 2401.98L2614.63 2395.26L2662.22 2374.05L2665.91 2381.63L2692.81 2437.68L2714.52 2482.89" fill="#F89E63"/>
<path d="M2645.63 2459.87L2635.58 2438.9L2682.17 2415.51L2692.81 2437.68L2645.63 2459.87" fill="#DC834C"/>
<path d="M2534.05 1421.42C2534.05 1421.42 2381.83 1799.84 2423.08 1978.03C2460.37 2139.08 2625.26 2444.07 2625.26 2444.07L2689.01 2412.07C2689.01 2412.07 2587.08 2043.89 2576.02 1963.91C2554.51 1808.28 2692.81 1588.61 2692.81 1421.42H2534.05" fill="#17282F"/>
<path d="M2625.26 2444.07C2625.26 2444.07 2609.84 2415.55 2587.37 2371.34C2577.45 2351.83 2566.14 2329.26 2554.19 2304.73C2527.55 2250.06 2497.66 2185.71 2472.47 2123.88C2459.91 2093.05 2448.52 2062.84 2439.3 2034.79C2432.64 2014.56 2427.12 1995.46 2423.08 1978.03C2418.17 1956.8 2416 1932.73 2415.99 1906.8C2415.94 1734.77 2511 1480.76 2530.56 1430.31C2531.21 1430.69 2532.06 1430.91 2533 1430.91H2692.66C2690.51 1502.33 2664.69 1582.71 2637.67 1663.29C2625.7 1698.97 2613.5 1734.68 2603 1769.66V1769.67C2586.31 1825.33 2573.94 1879.16 2573.75 1928.1C2573.75 1928.47 2573.74 1928.84 2573.74 1929.21C2573.74 1941.08 2574.47 1952.67 2576.02 1963.91C2587.08 2043.89 2689.01 2412.07 2689.01 2412.07L2683.1 2415.03L2682.17 2415.51L2635.58 2438.9L2625.26 2444.07" fill="#2B3C43"/>
<path d="M2658.36 2497.44L2705.69 2462.99C2707.41 2461.73 2709.68 2461.91 2711.15 2463.42L2743.79 2496.94C2747.17 2500.42 2746.51 2506.53 2742.49 2509.34C2725.78 2521.07 2717.12 2525.89 2696.31 2541.04C2683.51 2550.36 2658 2570.96 2640.31 2583.83C2623.02 2596.42 2608.96 2579.91 2615.18 2572.96C2643.02 2541.83 2648.88 2522.59 2653.21 2505.15C2653.99 2502 2655.84 2499.26 2658.36 2497.44" fill="#17282F"/>
<path d="M2621.15 2457.56L2703.45 2419.92L2692.89 2386.38L2604.76 2426.59L2621.15 2457.56Z" fill="#406FBF"/>
<path d="M2574.45 1111.88C2567.62 1094.21 2508.16 1074.83 2478.33 1068.06L2465.23 1166.14C2465.23 1166.14 2513.93 1236.15 2535.32 1230.36C2560.58 1223.53 2589.08 1149.74 2574.45 1111.88" fill="#406FBF"/>
<path d="M2506.43 1215.17C2486.04 1196.06 2465.23 1166.14 2465.23 1166.14L2478.33 1068.06C2500.47 1073.08 2538.95 1085.06 2560.1 1098.13C2532.14 1102.24 2509.15 1106.94 2509.15 1106.94C2509.15 1106.94 2502.96 1109.13 2502.96 1149.42C2502.96 1164.97 2503.88 1186.19 2506.43 1215.17" fill="#2251AA"/>
<path d="M2509.15 1106.94C2509.15 1106.94 2484.33 1115.69 2534.05 1421.42C2618.02 1421.42 2704.79 1421.42 2745.65 1421.42C2742.1 1335.3 2742 1282.19 2783.16 1105.43C2783.16 1105.43 2738.82 1095.79 2693.31 1093.59C2657.7 1091.88 2628.52 1090.74 2597.22 1093.6C2555.95 1097.36 2509.15 1106.94 2509.15 1106.94Z" fill="#406FBF"/>
<path d="M2745.1 1407.41H2531.79C2508.79 1263.57 2502.96 1188.53 2502.96 1149.42C2502.96 1109.13 2509.15 1106.94 2509.15 1106.94C2509.15 1106.94 2555.95 1097.36 2597.22 1093.6C2611.02 1092.34 2624.39 1091.86 2638.09 1091.86C2655.48 1091.86 2673.39 1092.64 2693.31 1093.59C2738.82 1095.79 2783.16 1105.43 2783.16 1105.43C2771.04 1157.48 2762.5 1198.81 2756.57 1233.4C2755.51 1239.56 2754.54 1245.5 2753.65 1251.26C2746.39 1297.9 2744.21 1332.04 2744.21 1365.68C2744.21 1379.4 2744.57 1393.04 2745.1 1407.41Z" fill="#2251AA"/>
<path d="M2748.82 1409L2758.36 1427.94C2759.1 1429.41 2757.36 1430.91 2754.91 1430.91H2533C2531.09 1430.91 2529.51 1429.98 2529.4 1428.77L2527.49 1409.83C2527.36 1408.52 2529.01 1407.41 2531.09 1407.41H2745.37C2746.95 1407.41 2748.34 1408.05 2748.82 1409Z" fill="#406FBF"/>
<path d="M2754.92 1430.91H2533C2532.07 1430.91 2531.21 1430.68 2530.56 1430.31C2529.89 1429.93 2529.46 1429.38 2529.4 1428.77L2527.49 1409.83C2527.48 1409.78 2527.48 1409.73 2527.48 1409.68C2527.49 1408.43 2529.09 1407.41 2531.09 1407.41H2745.37C2746.95 1407.41 2748.34 1408.05 2748.82 1409L2758.36 1427.94C2758.48 1428.17 2758.54 1428.4 2758.54 1428.63C2758.54 1429.84 2756.98 1430.91 2754.92 1430.91Z" fill="#6D97D6"/>
<path d="M2720.04 1432.96H2725.78C2726.93 1432.96 2727.8 1432.37 2727.72 1431.65L2725.02 1407.04C2724.95 1406.32 2723.95 1405.73 2722.8 1405.73H2717.07C2715.92 1405.73 2715.05 1406.32 2715.13 1407.04L2717.82 1431.65C2717.9 1432.37 2718.9 1432.96 2720.04 1432.96" fill="#17282F"/>
<path d="M2580.93 1432.96H2586.68C2587.82 1432.96 2588.69 1432.37 2588.61 1431.65L2585.92 1407.04C2585.84 1406.32 2584.84 1405.73 2583.7 1405.73H2577.96C2576.82 1405.73 2575.95 1406.32 2576.03 1407.04L2578.71 1431.65C2578.8 1432.37 2579.8 1432.96 2580.93 1432.96" fill="#17282F"/>
<path d="M210.492 117.129C210.492 131.126 208.018 143.398 203.07 153.945C198.122 164.492 191.026 172.63 181.781 178.359C172.602 184.089 162.055 186.953 150.141 186.953C138.357 186.953 127.842 184.121 118.598 178.457C109.353 172.793 102.191 164.72 97.1133 154.238C92.0352 143.691 89.4635 131.582 89.3984 117.91V110.879C89.3984 96.8815 91.9049 84.5768 96.918 73.9648C101.996 63.2878 109.125 55.1172 118.305 49.4531C127.549 43.724 138.096 40.8594 149.945 40.8594C161.794 40.8594 172.309 43.724 181.488 49.4531C190.733 55.1172 197.862 63.2878 202.875 73.9648C207.953 84.5768 210.492 96.849 210.492 110.781V117.129ZM180.805 110.684C180.805 95.7747 178.135 84.4466 172.797 76.6992C167.458 68.9518 159.841 65.0781 149.945 65.0781C140.115 65.0781 132.53 68.9193 127.191 76.6016C121.853 84.2188 119.151 95.4167 119.086 110.195V117.129C119.086 131.647 121.755 142.91 127.094 150.918C132.432 158.926 140.115 162.93 150.141 162.93C159.971 162.93 167.523 159.089 172.797 151.406C178.07 143.659 180.74 132.396 180.805 117.617V110.684ZM225.531 131.191C225.531 120.71 227.549 111.367 231.586 103.164C235.622 94.9609 241.417 88.6133 248.969 84.1211C256.586 79.6289 265.408 77.3828 275.434 77.3828C289.691 77.3828 301.312 81.7448 310.297 90.4688C319.346 99.1927 324.392 111.042 325.434 126.016L325.629 133.242C325.629 149.453 321.104 162.474 312.055 172.305C303.005 182.07 290.863 186.953 275.629 186.953C260.395 186.953 248.22 182.07 239.105 172.305C230.056 162.539 225.531 149.258 225.531 132.461V131.191ZM253.754 133.242C253.754 143.268 255.642 150.951 259.418 156.289C263.194 161.562 268.598 164.199 275.629 164.199C282.465 164.199 287.803 161.595 291.645 156.387C295.486 151.113 297.406 142.715 297.406 131.191C297.406 121.361 295.486 113.743 291.645 108.34C287.803 102.936 282.4 100.234 275.434 100.234C268.533 100.234 263.194 102.936 259.418 108.34C255.642 113.678 253.754 121.979 253.754 133.242ZM438.129 133.145C438.129 149.421 434.418 162.474 426.996 172.305C419.639 182.07 409.678 186.953 397.113 186.953C386.436 186.953 377.81 183.242 371.234 175.82V225.625H343.012V79.3359H369.184L370.16 89.6875C376.996 81.4844 385.915 77.3828 396.918 77.3828C409.939 77.3828 420.062 82.2005 427.289 91.8359C434.516 101.471 438.129 114.753 438.129 131.68V133.145ZM409.906 131.094C409.906 121.263 408.148 113.678 404.633 108.34C401.182 103.001 396.137 100.332 389.496 100.332C380.642 100.332 374.555 103.717 371.234 110.488V153.75C374.685 160.716 380.837 164.199 389.691 164.199C403.168 164.199 409.906 153.164 409.906 131.094ZM512.934 155.801C512.934 152.35 511.208 149.648 507.758 147.695C504.372 145.677 498.904 143.887 491.352 142.324C466.221 137.051 453.656 126.374 453.656 110.293C453.656 100.918 457.53 93.1055 465.277 86.8555C473.09 80.5404 483.279 77.3828 495.844 77.3828C509.255 77.3828 519.965 80.5404 527.973 86.8555C536.046 93.1706 540.082 101.374 540.082 111.465H511.859C511.859 107.428 510.557 104.108 507.953 101.504C505.349 98.8346 501.28 97.5 495.746 97.5C490.993 97.5 487.315 98.5742 484.711 100.723C482.107 102.871 480.805 105.605 480.805 108.926C480.805 112.051 482.27 114.59 485.199 116.543C488.194 118.431 493.207 120.091 500.238 121.523C507.27 122.891 513.194 124.453 518.012 126.211C532.921 131.68 540.375 141.152 540.375 154.629C540.375 164.264 536.241 172.077 527.973 178.066C519.704 183.991 509.027 186.953 495.941 186.953C487.087 186.953 479.21 185.391 472.309 182.266C465.473 179.076 460.102 174.746 456.195 169.277C452.289 163.743 450.336 157.786 450.336 151.406H477.094C477.354 156.419 479.21 160.26 482.66 162.93C486.111 165.599 490.733 166.934 496.527 166.934C501.931 166.934 506 165.924 508.734 163.906C511.534 161.823 512.934 159.121 512.934 155.801ZM587.348 141.348H563.91L560.59 42.8125H590.668L587.348 141.348ZM575.629 156.777C580.382 156.777 584.19 158.177 587.055 160.977C589.984 163.776 591.449 167.357 591.449 171.719C591.449 176.016 589.984 179.564 587.055 182.363C584.19 185.163 580.382 186.562 575.629 186.562C570.941 186.562 567.133 185.163 564.203 182.363C561.339 179.564 559.906 176.016 559.906 171.719C559.906 167.422 561.339 163.874 564.203 161.074C567.133 158.21 570.941 156.777 575.629 156.777ZM695.941 185H666.645V42.8125H695.941V185ZM755.121 53.3594V79.3359H773.188V100.039H755.121V152.773C755.121 156.68 755.87 159.479 757.367 161.172C758.865 162.865 761.729 163.711 765.961 163.711C769.086 163.711 771.853 163.483 774.262 163.027V184.414C768.728 186.107 763.031 186.953 757.172 186.953C737.38 186.953 727.289 176.96 726.898 156.973V100.039H711.469V79.3359H726.898V53.3594H755.121ZM899.945 185C898.643 182.461 897.699 179.303 897.113 175.527C890.277 183.145 881.391 186.953 870.453 186.953C860.102 186.953 851.508 183.958 844.672 177.969C837.901 171.979 834.516 164.427 834.516 155.312C834.516 144.115 838.65 135.521 846.918 129.531C855.251 123.542 867.263 120.514 882.953 120.449H895.941V114.395C895.941 109.512 894.672 105.605 892.133 102.676C889.659 99.7461 885.72 98.2812 880.316 98.2812C875.564 98.2812 871.82 99.4206 869.086 101.699C866.417 103.978 865.082 107.103 865.082 111.074H836.859C836.859 104.954 838.747 99.2904 842.523 94.082C846.299 88.8737 851.638 84.8047 858.539 81.875C865.44 78.8802 873.188 77.3828 881.781 77.3828C894.802 77.3828 905.121 80.6706 912.738 87.2461C920.421 93.7565 924.262 102.936 924.262 114.785V160.586C924.327 170.612 925.727 178.197 928.461 183.34V185H899.945ZM876.605 165.371C880.772 165.371 884.613 164.46 888.129 162.637C891.645 160.749 894.249 158.242 895.941 155.117V136.953H885.395C871.267 136.953 863.747 141.836 862.836 151.602L862.738 153.262C862.738 156.777 863.975 159.674 866.449 161.953C868.923 164.232 872.309 165.371 876.605 165.371ZM1041.06 133.145C1041.06 149.421 1037.35 162.474 1029.93 172.305C1022.57 182.07 1012.61 186.953 1000.04 186.953C989.366 186.953 980.74 183.242 974.164 175.82V225.625H945.941V79.3359H972.113L973.09 89.6875C979.926 81.4844 988.845 77.3828 999.848 77.3828C1012.87 77.3828 1022.99 82.2005 1030.22 91.8359C1037.45 101.471 1041.06 114.753 1041.06 131.68V133.145ZM1012.84 131.094C1012.84 121.263 1011.08 113.678 1007.56 108.34C1004.11 103.001 999.066 100.332 992.426 100.332C983.572 100.332 977.484 103.717 974.164 110.488V153.75C977.615 160.716 983.767 164.199 992.621 164.199C1006.1 164.199 1012.84 153.164 1012.84 131.094ZM1153.75 133.145C1153.75 149.421 1150.04 162.474 1142.62 172.305C1135.26 182.07 1125.3 186.953 1112.74 186.953C1102.06 186.953 1093.43 183.242 1086.86 175.82V225.625H1058.64V79.3359H1084.81L1085.79 89.6875C1092.62 81.4844 1101.54 77.3828 1112.54 77.3828C1125.56 77.3828 1135.69 82.2005 1142.91 91.8359C1150.14 101.471 1153.75 114.753 1153.75 131.68V133.145ZM1125.53 131.094C1125.53 121.263 1123.77 113.678 1120.26 108.34C1116.81 103.001 1111.76 100.332 1105.12 100.332C1096.27 100.332 1090.18 103.717 1086.86 110.488V153.75C1090.31 160.716 1096.46 164.199 1105.32 164.199C1118.79 164.199 1125.53 153.164 1125.53 131.094ZM1219.96 186.953C1204.47 186.953 1191.84 182.201 1182.07 172.695C1172.37 163.19 1167.52 150.527 1167.52 134.707V131.973C1167.52 121.361 1169.57 111.888 1173.68 103.555C1177.78 95.1562 1183.57 88.7109 1191.06 84.2188C1198.61 79.6615 1207.2 77.3828 1216.84 77.3828C1231.29 77.3828 1242.65 81.9401 1250.92 91.0547C1259.26 100.169 1263.42 113.092 1263.42 129.824V141.348H1196.14C1197.05 148.249 1199.78 153.783 1204.34 157.949C1208.96 162.116 1214.79 164.199 1221.82 164.199C1232.69 164.199 1241.19 160.26 1247.31 152.383L1261.18 167.91C1256.94 173.9 1251.21 178.587 1243.99 181.973C1236.76 185.293 1228.75 186.953 1219.96 186.953ZM1216.74 100.234C1211.14 100.234 1206.59 102.122 1203.07 105.898C1199.62 109.674 1197.41 115.078 1196.43 122.109H1235.69V119.863C1235.56 113.613 1233.86 108.796 1230.61 105.41C1227.35 101.96 1222.73 100.234 1216.74 100.234ZM1340.77 185C1339.46 182.461 1338.52 179.303 1337.93 175.527C1331.1 183.145 1322.21 186.953 1311.27 186.953C1300.92 186.953 1292.33 183.958 1285.49 177.969C1278.72 171.979 1275.34 164.427 1275.34 155.312C1275.34 144.115 1279.47 135.521 1287.74 129.531C1296.07 123.542 1308.08 120.514 1323.77 120.449H1336.76V114.395C1336.76 109.512 1335.49 105.605 1332.95 102.676C1330.48 99.7461 1326.54 98.2812 1321.14 98.2812C1316.38 98.2812 1312.64 99.4206 1309.91 101.699C1307.24 103.978 1305.9 107.103 1305.9 111.074H1277.68C1277.68 104.954 1279.57 99.2904 1283.34 94.082C1287.12 88.8737 1292.46 84.8047 1299.36 81.875C1306.26 78.8802 1314.01 77.3828 1322.6 77.3828C1335.62 77.3828 1345.94 80.6706 1353.56 87.2461C1361.24 93.7565 1365.08 102.936 1365.08 114.785V160.586C1365.15 170.612 1366.55 178.197 1369.28 183.34V185H1340.77ZM1317.43 165.371C1321.59 165.371 1325.43 164.46 1328.95 162.637C1332.46 160.749 1335.07 158.242 1336.76 155.117V136.953H1326.21C1312.09 136.953 1304.57 141.836 1303.66 151.602L1303.56 153.262C1303.56 156.777 1304.8 159.674 1307.27 161.953C1309.74 164.232 1313.13 165.371 1317.43 165.371ZM1446.14 105.801C1442.3 105.28 1438.91 105.02 1435.98 105.02C1425.3 105.02 1418.3 108.633 1414.98 115.859V185H1386.76V79.3359H1413.42L1414.2 91.9336C1419.87 82.2331 1427.71 77.3828 1437.74 77.3828C1440.86 77.3828 1443.79 77.806 1446.53 78.6523L1446.14 105.801ZM1517.04 155.801C1517.04 152.35 1515.31 149.648 1511.86 147.695C1508.47 145.677 1503.01 143.887 1495.45 142.324C1470.32 137.051 1457.76 126.374 1457.76 110.293C1457.76 100.918 1461.63 93.1055 1469.38 86.8555C1477.19 80.5404 1487.38 77.3828 1499.95 77.3828C1513.36 77.3828 1524.07 80.5404 1532.07 86.8555C1540.15 93.1706 1544.18 101.374 1544.18 111.465H1515.96C1515.96 107.428 1514.66 104.108 1512.05 101.504C1509.45 98.8346 1505.38 97.5 1499.85 97.5C1495.1 97.5 1491.42 98.5742 1488.81 100.723C1486.21 102.871 1484.91 105.605 1484.91 108.926C1484.91 112.051 1486.37 114.59 1489.3 116.543C1492.3 118.431 1497.31 120.091 1504.34 121.523C1511.37 122.891 1517.3 124.453 1522.11 126.211C1537.02 131.68 1544.48 141.152 1544.48 154.629C1544.48 164.264 1540.34 172.077 1532.07 178.066C1523.81 183.991 1513.13 186.953 1500.04 186.953C1491.19 186.953 1483.31 185.391 1476.41 182.266C1469.57 179.076 1464.2 174.746 1460.3 169.277C1456.39 163.743 1454.44 157.786 1454.44 151.406H1481.2C1481.46 156.419 1483.31 160.26 1486.76 162.93C1490.21 165.599 1494.83 166.934 1500.63 166.934C1506.03 166.934 1510.1 165.924 1512.84 163.906C1515.64 161.823 1517.04 159.121 1517.04 155.801ZM1652 145.059L1671.53 79.3359H1701.8L1659.32 201.406L1656.98 206.973C1650.66 220.775 1640.24 227.676 1625.73 227.676C1621.62 227.676 1617.46 227.057 1613.23 225.82V204.434L1617.52 204.531C1622.86 204.531 1626.83 203.717 1629.44 202.09C1632.11 200.462 1634.19 197.76 1635.69 193.984L1639.01 185.293L1602 79.3359H1632.37L1652 145.059ZM1706.98 131.191C1706.98 120.71 1708.99 111.367 1713.03 103.164C1717.07 94.9609 1722.86 88.6133 1730.41 84.1211C1738.03 79.6289 1746.85 77.3828 1756.88 77.3828C1771.14 77.3828 1782.76 81.7448 1791.74 90.4688C1800.79 99.1927 1805.84 111.042 1806.88 126.016L1807.07 133.242C1807.07 149.453 1802.55 162.474 1793.5 172.305C1784.45 182.07 1772.31 186.953 1757.07 186.953C1741.84 186.953 1729.67 182.07 1720.55 172.305C1711.5 162.539 1706.98 149.258 1706.98 132.461V131.191ZM1735.2 133.242C1735.2 143.268 1737.09 150.951 1740.86 156.289C1744.64 161.562 1750.04 164.199 1757.07 164.199C1763.91 164.199 1769.25 161.595 1773.09 156.387C1776.93 151.113 1778.85 142.715 1778.85 131.191C1778.85 121.361 1776.93 113.743 1773.09 108.34C1769.25 102.936 1763.85 100.234 1756.88 100.234C1749.98 100.234 1744.64 102.936 1740.86 108.34C1737.09 113.678 1735.2 121.979 1735.2 133.242ZM1887.74 174.258C1880.77 182.721 1871.14 186.953 1858.83 186.953C1847.5 186.953 1838.85 183.698 1832.86 177.188C1826.93 170.677 1823.9 161.139 1823.77 148.574V79.3359H1852V147.598C1852 158.6 1857.01 164.102 1867.04 164.102C1876.61 164.102 1883.18 160.781 1886.76 154.141V79.3359H1915.08V185H1888.52L1887.74 174.258ZM2047.41 185C2046.1 182.461 2045.16 179.303 2044.57 175.527C2037.74 183.145 2028.85 186.953 2017.91 186.953C2007.56 186.953 1998.97 183.958 1992.13 177.969C1985.36 171.979 1981.98 164.427 1981.98 155.312C1981.98 144.115 1986.11 135.521 1994.38 129.531C2002.71 123.542 2014.72 120.514 2030.41 120.449H2043.4V114.395C2043.4 109.512 2042.13 105.605 2039.59 102.676C2037.12 99.7461 2033.18 98.2812 2027.78 98.2812C2023.02 98.2812 2019.28 99.4206 2016.55 101.699C2013.88 103.978 2012.54 107.103 2012.54 111.074H1984.32C1984.32 104.954 1986.21 99.2904 1989.98 94.082C1993.76 88.8737 1999.1 84.8047 2006 81.875C2012.9 78.8802 2020.65 77.3828 2029.24 77.3828C2042.26 77.3828 2052.58 80.6706 2060.2 87.2461C2067.88 93.7565 2071.72 102.936 2071.72 114.785V160.586C2071.79 170.612 2073.19 178.197 2075.92 183.34V185H2047.41ZM2024.07 165.371C2028.23 165.371 2032.07 164.46 2035.59 162.637C2039.11 160.749 2041.71 158.242 2043.4 155.117V136.953H2032.86C2018.73 136.953 2011.21 141.836 2010.3 151.602L2010.2 153.262C2010.2 156.777 2011.44 159.674 2013.91 161.953C2016.38 164.232 2019.77 165.371 2024.07 165.371ZM2152.78 105.801C2148.94 105.28 2145.55 105.02 2142.62 105.02C2131.94 105.02 2124.95 108.633 2121.62 115.859V185H2093.4V79.3359H2120.06L2120.84 91.9336C2126.51 82.2331 2134.35 77.3828 2144.38 77.3828C2147.5 77.3828 2150.43 77.806 2153.17 78.6523L2152.78 105.801ZM2213.13 186.953C2197.63 186.953 2185 182.201 2175.24 172.695C2165.54 163.19 2160.69 150.527 2160.69 134.707V131.973C2160.69 121.361 2162.74 111.888 2166.84 103.555C2170.94 95.1562 2176.74 88.7109 2184.22 84.2188C2191.77 79.6615 2200.37 77.3828 2210 77.3828C2224.46 77.3828 2235.82 81.9401 2244.09 91.0547C2252.42 100.169 2256.59 113.092 2256.59 129.824V141.348H2189.3C2190.21 148.249 2192.95 153.783 2197.5 157.949C2202.13 162.116 2207.95 164.199 2214.98 164.199C2225.86 164.199 2234.35 160.26 2240.47 152.383L2254.34 167.91C2250.11 173.9 2244.38 178.587 2237.15 181.973C2229.93 185.293 2221.92 186.953 2213.13 186.953ZM2209.91 100.234C2204.31 100.234 2199.75 102.122 2196.23 105.898C2192.78 109.674 2190.57 115.078 2189.59 122.109H2228.85V119.863C2228.72 113.613 2227.03 108.796 2223.77 105.41C2220.52 101.96 2215.9 100.234 2209.91 100.234ZM2348.48 79.3359L2349.36 91.543C2356.91 82.1029 2367.04 77.3828 2379.73 77.3828C2390.93 77.3828 2399.26 80.6706 2404.73 87.2461C2410.2 93.8216 2413 103.652 2413.13 116.738V185H2384.91V117.422C2384.91 111.432 2383.6 107.103 2381 104.434C2378.4 101.699 2374.07 100.332 2368.01 100.332C2360.07 100.332 2354.11 103.717 2350.14 110.488V185H2321.92V79.3359H2348.48ZM2430.22 131.191C2430.22 120.71 2432.24 111.367 2436.27 103.164C2440.31 94.9609 2446.1 88.6133 2453.66 84.1211C2461.27 79.6289 2470.1 77.3828 2480.12 77.3828C2494.38 77.3828 2506 81.7448 2514.98 90.4688C2524.03 99.1927 2529.08 111.042 2530.12 126.016L2530.32 133.242C2530.32 149.453 2525.79 162.474 2516.74 172.305C2507.69 182.07 2495.55 186.953 2480.32 186.953C2465.08 186.953 2452.91 182.07 2443.79 172.305C2434.74 162.539 2430.22 149.258 2430.22 132.461V131.191ZM2458.44 133.242C2458.44 143.268 2460.33 150.951 2464.11 156.289C2467.88 161.562 2473.29 164.199 2480.32 164.199C2487.15 164.199 2492.49 161.595 2496.33 156.387C2500.17 151.113 2502.09 142.715 2502.09 131.191C2502.09 121.361 2500.17 113.743 2496.33 108.34C2492.49 102.936 2487.09 100.234 2480.12 100.234C2473.22 100.234 2467.88 102.936 2464.11 108.34C2460.33 113.678 2458.44 121.979 2458.44 133.242ZM2581.49 53.3594V79.3359H2599.55V100.039H2581.49V152.773C2581.49 156.68 2582.24 159.479 2583.73 161.172C2585.23 162.865 2588.1 163.711 2592.33 163.711C2595.45 163.711 2598.22 163.483 2600.63 163.027V184.414C2595.1 186.107 2589.4 186.953 2583.54 186.953C2563.75 186.953 2553.66 176.96 2553.27 156.973V100.039H2537.84V79.3359H2553.27V53.3594H2581.49ZM2694.87 185H2666.55V35H2694.87V185ZM2713.81 131.191C2713.81 120.71 2715.83 111.367 2719.87 103.164C2723.9 94.9609 2729.7 88.6133 2737.25 84.1211C2744.87 79.6289 2753.69 77.3828 2763.71 77.3828C2777.97 77.3828 2789.59 81.7448 2798.58 90.4688C2807.63 99.1927 2812.67 111.042 2813.71 126.016L2813.91 133.242C2813.91 149.453 2809.39 162.474 2800.34 172.305C2791.29 182.07 2779.14 186.953 2763.91 186.953C2748.68 186.953 2736.5 182.07 2727.39 172.305C2718.34 162.539 2713.81 149.258 2713.81 132.461V131.191ZM2742.04 133.242C2742.04 143.268 2743.92 150.951 2747.7 156.289C2751.48 161.562 2756.88 164.199 2763.91 164.199C2770.75 164.199 2776.08 161.595 2779.93 156.387C2783.77 151.113 2785.69 142.715 2785.69 131.191C2785.69 121.361 2783.77 113.743 2779.93 108.34C2776.08 102.936 2770.68 100.234 2763.71 100.234C2756.81 100.234 2751.48 102.936 2747.7 108.34C2743.92 113.678 2742.04 121.979 2742.04 133.242ZM2827.19 131.387C2827.19 115.176 2831.03 102.122 2838.71 92.2266C2846.46 82.3307 2856.88 77.3828 2869.96 77.3828C2881.55 77.3828 2890.57 81.3542 2897.02 89.2969L2898.19 79.3359H2923.77V181.484C2923.77 190.729 2921.66 198.77 2917.43 205.605C2913.26 212.441 2907.37 217.65 2899.75 221.23C2892.13 224.811 2883.21 226.602 2872.99 226.602C2865.24 226.602 2857.69 225.039 2850.34 221.914C2842.98 218.854 2837.41 214.883 2833.64 210L2846.14 192.812C2853.17 200.69 2861.7 204.629 2871.72 204.629C2879.21 204.629 2885.04 202.611 2889.2 198.574C2893.37 194.603 2895.45 188.939 2895.45 181.582V175.918C2888.94 183.275 2880.38 186.953 2869.77 186.953C2857.07 186.953 2846.79 182.005 2838.91 172.109C2831.1 162.148 2827.19 148.965 2827.19 132.559V131.387ZM2855.41 133.438C2855.41 143.008 2857.33 150.527 2861.18 155.996C2865.02 161.4 2870.29 164.102 2877 164.102C2885.59 164.102 2891.74 160.879 2895.45 154.434V110C2891.68 103.555 2885.59 100.332 2877.19 100.332C2870.42 100.332 2865.08 103.099 2861.18 108.633C2857.33 114.167 2855.41 122.435 2855.41 133.438ZM2941.45 131.387C2941.45 115.176 2945.29 102.122 2952.97 92.2266C2960.72 82.3307 2971.14 77.3828 2984.22 77.3828C2995.81 77.3828 3004.83 81.3542 3011.27 89.2969L3012.45 79.3359H3038.03V181.484C3038.03 190.729 3035.92 198.77 3031.68 205.605C3027.52 212.441 3021.62 217.65 3014.01 221.23C3006.39 224.811 2997.47 226.602 2987.25 226.602C2979.5 226.602 2971.95 225.039 2964.59 221.914C2957.24 218.854 2951.67 214.883 2947.89 210L2960.39 192.812C2967.43 200.69 2975.95 204.629 2985.98 204.629C2993.47 204.629 2999.29 202.611 3003.46 198.574C3007.63 194.603 3009.71 188.939 3009.71 181.582V175.918C3003.2 183.275 2994.64 186.953 2984.03 186.953C2971.33 186.953 2961.05 182.005 2953.17 172.109C2945.36 162.148 2941.45 148.965 2941.45 132.559V131.387ZM2969.67 133.438C2969.67 143.008 2971.59 150.527 2975.43 155.996C2979.27 161.4 2984.55 164.102 2991.25 164.102C2999.85 164.102 3006 160.879 3009.71 154.434V110C3005.93 103.555 2999.85 100.332 2991.45 100.332C2984.68 100.332 2979.34 103.099 2975.43 108.633C2971.59 114.167 2969.67 122.435 2969.67 133.438ZM3108.44 186.953C3092.95 186.953 3080.32 182.201 3070.55 172.695C3060.85 163.19 3056 150.527 3056 134.707V131.973C3056 121.361 3058.05 111.888 3062.15 103.555C3066.25 95.1562 3072.05 88.7109 3079.54 84.2188C3087.09 79.6615 3095.68 77.3828 3105.32 77.3828C3119.77 77.3828 3131.13 81.9401 3139.4 91.0547C3147.73 100.169 3151.9 113.092 3151.9 129.824V141.348H3084.61C3085.52 148.249 3088.26 153.783 3092.82 157.949C3097.44 162.116 3103.27 164.199 3110.3 164.199C3121.17 164.199 3129.67 160.26 3135.79 152.383L3149.65 167.91C3145.42 173.9 3139.69 178.587 3132.46 181.973C3125.24 185.293 3117.23 186.953 3108.44 186.953ZM3105.22 100.234C3099.62 100.234 3095.06 102.122 3091.55 105.898C3088.1 109.674 3085.88 115.078 3084.91 122.109H3124.16V119.863C3124.03 113.613 3122.34 108.796 3119.09 105.41C3115.83 101.96 3111.21 100.234 3105.22 100.234ZM3163.62 131.387C3163.62 114.915 3167.3 101.797 3174.65 92.0312C3182.07 82.2656 3192.2 77.3828 3205.02 77.3828C3215.31 77.3828 3223.81 81.224 3230.51 88.9062V35H3258.83V185H3233.34L3231.98 173.77C3224.95 182.559 3215.9 186.953 3204.83 186.953C3192.39 186.953 3182.4 182.07 3174.85 172.305C3167.36 162.474 3163.62 148.835 3163.62 131.387ZM3191.84 133.438C3191.84 143.333 3193.57 150.918 3197.02 156.191C3200.47 161.465 3205.48 164.102 3212.05 164.102C3220.78 164.102 3226.93 160.423 3230.51 153.066V111.367C3227 104.01 3220.91 100.332 3212.25 100.332C3198.64 100.332 3191.84 111.367 3191.84 133.438ZM3360.3 185H3331.98V79.3359H3360.3V185ZM3330.32 51.9922C3330.32 47.7604 3331.72 44.2773 3334.52 41.543C3337.38 38.8086 3341.25 37.4414 3346.14 37.4414C3350.95 37.4414 3354.8 38.8086 3357.66 41.543C3360.52 44.2773 3361.96 47.7604 3361.96 51.9922C3361.96 56.2891 3360.49 59.8047 3357.56 62.5391C3354.7 65.2734 3350.89 66.6406 3346.14 66.6406C3341.38 66.6406 3337.54 65.2734 3334.61 62.5391C3331.75 59.8047 3330.32 56.2891 3330.32 51.9922ZM3409.61 79.3359L3410.49 91.543C3418.04 82.1029 3428.17 77.3828 3440.86 77.3828C3452.06 77.3828 3460.39 80.6706 3465.86 87.2461C3471.33 93.8216 3474.13 103.652 3474.26 116.738V185H3446.04V117.422C3446.04 111.432 3444.74 107.103 3442.13 104.434C3439.53 101.699 3435.2 100.332 3429.14 100.332C3421.2 100.332 3415.24 103.717 3411.27 110.488V185H3383.05V79.3359H3409.61ZM3497.21 171.133C3497.21 166.641 3498.71 162.995 3501.7 160.195C3504.76 157.396 3508.57 155.996 3513.13 155.996C3517.75 155.996 3521.56 157.396 3524.55 160.195C3527.61 162.995 3529.14 166.641 3529.14 171.133C3529.14 175.56 3527.65 179.173 3524.65 181.973C3521.66 184.707 3517.82 186.074 3513.13 186.074C3508.51 186.074 3504.7 184.707 3501.7 181.973C3498.71 179.173 3497.21 175.56 3497.21 171.133ZM205.316 371.637C204.21 386.936 198.546 398.98 188.324 407.77C178.168 416.559 164.757 420.953 148.09 420.953C129.861 420.953 115.505 414.833 105.023 402.594C94.6068 390.289 89.3984 373.427 89.3984 352.008V343.316C89.3984 329.645 91.8073 317.6 96.625 307.184C101.443 296.767 108.311 288.792 117.23 283.258C126.215 277.659 136.632 274.859 148.48 274.859C164.887 274.859 178.103 279.254 188.129 288.043C198.155 296.832 203.949 309.169 205.512 325.055H176.215C175.499 315.875 172.927 309.234 168.5 305.133C164.138 300.966 157.465 298.883 148.48 298.883C138.715 298.883 131.391 302.398 126.508 309.43C121.69 316.396 119.216 327.236 119.086 341.949V352.691C119.086 368.056 121.397 379.286 126.02 386.383C130.707 393.479 138.064 397.027 148.09 397.027C157.139 397.027 163.878 394.977 168.305 390.875C172.797 386.708 175.368 380.296 176.02 371.637H205.316ZM252.484 419H224.164V269H252.484V419ZM305.609 419H277.289V313.336H305.609V419ZM275.629 285.992C275.629 281.76 277.029 278.277 279.828 275.543C282.693 272.809 286.566 271.441 291.449 271.441C296.267 271.441 300.108 272.809 302.973 275.543C305.837 278.277 307.27 281.76 307.27 285.992C307.27 290.289 305.805 293.805 302.875 296.539C300.01 299.273 296.202 300.641 291.449 300.641C286.697 300.641 282.855 299.273 279.926 296.539C277.061 293.805 275.629 290.289 275.629 285.992ZM372.895 398.199C378.103 398.199 382.335 396.767 385.59 393.902C388.845 391.038 390.538 387.229 390.668 382.477H417.133C417.068 389.638 415.115 396.214 411.273 402.203C407.432 408.128 402.159 412.75 395.453 416.07C388.812 419.326 381.456 420.953 373.383 420.953C358.279 420.953 346.365 416.168 337.641 406.598C328.917 396.962 324.555 383.681 324.555 366.754V364.898C324.555 348.622 328.884 335.634 337.543 325.934C346.202 316.233 358.083 311.383 373.188 311.383C386.404 311.383 396.983 315.159 404.926 322.711C412.934 330.198 417.003 340.191 417.133 352.691H390.668C390.538 347.223 388.845 342.796 385.59 339.41C382.335 335.96 378.038 334.234 372.699 334.234C366.124 334.234 361.143 336.643 357.758 341.461C354.438 346.214 352.777 353.961 352.777 364.703V367.633C352.777 378.505 354.438 386.318 357.758 391.07C361.078 395.823 366.124 398.199 372.895 398.199ZM471.625 376.617L461.469 386.773V419H433.246V269H461.469V352.105L466.938 345.074L493.988 313.336H527.875L489.691 357.379L531.195 419H498.773L471.625 376.617ZM623.676 287.359V313.336H641.742V334.039H623.676V386.773C623.676 390.68 624.424 393.479 625.922 395.172C627.419 396.865 630.284 397.711 634.516 397.711C637.641 397.711 640.408 397.483 642.816 397.027V418.414C637.283 420.107 631.586 420.953 625.727 420.953C605.935 420.953 595.844 410.96 595.453 390.973V334.039H580.023V313.336H595.453V287.359H623.676ZM685.004 324.859C692.491 315.875 701.898 311.383 713.227 311.383C736.143 311.383 747.764 324.697 748.09 351.324V419H719.867V352.105C719.867 346.051 718.565 341.591 715.961 338.727C713.357 335.797 709.027 334.332 702.973 334.332C694.704 334.332 688.715 337.522 685.004 343.902V419H656.781V269H685.004V324.859ZM799.164 419H770.844V313.336H799.164V419ZM769.184 285.992C769.184 281.76 770.583 278.277 773.383 275.543C776.247 272.809 780.121 271.441 785.004 271.441C789.822 271.441 793.663 272.809 796.527 275.543C799.392 278.277 800.824 281.76 800.824 285.992C800.824 290.289 799.359 293.805 796.43 296.539C793.565 299.273 789.757 300.641 785.004 300.641C780.251 300.641 776.41 299.273 773.48 296.539C770.616 293.805 769.184 290.289 769.184 285.992ZM879.73 389.801C879.73 386.35 878.005 383.648 874.555 381.695C871.169 379.677 865.701 377.887 858.148 376.324C833.018 371.051 820.453 360.374 820.453 344.293C820.453 334.918 824.327 327.105 832.074 320.855C839.887 314.54 850.076 311.383 862.641 311.383C876.052 311.383 886.762 314.54 894.77 320.855C902.842 327.171 906.879 335.374 906.879 345.465H878.656C878.656 341.428 877.354 338.108 874.75 335.504C872.146 332.835 868.077 331.5 862.543 331.5C857.79 331.5 854.112 332.574 851.508 334.723C848.904 336.871 847.602 339.605 847.602 342.926C847.602 346.051 849.066 348.59 851.996 350.543C854.991 352.431 860.004 354.091 867.035 355.523C874.066 356.891 879.991 358.453 884.809 360.211C899.717 365.68 907.172 375.152 907.172 388.629C907.172 398.264 903.038 406.077 894.77 412.066C886.501 417.991 875.824 420.953 862.738 420.953C853.884 420.953 846.007 419.391 839.105 416.266C832.27 413.076 826.898 408.746 822.992 403.277C819.086 397.743 817.133 391.786 817.133 385.406H843.891C844.151 390.419 846.007 394.26 849.457 396.93C852.908 399.599 857.53 400.934 863.324 400.934C868.728 400.934 872.797 399.924 875.531 397.906C878.331 395.823 879.73 393.121 879.73 389.801ZM1005.02 419H976.703V313.336H1005.02V419ZM975.043 285.992C975.043 281.76 976.443 278.277 979.242 275.543C982.107 272.809 985.98 271.441 990.863 271.441C995.681 271.441 999.522 272.809 1002.39 275.543C1005.25 278.277 1006.68 281.76 1006.68 285.992C1006.68 290.289 1005.22 293.805 1002.29 296.539C999.424 299.273 995.616 300.641 990.863 300.641C986.111 300.641 982.27 299.273 979.34 296.539C976.475 293.805 975.043 290.289 975.043 285.992ZM1054.83 313.336L1055.71 325.152C1063.19 315.973 1073.32 311.383 1086.08 311.383C1099.68 311.383 1109.03 316.754 1114.11 327.496C1121.53 316.754 1132.11 311.383 1145.84 311.383C1157.3 311.383 1165.83 314.736 1171.43 321.441C1177.03 328.082 1179.83 338.108 1179.83 351.52V419H1151.51V351.617C1151.51 345.628 1150.34 341.266 1147.99 338.531C1145.65 335.732 1141.51 334.332 1135.59 334.332C1127.13 334.332 1121.27 338.368 1118.01 346.441L1118.11 419H1089.89V351.715C1089.89 345.595 1088.68 341.168 1086.27 338.434C1083.86 335.699 1079.76 334.332 1073.97 334.332C1065.96 334.332 1060.17 337.652 1056.59 344.293V419H1028.36V313.336H1054.83ZM1262.84 419C1261.53 416.461 1260.59 413.303 1260 409.527C1253.17 417.145 1244.28 420.953 1233.34 420.953C1222.99 420.953 1214.4 417.958 1207.56 411.969C1200.79 405.979 1197.41 398.427 1197.41 389.312C1197.41 378.115 1201.54 369.521 1209.81 363.531C1218.14 357.542 1230.15 354.514 1245.84 354.449H1258.83V348.395C1258.83 343.512 1257.56 339.605 1255.02 336.676C1252.55 333.746 1248.61 332.281 1243.21 332.281C1238.45 332.281 1234.71 333.421 1231.98 335.699C1229.31 337.978 1227.97 341.103 1227.97 345.074H1199.75C1199.75 338.954 1201.64 333.29 1205.41 328.082C1209.19 322.874 1214.53 318.805 1221.43 315.875C1228.33 312.88 1236.08 311.383 1244.67 311.383C1257.69 311.383 1268.01 314.671 1275.63 321.246C1283.31 327.757 1287.15 336.936 1287.15 348.785V394.586C1287.22 404.612 1288.62 412.197 1291.35 417.34V419H1262.84ZM1239.5 399.371C1243.66 399.371 1247.5 398.46 1251.02 396.637C1254.54 394.749 1257.14 392.242 1258.83 389.117V370.953H1248.29C1234.16 370.953 1226.64 375.836 1225.73 385.602L1225.63 387.262C1225.63 390.777 1226.87 393.674 1229.34 395.953C1231.81 398.232 1235.2 399.371 1239.5 399.371ZM1304.73 365.387C1304.73 349.176 1308.57 336.122 1316.25 326.227C1324 316.331 1334.42 311.383 1347.5 311.383C1359.09 311.383 1368.11 315.354 1374.55 323.297L1375.73 313.336H1401.31V415.484C1401.31 424.729 1399.2 432.77 1394.96 439.605C1390.8 446.441 1384.91 451.65 1377.29 455.23C1369.67 458.811 1360.75 460.602 1350.53 460.602C1342.78 460.602 1335.23 459.039 1327.88 455.914C1320.52 452.854 1314.95 448.883 1311.18 444L1323.68 426.812C1330.71 434.69 1339.24 438.629 1349.26 438.629C1356.75 438.629 1362.58 436.611 1366.74 432.574C1370.91 428.603 1372.99 422.939 1372.99 415.582V409.918C1366.48 417.275 1357.92 420.953 1347.31 420.953C1334.61 420.953 1324.33 416.005 1316.45 406.109C1308.64 396.148 1304.73 382.965 1304.73 366.559V365.387ZM1332.95 367.438C1332.95 377.008 1334.87 384.527 1338.71 389.996C1342.56 395.4 1347.83 398.102 1354.54 398.102C1363.13 398.102 1369.28 394.879 1372.99 388.434V344C1369.22 337.555 1363.13 334.332 1354.73 334.332C1347.96 334.332 1342.62 337.099 1338.71 342.633C1334.87 348.167 1332.95 356.435 1332.95 367.438ZM1471.72 420.953C1456.23 420.953 1443.6 416.201 1433.83 406.695C1424.13 397.19 1419.28 384.527 1419.28 368.707V365.973C1419.28 355.361 1421.33 345.888 1425.43 337.555C1429.54 329.156 1435.33 322.711 1442.82 318.219C1450.37 313.661 1458.96 311.383 1468.6 311.383C1483.05 311.383 1494.41 315.94 1502.68 325.055C1511.01 334.169 1515.18 347.092 1515.18 363.824V375.348H1447.89C1448.81 382.249 1451.54 387.783 1456.1 391.949C1460.72 396.116 1466.55 398.199 1473.58 398.199C1484.45 398.199 1492.95 394.26 1499.07 386.383L1512.93 401.91C1508.7 407.9 1502.97 412.587 1495.75 415.973C1488.52 419.293 1480.51 420.953 1471.72 420.953ZM1468.5 334.234C1462.9 334.234 1458.34 336.122 1454.83 339.898C1451.38 343.674 1449.16 349.078 1448.19 356.109H1487.45V353.863C1487.32 347.613 1485.62 342.796 1482.37 339.41C1479.11 335.96 1474.49 334.234 1468.5 334.234ZM1614.89 287.359V313.336H1632.95V334.039H1614.89V386.773C1614.89 390.68 1615.64 393.479 1617.13 395.172C1618.63 396.865 1621.49 397.711 1625.73 397.711C1628.85 397.711 1631.62 397.483 1634.03 397.027V418.414C1628.49 420.107 1622.8 420.953 1616.94 420.953C1597.15 420.953 1587.05 410.96 1586.66 390.973V334.039H1571.23V313.336H1586.66V287.359H1614.89ZM1641.35 365.191C1641.35 354.71 1643.37 345.367 1647.41 337.164C1651.44 328.961 1657.24 322.613 1664.79 318.121C1672.41 313.629 1681.23 311.383 1691.25 311.383C1705.51 311.383 1717.13 315.745 1726.12 324.469C1735.17 333.193 1740.21 345.042 1741.25 360.016L1741.45 367.242C1741.45 383.453 1736.92 396.474 1727.88 406.305C1718.83 416.07 1706.68 420.953 1691.45 420.953C1676.21 420.953 1664.04 416.07 1654.93 406.305C1645.88 396.539 1641.35 383.258 1641.35 366.461V365.191ZM1669.57 367.242C1669.57 377.268 1671.46 384.951 1675.24 390.289C1679.01 395.562 1684.42 398.199 1691.45 398.199C1698.29 398.199 1703.62 395.595 1707.46 390.387C1711.31 385.113 1713.23 376.715 1713.23 365.191C1713.23 355.361 1711.31 347.743 1707.46 342.34C1703.62 336.936 1698.22 334.234 1691.25 334.234C1684.35 334.234 1679.01 336.936 1675.24 342.34C1671.46 347.678 1669.57 355.979 1669.57 367.242ZM1804.54 365.387C1804.54 349.176 1808.38 336.122 1816.06 326.227C1823.81 316.331 1834.22 311.383 1847.31 311.383C1858.9 311.383 1867.91 315.354 1874.36 323.297L1875.53 313.336H1901.12V415.484C1901.12 424.729 1899 432.77 1894.77 439.605C1890.6 446.441 1884.71 451.65 1877.09 455.23C1869.48 458.811 1860.56 460.602 1850.34 460.602C1842.59 460.602 1835.04 459.039 1827.68 455.914C1820.32 452.854 1814.76 448.883 1810.98 444L1823.48 426.812C1830.51 434.69 1839.04 438.629 1849.07 438.629C1856.55 438.629 1862.38 436.611 1866.55 432.574C1870.71 428.603 1872.8 422.939 1872.8 415.582V409.918C1866.29 417.275 1857.73 420.953 1847.11 420.953C1834.42 420.953 1824.13 416.005 1816.25 406.109C1808.44 396.148 1804.54 382.965 1804.54 366.559V365.387ZM1832.76 367.438C1832.76 377.008 1834.68 384.527 1838.52 389.996C1842.36 395.4 1847.63 398.102 1854.34 398.102C1862.93 398.102 1869.09 394.879 1872.8 388.434V344C1869.02 337.555 1862.93 334.332 1854.54 334.332C1847.76 334.332 1842.43 337.099 1838.52 342.633C1834.68 348.167 1832.76 356.435 1832.76 367.438ZM1918.5 365.191C1918.5 354.71 1920.52 345.367 1924.55 337.164C1928.59 328.961 1934.39 322.613 1941.94 318.121C1949.55 313.629 1958.38 311.383 1968.4 311.383C1982.66 311.383 1994.28 315.745 2003.27 324.469C2012.32 333.193 2017.36 345.042 2018.4 360.016L2018.6 367.242C2018.6 383.453 2014.07 396.474 2005.02 406.305C1995.97 416.07 1983.83 420.953 1968.6 420.953C1953.36 420.953 1941.19 416.07 1932.07 406.305C1923.02 396.539 1918.5 383.258 1918.5 366.461V365.191ZM1946.72 367.242C1946.72 377.268 1948.61 384.951 1952.39 390.289C1956.16 395.562 1961.57 398.199 1968.6 398.199C1975.43 398.199 1980.77 395.595 1984.61 390.387C1988.45 385.113 1990.38 376.715 1990.38 365.191C1990.38 355.361 1988.45 347.743 1984.61 342.34C1980.77 336.936 1975.37 334.234 1968.4 334.234C1961.5 334.234 1956.16 336.936 1952.39 342.34C1948.61 347.678 1946.72 355.979 1946.72 367.242ZM2119.57 287.359V313.336H2137.64V334.039H2119.57V386.773C2119.57 390.68 2120.32 393.479 2121.82 395.172C2123.32 396.865 2126.18 397.711 2130.41 397.711C2133.54 397.711 2136.31 397.483 2138.71 397.027V418.414C2133.18 420.107 2127.48 420.953 2121.62 420.953C2101.83 420.953 2091.74 410.96 2091.35 390.973V334.039H2075.92V313.336H2091.35V287.359H2119.57ZM2146.04 365.191C2146.04 354.71 2148.06 345.367 2152.09 337.164C2156.13 328.961 2161.92 322.613 2169.48 318.121C2177.09 313.629 2185.92 311.383 2195.94 311.383C2210.2 311.383 2221.82 315.745 2230.8 324.469C2239.85 333.193 2244.9 345.042 2245.94 360.016L2246.14 367.242C2246.14 383.453 2241.61 396.474 2232.56 406.305C2223.51 416.07 2211.37 420.953 2196.14 420.953C2180.9 420.953 2168.73 416.07 2159.61 406.305C2150.56 396.539 2146.04 383.258 2146.04 366.461V365.191ZM2174.26 367.242C2174.26 377.268 2176.15 384.951 2179.93 390.289C2183.7 395.562 2189.11 398.199 2196.14 398.199C2202.97 398.199 2208.31 395.595 2212.15 390.387C2215.99 385.113 2217.91 376.715 2217.91 365.191C2217.91 355.361 2215.99 347.743 2212.15 342.34C2208.31 336.936 2202.91 334.234 2195.94 334.234C2189.04 334.234 2183.7 336.936 2179.93 342.34C2176.15 347.678 2174.26 355.979 2174.26 367.242ZM2347.11 287.359V313.336H2365.18V334.039H2347.11V386.773C2347.11 390.68 2347.86 393.479 2349.36 395.172C2350.86 396.865 2353.72 397.711 2357.95 397.711C2361.08 397.711 2363.85 397.483 2366.25 397.027V418.414C2360.72 420.107 2355.02 420.953 2349.16 420.953C2329.37 420.953 2319.28 410.96 2318.89 390.973V334.039H2303.46V313.336H2318.89V287.359H2347.11ZM2408.44 324.859C2415.93 315.875 2425.34 311.383 2436.66 311.383C2459.58 311.383 2471.2 324.697 2471.53 351.324V419H2443.3V352.105C2443.3 346.051 2442 341.591 2439.4 338.727C2436.79 335.797 2432.46 334.332 2426.41 334.332C2418.14 334.332 2412.15 337.522 2408.44 343.902V419H2380.22V269H2408.44V324.859ZM2541.45 420.953C2525.95 420.953 2513.32 416.201 2503.56 406.695C2493.86 397.19 2489.01 384.527 2489.01 368.707V365.973C2489.01 355.361 2491.06 345.888 2495.16 337.555C2499.26 329.156 2505.06 322.711 2512.54 318.219C2520.1 313.661 2528.69 311.383 2538.32 311.383C2552.78 311.383 2564.14 315.94 2572.41 325.055C2580.74 334.169 2584.91 347.092 2584.91 363.824V375.348H2517.62C2518.53 382.249 2521.27 387.783 2525.82 391.949C2530.45 396.116 2536.27 398.199 2543.3 398.199C2554.18 398.199 2562.67 394.26 2568.79 386.383L2582.66 401.91C2578.43 407.9 2572.7 412.587 2565.47 415.973C2558.25 419.293 2550.24 420.953 2541.45 420.953ZM2538.23 334.234C2532.63 334.234 2528.07 336.122 2524.55 339.898C2521.1 343.674 2518.89 349.078 2517.91 356.109H2557.17V353.863C2557.04 347.613 2555.35 342.796 2552.09 339.41C2548.84 335.96 2544.22 334.234 2538.23 334.234ZM2680.61 419H2652.29V269H2680.61V419ZM2699.55 365.191C2699.55 354.71 2701.57 345.367 2705.61 337.164C2709.65 328.961 2715.44 322.613 2722.99 318.121C2730.61 313.629 2739.43 311.383 2749.46 311.383C2763.71 311.383 2775.34 315.745 2784.32 324.469C2793.37 333.193 2798.42 345.042 2799.46 360.016L2799.65 367.242C2799.65 383.453 2795.13 396.474 2786.08 406.305C2777.03 416.07 2764.89 420.953 2749.65 420.953C2734.42 420.953 2722.24 416.07 2713.13 406.305C2704.08 396.539 2699.55 383.258 2699.55 366.461V365.191ZM2727.78 367.242C2727.78 377.268 2729.67 384.951 2733.44 390.289C2737.22 395.562 2742.62 398.199 2749.65 398.199C2756.49 398.199 2761.83 395.595 2765.67 390.387C2769.51 385.113 2771.43 376.715 2771.43 365.191C2771.43 355.361 2769.51 347.743 2765.67 342.34C2761.83 336.936 2756.42 334.234 2749.46 334.234C2742.56 334.234 2737.22 336.936 2733.44 342.34C2729.67 347.678 2727.78 355.979 2727.78 367.242ZM2812.93 365.387C2812.93 349.176 2816.77 336.122 2824.46 326.227C2832.2 316.331 2842.62 311.383 2855.71 311.383C2867.3 311.383 2876.31 315.354 2882.76 323.297L2883.93 313.336H2909.52V415.484C2909.52 424.729 2907.4 432.77 2903.17 439.605C2899 446.441 2893.11 451.65 2885.49 455.23C2877.88 458.811 2868.96 460.602 2858.73 460.602C2850.99 460.602 2843.43 459.039 2836.08 455.914C2828.72 452.854 2823.15 448.883 2819.38 444L2831.88 426.812C2838.91 434.69 2847.44 438.629 2857.46 438.629C2864.95 438.629 2870.78 436.611 2874.95 432.574C2879.11 428.603 2881.2 422.939 2881.2 415.582V409.918C2874.68 417.275 2866.12 420.953 2855.51 420.953C2842.82 420.953 2832.53 416.005 2824.65 406.109C2816.84 396.148 2812.93 382.965 2812.93 366.559V365.387ZM2841.16 367.438C2841.16 377.008 2843.08 384.527 2846.92 389.996C2850.76 395.4 2856.03 398.102 2862.74 398.102C2871.33 398.102 2877.48 394.879 2881.2 388.434V344C2877.42 337.555 2871.33 334.332 2862.93 334.332C2856.16 334.332 2850.82 337.099 2846.92 342.633C2843.08 348.167 2841.16 356.435 2841.16 367.438ZM2961.08 419H2932.76V313.336H2961.08V419ZM2931.1 285.992C2931.1 281.76 2932.5 278.277 2935.3 275.543C2938.16 272.809 2942.04 271.441 2946.92 271.441C2951.74 271.441 2955.58 272.809 2958.44 275.543C2961.31 278.277 2962.74 281.76 2962.74 285.992C2962.74 290.289 2961.27 293.805 2958.34 296.539C2955.48 299.273 2951.67 300.641 2946.92 300.641C2942.17 300.641 2938.32 299.273 2935.39 296.539C2932.53 293.805 2931.1 290.289 2931.1 285.992ZM3010.39 313.336L3011.27 325.543C3018.83 316.103 3028.95 311.383 3041.64 311.383C3052.84 311.383 3061.18 314.671 3066.64 321.246C3072.11 327.822 3074.91 337.652 3075.04 350.738V419H3046.82V351.422C3046.82 345.432 3045.52 341.103 3042.91 338.434C3040.31 335.699 3035.98 334.332 3029.93 334.332C3021.98 334.332 3016.03 337.717 3012.05 344.488V419H2983.83V313.336H3010.39ZM3241.45 367.145C3241.45 383.421 3237.74 396.474 3230.32 406.305C3222.96 416.07 3213 420.953 3200.43 420.953C3189.76 420.953 3181.13 417.242 3174.55 409.82V459.625H3146.33V313.336H3172.5L3173.48 323.688C3180.32 315.484 3189.24 311.383 3200.24 311.383C3213.26 311.383 3223.38 316.201 3230.61 325.836C3237.84 335.471 3241.45 348.753 3241.45 365.68V367.145ZM3213.23 365.094C3213.23 355.263 3211.47 347.678 3207.95 342.34C3204.5 337.001 3199.46 334.332 3192.82 334.332C3183.96 334.332 3177.88 337.717 3174.55 344.488V387.75C3178.01 394.716 3184.16 398.199 3193.01 398.199C3206.49 398.199 3213.23 387.164 3213.23 365.094ZM3320.26 419C3318.96 416.461 3318.01 413.303 3317.43 409.527C3310.59 417.145 3301.7 420.953 3290.77 420.953C3280.41 420.953 3271.82 417.958 3264.98 411.969C3258.21 405.979 3254.83 398.427 3254.83 389.312C3254.83 378.115 3258.96 369.521 3267.23 363.531C3275.56 357.542 3287.58 354.514 3303.27 354.449H3316.25V348.395C3316.25 343.512 3314.98 339.605 3312.45 336.676C3309.97 333.746 3306.03 332.281 3300.63 332.281C3295.88 332.281 3292.13 333.421 3289.4 335.699C3286.73 337.978 3285.39 341.103 3285.39 345.074H3257.17C3257.17 338.954 3259.06 333.29 3262.84 328.082C3266.61 322.874 3271.95 318.805 3278.85 315.875C3285.75 312.88 3293.5 311.383 3302.09 311.383C3315.11 311.383 3325.43 314.671 3333.05 321.246C3340.73 327.757 3344.57 336.936 3344.57 348.785V394.586C3344.64 404.612 3346.04 412.197 3348.77 417.34V419H3320.26ZM3296.92 399.371C3301.08 399.371 3304.93 398.46 3308.44 396.637C3311.96 394.749 3314.56 392.242 3316.25 389.117V370.953H3305.71C3291.58 370.953 3284.06 375.836 3283.15 385.602L3283.05 387.262C3283.05 390.777 3284.29 393.674 3286.76 395.953C3289.24 398.232 3292.62 399.371 3296.92 399.371ZM3362.15 365.387C3362.15 349.176 3365.99 336.122 3373.68 326.227C3381.42 316.331 3391.84 311.383 3404.93 311.383C3416.51 311.383 3425.53 315.354 3431.98 323.297L3433.15 313.336H3458.73V415.484C3458.73 424.729 3456.62 432.77 3452.39 439.605C3448.22 446.441 3442.33 451.65 3434.71 455.23C3427.09 458.811 3418.17 460.602 3407.95 460.602C3400.21 460.602 3392.65 459.039 3385.3 455.914C3377.94 452.854 3372.37 448.883 3368.6 444L3381.1 426.812C3388.13 434.69 3396.66 438.629 3406.68 438.629C3414.17 438.629 3420 436.611 3424.16 432.574C3428.33 428.603 3430.41 422.939 3430.41 415.582V409.918C3423.9 417.275 3415.34 420.953 3404.73 420.953C3392.04 420.953 3381.75 416.005 3373.87 406.109C3366.06 396.148 3362.15 382.965 3362.15 366.559V365.387ZM3390.38 367.438C3390.38 377.008 3392.3 384.527 3396.14 389.996C3399.98 395.4 3405.25 398.102 3411.96 398.102C3420.55 398.102 3426.7 394.879 3430.41 388.434V344C3426.64 337.555 3420.55 334.332 3412.15 334.332C3405.38 334.332 3400.04 337.099 3396.14 342.633C3392.3 348.167 3390.38 356.435 3390.38 367.438ZM3529.14 420.953C3513.65 420.953 3501.02 416.201 3491.25 406.695C3481.55 397.19 3476.7 384.527 3476.7 368.707V365.973C3476.7 355.361 3478.75 345.888 3482.86 337.555C3486.96 329.156 3492.75 322.711 3500.24 318.219C3507.79 313.661 3516.38 311.383 3526.02 311.383C3540.47 311.383 3551.83 315.94 3560.1 325.055C3568.43 334.169 3572.6 347.092 3572.6 363.824V375.348H3505.32C3506.23 382.249 3508.96 387.783 3513.52 391.949C3518.14 396.116 3523.97 398.199 3531 398.199C3541.87 398.199 3550.37 394.26 3556.49 386.383L3570.36 401.91C3566.12 407.9 3560.39 412.587 3553.17 415.973C3545.94 419.293 3537.93 420.953 3529.14 420.953ZM3525.92 334.234C3520.32 334.234 3515.77 336.122 3512.25 339.898C3508.8 343.674 3506.59 349.078 3505.61 356.109H3544.87V353.863C3544.74 347.613 3543.04 342.796 3539.79 339.41C3536.53 335.96 3531.91 334.234 3525.92 334.234ZM3590.18 405.133C3590.18 400.641 3591.68 396.995 3594.67 394.195C3597.73 391.396 3601.54 389.996 3606.1 389.996C3610.72 389.996 3614.53 391.396 3617.52 394.195C3620.58 396.995 3622.11 400.641 3622.11 405.133C3622.11 409.56 3620.62 413.173 3617.62 415.973C3614.63 418.707 3610.79 420.074 3606.1 420.074C3601.48 420.074 3597.67 418.707 3594.67 415.973C3591.68 413.173 3590.18 409.56 3590.18 405.133Z" fill="#F3F3F3"/>
</g>
<defs>
<clipPath id="clip0">
<rect width="3647" height="2718" fill="white"/>
</clipPath>
</defs>
</svg>
