<svg width="4267" height="2667" viewBox="0 0 4267 2667" fill="none" xmlns="http://www.w3.org/2000/svg">
<path d="M568.222 2414.03C568.222 2414.03 124.474 1866.65 341.344 1303.14C482.702 935.833 1012.96 734.564 1312.22 935.833C1439.68 1021.56 1848.59 938.722 2066.93 583.823C2491.2 -105.829 4135.44 298.703 3702.39 1371.87C3504.52 1862.2 4099.41 1902.91 3830.64 2415.11L568.222 2414.03" fill="#898989"/>
<path d="M1947.84 1441.65L1556.83 1864.28L993.401 1343L993.395 1342.99L755.995 1123.35L1146.99 700.733L1590.27 1110.83L1947.84 1441.65" fill="#CFE7FF"/>
<path d="M1582.03 1725.15L1810.95 1477.71C1826.48 1460.91 1825.47 1434.69 1808.67 1419.16L1170.23 828.48C1153.13 812.653 1126.44 813.694 1110.62 830.787L882.612 1077.24C866.925 1094.2 867.953 1120.67 884.909 1136.35L1523.77 1727.4C1540.48 1742.87 1566.56 1741.85 1582.03 1725.15V1725.15ZM1858.33 1446.55L1554.77 1774.65L834.963 1108.69L1138.52 780.587L1858.33 1446.55" fill="#C0D8FB"/>
<path d="M1264.97 1365.89C1216.22 1320.8 1213.26 1244.71 1258.37 1195.96C1303.47 1147.2 1379.56 1144.24 1428.31 1189.35C1477.07 1234.45 1480.01 1310.55 1434.92 1359.29C1389.81 1408.05 1313.72 1411 1264.97 1365.89" fill="#C0D8FB"/>
<path d="M2101.22 1362.86L1539.62 1489.83L1370.38 741.127V741.112L1299.07 425.666L1860.63 298.711L1993.79 887.722L2101.22 1362.86" fill="#DCEAFF"/>
<path d="M1639.18 1389.4L1967.98 1315.06C1990.3 1310.02 2004.3 1287.83 1999.26 1265.52L1807.47 417.136C1802.34 394.42 1779.75 380.168 1757.03 385.306L1429.54 459.341C1407.02 464.436 1392.88 486.826 1397.98 509.357L1589.88 1358.28C1594.89 1380.48 1616.97 1394.41 1639.18 1389.4ZM2024.68 1316.21L1588.7 1414.77L1372.47 458.279L1808.46 359.717L2024.68 1316.21" fill="#C0D8FB"/>
<path d="M1581.25 913.773C1566.61 848.987 1607.25 784.6 1672.04 769.947C1736.83 755.307 1801.21 795.947 1815.85 860.733C1830.51 925.52 1789.85 989.907 1725.08 1004.55C1660.29 1019.2 1595.91 978.547 1581.25 913.773Z" fill="#C0D8FB"/>
<path d="M3219.07 1982.79L2620.22 1772.76L2900.24 974.414V974.4L3018.23 638.023L3617.04 848.048L3396.75 1476.13L3219.07 1982.79Z" fill="#DCEAFF"/>
<path d="M2771.97 1737.2L3122.56 1860.17C3146.36 1868.52 3172.43 1856 3180.77 1832.2L3498.06 927.567C3506.55 903.34 3493.81 876.81 3469.58 868.315L3120.37 745.836C3096.36 737.41 3070.05 750.056 3061.62 774.082L2744.12 1679.3C2735.82 1702.97 2748.28 1728.91 2771.97 1737.2V1737.2ZM3174.86 1894.43L2709.97 1731.36L3067.67 711.445L3532.58 874.505L3174.86 1894.43" fill="#C0D8FB"/>
<path d="M2996.2 1259.06C3020.41 1189.97 3096.06 1153.62 3165.14 1177.85C3234.23 1202.07 3270.58 1277.72 3246.37 1346.8C3222.13 1415.88 3146.48 1452.24 3077.4 1428.01C3008.34 1403.77 2971.98 1328.14 2996.2 1259.06" fill="#C0D8FB"/>
<path d="M1506.83 1520.67V1691.61C1506.83 1724.33 1480.04 1751.11 1447.32 1751.11H1324.83C1292.11 1751.11 1265.33 1724.33 1265.33 1691.61V1520.67C1265.33 1487.95 1292.11 1461.17 1324.83 1461.17H1447.32C1480.04 1461.17 1506.83 1487.95 1506.83 1520.67Z" fill="#88A7D6"/>
<path d="M1506.83 1520.67V1615.91C1506.83 1648.61 1480.04 1675.4 1447.32 1675.4H1324.83C1292.11 1675.4 1265.33 1648.61 1265.33 1615.91V1520.67C1265.33 1487.95 1292.11 1461.17 1324.83 1461.17H1447.32C1480.04 1461.17 1506.83 1487.95 1506.83 1520.67Z" fill="#95C0E8"/>
<path d="M2864.02 1606.13C2864.02 1693.61 2846.13 1777.09 2813.82 1853.13C2716.9 2081.25 2490.29 2242.28 2227.89 2242.28H2046.02C1813.84 2242.28 1609.68 2116.21 1498.59 1929.16C1442.28 1834.33 1409.88 1723.84 1409.88 1606.13C1409.88 1518.66 1427.78 1435.18 1460.08 1359.13C1556.99 1131.03 1783.62 970.005 2046.02 970.005H2227.89C2466.5 970.005 2675.54 1103.16 2784.32 1298.84C2835.08 1390.08 2864.02 1494.89 2864.02 1606.13" fill="#88A7D6"/>
<path d="M2784.31 1298.84C2799.41 1372.22 2787.54 1477.08 2768.23 1532.62C2639.86 1901.84 2338.1 1968.51 2029.65 1996.57C1810.32 2016.53 1498.58 1929.16 1498.58 1929.16C1442.28 1834.34 1409.88 1723.84 1409.88 1606.14C1409.88 1518.67 1427.77 1435.19 1460.08 1359.14C1556.98 1131.03 1783.62 970.012 2046 970.012H2227.88C2466.48 970.012 2675.53 1103.17 2784.31 1298.84" fill="#95C0E8"/>
<path d="M1971.01 1129.37H1720.81C1695.57 1129.37 1675.13 1114.05 1675.13 1095.16V753.533C1675.13 747.707 1676.96 742.4 1680.12 737.8C1692.36 720.04 1724.52 712.72 1748.45 726.28C1843.45 780.12 1999.08 897.16 2016.59 1092.83C2018.37 1112.6 1997.45 1129.37 1971.01 1129.37" fill="#95C0E8"/>
<path d="M1730.99 1129.37H1720.81C1695.57 1129.37 1675.13 1114.05 1675.13 1095.16V753.533C1675.13 747.707 1676.96 742.4 1680.12 737.8C1681.2 738.72 1682.24 739.733 1683.21 740.813C1737.56 801.32 1815.89 920.187 1793.83 1086.71C1790.63 1110.91 1763.47 1129.37 1730.99 1129.37" fill="#88A7D6"/>
<path d="M1599.11 1357.75C1599.11 1337.16 1615.8 1320.47 1636.39 1320.47C1656.97 1320.47 1673.67 1337.16 1673.67 1357.75C1673.67 1378.33 1656.97 1395.03 1636.39 1395.03C1615.8 1395.03 1599.11 1378.33 1599.11 1357.75Z" fill="#2B478B"/>
<path d="M2335.53 1972.2L2276.19 2357.49C2268.31 2387.35 2290.82 2416.56 2321.68 2416.56H2477.62C2511.04 2416.56 2541.68 2397.89 2557 2368.17L2799.34 1884.76L2335.53 1972.2Z" fill="#88A7D6"/>
<path d="M1980.47 1978.83L2028.07 2357.49C2035.95 2387.35 2013.44 2416.56 1982.56 2416.56H1826.63C1793.2 2416.56 1762.57 2397.89 1747.27 2368.17L1498.59 1929.16L1980.47 1978.83Z" fill="#88A7D6"/>
<path d="M2799.42 1605.91L2799.34 1606.13L2799.42 1605.91ZM3073.46 1541.32C3059.29 1551.79 3046.54 1563.95 3035.39 1577.67C3008.14 1611.27 2991.43 1653.2 2989.55 1692.72C2988.08 1724.09 2997.06 1748.65 3011.44 1752.44C3025.98 1756.25 3046.87 1736.74 3062.23 1704.94C3079.07 1670.12 3087.13 1626.34 3083.79 1587.79C3082.57 1573.95 3079.68 1557.75 3073.46 1541.32V1541.32ZM3015.55 1779.04C3011.95 1779.04 3008.37 1778.59 3004.81 1777.65C2977.15 1770.37 2961.34 1737.36 2963.51 1691.5C2965.64 1646.53 2984.46 1599.05 3015.16 1561.24C3028.74 1544.51 3044.41 1529.87 3061.9 1517.48C3053.64 1503.87 3042.51 1490.81 3027.52 1479.56C3002.03 1460.45 2975.7 1454.95 2947.02 1462.72C2869.92 1483.65 2804.6 1593.84 2799.3 1606.23C2796.91 1612.85 2789.65 1616.39 2782.92 1614.15C2776.1 1611.88 2772.4 1604.5 2774.67 1597.67C2776.98 1590.79 2796.07 1557.9 2822.7 1525.32C2869.12 1468.55 2909.56 1447.03 2935.32 1438.99C2973.51 1427.05 3009.82 1433.7 3043.15 1458.71C3059.72 1471.12 3073.4 1486.2 3084 1503.56C3110.47 1488.83 3140.27 1478.59 3172.68 1473.28C3179.8 1472.11 3186.5 1476.93 3187.65 1484.03C3188.82 1491.14 3183.99 1497.84 3176.91 1499C3147.15 1503.88 3119.9 1513.29 3095.84 1526.84C3103.21 1544.67 3107.91 1564.34 3109.75 1585.53C3113.54 1629.2 3104.78 1676.85 3085.72 1716.29C3066.3 1756.46 3040.71 1779.04 3015.55 1779.04" fill="#88A7D6"/>
<path d="M1960.41 2369.83V2394.65C1960.41 2396.61 1959.69 2398.45 1958.45 2399.99C1957.16 2401.59 1955.29 2402.85 1953.12 2403.56C1952.44 2403.8 1951.75 2403.96 1951.03 2404.05C1950.37 2404.16 1949.71 2404.21 1949.01 2404.21H1478.36C1472.67 2404.21 1467.92 2400.67 1467.08 2396.08C1467.04 2395.77 1466.99 2395.45 1466.97 2395.13C1466.97 2394.97 1466.96 2394.81 1466.96 2394.65V2369.83C1466.96 2369.67 1466.97 2369.51 1466.97 2369.35C1466.99 2369.03 1467.04 2368.72 1467.08 2368.4C1467.92 2363.81 1472.67 2360.28 1478.36 2360.28H1949.01C1949.71 2360.28 1950.37 2360.32 1951.03 2360.43C1951.75 2360.52 1952.44 2360.71 1953.12 2360.92C1955.29 2361.63 1957.16 2362.89 1958.45 2364.49C1959.69 2366.03 1960.41 2367.87 1960.41 2369.83" fill="#FFB93E"/>
<path d="M1729.29 2404.21H1477.13C1472.47 2404.21 1468.53 2401.19 1467.36 2397.13C1467.24 2396.79 1467.15 2396.44 1467.08 2396.08C1467.04 2395.77 1466.99 2395.45 1466.97 2395.13C1466.97 2394.97 1466.96 2394.81 1466.96 2394.65V2369.83C1466.96 2369.67 1466.97 2369.51 1466.97 2369.35C1466.99 2369.03 1467.04 2368.72 1467.08 2368.4C1467.15 2368.04 1467.24 2367.69 1467.36 2367.35C1468.53 2363.29 1472.47 2360.28 1477.13 2360.28H1698.33C1701.85 2373.21 1710.09 2391.09 1729.29 2404.21" fill="#FFA412"/>
<path d="M1903.13 2404.21H1897.79V2360.27H1903.13V2404.21Z" fill="#FFA412"/>
<path d="M1885.03 2404.21H1879.68V2360.27H1885.03V2404.21Z" fill="#FFA412"/>
<path d="M1863.32 2404.21H1857.97V2360.27H1863.32V2404.21Z" fill="#FFA412"/>
<path d="M1830.03 2404.21H1824.68V2360.27H1830.03V2404.21Z" fill="#FFA412"/>
<path d="M1794.84 2404.21H1789.49V2360.27H1794.84V2404.21Z" fill="#FFA412"/>
<path d="M1740.88 2404.21H1735.53V2360.27H1740.88V2404.21Z" fill="#FFA412"/>
<path d="M1690.36 2404.21H1685.01V2360.27H1690.36V2404.21Z" fill="#FFA412"/>
<path d="M1645.25 2404.21H1639.89V2360.27H1645.25V2404.21Z" fill="#FFA412"/>
<path d="M1920.37 2404.21H1915.03V2360.27H1920.37V2404.21Z" fill="#FFA412"/>
<path d="M1931.76 2404.21H1926.41V2360.27H1931.76V2404.21Z" fill="#FFA412"/>
<path d="M1942.76 2404.21H1937.41V2360.27H1942.76V2404.21Z" fill="#FFA412"/>
<path d="M1951.03 2360.43V2404.05C1950.37 2404.16 1949.71 2404.21 1949.03 2404.21H1945.68V2360.27H1949.03C1949.71 2360.27 1950.37 2360.32 1951.03 2360.43Z" fill="#FFA412"/>
<path d="M1958.45 2364.49V2399.99C1957.16 2401.6 1955.29 2402.85 1953.11 2403.56V2360.92C1955.29 2361.63 1957.16 2362.89 1958.45 2364.49Z" fill="#FFA412"/>
<path d="M1910.08 2325.89V2350.71C1910.08 2352.69 1909.36 2354.52 1908.15 2356.05C1907.81 2356.45 1907.45 2356.83 1907.07 2357.19C1905.89 2358.24 1904.44 2359.09 1902.79 2359.63C1902.13 2359.85 1901.43 2360.01 1900.71 2360.11C1900.05 2360.21 1899.39 2360.28 1898.71 2360.28H1428.03C1422.36 2360.28 1417.6 2356.72 1416.76 2352.13C1416.72 2351.83 1416.68 2351.51 1416.67 2351.2C1416.65 2351.04 1416.65 2350.88 1416.65 2350.71V2325.89C1416.65 2325.73 1416.65 2325.56 1416.67 2325.4C1416.68 2325.09 1416.72 2324.79 1416.76 2324.47C1417.6 2319.88 1422.36 2316.33 1428.03 2316.33H1898.71C1899 2316.33 1899.31 2316.35 1899.6 2316.37L1899.92 2316.4H1899.99C1900.12 2316.4 1900.27 2316.41 1900.41 2316.44L1900.71 2316.49C1901.43 2316.59 1902.13 2316.75 1902.79 2316.97C1903.19 2317.11 1903.57 2317.25 1903.93 2317.41H1903.95C1904.2 2317.53 1904.45 2317.65 1904.69 2317.77C1904.83 2317.84 1904.97 2317.93 1905.09 2318C1905.23 2318.08 1905.36 2318.15 1905.48 2318.24C1905.99 2318.53 1906.44 2318.87 1906.87 2319.25C1907.01 2319.37 1907.13 2319.51 1907.27 2319.61L1907.49 2319.84L1907.61 2319.97L1907.72 2320.08C1907.87 2320.23 1908.01 2320.39 1908.15 2320.56C1909.36 2322.09 1910.08 2323.92 1910.08 2325.89" fill="#FFB93E"/>
<path d="M1678.96 2360.28H1426.81C1422.13 2360.28 1418.21 2357.24 1417.04 2353.17C1416.93 2352.83 1416.83 2352.48 1416.76 2352.13C1416.72 2351.83 1416.68 2351.51 1416.67 2351.2C1416.65 2351.04 1416.65 2350.88 1416.65 2350.71V2325.89C1416.65 2325.73 1416.65 2325.56 1416.67 2325.4C1416.68 2325.09 1416.72 2324.79 1416.76 2324.47C1416.83 2324.12 1416.93 2323.76 1417.04 2323.43C1418.21 2319.36 1422.13 2316.33 1426.81 2316.33H1648C1648.09 2316.69 1648.19 2317.05 1648.31 2317.41C1652 2330.25 1660.29 2347.52 1678.96 2360.28" fill="#FFA412"/>
<path d="M1852.81 2360.27H1847.47V2316.33H1852.81V2360.27Z" fill="#FFA412"/>
<path d="M1834.71 2360.27H1829.36V2316.33H1834.71V2360.27Z" fill="#FFA412"/>
<path d="M1813 2360.27H1807.64V2316.33H1813V2360.27Z" fill="#FFA412"/>
<path d="M1779.71 2360.27H1774.36V2316.33H1779.71V2360.27Z" fill="#FFA412"/>
<path d="M1744.52 2360.27H1739.16V2316.33H1744.52V2360.27Z" fill="#FFA412"/>
<path d="M1690.56 2360.27H1685.21V2316.33H1690.56V2360.27Z" fill="#FFA412"/>
<path d="M1640.04 2360.27H1634.69V2316.33H1640.04V2360.27Z" fill="#FFA412"/>
<path d="M1594.92 2360.27H1589.57V2316.33H1594.92V2360.27Z" fill="#FFA412"/>
<path d="M1870.05 2360.27H1864.71V2316.33H1870.05V2360.27Z" fill="#FFA412"/>
<path d="M1881.44 2360.27H1876.09V2316.33H1881.44V2360.27Z" fill="#FFA412"/>
<path d="M1892.44 2360.27H1887.08V2316.33H1892.44V2360.27Z" fill="#FFA412"/>
<path d="M1900.71 2316.48V2360.12C1900.05 2360.21 1899.39 2360.27 1898.69 2360.27H1895.36V2316.33H1898.69C1899.39 2316.33 1900.05 2316.39 1900.71 2316.48Z" fill="#FFA412"/>
<path d="M1908.13 2320.56V2356.05C1906.84 2357.65 1904.97 2358.92 1902.79 2359.63V2316.97C1904.97 2317.68 1906.84 2318.95 1908.13 2320.56Z" fill="#FFA412"/>
<path d="M1934.4 2283.04V2307.85C1934.4 2309.83 1933.68 2311.67 1932.44 2313.2C1931.16 2314.8 1929.31 2316.07 1927.11 2316.77C1926.45 2316.99 1925.75 2317.15 1925.03 2317.27C1924.37 2317.36 1923.69 2317.41 1923.03 2317.41H1452.35C1450.47 2317.41 1448.67 2317.01 1447.09 2316.33C1443.99 2314.96 1441.69 2312.4 1441.11 2309.39C1441.05 2309.19 1441.04 2308.97 1441.01 2308.77C1441 2308.64 1440.99 2308.49 1440.99 2308.35C1440.97 2308.19 1440.97 2308.01 1440.97 2307.85V2283.04C1440.97 2282.88 1440.97 2282.72 1440.99 2282.55C1441 2282.24 1441.03 2281.92 1441.08 2281.63C1441.92 2277.03 1446.67 2273.48 1452.35 2273.48H1923.03C1923.69 2273.48 1924.37 2273.52 1925.03 2273.63C1925.75 2273.73 1926.45 2273.89 1927.11 2274.12C1929.31 2274.84 1931.16 2276.09 1932.44 2277.71C1933.68 2279.23 1934.4 2281.07 1934.4 2283.04" fill="#FFB93E"/>
<path d="M1703.28 2317.41H1451.13C1449.44 2317.41 1447.85 2317.01 1446.45 2316.33C1443.65 2314.96 1441.61 2312.4 1441.11 2309.39C1441.05 2309.19 1441.04 2308.97 1441.01 2308.77C1441 2308.64 1440.99 2308.49 1440.99 2308.35C1440.97 2308.19 1440.97 2308.01 1440.97 2307.85V2283.04C1440.97 2282.88 1440.97 2282.72 1440.99 2282.55C1441 2282.24 1441.03 2281.92 1441.08 2281.63C1441.15 2281.28 1441.24 2280.93 1441.35 2280.6C1442.49 2276.52 1446.44 2273.48 1451.13 2273.48H1672.32C1675.76 2286.05 1683.64 2303.33 1701.75 2316.33C1702.24 2316.69 1702.76 2317.07 1703.28 2317.41" fill="#FFA412"/>
<path d="M1877.13 2317.41H1871.79V2273.48H1877.13V2317.41Z" fill="#FFA412"/>
<path d="M1859.03 2317.41H1853.68V2273.48H1859.03V2317.41Z" fill="#FFA412"/>
<path d="M1837.31 2317.41H1831.96V2273.48H1837.31V2317.41Z" fill="#FFA412"/>
<path d="M1804.03 2317.41H1798.68V2273.48H1804.03V2317.41Z" fill="#FFA412"/>
<path d="M1768.83 2317.41H1763.48V2273.48H1768.83V2317.41Z" fill="#FFA412"/>
<path d="M1714.88 2317.41H1709.53V2273.48H1714.88V2317.41Z" fill="#FFA412"/>
<path d="M1664.36 2317.41H1659V2273.48H1664.36V2317.41Z" fill="#FFA412"/>
<path d="M1619.24 2317.41H1613.89V2273.48H1619.24V2317.41Z" fill="#FFA412"/>
<path d="M1894.37 2317.41H1889.03V2273.48H1894.37V2317.41Z" fill="#FFA412"/>
<path d="M1905.76 2317.41H1900.41V2273.48H1905.76V2317.41Z" fill="#FFA412"/>
<path d="M1916.75 2317.41H1911.4V2273.48H1916.75V2317.41Z" fill="#FFA412"/>
<path d="M1925.03 2273.63V2317.27C1924.37 2317.36 1923.71 2317.41 1923.01 2317.41H1919.68V2273.48H1923.01C1923.71 2273.48 1924.37 2273.53 1925.03 2273.63Z" fill="#FFA412"/>
<path d="M1932.45 2277.69V2313.19C1931.16 2314.8 1929.29 2316.07 1927.11 2316.77V2274.12C1929.29 2274.83 1931.16 2276.09 1932.45 2277.69Z" fill="#FFA412"/>
<path d="M1945.68 2239.11V2263.91C1945.68 2265.89 1944.96 2267.72 1943.72 2269.25C1943.56 2269.45 1943.39 2269.64 1943.21 2269.84C1942.31 2270.79 1941.21 2271.6 1939.96 2272.2C1939.47 2272.44 1938.93 2272.65 1938.39 2272.84C1937.71 2273.05 1937.01 2273.21 1936.29 2273.32C1935.97 2273.36 1935.65 2273.41 1935.32 2273.44C1934.97 2273.47 1934.63 2273.48 1934.28 2273.48H1463.63C1457.93 2273.48 1453.19 2269.92 1452.35 2265.33C1452.31 2265.03 1452.25 2264.72 1452.24 2264.41V2238.6C1452.53 2233.95 1456.83 2230.15 1462.27 2229.61C1462.72 2229.56 1463.17 2229.53 1463.63 2229.53H1934.28C1934.63 2229.53 1934.97 2229.55 1935.32 2229.57C1935.65 2229.61 1935.97 2229.64 1936.29 2229.69C1937.01 2229.8 1937.71 2229.96 1938.39 2230.19C1940.56 2230.88 1942.43 2232.15 1943.72 2233.76C1944.96 2235.28 1945.68 2237.12 1945.68 2239.11" fill="#FFB93E"/>
<path d="M1714.56 2273.48H1462.4C1457.73 2273.48 1453.8 2270.45 1452.63 2266.39C1452.51 2266.04 1452.41 2265.69 1452.35 2265.33C1452.31 2265.03 1452.25 2264.72 1452.24 2264.41V2238.6C1452.51 2233.96 1456.35 2230.15 1461.2 2229.61C1461.6 2229.56 1462 2229.53 1462.4 2229.53H1683.6L1683.61 2229.61C1687.16 2242.53 1695.39 2260.39 1714.56 2273.48" fill="#FFA412"/>
<path d="M1888.41 2273.48H1883.05V2229.53H1888.41V2273.48Z" fill="#FFA412"/>
<path d="M1870.31 2273.48H1864.95V2229.53H1870.31V2273.48Z" fill="#FFA412"/>
<path d="M1848.59 2273.48H1843.24V2229.53H1848.59V2273.48Z" fill="#FFA412"/>
<path d="M1815.31 2273.48H1809.95V2229.53H1815.31V2273.48Z" fill="#FFA412"/>
<path d="M1780.11 2273.48H1774.76V2229.53H1780.11V2273.48Z" fill="#FFA412"/>
<path d="M1726.15 2273.48H1720.8V2229.53H1726.15V2273.48Z" fill="#FFA412"/>
<path d="M1675.63 2273.48H1670.28V2229.53H1675.63V2273.48Z" fill="#FFA412"/>
<path d="M1625.17 2273.48H1630.52V2229.53H1625.17V2273.48Z" fill="#FFA412"/>
<path d="M1905.64 2273.48H1900.29V2229.53H1905.64V2273.48Z" fill="#FFA412"/>
<path d="M1917.03 2273.48H1911.68V2229.53H1917.03V2273.48Z" fill="#FFA412"/>
<path d="M1928.03 2273.48H1922.68V2229.53H1928.03V2273.48Z" fill="#FFA412"/>
<path d="M1936.29 2229.69V2273.32C1935.64 2273.43 1934.97 2273.48 1934.29 2273.48H1930.95V2229.53H1934.29C1934.97 2229.53 1935.64 2229.59 1936.29 2229.69" fill="#FFA412"/>
<path d="M1943.73 2233.76V2269.25C1942.43 2270.85 1940.57 2272.12 1938.39 2272.83V2230.17C1940.57 2230.89 1942.43 2232.15 1943.73 2233.76Z" fill="#FFA412"/>
<path d="M1911.07 2195.23V2220.04C1911.07 2222.03 1910.36 2223.84 1909.13 2225.37C1907.84 2226.99 1905.96 2228.25 1903.77 2228.96C1903.12 2229.19 1902.41 2229.35 1901.71 2229.44C1901.48 2229.49 1901.27 2229.52 1901.04 2229.53H1900.95L1900.6 2229.56L1900.29 2229.6C1900.08 2229.6 1899.89 2229.61 1899.69 2229.61H1429.03C1422.96 2229.61 1417.96 2225.56 1417.65 2220.53C1417.64 2220.37 1417.64 2220.21 1417.64 2220.04V2195.23C1417.64 2195.07 1417.64 2194.89 1417.65 2194.73C1417.65 2194.6 1417.67 2194.47 1417.68 2194.33C1418.13 2190.29 1421.64 2186.93 1426.23 2185.97L1426.56 2185.89C1427.35 2185.75 1428.17 2185.67 1429.03 2185.67H1899.69C1900.04 2185.67 1900.36 2185.68 1900.71 2185.71C1900.85 2185.72 1901 2185.73 1901.13 2185.75H1901.16H1901.17C1901.35 2185.76 1901.52 2185.79 1901.71 2185.83C1902.41 2185.92 1903.12 2186.09 1903.77 2186.31C1905.96 2187.01 1907.84 2188.28 1909.13 2189.89C1910.36 2191.43 1911.07 2193.25 1911.07 2195.23" fill="#FFB93E"/>
<path d="M1679.95 2229.61H1427.81C1422.39 2229.61 1417.93 2225.56 1417.65 2220.53C1417.64 2220.37 1417.64 2220.21 1417.64 2220.04V2195.23C1417.64 2195.07 1417.64 2194.89 1417.65 2194.73C1417.65 2194.6 1417.67 2194.47 1417.68 2194.33C1418.09 2190.19 1421.35 2186.81 1425.57 2185.91C1425.71 2185.87 1425.85 2185.84 1426 2185.83C1426.59 2185.72 1427.19 2185.67 1427.81 2185.67H1648.99L1649.08 2185.99C1652.65 2198.87 1660.88 2216.53 1679.85 2229.53L1679.95 2229.61" fill="#FFA412"/>
<path d="M1853.8 2229.6H1848.45V2185.67H1853.8V2229.6Z" fill="#FFA412"/>
<path d="M1835.69 2229.6H1830.35V2185.67H1835.69V2229.6Z" fill="#FFA412"/>
<path d="M1813.99 2229.6H1808.64V2185.67H1813.99V2229.6Z" fill="#FFA412"/>
<path d="M1780.69 2229.6H1775.35V2185.67H1780.69V2229.6Z" fill="#FFA412"/>
<path d="M1745.51 2229.6H1740.16V2185.67H1745.51V2229.6Z" fill="#FFA412"/>
<path d="M1691.55 2229.6H1686.2V2185.67H1691.55V2229.6Z" fill="#FFA412"/>
<path d="M1641.03 2229.6H1635.68V2185.67H1641.03V2229.6Z" fill="#FFA412"/>
<path d="M1590.56 2229.6H1595.92V2185.67H1590.56V2229.6Z" fill="#FFA412"/>
<path d="M1871.04 2229.6H1865.69V2185.67H1871.04V2229.6Z" fill="#FFA412"/>
<path d="M1882.43 2229.6H1877.08V2185.67H1882.43V2229.6Z" fill="#FFA412"/>
<path d="M1893.43 2229.6H1888.08V2185.67H1893.43V2229.6Z" fill="#FFA412"/>
<path d="M1901.69 2185.81V2229.45C1901.04 2229.55 1900.37 2229.6 1899.69 2229.6H1896.35V2185.67H1899.69C1900.37 2185.67 1901.04 2185.72 1901.69 2185.81Z" fill="#FFA412"/>
<path d="M1909.12 2189.89V2225.39C1907.83 2226.99 1905.96 2228.25 1903.77 2228.96V2186.31C1905.96 2187.01 1907.83 2188.28 1909.12 2189.89Z" fill="#FFA412"/>
<path d="M1910.08 2151.61V2176.41C1910.08 2178.4 1909.36 2180.23 1908.15 2181.75C1907.81 2182.15 1907.45 2182.53 1907.07 2182.89C1905.89 2183.96 1904.44 2184.8 1902.79 2185.33C1902.27 2185.51 1901.72 2185.64 1901.17 2185.75H1901.16H1901.13C1900.99 2185.77 1900.85 2185.81 1900.71 2185.83C1900.05 2185.92 1899.39 2185.99 1898.71 2185.99H1428.03C1427.55 2185.99 1427.04 2185.96 1426.56 2185.89C1426.37 2185.88 1426.17 2185.85 1426 2185.83C1421.21 2185.09 1417.43 2181.81 1416.75 2177.73C1416.71 2177.45 1416.68 2177.19 1416.67 2176.91C1416.65 2176.73 1416.65 2176.57 1416.65 2176.41V2151.61C1416.65 2151.43 1416.65 2151.27 1416.67 2151.11C1416.68 2150.8 1416.72 2150.49 1416.76 2150.19C1417.6 2145.6 1422.36 2142.04 1428.03 2142.04H1898.71C1899 2142.04 1899.31 2142.05 1899.6 2142.07L1899.72 2142.08L1899.99 2142.09C1900.12 2142.11 1900.27 2142.12 1900.41 2142.16L1900.71 2142.2C1901.43 2142.31 1902.13 2142.47 1902.79 2142.68C1903.19 2142.81 1903.57 2142.96 1903.93 2143.12H1903.95C1905.43 2143.77 1906.71 2144.68 1907.72 2145.77C1907.87 2145.93 1908.01 2146.09 1908.15 2146.25C1909.36 2147.79 1910.08 2149.63 1910.08 2151.61Z" fill="#FFB93E"/>
<path d="M1678.96 2185.99H1426.81C1426.61 2185.99 1426.41 2185.97 1426.23 2185.97C1426 2185.96 1425.79 2185.92 1425.57 2185.91C1421.01 2185.36 1417.37 2181.99 1416.75 2177.73C1416.71 2177.45 1416.68 2177.19 1416.67 2176.91C1416.65 2176.73 1416.65 2176.57 1416.65 2176.41V2151.61C1416.65 2151.43 1416.65 2151.27 1416.67 2151.11C1416.68 2150.8 1416.72 2150.49 1416.76 2150.19C1416.83 2149.83 1416.93 2149.48 1417.04 2149.13C1418.21 2145.07 1422.13 2142.04 1426.81 2142.04H1648C1648.09 2142.4 1648.19 2142.76 1648.31 2143.12C1651.97 2155.85 1660.16 2172.95 1678.51 2185.67C1678.65 2185.77 1678.81 2185.87 1678.96 2185.99" fill="#FFA412"/>
<path d="M1852.81 2185.97H1847.47V2142.04H1852.81V2185.97Z" fill="#FFA412"/>
<path d="M1834.71 2185.97H1829.36V2142.04H1834.71V2185.97Z" fill="#FFA412"/>
<path d="M1813 2185.97H1807.64V2142.04H1813V2185.97Z" fill="#FFA412"/>
<path d="M1779.71 2185.97H1774.36V2142.04H1779.71V2185.97Z" fill="#FFA412"/>
<path d="M1744.52 2185.97H1739.16V2142.04H1744.52V2185.97Z" fill="#FFA412"/>
<path d="M1690.56 2185.97H1685.21V2142.04H1690.56V2185.97Z" fill="#FFA412"/>
<path d="M1634.69 2185.97H1640.04V2142.04H1634.69V2185.97Z" fill="#FFA412"/>
<path d="M1589.57 2185.97H1594.92V2142.04H1589.57V2185.97Z" fill="#FFA412"/>
<path d="M1870.05 2185.97H1864.71V2142.04H1870.05V2185.97Z" fill="#FFA412"/>
<path d="M1881.44 2185.97H1876.09V2142.04H1881.44V2185.97Z" fill="#FFA412"/>
<path d="M1892.44 2185.97H1887.08V2142.04H1892.44V2185.97Z" fill="#FFA412"/>
<path d="M1900.71 2142.19V2185.83C1900.05 2185.92 1899.39 2185.97 1898.69 2185.97H1895.36V2142.04H1898.69C1899.39 2142.04 1900.05 2142.09 1900.71 2142.19Z" fill="#FFA412"/>
<path d="M1908.13 2146.27V2181.76C1906.84 2183.36 1904.97 2184.63 1902.79 2185.33V2142.68C1904.97 2143.39 1906.84 2144.65 1908.13 2146.27Z" fill="#FFA412"/>
<path d="M1934.4 2108.75V2133.55C1934.4 2135.53 1933.68 2137.37 1932.44 2138.91C1931.16 2140.51 1929.31 2141.77 1927.11 2142.48C1926.45 2142.69 1925.75 2142.85 1925.03 2142.96C1924.37 2143.07 1923.69 2143.12 1923.03 2143.12H1452.35C1450.47 2143.12 1448.67 2142.73 1447.09 2142.04C1443.99 2140.67 1441.69 2138.11 1441.11 2135.09C1441.05 2134.89 1441.04 2134.68 1441.01 2134.48C1441 2134.33 1440.99 2134.2 1440.99 2134.05C1440.97 2133.89 1440.97 2133.73 1440.97 2133.55V2108.75C1440.97 2108.59 1440.97 2108.41 1440.99 2108.25C1441 2107.93 1441.03 2107.63 1441.08 2107.32C1441.92 2102.73 1446.67 2099.17 1452.35 2099.17H1923.03C1923.69 2099.17 1924.37 2099.24 1925.03 2099.33C1925.75 2099.44 1926.45 2099.6 1927.11 2099.83C1929.31 2100.53 1931.16 2101.8 1932.44 2103.41C1933.68 2104.95 1934.4 2106.76 1934.4 2108.75" fill="#FFB93E"/>
<path d="M1703.28 2143.12H1451.13C1449.44 2143.12 1447.85 2142.73 1446.45 2142.04C1443.65 2140.67 1441.61 2138.11 1441.11 2135.09C1441.05 2134.89 1441.04 2134.68 1441.01 2134.48C1441 2134.33 1440.99 2134.2 1440.99 2134.05C1440.97 2133.89 1440.97 2133.73 1440.97 2133.55V2108.75C1440.97 2108.59 1440.97 2108.41 1440.99 2108.25C1441 2107.93 1441.03 2107.63 1441.08 2107.32C1441.15 2106.97 1441.24 2106.64 1441.35 2106.31C1442.49 2102.23 1446.44 2099.17 1451.13 2099.17H1672.32C1675.76 2111.76 1683.64 2129.04 1701.75 2142.04C1702.24 2142.4 1702.76 2142.76 1703.28 2143.12" fill="#FFA412"/>
<path d="M1877.13 2143.12H1871.79V2099.19H1877.13V2143.12" fill="#FFA412"/>
<path d="M1859.03 2143.12H1853.68V2099.19H1859.03V2143.12" fill="#FFA412"/>
<path d="M1837.31 2143.12H1831.96V2099.19H1837.31V2143.12" fill="#FFA412"/>
<path d="M1804.03 2143.12H1798.68V2099.19H1804.03V2143.12" fill="#FFA412"/>
<path d="M1768.83 2143.12H1763.48V2099.19H1768.83V2143.12" fill="#FFA412"/>
<path d="M1714.88 2143.12H1709.53V2099.19H1714.88V2143.12" fill="#FFA412"/>
<path d="M1664.36 2143.12H1659V2099.19H1664.36V2143.12" fill="#FFA412"/>
<path d="M1613.89 2143.12H1619.24V2099.19H1613.89V2143.12Z" fill="#FFA412"/>
<path d="M1894.37 2143.12H1889.03V2099.19H1894.37V2143.12" fill="#FFA412"/>
<path d="M1905.76 2143.12H1900.41V2099.19H1905.76V2143.12" fill="#FFA412"/>
<path d="M1916.75 2143.12H1911.4V2099.19H1916.75V2143.12" fill="#FFA412"/>
<path d="M1925.03 2099.33V2142.97C1924.37 2143.07 1923.71 2143.12 1923.01 2143.12H1919.68V2099.19H1923.01C1923.71 2099.19 1924.37 2099.24 1925.03 2099.33Z" fill="#FFA412"/>
<path d="M1932.45 2103.41V2138.89C1931.16 2140.51 1929.29 2141.77 1927.11 2142.48V2099.83C1929.29 2100.53 1931.16 2101.8 1932.45 2103.41Z" fill="#FFA412"/>
<path d="M1972.87 2064.8V2089.61C1972.87 2091.59 1972.15 2093.41 1970.92 2094.95L1970.91 2094.96C1970.75 2095.16 1970.57 2095.36 1970.4 2095.55C1969.68 2096.31 1968.84 2096.97 1967.88 2097.52C1967.41 2097.77 1966.91 2098.03 1966.39 2098.24L1966.37 2098.25C1966.12 2098.36 1965.85 2098.45 1965.57 2098.55C1964.91 2098.76 1964.2 2098.93 1963.48 2099.03C1962.84 2099.13 1962.16 2099.17 1961.48 2099.17H1490.81C1485.13 2099.17 1480.39 2095.64 1479.55 2091.04C1479.49 2090.73 1479.47 2090.43 1479.44 2090.11C1479.43 2089.95 1479.43 2089.79 1479.43 2089.61V2064.8C1479.43 2064.64 1479.43 2064.48 1479.44 2064.32C1479.72 2059.67 1484.01 2055.87 1489.47 2055.32C1489.92 2055.25 1490.36 2055.24 1490.81 2055.24H1961.48C1962.16 2055.24 1962.84 2055.31 1963.48 2055.39C1964.2 2055.51 1964.91 2055.67 1965.57 2055.89C1967.48 2056.51 1969.13 2057.55 1970.4 2058.88C1970.57 2059.07 1970.75 2059.25 1970.91 2059.47L1970.92 2059.48C1972.15 2061.01 1972.87 2062.83 1972.87 2064.8" fill="#FFB93E"/>
<path d="M1741.75 2099.17H1489.59C1484.91 2099.17 1480.96 2096.15 1479.81 2092.07C1479.71 2091.73 1479.61 2091.4 1479.55 2091.04C1479.49 2090.73 1479.47 2090.43 1479.44 2090.11C1479.43 2089.95 1479.43 2089.79 1479.43 2089.61V2064.8C1479.43 2064.64 1479.43 2064.48 1479.44 2064.32C1479.69 2059.67 1483.53 2055.87 1488.39 2055.32C1488.79 2055.25 1489.17 2055.24 1489.59 2055.24H1710.79L1710.8 2055.32C1714.35 2068.24 1722.57 2086.09 1741.75 2099.17" fill="#FFA412"/>
<path d="M1915.6 2099.19H1910.25V2055.24H1915.6V2099.19Z" fill="#FFA412"/>
<path d="M1897.49 2099.19H1892.15V2055.24H1897.49V2099.19Z" fill="#FFA412"/>
<path d="M1875.77 2099.19H1870.43V2055.24H1875.77V2099.19Z" fill="#FFA412"/>
<path d="M1842.49 2099.19H1837.15V2055.24H1842.49V2099.19Z" fill="#FFA412"/>
<path d="M1807.29 2099.19H1801.95V2055.24H1807.29V2099.19Z" fill="#FFA412"/>
<path d="M1753.33 2099.19H1747.99V2055.24H1753.33V2099.19Z" fill="#FFA412"/>
<path d="M1702.83 2099.19H1697.47V2055.24H1702.83V2099.19Z" fill="#FFA412"/>
<path d="M1657.71 2099.19H1652.36V2055.24H1657.71V2099.19Z" fill="#FFA412"/>
<path d="M1932.84 2099.19H1927.48V2055.24H1932.84V2099.19Z" fill="#FFA412"/>
<path d="M1944.23 2099.19H1938.87V2055.24H1944.23V2099.19Z" fill="#FFA412"/>
<path d="M1955.21 2099.19H1949.87V2055.24H1955.21V2099.19Z" fill="#FFA412"/>
<path d="M1963.49 2055.4V2099.03C1962.84 2099.13 1962.17 2099.19 1961.48 2099.19H1958.13V2055.24H1961.48C1962.17 2055.24 1962.84 2055.29 1963.49 2055.4" fill="#FFA412"/>
<path d="M1970.92 2059.47V2094.96C1969.63 2096.56 1967.76 2097.83 1965.57 2098.53V2055.89C1967.76 2056.6 1969.63 2057.85 1970.92 2059.47Z" fill="#FFA412"/>
<path d="M1911.07 2020.95V2045.75C1911.07 2047.73 1910.36 2049.56 1909.13 2051.08C1907.84 2052.71 1905.96 2053.96 1903.77 2054.67C1903.12 2054.89 1902.41 2055.05 1901.71 2055.16C1901.48 2055.19 1901.27 2055.21 1901.04 2055.24H1900.95C1900.8 2055.27 1900.65 2055.27 1900.51 2055.29L1900.25 2055.31C1900.05 2055.31 1899.88 2055.32 1899.69 2055.32H1429.03C1424.95 2055.32 1421.35 2053.49 1419.33 2050.76C1418.36 2049.44 1417.75 2047.89 1417.65 2046.24C1417.64 2046.07 1417.64 2045.91 1417.64 2045.75V2020.95C1417.64 2020.76 1417.64 2020.6 1417.65 2020.44C1417.89 2016.37 1421.24 2012.95 1425.72 2011.8C1426.76 2011.52 1427.88 2011.37 1429.03 2011.37H1899.69C1899.89 2011.37 1900.08 2011.39 1900.29 2011.39L1900.59 2011.41C1900.97 2011.43 1901.33 2011.48 1901.71 2011.53C1902.41 2011.64 1903.12 2011.8 1903.77 2012.01C1904.12 2012.12 1904.44 2012.24 1904.75 2012.39H1904.76C1906.01 2012.89 1907.13 2013.6 1908.05 2014.45L1908.09 2014.52L1908.23 2014.64C1908.56 2014.93 1908.85 2015.25 1909.13 2015.59C1910.36 2017.12 1911.07 2018.96 1911.07 2020.95" fill="#FFB93E"/>
<path d="M1679.95 2055.32H1427.81C1424.27 2055.32 1421.12 2053.59 1419.31 2050.99C1418.33 2049.6 1417.73 2047.99 1417.65 2046.24C1417.64 2046.07 1417.64 2045.91 1417.64 2045.75V2020.95C1417.64 2020.76 1417.64 2020.6 1417.65 2020.44C1417.89 2016.05 1421.29 2012.44 1425.75 2011.57C1426.41 2011.44 1427.11 2011.37 1427.81 2011.37H1648.99C1649.08 2011.71 1649.17 2012.04 1649.28 2012.39C1652.95 2025.2 1661.21 2042.47 1679.85 2055.24L1679.95 2055.32" fill="#FFA412"/>
<path d="M1853.8 2055.31H1848.45V2011.37H1853.8V2055.31Z" fill="#FFA412"/>
<path d="M1835.69 2055.31H1830.35V2011.37H1835.69V2055.31Z" fill="#FFA412"/>
<path d="M1813.99 2055.31H1808.64V2011.37H1813.99V2055.31Z" fill="#FFA412"/>
<path d="M1780.69 2055.31H1775.35V2011.37H1780.69V2055.31Z" fill="#FFA412"/>
<path d="M1745.51 2055.31H1740.16V2011.37H1745.51V2055.31Z" fill="#FFA412"/>
<path d="M1691.55 2055.31H1686.2V2011.37H1691.55V2055.31Z" fill="#FFA412"/>
<path d="M1641.03 2055.31H1635.68V2011.37H1641.03V2055.31Z" fill="#FFA412"/>
<path d="M1590.56 2055.31H1595.92V2011.37H1590.56V2055.31Z" fill="#FFA412"/>
<path d="M1871.04 2055.31H1865.69V2011.37H1871.04V2055.31Z" fill="#FFA412"/>
<path d="M1882.43 2055.31H1877.08V2011.37H1882.43V2055.31Z" fill="#FFA412"/>
<path d="M1893.43 2055.31H1888.08V2011.37H1893.43V2055.31Z" fill="#FFA412"/>
<path d="M1901.69 2011.52V2055.16C1901.04 2055.25 1900.37 2055.31 1899.69 2055.31H1896.35V2011.37H1899.69C1900.37 2011.37 1901.04 2011.43 1901.69 2011.52" fill="#FFA412"/>
<path d="M1909.12 2015.6V2051.09C1907.83 2052.69 1905.96 2053.96 1903.77 2054.67V2012.01C1905.96 2012.72 1907.83 2013.99 1909.12 2015.6Z" fill="#FFA412"/>
<path d="M1945.68 1978.01V2002.83C1945.68 2004.8 1944.96 2006.64 1943.73 2008.16C1942.43 2009.77 1940.57 2011.04 1938.39 2011.75C1937.72 2011.96 1937.01 2012.13 1936.29 2012.24C1935.64 2012.33 1934.97 2012.39 1934.29 2012.39H1463.63C1461.8 2012.39 1460.07 2012.03 1458.55 2011.37C1455.11 2009.93 1452.65 2007.05 1452.28 2003.71C1452.27 2003.59 1452.25 2003.45 1452.25 2003.32C1452.24 2003.15 1452.24 2002.99 1452.24 2002.83V1978.01C1452.24 1977.85 1452.24 1977.68 1452.25 1977.52C1452.53 1972.87 1456.84 1969.07 1462.28 1968.52C1462.72 1968.47 1463.17 1968.45 1463.63 1968.45H1934.29C1934.97 1968.45 1935.64 1968.51 1936.29 1968.6C1937.01 1968.71 1937.72 1968.87 1938.39 1969.09C1940.57 1969.8 1942.43 1971.07 1943.73 1972.67C1944.96 1974.2 1945.68 1976.04 1945.68 1978.01" fill="#FFB93E"/>
<path d="M1714.56 2012.39H1462.4C1460.77 2012.39 1459.23 2012.03 1457.87 2011.37C1454.8 2009.93 1452.61 2007.05 1452.28 2003.71C1452.27 2003.59 1452.25 2003.45 1452.25 2003.32C1452.24 2003.15 1452.24 2002.99 1452.24 2002.83V1978.01C1452.24 1977.85 1452.24 1977.68 1452.25 1977.52C1452.51 1972.87 1456.35 1969.07 1461.2 1968.52C1461.59 1968.47 1462 1968.45 1462.4 1968.45H1683.6L1683.61 1968.52C1687.07 1981.12 1694.97 1998.39 1713.11 2011.37C1713.59 2011.72 1714.07 2012.05 1714.56 2012.39Z" fill="#FFA412"/>
<path d="M1888.41 2012.39H1883.05V1968.45H1888.41V2012.39Z" fill="#FFA412"/>
<path d="M1870.31 2012.39H1864.95V1968.45H1870.31V2012.39Z" fill="#FFA412"/>
<path d="M1848.59 2012.39H1843.24V1968.45H1848.59V2012.39Z" fill="#FFA412"/>
<path d="M1815.31 2012.39H1809.95V1968.45H1815.31V2012.39Z" fill="#FFA412"/>
<path d="M1780.11 2012.39H1774.76V1968.45H1780.11V2012.39Z" fill="#FFA412"/>
<path d="M1726.15 2012.39H1720.8V1968.45H1726.15V2012.39Z" fill="#FFA412"/>
<path d="M1675.63 2012.39H1670.28V1968.45H1675.63V2012.39Z" fill="#FFA412"/>
<path d="M1630.52 2012.39H1625.17V1968.45H1630.52V2012.39Z" fill="#FFA412"/>
<path d="M1905.64 2012.39H1900.29V1968.45H1905.64V2012.39Z" fill="#FFA412"/>
<path d="M1917.03 2012.39H1911.68V1968.45H1917.03V2012.39Z" fill="#FFA412"/>
<path d="M1928.03 2012.39H1922.68V1968.45H1928.03V2012.39Z" fill="#FFA412"/>
<path d="M1936.29 1968.6V2012.23C1935.64 2012.33 1934.97 2012.39 1934.29 2012.39H1930.95V1968.44H1934.29C1934.97 1968.44 1935.64 1968.51 1936.29 1968.6" fill="#FFA412"/>
<path d="M1943.73 1972.67V2008.16C1942.43 2009.77 1940.57 2011.03 1938.39 2011.75V1969.09C1940.57 1969.8 1942.43 1971.07 1943.73 1972.67Z" fill="#FFA412"/>
<path d="M1960.41 1934.15V1958.96C1960.41 1960.93 1959.69 1962.76 1958.45 1964.29C1957.16 1965.89 1955.29 1967.16 1953.11 1967.87C1952.45 1968.09 1951.75 1968.25 1951.03 1968.36C1950.81 1968.4 1950.59 1968.43 1950.37 1968.45C1950.25 1968.45 1950.12 1968.47 1950 1968.48C1949.88 1968.49 1949.75 1968.49 1949.63 1968.51C1949.43 1968.51 1949.23 1968.52 1949.03 1968.52H1478.36C1472.29 1968.52 1467.29 1964.48 1466.99 1959.44C1466.97 1959.28 1466.97 1959.12 1466.97 1958.96V1934.15C1466.97 1933.97 1466.97 1933.81 1466.99 1933.65C1467.29 1928.61 1472.29 1924.57 1478.36 1924.57H1949.03C1949.71 1924.57 1950.37 1924.63 1951.03 1924.73C1951.75 1924.84 1952.45 1925 1953.11 1925.23C1955.29 1925.93 1957.16 1927.2 1958.45 1928.8C1959.69 1930.33 1960.41 1932.16 1960.41 1934.15" fill="#FFB93E"/>
<path d="M1729.29 1968.52H1477.13C1471.72 1968.52 1467.25 1964.48 1466.99 1959.44C1466.97 1959.28 1466.97 1959.12 1466.97 1958.96V1934.15C1466.97 1933.97 1466.97 1933.81 1466.99 1933.65C1467.25 1928.61 1471.72 1924.57 1477.13 1924.57H1698.32C1701.85 1937.49 1710.05 1955.33 1729.19 1968.45L1729.29 1968.52" fill="#FFA412"/>
<path d="M1903.13 1968.52H1897.79V1924.57H1903.13V1968.52Z" fill="#FFA412"/>
<path d="M1885.03 1968.52H1879.68V1924.57H1885.03V1968.52Z" fill="#FFA412"/>
<path d="M1863.32 1968.52H1857.97V1924.57H1863.32V1968.52Z" fill="#FFA412"/>
<path d="M1830.03 1968.52H1824.68V1924.57H1830.03V1968.52Z" fill="#FFA412"/>
<path d="M1794.84 1968.52H1789.49V1924.57H1794.84V1968.52Z" fill="#FFA412"/>
<path d="M1740.88 1968.52H1735.53V1924.57H1740.88V1968.52Z" fill="#FFA412"/>
<path d="M1690.36 1968.52H1685.01V1924.57H1690.36V1968.52Z" fill="#FFA412"/>
<path d="M1645.25 1924.57V1968.52H1639.89V1924.57H1645.25Z" fill="#FFA412"/>
<path d="M1920.37 1968.52H1915.03V1924.57H1920.37V1968.52Z" fill="#FFA412"/>
<path d="M1931.76 1968.52H1926.41V1924.57H1931.76V1968.52Z" fill="#FFA412"/>
<path d="M1942.76 1968.52H1937.41V1924.57H1942.76V1968.52Z" fill="#FFA412"/>
<path d="M1951.03 1924.73V1968.36C1950.37 1968.47 1949.71 1968.52 1949.03 1968.52H1945.68V1924.57H1949.03C1949.71 1924.57 1950.37 1924.63 1951.03 1924.73" fill="#FFA412"/>
<path d="M1958.45 1928.8V1964.29C1957.16 1965.89 1955.29 1967.16 1953.12 1967.87V1925.23C1955.29 1925.93 1957.16 1927.19 1958.45 1928.8Z" fill="#FFA412"/>
<path d="M1811.21 1674.17C1811.21 1674.17 1786.49 1708.99 1763.84 1709.47C1741.17 1709.95 1706.69 1693.33 1706.69 1693.33C1706.69 1693.33 1685.88 1646.96 1700 1628.81C1700 1628.81 1714.15 1622.6 1728.95 1633.57C1731.49 1635.47 1734.07 1637.84 1736.61 1640.91C1740.2 1645.23 1744.24 1647.68 1748.51 1648.97C1764.68 1653.89 1783.88 1642.32 1791.05 1653.49C1795.25 1659.99 1799.8 1664.87 1803.56 1668.29C1807.99 1672.24 1811.21 1674.17 1811.21 1674.17Z" fill="#FFEDDC"/>
<path d="M1488.93 1925.23C1488.93 1925.23 1576.31 1713.51 1733.59 1709.47C1733.59 1709.47 1878.77 1725.6 1886.84 1925.23H1488.93Z" fill="#FFEDDC"/>
<path d="M1690.51 1715.93C1690.51 1715.93 1753.55 1729.95 1773 1721.71C1773 1721.71 1775.93 1695.35 1749.39 1699.05C1731.21 1701.57 1719.37 1692.84 1712.41 1689.31C1702.56 1684.29 1687.88 1704.91 1690.51 1715.93" fill="#5584C9"/>
<path d="M1745.36 1676.2C1741.33 1679.23 1728.95 1633.57 1728.95 1633.57C1731.49 1635.47 1734.07 1637.84 1736.61 1640.91C1740.2 1645.23 1744.24 1647.68 1748.51 1648.97C1748.55 1650.31 1749.28 1673.25 1745.36 1676.2Z" fill="#E5C1A1"/>
<path d="M1803.56 1668.29C1802.67 1668.81 1773.51 1686.28 1769.56 1686.28C1765.53 1686.28 1791.05 1653.49 1791.05 1653.49C1795.25 1659.99 1799.8 1664.87 1803.56 1668.29Z" fill="#E5C1A1"/>
<path d="M1574.29 1866.08C1572.68 1864.69 1636.13 1772.65 1653.6 1771.97C1671.08 1771.31 1710.35 1792.13 1738.77 1794.83C1767.2 1797.52 1794.75 1789.45 1800.13 1806.25C1805.51 1823.05 1820.29 1882.63 1811.21 1892.16C1802.15 1901.69 1609.19 1895.88 1574.29 1866.08" fill="#F9DDBF"/>
<path d="M2188.86 1093.26C2184.85 1096.37 2180.61 1099.28 2176.19 1101.97C2174.47 1103.02 2172.73 1104.02 2170.95 1105C2166.46 1107.5 2161.88 1109.7 2157.22 1111.64C2155.88 1111.4 2154.52 1111.17 2153.17 1110.95C2144.72 1109.53 2136.36 1108.24 2128.16 1107.07C2124.1 1106.48 2120.05 1105.92 2116.08 1105.39C2099.25 1103.16 2083.08 1101.37 2067.74 1099.99C2063.6 1099.58 2059.54 1099.22 2055.51 1098.9C2052.32 1098.64 2049.19 1098.41 2046.1 1098.17C2038.5 1097.62 2031.16 1097.14 2024.11 1096.74C2014.19 1089.72 2005.1 1081.32 1997.17 1071.62C1991.9 1065.19 1987.14 1058.18 1982.98 1050.64C1946.09 983.71 1970.42 899.527 2037.35 862.639C2039.11 861.669 2040.89 860.727 2042.69 859.868C2108.68 827.068 2189.42 851.872 2225.34 917.029C2258.72 977.585 2241.96 1052.28 2188.86 1093.26" fill="#FFB93E"/>
<path d="M2213.54 925.408C2180.54 865.515 2104.97 843.669 2045.1 876.659C2004.16 899.236 1980.98 941.704 1980.98 985.452C1980.98 1005.69 1985.93 1026.18 1996.37 1045.11C2002.03 1055.35 2008.9 1064.46 2016.71 1072.4C2027.98 1083.79 2041.2 1092.72 2055.52 1098.9C2059.55 1099.22 2063.62 1099.58 2067.75 1099.98C2050.78 1094.45 2034.99 1085.24 2021.78 1072.67C2013.05 1064.37 2005.42 1054.6 1999.3 1043.5C1967.18 985.246 1988.45 911.716 2046.7 879.607C2104.97 847.47 2178.5 868.752 2210.59 927.006C2242.12 984.185 2222.22 1056.03 2166.43 1089.05C2165.36 1089.69 2164.28 1090.29 2163.19 1090.9C2148.18 1099.18 2132.15 1103.92 2116.08 1105.39C2120.07 1105.91 2124.1 1106.48 2128.18 1107.06C2140.7 1104.67 2153.06 1100.31 2164.81 1093.85C2167.07 1092.61 2169.26 1091.3 2171.4 1089.95C2226.24 1055.17 2245.29 983.028 2213.54 925.408" fill="#FFA412"/>
<path d="M2165.93 997.307C2163.55 991.44 2160.47 986.774 2156.68 983.32C2152.89 979.867 2148.48 977.28 2143.47 975.547C2138.45 973.813 2132.85 972.76 2126.68 972.387C2120.49 972.014 2113.77 971.92 2106.52 972.133C2102.03 972.267 2098.2 972.187 2095 971.894C2091.81 971.614 2089.12 971.013 2086.91 970.133C2084.68 969.227 2082.88 968.014 2081.49 966.454C2080.11 964.907 2078.96 963.027 2078.05 960.787C2077.13 958.56 2076.63 956.333 2076.49 954.133C2076.36 951.947 2076.68 949.853 2077.48 947.88C2078.25 945.92 2079.55 944.093 2081.33 942.413C2083.11 940.733 2085.47 939.307 2088.39 938.12C2093.79 935.934 2098.83 935.973 2103.51 938.267C2108.17 940.547 2111.99 945.307 2114.95 952.56L2143.13 941.12C2140.67 935.08 2137.6 929.973 2133.89 925.813C2130.2 921.653 2126.04 918.427 2121.4 916.173C2116.76 913.893 2111.72 912.56 2106.27 912.187C2100.81 911.8 2095.13 912.374 2089.24 913.92L2081.25 894.267L2065.65 900.6L2073.52 919.973C2067.89 922.907 2063.13 926.294 2059.2 930.187C2055.29 934.067 2052.28 938.254 2050.17 942.76C2048.07 947.28 2046.96 952.014 2046.85 956.987C2046.75 961.96 2047.75 967.013 2049.83 972.147C2052.23 978.053 2055.33 982.747 2059.12 986.2C2062.91 989.653 2067.31 992.24 2072.32 993.933C2077.32 995.627 2082.92 996.653 2089.11 996.973C2095.31 997.32 2102.05 997.307 2109.32 996.947C2113.55 996.707 2117.2 996.747 2120.32 997.027C2123.43 997.32 2126.12 997.92 2128.39 998.813C2130.64 999.72 2132.52 1001 2134.03 1002.65C2135.52 1004.29 2136.79 1006.39 2137.81 1008.92C2138.73 1011.15 2139.17 1013.39 2139.17 1015.61C2139.16 1017.83 2138.65 1019.95 2137.65 1021.96C2136.65 1023.99 2135.17 1025.87 2133.19 1027.59C2131.19 1029.31 2128.68 1030.8 2125.61 1032.03C2122.95 1033.12 2120.19 1033.83 2117.33 1034.17C2114.48 1034.53 2111.71 1034.25 2108.99 1033.33C2106.28 1032.44 2103.73 1030.8 2101.37 1028.41C2099 1026.04 2096.95 1022.71 2095.21 1018.41L2067.01 1029.85C2069.96 1037.11 2073.65 1042.85 2078.11 1047.09C2082.55 1051.35 2087.41 1054.37 2092.71 1056.2C2098 1058.04 2103.53 1058.83 2109.31 1058.6C2115.08 1058.36 2120.77 1057.43 2126.4 1055.77L2133.67 1073.71L2149.19 1067.41L2141.87 1049.39C2147.49 1046.47 2152.32 1043.11 2156.35 1039.29C2160.36 1035.47 2163.43 1031.33 2165.56 1026.88C2167.69 1022.44 2168.83 1017.72 2168.96 1012.73C2169.11 1007.76 2168.09 1002.61 2165.93 997.307" fill="#FFA412"/>
<path d="M1466.96 2389.15V2369.83C1466.96 2369.67 1466.97 2369.51 1466.97 2369.35C1466.99 2369.03 1467.04 2368.72 1467.08 2368.4C1467.15 2368.04 1467.24 2367.69 1467.36 2367.35C1468.53 2363.29 1472.47 2360.28 1477.13 2360.28H1529.73C1510.07 2373.13 1488.8 2382.93 1466.96 2389.15Z" fill="#F09210"/>
<path d="M1529.73 2360.28H1426.81C1422.13 2360.28 1418.21 2357.24 1417.04 2353.17C1416.93 2352.83 1416.83 2352.48 1416.76 2352.13C1416.72 2351.83 1416.68 2351.51 1416.67 2351.2C1416.65 2351.05 1416.65 2350.89 1416.65 2350.73C1416.65 2350.72 1416.65 2350.71 1416.65 2350.71V2325.89C1416.65 2325.73 1416.65 2325.56 1416.67 2325.4C1416.68 2325.09 1416.72 2324.79 1416.76 2324.47C1416.83 2324.12 1416.93 2323.76 1417.04 2323.43C1418.21 2319.36 1422.13 2316.33 1426.81 2316.33H1446.45C1447.85 2317.01 1449.44 2317.41 1451.13 2317.41H1579.13C1564.6 2334 1547.85 2348.43 1529.73 2360.28Z" fill="#F09210"/>
<path d="M1579.13 2317.41H1451.13C1449.44 2317.41 1447.85 2317.01 1446.45 2316.33C1443.65 2314.96 1441.61 2312.4 1441.11 2309.39C1441.05 2309.19 1441.04 2308.97 1441.01 2308.77C1441 2308.64 1440.99 2308.49 1440.99 2308.35C1440.97 2308.19 1440.97 2308.04 1440.97 2307.89C1440.97 2307.88 1440.97 2307.87 1440.97 2307.85V2283.04C1440.97 2282.88 1440.97 2282.72 1440.99 2282.55C1441 2282.24 1441.03 2281.92 1441.08 2281.63C1441.15 2281.28 1441.24 2280.93 1441.35 2280.6C1442.49 2276.52 1446.44 2273.48 1451.13 2273.48H1462.4H1609.49C1601.09 2289.37 1590.83 2304.08 1579.13 2317.41" fill="#F09210"/>
<path d="M1609.49 2273.48H1462.4C1457.73 2273.48 1453.8 2270.45 1452.63 2266.39C1452.51 2266.04 1452.41 2265.69 1452.35 2265.33C1452.31 2265.03 1452.25 2264.72 1452.24 2264.41V2238.6C1452.51 2233.96 1456.35 2230.15 1461.2 2229.61H1625.17V2235.61C1624.44 2238 1623.67 2240.37 1622.85 2242.75C1619.17 2253.4 1614.69 2263.67 1609.49 2273.48Z" fill="#F09210"/>
<path d="M1625.17 2235.61V2229.61H1626.91C1626.36 2231.61 1625.79 2233.63 1625.17 2235.61Z" fill="#F09210"/>
<path d="M1626.91 2229.61H1427.81C1422.39 2229.61 1417.93 2225.56 1417.65 2220.53C1417.64 2220.39 1417.64 2220.23 1417.64 2220.07C1417.64 2220.05 1417.64 2220.05 1417.64 2220.04V2195.23C1417.64 2195.07 1417.64 2194.89 1417.65 2194.73C1417.65 2194.6 1417.67 2194.47 1417.68 2194.33C1418.09 2190.19 1421.35 2186.81 1425.57 2185.91C1425.79 2185.92 1426 2185.96 1426.23 2185.97C1426.41 2185.97 1426.61 2185.99 1426.81 2185.99H1590.56V2229.6H1595.92V2185.99H1634.03C1633.2 2200.63 1630.84 2215.25 1626.91 2229.61Z" fill="#F09210"/>
<path d="M1590.56 2229.6H1595.92V2185.99H1590.56V2229.6Z" fill="#F09210"/>
<path d="M1634.03 2185.99H1426.81C1426.61 2185.99 1426.41 2185.97 1426.23 2185.97C1426 2185.96 1425.79 2185.92 1425.57 2185.91C1421.01 2185.36 1417.37 2181.99 1416.75 2177.73C1416.71 2177.45 1416.68 2177.19 1416.67 2176.91C1416.65 2176.75 1416.65 2176.6 1416.65 2176.44C1416.65 2176.43 1416.65 2176.43 1416.65 2176.41V2151.61C1416.65 2151.43 1416.65 2151.27 1416.67 2151.11C1416.68 2150.8 1416.72 2150.49 1416.76 2150.19C1416.83 2149.83 1416.93 2149.48 1417.04 2149.13C1418.21 2145.07 1422.13 2142.04 1426.81 2142.04H1446.45C1447.85 2142.73 1449.44 2143.12 1451.13 2143.12H1589.57V2185.97H1594.92V2143.12H1632.04C1632.27 2144.63 1632.48 2146.12 1632.67 2147.63C1634.29 2160.32 1634.75 2173.16 1634.03 2185.99Z" fill="#F09210"/>
<path d="M1589.57 2185.97H1594.92V2143.12H1589.57V2185.97Z" fill="#F09210"/>
<path d="M1632.04 2143.12H1451.13C1449.44 2143.12 1447.85 2142.73 1446.45 2142.04C1443.65 2140.67 1441.61 2138.11 1441.11 2135.09C1441.05 2134.89 1441.04 2134.68 1441.01 2134.48C1441 2134.33 1440.99 2134.2 1440.99 2134.05C1440.97 2133.91 1440.97 2133.75 1440.97 2133.59C1440.97 2133.57 1440.97 2133.56 1440.97 2133.55V2108.75C1440.97 2108.59 1440.97 2108.41 1440.99 2108.25C1441 2107.93 1441.03 2107.63 1441.08 2107.32C1441.15 2106.97 1441.24 2106.64 1441.35 2106.31C1442.49 2102.23 1446.44 2099.17 1451.13 2099.17H1489.59H1620.48C1625.87 2113.27 1629.77 2127.99 1632.04 2143.12ZM1613.89 2099.19V2143.12H1619.24V2099.19H1613.89Z" fill="#F09210"/>
<path d="M1613.89 2143.12H1619.24V2099.19H1613.89V2143.12Z" fill="#F09210"/>
<path d="M1620.48 2099.17H1489.59C1484.91 2099.17 1480.96 2096.15 1479.81 2092.07C1479.71 2091.73 1479.61 2091.4 1479.55 2091.04C1479.49 2090.73 1479.47 2090.43 1479.44 2090.11C1479.43 2089.96 1479.43 2089.8 1479.43 2089.65C1479.43 2089.64 1479.43 2089.63 1479.43 2089.61V2064.8C1479.43 2064.64 1479.43 2064.48 1479.44 2064.32C1479.69 2059.67 1483.53 2055.87 1488.39 2055.32H1597.65C1606.91 2069.03 1614.59 2083.72 1620.48 2099.17" fill="#F09210"/>
<path d="M1425.75 2011.57L1434.84 1955.99C1446.15 1957.49 1457.15 1959.76 1467.8 1962.72C1469.21 1965.79 1472.28 1968.04 1475.92 1968.45H1463.63H1462.4C1462 1968.45 1461.59 1968.47 1461.2 1968.52C1456.35 1969.07 1452.51 1972.87 1452.25 1977.52C1452.24 1977.68 1452.24 1977.85 1452.24 1978.01V2002.83C1452.24 2002.99 1452.24 2003.15 1452.25 2003.32C1452.25 2003.45 1452.27 2003.59 1452.28 2003.71C1452.61 2007.05 1454.8 2009.92 1457.87 2011.37H1429.03H1427.81C1427.11 2011.37 1426.41 2011.44 1425.75 2011.57Z" fill="#E6BA84"/>
<path d="M1597.65 2055.32H1427.81C1424.27 2055.32 1421.12 2053.59 1419.31 2050.99L1419.33 2050.76L1425.72 2011.8L1425.75 2011.57C1426.41 2011.44 1427.11 2011.37 1427.81 2011.37H1429.03H1457.87C1459.23 2012.03 1460.77 2012.39 1462.4 2012.39H1559.87C1571.24 2022.4 1581.52 2033.48 1590.56 2045.4V2055.31H1595.92V2052.77C1596.51 2053.61 1597.08 2054.47 1597.65 2055.32" fill="#F09210"/>
<path d="M1595.92 2055.31H1590.56V2045.4C1592.4 2047.83 1594.19 2050.28 1595.92 2052.77V2055.31Z" fill="#F09210"/>
<path d="M1559.87 2012.39H1462.4C1460.77 2012.39 1459.23 2012.03 1457.87 2011.37C1454.8 2009.92 1452.61 2007.05 1452.28 2003.71C1452.27 2003.59 1452.25 2003.45 1452.25 2003.32C1452.24 2003.15 1452.24 2002.99 1452.24 2002.83V1978.01C1452.24 1977.85 1452.24 1977.68 1452.25 1977.52C1452.51 1972.87 1456.35 1969.07 1461.2 1968.52C1461.59 1968.47 1462 1968.45 1462.4 1968.45H1463.63H1475.92C1476.32 1968.49 1476.72 1968.52 1477.13 1968.52H1485.84C1513.64 1978.68 1538.65 1993.71 1559.87 2012.39" fill="#F09210"/>
<path d="M1485.84 1968.52H1477.13C1476.72 1968.52 1476.32 1968.49 1475.92 1968.45C1472.28 1968.04 1469.21 1965.79 1467.8 1962.72C1473.93 1964.43 1479.95 1966.36 1485.84 1968.52Z" fill="#F09210"/>
<path d="M1147.87 2274.75C1086.15 2162.77 1126.88 2021.96 1238.85 1960.24C1350.83 1898.52 1491.64 1939.25 1553.36 2051.23C1615.08 2163.2 1574.35 2304 1462.37 2365.73C1350.4 2427.45 1209.6 2386.72 1147.87 2274.75Z" fill="#E2810E"/>
<path d="M1453.39 2370.43C1450.53 2372.17 1447.64 2373.85 1444.69 2375.48C1443.69 2376.03 1442.69 2376.57 1441.69 2377.09C1439.41 2378.32 1437.13 2379.48 1434.83 2380.63C1324.58 2434.77 1190.11 2393.21 1130.18 2284.49C1073.01 2180.8 1103.74 2052.36 1197.54 1984.92C1205.02 1979.53 1212.89 1974.55 1221.17 1969.99C1224.13 1968.35 1227.13 1966.79 1230.13 1965.29C1233.05 1963.84 1236 1962.45 1238.95 1961.15C1248.01 1957.11 1257.23 1953.71 1266.52 1950.92C1280.35 1946.75 1294.38 1943.95 1308.44 1942.47C1352.05 1937.84 1395.93 1945.81 1434.83 1964.84C1476.11 1985.03 1511.8 2017.68 1535.68 2060.97C1595.77 2170 1558.73 2306.36 1453.39 2370.43" fill="#FFB93E"/>
<path d="M1333.91 1973.32C1300.99 1973.32 1267.62 1981.39 1236.81 1998.37C1189.59 2024.4 1155.34 2067.25 1140.36 2119.04C1125.38 2170.83 1131.46 2225.36 1157.49 2272.57C1183.51 2319.79 1226.37 2354.04 1278.16 2369.03C1329.95 2384 1384.47 2377.92 1431.69 2351.89C1529.16 2298.16 1564.73 2175.16 1511.01 2077.69C1474.27 2011.04 1405.12 1973.32 1333.91 1973.32V1973.32ZM1334.55 2382.67C1315.19 2382.67 1295.72 2379.92 1276.61 2374.4C1223.38 2359 1179.33 2323.8 1152.59 2275.27C1125.84 2226.75 1119.59 2170.71 1134.98 2117.49C1150.38 2064.27 1185.58 2020.21 1234.11 1993.47C1334.28 1938.25 1460.69 1974.83 1515.91 2074.99C1571.13 2175.16 1534.56 2301.57 1434.39 2356.79C1403.29 2373.93 1369.09 2382.67 1334.55 2382.67" fill="#FFA412"/>
<path d="M1436.27 2195.28C1435.81 2194.13 1435.32 2193.04 1434.83 2191.95C1431.08 2183.71 1426.4 2177.01 1420.79 2171.89C1414.44 2166.11 1407.08 2161.77 1398.68 2158.89C1390.29 2156 1380.92 2154.24 1370.6 2153.61C1360.27 2152.97 1349.01 2152.83 1336.87 2153.17C1329.36 2153.4 1322.94 2153.27 1317.61 2152.79C1312.28 2152.29 1307.76 2151.31 1304.05 2149.81C1300.33 2148.32 1297.32 2146.28 1295 2143.68C1292.68 2141.09 1290.77 2137.93 1289.25 2134.2C1287.73 2130.45 1286.86 2126.75 1286.63 2123.07C1286.4 2119.4 1286.95 2115.92 1288.28 2112.6C1289.6 2109.31 1291.75 2106.25 1294.73 2103.45C1297.71 2100.65 1301.64 2098.25 1306.54 2096.27C1315.57 2092.6 1324 2092.69 1331.83 2096.51C1339.65 2100.35 1346.03 2108.32 1350.95 2120.44L1398.11 2101.29C1394 2091.2 1388.87 2082.65 1382.68 2075.69C1376.49 2068.73 1369.52 2063.35 1361.77 2059.55C1354.01 2055.75 1345.57 2053.53 1336.44 2052.88C1327.31 2052.24 1317.81 2053.2 1307.97 2055.79L1294.62 2022.89L1268.51 2033.49L1281.68 2065.93C1272.26 2070.83 1264.27 2076.51 1257.71 2082.99C1251.16 2089.48 1246.12 2096.51 1242.6 2104.05C1239.08 2111.61 1237.23 2119.53 1237.05 2127.84C1236.88 2136.16 1238.53 2144.61 1242.02 2153.19C1246.05 2163.09 1251.23 2170.95 1257.57 2176.72C1263.91 2182.51 1271.27 2186.81 1279.64 2189.65C1288.02 2192.49 1297.38 2194.2 1307.75 2194.75C1318.11 2195.31 1329.39 2195.29 1341.56 2194.71C1348.63 2194.31 1354.76 2194.35 1359.96 2194.84C1365.16 2195.31 1369.65 2196.31 1373.44 2197.83C1377.23 2199.36 1380.37 2201.49 1382.88 2204.24C1385.39 2206.99 1387.51 2210.48 1389.24 2214.72C1390.76 2218.47 1391.51 2222.19 1391.49 2225.91C1391.48 2229.61 1390.64 2233.17 1388.97 2236.55C1387.31 2239.93 1384.8 2243.07 1381.48 2245.95C1378.15 2248.84 1373.93 2251.31 1368.81 2253.39C1364.35 2255.2 1359.75 2256.39 1354.97 2256.99C1350.2 2257.56 1345.55 2257.09 1341 2255.59C1336.45 2254.07 1332.21 2251.32 1328.25 2247.35C1324.29 2243.37 1320.85 2237.79 1317.94 2230.61L1270.78 2249.76C1275.7 2261.88 1281.89 2271.51 1289.33 2278.59C1296.78 2285.69 1304.92 2290.79 1313.77 2293.83C1322.62 2296.89 1331.87 2298.24 1341.52 2297.84C1351.19 2297.44 1360.72 2295.88 1370.12 2293.11L1382.31 2323.12L1408.25 2312.59L1396 2282.44C1405.43 2277.55 1413.49 2271.91 1420.21 2265.53C1426.44 2259.63 1431.31 2253.28 1434.83 2246.45C1435.12 2245.89 1435.39 2245.35 1435.65 2244.79C1439.21 2237.33 1441.12 2229.45 1441.35 2221.11C1441.57 2212.79 1439.88 2204.17 1436.27 2195.28" fill="#FFA412"/>
<path d="M1160.91 1357.71C1161.62 1354.87 1099.25 1385.89 1096.09 1389.4C1066.84 1421.84 1075.18 1464.19 1091.91 1464.59C1102.65 1464.85 1100.57 1482.69 1100.57 1482.69L1220.15 1432.11C1220.15 1432.11 1205.75 1348.15 1160.91 1357.71" fill="#2C3A64"/>
<path d="M1175.64 1364.25C1175.64 1364.25 1179.91 1317.67 1127.86 1317.67C1127.86 1317.67 1143.63 1321.95 1151.79 1330.51C1151.79 1330.51 1118.59 1311.01 1082.47 1340.96C1046.34 1370.91 1068.79 1446.01 1057.8 1460.28C1046.81 1474.53 1004.03 1477.39 1009.26 1523.49C1014.49 1569.61 1145.04 1627.36 1136.66 1665.51C1136.66 1665.51 1187.82 1590.31 1151.24 1555.99C1151.24 1555.99 1169.07 1572.77 1170.88 1592.75C1170.88 1592.75 1175.72 1553.76 1150.92 1541.29C1128.97 1530.27 1110.99 1489.91 1112.89 1482.69C1114.79 1475.49 1175.64 1364.25 1175.64 1364.25" fill="#2C3A64"/>
<path d="M1128.38 1583.41C1120.35 1544.77 1070.23 1532.79 1046.53 1564.35C1042.26 1570.01 1039.26 1576.73 1038.28 1584.65C1032.87 1628.52 1103.01 1807.21 1113.06 1823.4C1131.35 1852.85 1239.04 1953.83 1239.04 1953.83L1258.89 1941.8C1258.89 1941.8 1182.5 1812.48 1170.67 1800.39C1157 1786.39 1143.61 1656.8 1128.38 1583.41" fill="#ED985F"/>
<path d="M1231.49 1941.85C1231.49 1941.85 1260.46 1922.84 1271.43 1924.07C1282.39 1925.28 1314.13 1934.41 1314.52 1939.08C1314.9 1943.75 1279.15 1946.67 1276.75 1949.21C1274.35 1951.76 1250.08 1967.97 1241.28 1962.88C1232.48 1957.8 1231.49 1941.85 1231.49 1941.85" fill="#ED985F"/>
<path d="M1029.44 2371.55L1003.56 2367.75C1003.56 2367.75 916.547 2298.6 903.588 2169.57C902.267 2156.44 901.991 2143.12 902.971 2129.68C903.084 2128.13 902.913 2126.59 902.067 2125.28L902.039 2125.24C899.252 2120.97 892.323 2110.28 882.939 2095.07C873.688 2080.08 857.859 2051.75 840.441 2019.96C809.067 1962.71 772.54 1894.23 760.009 1872.43C720.088 1802.92 739.332 1756.17 739.332 1756.17C739.332 1756.17 850.699 1745.17 881.217 1718.47L892.208 1735.41C892.208 1735.41 916.337 1842.24 915.196 1842.73C916.385 1846.36 917.592 1850.07 918.819 1853.83C937.861 1912.6 959.767 1986.07 971.708 2045.89C978.419 2079.56 981.975 2108.89 980.064 2128.87C979.408 2135.72 980.207 2146.27 982.032 2159.27C992.813 2235.93 1029.44 2371.55 1029.44 2371.55Z" fill="#2B478B"/>
<path d="M1083.72 2404.28H975.753C975.753 2404.28 973.167 2387.83 978.805 2375.35C984.209 2363.37 991.911 2362.99 979.789 2344.21C986.649 2351.28 1008.7 2354.2 1024.31 2352.09C1026.22 2355.2 1036.64 2376 1043.03 2380.59C1050.08 2385.65 1081.55 2383.85 1083.72 2404.28" fill="#233862"/>
<path d="M918.819 1853.83C909.388 1905.84 887.112 1992.4 840.441 2019.96C809.067 1962.71 772.54 1894.23 760.009 1872.43C720.088 1802.92 739.332 1756.17 739.332 1756.17C739.332 1756.17 850.699 1745.17 881.217 1718.47L892.208 1735.41C892.208 1735.41 916.337 1842.24 915.196 1842.73C916.385 1846.36 917.592 1850.07 918.819 1853.83" fill="#233862"/>
<path d="M1116.83 1559.44C1116.83 1559.44 1132.09 1575.31 1139.06 1594.33C1139.06 1594.33 1114.71 1664.25 1057.8 1673.03C1057.8 1673.03 1102.83 1559.41 1116.83 1559.44Z" fill="#88A7D6"/>
<path d="M843.099 1764.21L843.465 1744.01C803.233 1749.09 704.745 1695.95 704.745 1695.95C704.745 1695.95 662.656 1723.93 656.895 1803.88C654.083 1842.91 636.291 2007.93 634.323 2057.2C633.605 2075.07 633.368 2087.81 633.285 2092.91L633.292 2092.96C633.267 2094.51 632.537 2095.88 631.581 2097.11C623.257 2107.69 616.035 2118.89 609.781 2130.52C548.391 2244.75 580.495 2399.95 580.495 2399.95L594.751 2396.32C594.751 2396.32 646.66 2235.43 680.584 2165.84C686.343 2154.04 691.573 2144.85 695.949 2139.53C708.705 2124.04 722.156 2097.73 735.415 2066.07C760.476 2006.2 784.807 1927.21 802.16 1866.04C803.384 1866.27 843.099 1764.21 843.099 1764.21" fill="#2B478B"/>
<path d="M1078.53 1629.44C1012.76 1614.35 1054.78 1521.93 1058.59 1523.56C1067.7 1521.69 1087.72 1505.69 1105.62 1474.45L1108.04 1476.55L1148.44 1511.96C1148.44 1511.96 1139.1 1525.73 1131.24 1539.23C1125.11 1549.79 1119.89 1560.2 1120.72 1563.77C1123.97 1566.33 1096.07 1633.48 1078.53 1629.44" fill="#FFB27D"/>
<path d="M1148.43 1511.97C1148.43 1511.97 1139.09 1525.73 1131.24 1539.24C1106.13 1523.76 1106.1 1492.67 1108.03 1476.56L1148.43 1511.97Z" fill="#ED985F"/>
<path d="M1149.55 1529.71C1149.55 1529.71 1088.57 1495.77 1110.29 1458.13C1132.01 1420.48 1138.76 1390.75 1178.61 1410.81C1218.47 1430.89 1217.68 1449.57 1213.49 1463.91C1209.29 1478.24 1165.98 1537.56 1149.55 1529.71" fill="#FFB27D"/>
<path d="M1223.79 1441.95C1220.99 1425.23 1212.5 1423.64 1206.58 1424.75C1184.06 1387.51 1147.27 1402.04 1147.27 1402.04C1127.62 1426.71 1099.2 1430.91 1099.2 1430.91C1099.2 1430.91 1106.28 1444.08 1135.44 1452.23C1144.34 1454.72 1154.45 1453.21 1164.2 1449.93C1143.97 1461.21 1122.82 1465.53 1122.82 1465.53C1161.24 1469.04 1197.8 1433.92 1201.59 1430.16C1203.36 1435.6 1206.47 1447 1204.61 1455.33C1202.08 1466.65 1192.03 1487.16 1198.17 1489.81C1198.17 1489.81 1227.97 1467.01 1223.79 1441.95" fill="#2C3A64"/>
<path d="M666.351 2404.28H558.385C558.385 2404.28 555.797 2387.83 561.437 2375.35C566.84 2363.37 575.304 2357.92 573.277 2343.43C580.139 2350.49 591.319 2358.4 606.928 2356.31C608.84 2359.4 619.273 2376 625.661 2380.59C632.716 2385.65 664.177 2383.85 666.351 2404.28" fill="#233862"/>
<path d="M1086.27 1702.71C1072.38 1707.56 1052.88 1710.21 1032.93 1712.37C1004.55 1715.48 975.235 1717.6 959.88 1723.72C954.28 1725.96 950.535 1728.71 949.365 1732.24C942.711 1752.25 913.38 1783.13 913.38 1783.13C725.384 1774.57 704.744 1695.95 704.744 1695.95C831.228 1548.87 1045.39 1506.29 1045.39 1506.29C1045.39 1506.29 1060.69 1499.8 1099.21 1530.41C1124.92 1550.85 1121.53 1558.71 1121.53 1558.71C1121.53 1558.71 1127.15 1688.45 1086.27 1702.71" fill="#95C0E8"/>
<path d="M1032.93 1712.37C1004.55 1715.48 975.235 1717.6 959.88 1723.72C953.605 1629.96 997.852 1559.44 997.852 1559.44C997.852 1559.44 1026.72 1676.89 1032.93 1712.37" fill="#88A7D6"/>
<path d="M1062.15 1541.29C1062.15 1541.29 991.003 1548.32 985.299 1594.56C979.595 1640.79 1053.51 1829.09 1064.1 1846.15C1083.37 1877.19 1196.85 1983.59 1196.85 1983.59L1217.77 1970.92C1217.77 1970.92 1137.28 1834.64 1124.81 1821.89C1105.25 1801.87 1086.25 1557.31 1062.15 1541.29" fill="#FFB27D"/>
<path d="M987.352 1622.37C987.537 1623.43 1053.02 1643.76 1095.15 1622.37C1095.15 1622.37 1104.17 1525.15 1053.86 1530.43C1003.56 1535.69 973.768 1551.55 972.5 1575.63C971.232 1599.72 987.352 1622.37 987.352 1622.37" fill="#95C0E8"/>
<path d="M1190.39 1970.08C1190.39 1970.08 1215.91 1946.64 1226.93 1946.08C1237.95 1945.52 1270.75 1949.41 1271.88 1953.96C1273.01 1958.51 1238.2 1967.13 1236.24 1970.04C1234.28 1972.95 1212.94 1992.85 1203.43 1989.25C1193.93 1985.65 1190.39 1970.08 1190.39 1970.08" fill="#FFB27D"/>
<path d="M2669.01 2410.32C2662.55 2410.36 2655.78 2405.65 2653.89 2399.81L2265.25 1205.83C2263.36 1199.99 2267.03 1195.22 2273.49 1195.18C2279.94 1195.14 2286.72 1199.85 2288.62 1205.69L2677.25 2399.67C2679.16 2405.51 2675.46 2410.28 2669.01 2410.32" fill="#233862"/>
<path d="M2982.2 2408.49C2975.76 2408.52 2968.98 2403.83 2967.09 2397.97L2578.45 1204.01C2576.56 1198.17 2580.24 1193.4 2586.68 1193.36C2593.14 1193.32 2599.91 1198.03 2601.82 1203.87L2990.44 2397.84C2992.35 2403.68 2988.66 2408.45 2982.2 2408.49" fill="#233862"/>
<path d="M2644.97 1370.37L2330.45 1372.21C2324.39 1372.24 2317.96 1367.78 2316.17 1362.29C2314.39 1356.8 2317.88 1352.27 2323.95 1352.24L2638.46 1350.4C2644.53 1350.36 2650.96 1354.83 2652.74 1360.32C2654.53 1365.81 2651.05 1370.33 2644.97 1370.37Z" fill="#233862"/>
<path d="M2712.83 1578.84L2398.3 1580.68C2392.24 1580.71 2385.81 1576.24 2384.02 1570.75C2382.24 1565.27 2385.73 1560.73 2391.79 1560.71L2706.32 1558.87C2712.38 1558.83 2718.81 1563.3 2720.6 1568.79C2722.38 1574.28 2718.89 1578.8 2712.83 1578.84Z" fill="#233862"/>
<path d="M2778.17 1779.61L2463.66 1781.45C2457.58 1781.48 2451.15 1777.01 2449.38 1771.53C2447.58 1766.04 2451.1 1761.51 2457.14 1761.48L2771.68 1759.64C2777.73 1759.6 2784.16 1764.07 2785.96 1769.56C2787.73 1775.05 2784.25 1779.57 2778.17 1779.61Z" fill="#233862"/>
<path d="M2851.74 2005.64L2537.22 2007.48C2531.16 2007.52 2524.72 2003.05 2522.95 1997.56C2521.16 1992.07 2524.65 1987.55 2530.71 1987.51L2845.24 1985.67C2851.3 1985.64 2857.72 1990.1 2859.51 1995.59C2861.3 2001.08 2857.81 2005.61 2851.74 2005.64Z" fill="#233862"/>
<path d="M2928.75 2242.23L2614.23 2244.05C2608.17 2244.09 2601.73 2239.63 2599.95 2234.13C2598.16 2228.64 2601.68 2224.12 2607.74 2224.08L2922.26 2222.25C2928.32 2222.21 2934.74 2226.68 2936.52 2232.17C2938.32 2237.67 2934.81 2242.19 2928.75 2242.23Z" fill="#233862"/>
<path d="M2269.53 985.712C2263.74 981.633 2250.61 972.634 2249.92 974.639C2249.43 976.082 2250.15 978.535 2251.72 981.087C2243.77 978.115 2235.71 976.167 2216.64 979.825C2212.82 980.568 2209.37 982.741 2207.27 986.007C2205.33 989.034 2204.59 992.819 2209.47 995.846C2219.2 1001.89 2216.36 998.271 2229.89 1007.07C2243.4 1015.89 2259.97 1018.13 2269.87 1011.95L2283.13 1009.74L2284.78 987.913C2284.78 987.913 2277.23 987.002 2269.53 985.712" fill="#FFB27D"/>
<path d="M2617.37 802.587C2617.37 802.587 2586.07 839.712 2546.23 824.185C2546.23 824.185 2537.66 803.455 2537.53 788.168C2537.51 786.289 2537.5 784.458 2537.47 782.724C2537.24 765.511 2536.68 755.86 2536.68 755.86L2536.71 755.844C2538.52 755.089 2597.63 730.827 2597.58 732.85C2596.57 779.4 2617.37 802.587 2617.37 802.587" fill="#FFB27D"/>
<path d="M2591.64 743.943C2585.95 754.523 2566.38 775.19 2537.45 782.732C2537.23 765.517 2536.66 755.86 2536.66 755.86H2536.71C2538.34 755.414 2593.33 740.841 2591.64 743.943" fill="#ED975D"/>
<path d="M2524.27 754.076C2524.27 754.076 2590.75 769.705 2599.84 728.161C2608.94 686.617 2623.65 660.654 2581.59 648.92C2539.55 637.186 2527.8 651.222 2521.37 664.357C2514.98 677.491 2507.23 748.941 2524.27 754.076Z" fill="#FFB27D"/>
<path d="M2597.6 739.464C2598.49 740.049 2612.8 744.45 2639.89 690.486C2644.14 682.009 2647.03 663.691 2637.13 647.5C2627.2 631.309 2592.06 618.578 2562.86 613.04C2533.67 607.502 2526.67 623.92 2519.78 640.436C2512.57 657.78 2491.72 672.038 2491.72 672.038C2516.91 686.118 2547.23 665.997 2557.73 669.31C2568.24 672.606 2571.96 689.17 2572.74 694.481C2573.53 699.791 2574.73 704.192 2587.95 699.45C2601.16 694.708 2593.93 718.174 2591.8 722.673C2591.8 722.673 2590 734.609 2597.6 739.464" fill="#233862"/>
<path d="M2669.28 1772.11H2709.54C2717.98 1772.11 2727.35 1763.65 2729.7 1748.19C2732.05 1732.72 2749.39 1724.28 2753.14 1711.61C2756.9 1698.95 2737.66 1681.12 2737.66 1681.12L2734.45 1677L2731.1 1672.69L2699.24 1680.19C2699.24 1680.19 2698.44 1687.79 2697.95 1697.45C2697.6 1704.43 2697.41 1712.51 2697.82 1719.59C2698.76 1736.47 2693.08 1754.64 2678.1 1757.93C2663.08 1761.21 2669.28 1772.11 2669.28 1772.11" fill="#2C3A64"/>
<path d="M2488.62 1775.53H2595.32C2596.34 1775.33 2597.11 1775.12 2597.57 1774.88C2604.7 1771.32 2602.48 1744.04 2601.61 1735.61C2601.44 1734.05 2601.32 1733.15 2601.32 1733.15C2601.32 1733.15 2563.82 1703.13 2558.64 1726.11C2558.48 1726.83 2558.29 1727.53 2558.1 1728.22V1728.24C2551.6 1749.73 2522.46 1759.49 2505.65 1762.21C2492.81 1764.31 2489.47 1771.8 2488.62 1775.53" fill="#2C3A64"/>
<path d="M2510.12 1160.28C2510.12 1160.28 2515.8 1231.37 2522.5 1316.82C2531.6 1432.9 2542.56 1575.48 2543.62 1602.5C2545.49 1649.39 2553.02 1724.42 2553.02 1724.42C2553.02 1724.42 2570.82 1742.24 2606.47 1734.74C2606.47 1734.74 2638.24 1627.63 2647.32 1514.31C2647.46 1512.46 2647.59 1510.58 2647.74 1508.71C2656.18 1393.35 2669.31 1150.43 2669.31 1150.43L2510.12 1160.28" fill="#2B478B"/>
<path d="M2510.12 1160.28C2510.12 1160.28 2515.8 1231.37 2522.5 1316.82L2647.32 1514.31C2647.46 1512.46 2647.59 1510.58 2647.74 1508.71C2656.18 1393.35 2669.31 1150.43 2669.31 1150.43L2510.12 1160.28" fill="#233862"/>
<path d="M2545.62 1145.11C2545.62 1145.11 2603.29 1382.93 2647.34 1514.3C2691.37 1645.68 2693.22 1709.28 2693.22 1709.28C2693.22 1709.28 2743.13 1699.53 2748.53 1689.81C2748.53 1689.81 2765.63 1464.81 2731.7 1400.5C2712.52 1364.16 2715.75 1279.96 2715.75 1241.6C2715.75 1170.53 2693.57 1099.96 2693.57 1099.96L2545.62 1145.11" fill="#2B478B"/>
<path d="M2770.36 1121.93L2771.44 1138.49C2771.44 1138.49 2760.51 1167.91 2791.12 1183C2791.12 1183 2804.21 1188.28 2804.75 1178.08C2805.28 1167.89 2803.6 1171.72 2804.66 1157.36C2805.73 1143 2800.08 1129.44 2790.58 1124.86L2782.8 1115.87L2770.36 1121.93" fill="#FFB27D"/>
<path d="M2782.3 1133.99C2770.94 1137.64 2769.12 1136.81 2769.12 1136.81C2769.12 1136.81 2713.79 1036.08 2708.18 1026.86C2702.59 1017.64 2590.71 913.91 2590.71 913.91L2619.47 806.701C2619.47 806.701 2746.7 971.464 2760.44 995.107C2783.14 1034.17 2796.45 1124.91 2796.45 1124.91C2796.45 1124.91 2791.23 1131.12 2782.3 1133.99Z" fill="#1E3D70"/>
<path d="M2488.43 955.992C2488.83 978.013 2490.13 1002.76 2491.84 1027.9C2491.94 1029.39 2492.06 1030.88 2492.16 1032.37C2493.25 1047.94 2494.45 1063.55 2495.83 1078.77C2496.39 1084.87 2496.98 1090.9 2497.57 1096.83L2497.67 1097.63C2497.72 1099.84 2497.99 1102.25 2498.24 1104.44C2503.84 1161.45 2509.72 1206.49 2510.82 1207.18C2512.12 1208.05 2513.58 1208.49 2515.19 1208.3C2530.15 1206.42 2574.75 1209.81 2611.27 1201.87C2642.08 1195.37 2668.62 1183.04 2696.74 1166.43C2700.46 1164.22 2708.97 1158.38 2708.28 1154.01C2707.59 1149.21 2706.35 1142.28 2704.75 1133.56C2699.2 1103.24 2689.64 1051.08 2686.39 990.028C2685.74 978.661 2684.83 967.426 2683.63 956.391C2680.49 927.622 2675.47 900.3 2668.74 876.036C2656.21 830.947 2637.81 796.428 2614.72 782.917C2611.7 781.238 2595.48 791.559 2580.57 801.115C2566.81 809.94 2552.32 812.383 2538.22 811.153L2525.83 824.881C2510.8 842.331 2494.81 865.582 2490.44 898.621C2490.13 901.064 2489.85 903.657 2489.6 906.416C2488.38 919.878 2488.1 936.913 2488.43 955.992" fill="#2A4E96"/>
<path d="M2488.44 956.01C2488.84 978.023 2490.11 1002.77 2491.84 1027.9C2491.94 1029.39 2492.05 1030.89 2492.16 1032.36C2577.54 978.929 2590.7 881.118 2590.7 881.118C2548.69 882.946 2515.32 892.609 2489.6 906.421C2488.38 919.883 2488.09 936.921 2488.44 956.01Z" fill="#1E3D70"/>
<path d="M2272.65 998.109C2271.78 985.439 2278.33 983.341 2278.33 983.341C2278.33 983.341 2407.1 960.003 2418.04 956.565C2429 953.111 2522.58 855.756 2522.58 855.756C2522.58 855.756 2558.45 815.294 2587.83 824.235C2613.35 831.999 2623.32 851.915 2626.73 870.879C2630.78 893.475 2620.35 916.232 2600.77 928.224C2556.84 955.177 2468.86 1008.28 2448.17 1014.35C2402.04 1027.87 2278.17 1015.44 2278.17 1015.44C2278.17 1015.44 2273.35 1008.05 2272.65 998.109" fill="#2A4E96"/>
<path d="M2340.75 1140.29C2338.88 1146.27 2332.5 1150.11 2325.83 1148.11C2265.75 1129.37 2202.11 1116.98 2139.33 1109.75C2070.43 1101.83 2000.09 1100.29 1966.98 1102.6C1960.42 1103.02 1954.76 1098.02 1954.36 1091.45C1953.97 1084.88 1958.96 1079.25 1965.5 1078.85C2016.99 1075.77 2089.39 1079.82 2144.06 1086.26C2206.74 1093.65 2271.6 1106.26 2332.91 1125.38C2339.19 1127.34 2342.7 1134.01 2340.75 1140.29Z" fill="#2B478B"/>
<path d="M3522.88 2212.32C3521.84 2210.07 3520.54 2208.01 3519.02 2206.16L3518.97 2206.13C3517.84 2204.76 3516.58 2203.48 3515.22 2202.31L3509.51 2196.54L3508.03 2197.64C3478.87 2183.38 3418.66 2198.51 3357.76 2238.27C3284.15 2286.32 3236.91 2352.48 3250.52 2387.64L3248.46 2389.17L3256.64 2397.33C3257.04 2397.75 3257.43 2398.15 3257.84 2398.55L3258.08 2398.77L3258.16 2398.83C3260.23 2400.72 3262.59 2402.36 3265.24 2403.75L3265.26 2403.77H3265.29C3294.05 2418.85 3354.91 2403.84 3416.47 2363.64C3491.46 2314.69 3539.1 2246.95 3522.88 2212.32" fill="#FFA412"/>
<path d="M3349.02 2229.51C3423.98 2180.55 3497.92 2168.93 3514.12 2203.56C3530.34 2238.19 3482.69 2305.93 3407.73 2354.89C3332.75 2403.84 3258.81 2415.45 3242.59 2380.84C3226.39 2346.21 3274.01 2278.45 3349.02 2229.51" fill="#FFB93E"/>
<path d="M3461.74 2201.75C3434.54 2201.75 3394.62 2216.59 3356.18 2241.76C3325.33 2261.96 3298.81 2286.24 3281.48 2310.15C3264.8 2333.13 3258.58 2353.59 3264.39 2366.25C3267.14 2372.24 3272.45 2376.41 3280.21 2378.64C3284.53 2379.89 3289.5 2380.49 3295 2380.49C3322.2 2380.49 3362.12 2365.65 3400.55 2340.48C3431.4 2320.29 3457.93 2296 3475.26 2272.11C3491.94 2249.12 3498.15 2228.67 3492.35 2215.99C3489.6 2210 3484.29 2205.84 3476.55 2203.6C3472.21 2202.36 3467.22 2201.75 3461.74 2201.75V2201.75ZM3295.17 2386.01C3289.09 2386.01 3283.54 2385.33 3278.66 2383.93C3269.31 2381.23 3262.84 2376.05 3259.38 2368.55C3252.63 2353.8 3258.89 2331.92 3277.03 2306.91C3294.74 2282.48 3321.79 2257.71 3353.17 2237.16C3401.37 2205.59 3450.41 2190.35 3478.08 2198.32C3487.41 2201.01 3493.92 2206.19 3497.36 2213.69C3504.11 2228.44 3497.85 2250.33 3479.73 2275.33C3461.99 2299.76 3434.97 2324.53 3403.59 2345.09C3363.86 2371.09 3323.59 2386.01 3295.17 2386.01" fill="#FFA412"/>
<path d="M3348.15 2310.04C3350.48 2309.03 3352.54 2307.91 3354.34 2306.71C3356.14 2305.49 3357.82 2304.07 3359.35 2302.45C3360.87 2300.83 3362.31 2298.97 3363.67 2296.87C3365.03 2294.77 3366.41 2292.33 3367.79 2289.56C3370.21 2284.77 3372.69 2280.31 3375.23 2276.15C3377.76 2272 3380.6 2268.15 3383.74 2264.6C3386.88 2261.05 3390.46 2257.8 3394.49 2254.83C3398.52 2251.87 3403.25 2249.19 3408.64 2246.81C3413.33 2244.76 3417.55 2243.44 3421.3 2242.85C3425.06 2242.28 3428.26 2242.39 3430.93 2243.19C3433.6 2244 3435.68 2245.44 3437.19 2247.53C3438.7 2249.63 3439.54 2252.35 3439.69 2255.69L3457.38 2247.93L3456.45 2257.45L3438.5 2265.33C3437.53 2269.04 3435.87 2272.72 3433.56 2276.4C3431.27 2280.07 3428.39 2283.6 3424.95 2286.97C3421.49 2290.35 3417.51 2293.53 3412.99 2296.53C3408.43 2299.53 3403.4 2302.24 3397.91 2304.65L3399.56 2287.45C3406.18 2284.55 3411.23 2281.4 3414.68 2277.99C3418.16 2274.59 3420.07 2271.24 3420.39 2267.95C3420.56 2266.16 3420.33 2264.79 3419.71 2263.83C3419.1 2262.85 3418.16 2262.24 3416.95 2261.97C3415.75 2261.72 3414.28 2261.77 3412.56 2262.15C3410.82 2262.52 3408.94 2263.16 3406.9 2264.05C3404.86 2264.96 3403 2265.96 3401.3 2267.09C3399.6 2268.21 3398.01 2269.56 3396.51 2271.16C3395.02 2272.75 3393.56 2274.61 3392.18 2276.77C3390.78 2278.92 3389.29 2281.48 3387.75 2284.44C3385.24 2289.23 3382.7 2293.71 3380.13 2297.85C3377.57 2302 3374.68 2305.85 3371.52 2309.41C3368.36 2312.96 3364.75 2316.23 3360.72 2319.2C3356.69 2322.17 3351.99 2324.83 3346.64 2327.17C3341.8 2329.31 3337.5 2330.65 3333.76 2331.21C3330.01 2331.77 3326.83 2331.64 3324.22 2330.81C3321.61 2329.99 3319.6 2328.49 3318.17 2326.32C3316.73 2324.16 3315.95 2321.4 3315.8 2318.04L3299.36 2325.27L3300.27 2315.8L3316.63 2308.61C3317.45 2305.11 3318.83 2301.44 3320.78 2297.64C3322.74 2293.84 3325.39 2290.07 3328.74 2286.32C3332.07 2282.57 3336.18 2278.93 3341.06 2275.43C3345.94 2271.92 3351.69 2268.71 3358.31 2265.8L3356.63 2283.01C3352.71 2284.72 3349.42 2286.53 3346.72 2288.41C3344.03 2290.29 3341.85 2292.2 3340.17 2294.12C3338.47 2296.04 3337.24 2297.92 3336.46 2299.77C3335.65 2301.61 3335.19 2303.35 3335.04 2304.97C3334.85 2306.84 3335.06 2308.32 3335.63 2309.41C3336.2 2310.51 3337.09 2311.25 3338.26 2311.65C3339.43 2312.05 3340.87 2312.11 3342.57 2311.81C3344.24 2311.53 3346.11 2310.93 3348.15 2310.04" fill="#FFA412"/>
<path d="M2048.02 495.969C2048.68 494.533 2049.51 493.234 2050.47 492.058L2050.48 492.044C2051.21 491.169 2052 490.362 2052.89 489.623L2056.5 485.957L2057.45 486.655C2075.94 477.6 2114.14 487.202 2152.79 512.424C2199.5 542.925 2229.47 584.902 2220.83 607.224L2222.15 608.195L2216.96 613.365C2216.7 613.625 2216.45 613.885 2216.18 614.131L2216.03 614.282L2215.98 614.309C2214.67 615.513 2213.18 616.552 2211.5 617.441L2211.47 617.455C2193.21 627.016 2154.58 617.496 2115.52 591.987C2067.95 560.925 2037.72 517.936 2048.02 495.969Z" fill="#FFA412"/>
<path d="M2158.35 506.861C2110.77 475.802 2063.87 468.421 2053.58 490.399C2043.29 512.362 2073.53 555.357 2121.09 586.417C2168.67 617.476 2215.59 624.857 2225.88 602.879C2236.16 580.915 2205.94 537.921 2158.35 506.861" fill="#FFB93E"/>
<path d="M2077.44 490.41C2072.52 491.826 2069.16 494.482 2067.4 498.281C2063.71 506.315 2067.68 519.291 2078.24 533.888C2089.25 549.057 2106.09 564.458 2125.64 577.271C2150.04 593.243 2175.38 602.666 2192.64 602.666C2196.12 602.666 2199.28 602.271 2202.02 601.481C2206.95 600.065 2210.31 597.424 2212.07 593.625C2215.74 585.591 2211.8 572.6 2201.22 558.017C2190.23 542.848 2173.38 527.448 2153.82 514.634C2129.43 498.662 2104.09 489.239 2086.84 489.239C2083.34 489.239 2080.18 489.621 2077.44 490.41V490.41ZM2123.74 580.199C2103.83 567.154 2086.66 551.44 2075.42 535.931C2063.92 520.067 2059.94 506.178 2064.23 496.824C2066.42 492.058 2070.54 488.776 2076.47 487.061C2094.04 482.009 2125.14 491.677 2155.74 511.707C2175.63 524.751 2192.8 540.465 2204.03 555.975C2215.54 571.838 2219.52 585.727 2215.24 595.082C2213.05 599.847 2208.92 603.129 2203 604.845C2199.91 605.73 2196.38 606.166 2192.51 606.166C2174.49 606.166 2148.93 596.688 2123.74 580.199Z" fill="#FFA412"/>
<path d="M2162.43 559.09C2163.51 559.278 2164.42 559.238 2165.17 558.996C2165.92 558.741 2166.46 558.27 2166.84 557.572C2167.21 556.873 2167.33 555.933 2167.21 554.751C2167.12 553.716 2166.82 552.628 2166.31 551.446C2165.83 550.277 2165.04 549.081 2163.96 547.872C2162.89 546.65 2161.5 545.44 2159.8 544.245C2158.09 543.049 2156 541.907 2153.52 540.819L2152.45 529.896C2156.65 531.737 2160.29 533.779 2163.38 536.009C2166.49 538.239 2169.09 540.537 2171.22 542.915C2173.34 545.293 2175.02 547.684 2176.25 550.102C2177.49 552.507 2178.36 554.831 2178.89 557.061L2189.27 561.629L2189.85 567.635L2179.43 563.04C2179.32 565.176 2178.82 566.922 2177.92 568.306C2177.01 569.677 2175.73 570.63 2174.08 571.154C2172.43 571.678 2170.4 571.759 2168.02 571.41C2165.65 571.047 2162.91 570.187 2159.84 568.844C2156.45 567.352 2153.48 565.66 2150.92 563.779C2148.35 561.898 2146.07 559.829 2144.07 557.572C2142.05 555.315 2140.24 552.87 2138.61 550.237C2136.99 547.603 2135.36 544.769 2133.76 541.719C2132.77 539.838 2131.84 538.226 2130.95 536.856C2130.08 535.485 2129.15 534.303 2128.2 533.296C2127.24 532.288 2126.24 531.428 2125.16 530.716C2124.09 530.004 2122.91 529.359 2121.62 528.795C2120.31 528.217 2119.13 527.814 2118.03 527.586C2116.93 527.344 2116 527.304 2115.23 527.465C2114.47 527.64 2113.88 528.029 2113.49 528.647C2113.08 529.252 2112.95 530.125 2113.06 531.253C2113.26 533.349 2114.47 535.472 2116.66 537.635C2118.86 539.798 2122.06 541.8 2126.26 543.64L2127.31 554.549C2123.82 553.018 2120.64 551.298 2117.76 549.39C2114.87 547.496 2112.35 545.467 2110.17 543.331C2107.98 541.182 2106.15 538.951 2104.69 536.614C2103.22 534.29 2102.19 531.952 2101.56 529.601L2090.17 524.603L2089.59 518.558L2100.81 523.488C2100.9 521.366 2101.44 519.632 2102.39 518.302C2103.36 516.972 2104.67 516.059 2106.37 515.548C2108.06 515.038 2110.09 514.971 2112.48 515.333C2114.84 515.71 2117.53 516.542 2120.5 517.859C2123.93 519.364 2126.92 521.056 2129.48 522.937C2132.04 524.818 2134.31 526.887 2136.3 529.131C2138.3 531.388 2140.1 533.833 2141.71 536.466C2143.33 539.099 2144.9 541.934 2146.44 544.97C2147.3 546.73 2148.18 548.275 2149.04 549.605C2149.91 550.949 2150.82 552.131 2151.8 553.152C2152.77 554.186 2153.82 555.086 2154.97 555.852C2156.12 556.618 2157.42 557.33 2158.88 557.975C2160.19 558.539 2161.37 558.915 2162.43 559.09" fill="#FFA412"/>
<path d="M3972.15 2418.04H286.897C284.006 2418.04 281.644 2415.67 281.644 2412.79V2407.85C281.644 2404.96 284.006 2402.6 286.897 2402.6H3972.15C3975.03 2402.6 3977.4 2404.96 3977.4 2407.85V2412.79C3977.4 2415.67 3975.03 2418.04 3972.15 2418.04" fill="#95C0E8"/>
<path d="M207.719 105.875L237.309 41.8125H269.34L222.66 132.438V184H192.875V132.438L146.195 41.8125H178.324L207.719 105.875ZM269.633 130.191C269.633 119.71 271.651 110.367 275.688 102.164C279.724 93.9609 285.518 87.6133 293.07 83.1211C300.688 78.6289 309.509 76.3828 319.535 76.3828C333.793 76.3828 345.414 80.7448 354.398 89.4688C363.448 98.1927 368.493 110.042 369.535 125.016L369.73 132.242C369.73 148.453 365.206 161.474 356.156 171.305C347.107 181.07 334.965 185.953 319.73 185.953C304.496 185.953 292.322 181.07 283.207 171.305C274.158 161.539 269.633 148.258 269.633 131.461V130.191ZM297.855 132.242C297.855 142.268 299.743 149.951 303.52 155.289C307.296 160.562 312.699 163.199 319.73 163.199C326.566 163.199 331.905 160.595 335.746 155.387C339.587 150.113 341.508 141.715 341.508 130.191C341.508 120.361 339.587 112.743 335.746 107.34C331.905 101.936 326.501 99.2344 319.535 99.2344C312.634 99.2344 307.296 101.936 303.52 107.34C299.743 112.678 297.855 120.979 297.855 132.242ZM450.395 173.258C443.428 181.721 433.793 185.953 421.488 185.953C410.16 185.953 401.501 182.698 395.512 176.188C389.587 169.677 386.56 160.139 386.43 147.574V78.3359H414.652V146.598C414.652 157.6 419.665 163.102 429.691 163.102C439.262 163.102 445.837 159.781 449.418 153.141V78.3359H477.738V184H451.176L450.395 173.258ZM558.402 104.801C554.561 104.28 551.176 104.02 548.246 104.02C537.569 104.02 530.57 107.633 527.25 114.859V184H499.027V78.3359H525.688L526.469 90.9336C532.133 81.2331 539.978 76.3828 550.004 76.3828C553.129 76.3828 556.059 76.806 558.793 77.6523L558.402 104.801ZM628.715 184V99.0391H612.992V78.3359H628.715V73.4531C628.845 60.1719 632.914 49.9505 640.922 42.7891C648.995 35.5625 660.355 31.9492 675.004 31.9492C683.793 31.9492 694.47 33.8698 707.035 37.7109L702.934 61.0508C696.553 59.1628 691.605 57.9583 688.09 57.4375C684.574 56.8516 680.798 56.5586 676.762 56.5586C663.611 56.5586 657.035 62.3854 657.035 74.0391V78.3359H677.836V99.0391H657.035V184H628.715ZM720.219 184H691.898V78.3359H720.219V184ZM769.535 78.3359L770.414 90.543C777.966 81.1029 788.09 76.3828 800.785 76.3828C811.983 76.3828 820.316 79.6706 825.785 86.2461C831.254 92.8216 834.053 102.652 834.184 115.738V184H805.961V116.422C805.961 110.432 804.659 106.103 802.055 103.434C799.451 100.699 795.121 99.332 789.066 99.332C781.124 99.332 775.167 102.717 771.195 109.488V184H742.973V78.3359H769.535ZM916.898 184C915.596 181.461 914.652 178.303 914.066 174.527C907.23 182.145 898.344 185.953 887.406 185.953C877.055 185.953 868.461 182.958 861.625 176.969C854.854 170.979 851.469 163.427 851.469 154.312C851.469 143.115 855.603 134.521 863.871 128.531C872.204 122.542 884.216 119.514 899.906 119.449H912.895V113.395C912.895 108.512 911.625 104.605 909.086 101.676C906.612 98.7461 902.673 97.2812 897.27 97.2812C892.517 97.2812 888.773 98.4206 886.039 100.699C883.37 102.978 882.035 106.103 882.035 110.074H853.812C853.812 103.954 855.701 98.2904 859.477 93.082C863.253 87.8737 868.591 83.8047 875.492 80.875C882.393 77.8802 890.141 76.3828 898.734 76.3828C911.755 76.3828 922.074 79.6706 929.691 86.2461C937.374 92.7565 941.215 101.936 941.215 113.785V159.586C941.28 169.612 942.68 177.197 945.414 182.34V184H916.898ZM893.559 164.371C897.725 164.371 901.566 163.46 905.082 161.637C908.598 159.749 911.202 157.242 912.895 154.117V135.953H902.348C888.22 135.953 880.701 140.836 879.789 150.602L879.691 152.262C879.691 155.777 880.928 158.674 883.402 160.953C885.876 163.232 889.262 164.371 893.559 164.371ZM988.871 78.3359L989.75 90.543C997.302 81.1029 1007.43 76.3828 1020.12 76.3828C1031.32 76.3828 1039.65 79.6706 1045.12 86.2461C1050.59 92.8216 1053.39 102.652 1053.52 115.738V184H1025.3V116.422C1025.3 110.432 1023.99 106.103 1021.39 103.434C1018.79 100.699 1014.46 99.332 1008.4 99.332C1000.46 99.332 994.503 102.717 990.531 109.488V184H962.309V78.3359H988.871ZM1118.95 163.199C1124.16 163.199 1128.39 161.767 1131.64 158.902C1134.9 156.038 1136.59 152.229 1136.72 147.477H1163.19C1163.12 154.638 1161.17 161.214 1157.33 167.203C1153.49 173.128 1148.21 177.75 1141.51 181.07C1134.87 184.326 1127.51 185.953 1119.44 185.953C1104.33 185.953 1092.42 181.168 1083.7 171.598C1074.97 161.962 1070.61 148.681 1070.61 131.754V129.898C1070.61 113.622 1074.94 100.634 1083.6 90.9336C1092.26 81.2331 1104.14 76.3828 1119.24 76.3828C1132.46 76.3828 1143.04 80.1589 1150.98 87.7109C1158.99 95.1979 1163.06 105.191 1163.19 117.691H1136.72C1136.59 112.223 1134.9 107.796 1131.64 104.41C1128.39 100.96 1124.09 99.2344 1118.75 99.2344C1112.18 99.2344 1107.2 101.643 1103.81 106.461C1100.49 111.214 1098.83 118.961 1098.83 129.703V132.633C1098.83 143.505 1100.49 151.318 1103.81 156.07C1107.13 160.823 1112.18 163.199 1118.95 163.199ZM1209.09 184H1180.77V78.3359H1209.09V184ZM1179.11 50.9922C1179.11 46.7604 1180.51 43.2773 1183.3 40.543C1186.17 37.8086 1190.04 36.4414 1194.93 36.4414C1199.74 36.4414 1203.58 37.8086 1206.45 40.543C1209.31 43.2773 1210.75 46.7604 1210.75 50.9922C1210.75 55.2891 1209.28 58.8047 1206.35 61.5391C1203.49 64.2734 1199.68 65.6406 1194.93 65.6406C1190.17 65.6406 1186.33 64.2734 1183.4 61.5391C1180.54 58.8047 1179.11 55.2891 1179.11 50.9922ZM1293.66 184C1292.35 181.461 1291.41 178.303 1290.82 174.527C1283.99 182.145 1275.1 185.953 1264.16 185.953C1253.81 185.953 1245.22 182.958 1238.38 176.969C1231.61 170.979 1228.23 163.427 1228.23 154.312C1228.23 143.115 1232.36 134.521 1240.63 128.531C1248.96 122.542 1260.97 119.514 1276.66 119.449H1289.65V113.395C1289.65 108.512 1288.38 104.605 1285.84 101.676C1283.37 98.7461 1279.43 97.2812 1274.03 97.2812C1269.27 97.2812 1265.53 98.4206 1262.8 100.699C1260.13 102.978 1258.79 106.103 1258.79 110.074H1230.57C1230.57 103.954 1232.46 98.2904 1236.23 93.082C1240.01 87.8737 1245.35 83.8047 1252.25 80.875C1259.15 77.8802 1266.9 76.3828 1275.49 76.3828C1288.51 76.3828 1298.83 79.6706 1306.45 86.2461C1314.13 92.7565 1317.97 101.936 1317.97 113.785V159.586C1318.04 169.612 1319.44 177.197 1322.17 182.34V184H1293.66ZM1270.32 164.371C1274.48 164.371 1278.32 163.46 1281.84 161.637C1285.36 159.749 1287.96 157.242 1289.65 154.117V135.953H1279.11C1264.98 135.953 1257.46 140.836 1256.55 150.602L1256.45 152.262C1256.45 155.777 1257.69 158.674 1260.16 160.953C1262.63 163.232 1266.02 164.371 1270.32 164.371ZM1369.44 184H1341.12V34H1369.44V184ZM1501.96 104.801C1498.12 104.28 1494.73 104.02 1491.8 104.02C1481.12 104.02 1474.12 107.633 1470.8 114.859V184H1442.58V78.3359H1469.24L1470.02 90.9336C1475.69 81.2331 1483.53 76.3828 1493.56 76.3828C1496.68 76.3828 1499.61 76.806 1502.35 77.6523L1501.96 104.801ZM1562.31 185.953C1546.81 185.953 1534.18 181.201 1524.42 171.695C1514.72 162.19 1509.87 149.527 1509.87 133.707V130.973C1509.87 120.361 1511.92 110.888 1516.02 102.555C1520.12 94.1562 1525.92 87.7109 1533.4 83.2188C1540.95 78.6615 1549.55 76.3828 1559.18 76.3828C1573.64 76.3828 1585 80.9401 1593.27 90.0547C1601.6 99.1693 1605.77 112.092 1605.77 128.824V140.348H1538.48C1539.39 147.249 1542.13 152.783 1546.68 156.949C1551.31 161.116 1557.13 163.199 1564.16 163.199C1575.04 163.199 1583.53 159.26 1589.65 151.383L1603.52 166.91C1599.29 172.9 1593.56 177.587 1586.33 180.973C1579.11 184.293 1571.1 185.953 1562.31 185.953ZM1559.09 99.2344C1553.49 99.2344 1548.93 101.122 1545.41 104.898C1541.96 108.674 1539.75 114.078 1538.77 121.109H1578.03V118.863C1577.9 112.613 1576.21 107.796 1572.95 104.41C1569.7 100.96 1565.08 99.2344 1559.09 99.2344ZM1679.11 154.801C1679.11 151.35 1677.38 148.648 1673.93 146.695C1670.54 144.677 1665.08 142.887 1657.52 141.324C1632.39 136.051 1619.83 125.374 1619.83 109.293C1619.83 99.918 1623.7 92.1055 1631.45 85.8555C1639.26 79.5404 1649.45 76.3828 1662.02 76.3828C1675.43 76.3828 1686.14 79.5404 1694.14 85.8555C1702.22 92.1706 1706.25 100.374 1706.25 110.465H1678.03C1678.03 106.428 1676.73 103.108 1674.12 100.504C1671.52 97.8346 1667.45 96.5 1661.92 96.5C1657.17 96.5 1653.49 97.5742 1650.88 99.7227C1648.28 101.871 1646.98 104.605 1646.98 107.926C1646.98 111.051 1648.44 113.59 1651.37 115.543C1654.37 117.431 1659.38 119.091 1666.41 120.523C1673.44 121.891 1679.37 123.453 1684.18 125.211C1699.09 130.68 1706.55 140.152 1706.55 153.629C1706.55 163.264 1702.41 171.077 1694.14 177.066C1685.88 182.991 1675.2 185.953 1662.11 185.953C1653.26 185.953 1645.38 184.391 1638.48 181.266C1631.64 178.076 1626.27 173.746 1622.37 168.277C1618.46 162.743 1616.51 156.786 1616.51 150.406H1643.27C1643.53 155.419 1645.38 159.26 1648.83 161.93C1652.28 164.599 1656.9 165.934 1662.7 165.934C1668.1 165.934 1672.17 164.924 1674.91 162.906C1677.71 160.823 1679.11 158.121 1679.11 154.801ZM1819.93 132.145C1819.93 148.421 1816.21 161.474 1808.79 171.305C1801.44 181.07 1791.48 185.953 1778.91 185.953C1768.23 185.953 1759.61 182.242 1753.03 174.82V224.625H1724.81V78.3359H1750.98L1751.96 88.6875C1758.79 80.4844 1767.71 76.3828 1778.71 76.3828C1791.74 76.3828 1801.86 81.2005 1809.09 90.8359C1816.31 100.471 1819.93 113.753 1819.93 130.68V132.145ZM1791.7 130.094C1791.7 120.263 1789.95 112.678 1786.43 107.34C1782.98 102.001 1777.93 99.332 1771.29 99.332C1762.44 99.332 1756.35 102.717 1753.03 109.488V152.75C1756.48 159.716 1762.63 163.199 1771.49 163.199C1784.96 163.199 1791.7 152.164 1791.7 130.094ZM1833.11 130.191C1833.11 119.71 1835.13 110.367 1839.16 102.164C1843.2 93.9609 1848.99 87.6133 1856.55 83.1211C1864.16 78.6289 1872.99 76.3828 1883.01 76.3828C1897.27 76.3828 1908.89 80.7448 1917.88 89.4688C1926.92 98.1927 1931.97 110.042 1933.01 125.016L1933.21 132.242C1933.21 148.453 1928.68 161.474 1919.63 171.305C1910.58 181.07 1898.44 185.953 1883.21 185.953C1867.97 185.953 1855.8 181.07 1846.68 171.305C1837.63 161.539 1833.11 148.258 1833.11 131.461V130.191ZM1861.33 132.242C1861.33 142.268 1863.22 149.951 1867 155.289C1870.77 160.562 1876.18 163.199 1883.21 163.199C1890.04 163.199 1895.38 160.595 1899.22 155.387C1903.06 150.113 1904.98 141.715 1904.98 130.191C1904.98 120.361 1903.06 112.743 1899.22 107.34C1895.38 101.936 1889.98 99.2344 1883.01 99.2344C1876.11 99.2344 1870.77 101.936 1867 107.34C1863.22 112.678 1861.33 120.979 1861.33 132.242ZM1976.57 78.3359L1977.45 90.543C1985 81.1029 1995.12 76.3828 2007.82 76.3828C2019.01 76.3828 2027.35 79.6706 2032.82 86.2461C2038.29 92.8216 2041.08 102.652 2041.21 115.738V184H2012.99V116.422C2012.99 110.432 2011.69 106.103 2009.09 103.434C2006.48 100.699 2002.15 99.332 1996.1 99.332C1988.15 99.332 1982.2 102.717 1978.23 109.488V184H1950V78.3359H1976.57ZM2119.93 154.801C2119.93 151.35 2118.2 148.648 2114.75 146.695C2111.36 144.677 2105.9 142.887 2098.34 141.324C2073.21 136.051 2060.65 125.374 2060.65 109.293C2060.65 99.918 2064.52 92.1055 2072.27 85.8555C2080.08 79.5404 2090.27 76.3828 2102.84 76.3828C2116.25 76.3828 2126.96 79.5404 2134.96 85.8555C2143.04 92.1706 2147.07 100.374 2147.07 110.465H2118.85C2118.85 106.428 2117.55 103.108 2114.95 100.504C2112.34 97.8346 2108.27 96.5 2102.74 96.5C2097.99 96.5 2094.31 97.5742 2091.7 99.7227C2089.1 101.871 2087.8 104.605 2087.8 107.926C2087.8 111.051 2089.26 113.59 2092.19 115.543C2095.19 117.431 2100.2 119.091 2107.23 120.523C2114.26 121.891 2120.19 123.453 2125 125.211C2139.91 130.68 2147.37 140.152 2147.37 153.629C2147.37 163.264 2143.23 171.077 2134.96 177.066C2126.7 182.991 2116.02 185.953 2102.93 185.953C2094.08 185.953 2086.2 184.391 2079.3 181.266C2072.46 178.076 2067.09 173.746 2063.19 168.277C2059.28 162.743 2057.33 156.786 2057.33 150.406H2084.09C2084.35 155.419 2086.2 159.26 2089.65 161.93C2093.1 164.599 2097.73 165.934 2103.52 165.934C2108.92 165.934 2112.99 164.924 2115.73 162.906C2118.53 160.823 2119.93 158.121 2119.93 154.801ZM2195.41 184H2167.09V78.3359H2195.41V184ZM2165.43 50.9922C2165.43 46.7604 2166.83 43.2773 2169.63 40.543C2172.5 37.8086 2176.37 36.4414 2181.25 36.4414C2186.07 36.4414 2189.91 37.8086 2192.78 40.543C2195.64 43.2773 2197.07 46.7604 2197.07 50.9922C2197.07 55.2891 2195.61 58.8047 2192.68 61.5391C2189.82 64.2734 2186.01 65.6406 2181.25 65.6406C2176.5 65.6406 2172.66 64.2734 2169.73 61.5391C2166.87 58.8047 2165.43 55.2891 2165.43 50.9922ZM2313.97 132.145C2313.97 149.072 2310.36 162.288 2303.13 171.793C2295.9 181.233 2285.81 185.953 2272.86 185.953C2261.4 185.953 2252.25 181.559 2245.41 172.77L2244.14 184H2218.75V34H2246.98V87.8086C2253.49 80.1914 2262.05 76.3828 2272.66 76.3828C2285.55 76.3828 2295.64 81.1354 2302.93 90.6406C2310.29 100.081 2313.97 113.395 2313.97 130.582V132.145ZM2285.75 130.094C2285.75 119.417 2284.05 111.637 2280.67 106.754C2277.28 101.806 2272.24 99.332 2265.53 99.332C2256.55 99.332 2250.36 103.01 2246.98 110.367V152.066C2250.43 159.488 2256.68 163.199 2265.73 163.199C2274.84 163.199 2280.83 158.707 2283.7 149.723C2285.06 145.426 2285.75 138.883 2285.75 130.094ZM2361.23 184H2332.91V78.3359H2361.23V184ZM2331.25 50.9922C2331.25 46.7604 2332.65 43.2773 2335.45 40.543C2338.32 37.8086 2342.19 36.4414 2347.07 36.4414C2351.89 36.4414 2355.73 37.8086 2358.6 40.543C2361.46 43.2773 2362.89 46.7604 2362.89 50.9922C2362.89 55.2891 2361.43 58.8047 2358.5 61.5391C2355.64 64.2734 2351.83 65.6406 2347.07 65.6406C2342.32 65.6406 2338.48 64.2734 2335.55 61.5391C2332.69 58.8047 2331.25 55.2891 2331.25 50.9922ZM2414.36 184H2386.04V34H2414.36V184ZM2467.48 184H2439.16V78.3359H2467.48V184ZM2437.5 50.9922C2437.5 46.7604 2438.9 43.2773 2441.7 40.543C2444.57 37.8086 2448.44 36.4414 2453.32 36.4414C2458.14 36.4414 2461.98 37.8086 2464.85 40.543C2467.71 43.2773 2469.14 46.7604 2469.14 50.9922C2469.14 55.2891 2467.68 58.8047 2464.75 61.5391C2461.89 64.2734 2458.08 65.6406 2453.32 65.6406C2448.57 65.6406 2444.73 64.2734 2441.8 61.5391C2438.94 58.8047 2437.5 55.2891 2437.5 50.9922ZM2524.61 52.3594V78.3359H2542.68V99.0391H2524.61V151.773C2524.61 155.68 2525.36 158.479 2526.86 160.172C2528.36 161.865 2531.22 162.711 2535.45 162.711C2538.58 162.711 2541.35 162.483 2543.75 162.027V183.414C2538.22 185.107 2532.52 185.953 2526.66 185.953C2506.87 185.953 2496.78 175.96 2496.39 155.973V99.0391H2480.96V78.3359H2496.39V52.3594H2524.61ZM2597.86 144.059L2617.39 78.3359H2647.66L2605.18 200.406L2602.84 205.973C2596.52 219.775 2586.1 226.676 2571.59 226.676C2567.48 226.676 2563.32 226.057 2559.09 224.82V203.434L2563.38 203.531C2568.72 203.531 2572.69 202.717 2575.3 201.09C2577.97 199.462 2580.05 196.76 2581.55 192.984L2584.87 184.293L2547.86 78.3359H2578.23L2597.86 144.059ZM252.055 366.145C252.055 383.072 248.441 396.288 241.215 405.793C233.988 415.233 223.897 419.953 210.941 419.953C199.483 419.953 190.336 415.559 183.5 406.77L182.23 418H156.84V268H185.062V321.809C191.573 314.191 200.134 310.383 210.746 310.383C223.637 310.383 233.728 315.135 241.02 324.641C248.376 334.081 252.055 347.395 252.055 364.582V366.145ZM223.832 364.094C223.832 353.417 222.139 345.637 218.754 340.754C215.368 335.806 210.323 333.332 203.617 333.332C194.633 333.332 188.448 337.01 185.062 344.367V386.066C188.513 393.488 194.763 397.199 203.812 397.199C212.927 397.199 218.917 392.707 221.781 383.723C223.148 379.426 223.832 372.883 223.832 364.094ZM318.168 419.953C302.673 419.953 290.043 415.201 280.277 405.695C270.577 396.19 265.727 383.527 265.727 367.707V364.973C265.727 354.361 267.777 344.888 271.879 336.555C275.98 328.156 281.775 321.711 289.262 317.219C296.814 312.661 305.408 310.383 315.043 310.383C329.496 310.383 340.857 314.94 349.125 324.055C357.458 333.169 361.625 346.092 361.625 362.824V374.348H294.34C295.251 381.249 297.986 386.783 302.543 390.949C307.165 395.116 312.992 397.199 320.023 397.199C330.896 397.199 339.392 393.26 345.512 385.383L359.379 400.91C355.147 406.9 349.418 411.587 342.191 414.973C334.965 418.293 326.957 419.953 318.168 419.953ZM314.945 333.234C309.346 333.234 304.789 335.122 301.273 338.898C297.823 342.674 295.609 348.078 294.633 355.109H333.891V352.863C333.76 346.613 332.068 341.796 328.812 338.41C325.557 334.96 320.935 333.234 314.945 333.234ZM373.637 364.387C373.637 348.176 377.478 335.122 385.16 325.227C392.908 315.331 403.324 310.383 416.41 310.383C427.999 310.383 437.016 314.354 443.461 322.297L444.633 312.336H470.219V414.484C470.219 423.729 468.103 431.77 463.871 438.605C459.704 445.441 453.812 450.65 446.195 454.23C438.578 457.811 429.659 459.602 419.438 459.602C411.69 459.602 404.138 458.039 396.781 454.914C389.424 451.854 383.858 447.883 380.082 443L392.582 425.812C399.613 433.69 408.142 437.629 418.168 437.629C425.655 437.629 431.482 435.611 435.648 431.574C439.815 427.603 441.898 421.939 441.898 414.582V408.918C435.388 416.275 426.827 419.953 416.215 419.953C403.52 419.953 393.233 415.005 385.355 405.109C377.543 395.148 373.637 381.965 373.637 365.559V364.387ZM401.859 366.438C401.859 376.008 403.78 383.527 407.621 388.996C411.462 394.4 416.736 397.102 423.441 397.102C432.035 397.102 438.188 393.879 441.898 387.434V343C438.122 336.555 432.035 333.332 423.637 333.332C416.866 333.332 411.527 336.099 407.621 341.633C403.78 347.167 401.859 355.435 401.859 366.438ZM521.781 418H493.461V312.336H521.781V418ZM491.801 284.992C491.801 280.76 493.201 277.277 496 274.543C498.865 271.809 502.738 270.441 507.621 270.441C512.439 270.441 516.28 271.809 519.145 274.543C522.009 277.277 523.441 280.76 523.441 284.992C523.441 289.289 521.977 292.805 519.047 295.539C516.182 298.273 512.374 299.641 507.621 299.641C502.868 299.641 499.027 298.273 496.098 295.539C493.233 292.805 491.801 289.289 491.801 284.992ZM571.098 312.336L571.977 324.543C579.529 315.103 589.652 310.383 602.348 310.383C613.546 310.383 621.879 313.671 627.348 320.246C632.816 326.822 635.616 336.652 635.746 349.738V418H607.523V350.422C607.523 344.432 606.221 340.103 603.617 337.434C601.013 334.699 596.684 333.332 590.629 333.332C582.686 333.332 576.729 336.717 572.758 343.488V418H544.535V312.336H571.098ZM714.457 388.801C714.457 385.35 712.732 382.648 709.281 380.695C705.896 378.677 700.427 376.887 692.875 375.324C667.745 370.051 655.18 359.374 655.18 343.293C655.18 333.918 659.053 326.105 666.801 319.855C674.613 313.54 684.802 310.383 697.367 310.383C710.779 310.383 721.488 313.54 729.496 319.855C737.569 326.171 741.605 334.374 741.605 344.465H713.383C713.383 340.428 712.081 337.108 709.477 334.504C706.872 331.835 702.803 330.5 697.27 330.5C692.517 330.5 688.839 331.574 686.234 333.723C683.63 335.871 682.328 338.605 682.328 341.926C682.328 345.051 683.793 347.59 686.723 349.543C689.717 351.431 694.73 353.091 701.762 354.523C708.793 355.891 714.717 357.453 719.535 359.211C734.444 364.68 741.898 374.152 741.898 387.629C741.898 397.264 737.764 405.077 729.496 411.066C721.228 416.991 710.551 419.953 697.465 419.953C688.611 419.953 680.733 418.391 673.832 415.266C666.996 412.076 661.625 407.746 657.719 402.277C653.812 396.743 651.859 390.786 651.859 384.406H678.617C678.878 389.419 680.733 393.26 684.184 395.93C687.634 398.599 692.257 399.934 698.051 399.934C703.454 399.934 707.523 398.924 710.258 396.906C713.057 394.823 714.457 392.121 714.457 388.801ZM837.504 323.859C844.991 314.875 854.398 310.383 865.727 310.383C888.643 310.383 900.264 323.697 900.59 350.324V418H872.367V351.105C872.367 345.051 871.065 340.591 868.461 337.727C865.857 334.797 861.527 333.332 855.473 333.332C847.204 333.332 841.215 336.522 837.504 342.902V418H809.281V268H837.504V323.859ZM970.512 419.953C955.017 419.953 942.387 415.201 932.621 405.695C922.921 396.19 918.07 383.527 918.07 367.707V364.973C918.07 354.361 920.121 344.888 924.223 336.555C928.324 328.156 934.118 321.711 941.605 317.219C949.158 312.661 957.751 310.383 967.387 310.383C981.84 310.383 993.201 314.94 1001.47 324.055C1009.8 333.169 1013.97 346.092 1013.97 362.824V374.348H946.684C947.595 381.249 950.329 386.783 954.887 390.949C959.509 395.116 965.336 397.199 972.367 397.199C983.24 397.199 991.736 393.26 997.855 385.383L1011.72 400.91C1007.49 406.9 1001.76 411.587 994.535 414.973C987.309 418.293 979.301 419.953 970.512 419.953ZM967.289 333.234C961.69 333.234 957.133 335.122 953.617 338.898C950.167 342.674 947.953 348.078 946.977 355.109H986.234V352.863C986.104 346.613 984.411 341.796 981.156 338.41C977.901 334.96 973.279 333.234 967.289 333.234ZM1089.46 338.801C1085.62 338.28 1082.23 338.02 1079.3 338.02C1068.62 338.02 1061.62 341.633 1058.3 348.859V418H1030.08V312.336H1056.74L1057.52 324.934C1063.19 315.233 1071.03 310.383 1081.06 310.383C1084.18 310.383 1087.11 310.806 1089.85 311.652L1089.46 338.801ZM1149.81 419.953C1134.31 419.953 1121.68 415.201 1111.92 405.695C1102.22 396.19 1097.37 383.527 1097.37 367.707V364.973C1097.37 354.361 1099.42 344.888 1103.52 336.555C1107.62 328.156 1113.42 321.711 1120.9 317.219C1128.45 312.661 1137.05 310.383 1146.68 310.383C1161.14 310.383 1172.5 314.94 1180.77 324.055C1189.1 333.169 1193.27 346.092 1193.27 362.824V374.348H1125.98C1126.89 381.249 1129.63 386.783 1134.18 390.949C1138.81 395.116 1144.63 397.199 1151.66 397.199C1162.54 397.199 1171.03 393.26 1177.15 385.383L1191.02 400.91C1186.79 406.9 1181.06 411.587 1173.83 414.973C1166.61 418.293 1158.6 419.953 1149.81 419.953ZM1146.59 333.234C1140.99 333.234 1136.43 335.122 1132.91 338.898C1129.46 342.674 1127.25 348.078 1126.27 355.109H1165.53V352.863C1165.4 346.613 1163.71 341.796 1160.45 338.41C1157.2 334.96 1152.58 333.234 1146.59 333.234ZM1210.84 404.133C1210.84 399.641 1212.34 395.995 1215.34 393.195C1218.4 390.396 1222.2 388.996 1226.76 388.996C1231.38 388.996 1235.19 390.396 1238.19 393.195C1241.25 395.995 1242.78 399.641 1242.78 404.133C1242.78 408.56 1241.28 412.173 1238.29 414.973C1235.29 417.707 1231.45 419.074 1226.76 419.074C1222.14 419.074 1218.33 417.707 1215.34 414.973C1212.34 412.173 1210.84 408.56 1210.84 404.133Z" fill="#F3F3F3"/>
</svg>
